%FSLAX34Y34*%
%MOMM*%
%LNSOLDERMASK_TOP*%
G71*
G01*
%ADD10C, 2.100*%
%ADD11C, 5.100*%
%ADD12C, 6.100*%
%ADD13C, 2.600*%
%ADD14C, 3.600*%
%ADD15C, 2.120*%
%ADD16C, 2.000*%
%ADD17C, 2.240*%
%ADD18C, 2.300*%
%ADD19C, 2.600*%
%ADD20C, 2.600*%
%ADD21C, 2.100*%
%ADD22R, 2.700X11.300*%
%ADD23R, 2.500X11.300*%
%ADD24R, 2.700X11.700*%
%ADD25R, 2.500X11.700*%
%ADD26C, 2.400*%
%ADD27C, 3.400*%
%ADD28C, 3.100*%
%LPD*%
X159550Y258050D02*
G54D10*
D03*
X172550Y282850D02*
G54D10*
D03*
X197050Y296550D02*
G54D10*
D03*
X184942Y321710D02*
G54D10*
D03*
X221850Y321450D02*
G54D10*
D03*
X121750Y384250D02*
G54D10*
D03*
X145950Y384950D02*
G54D10*
D03*
X171450Y384150D02*
G54D10*
D03*
X197550Y384950D02*
G54D10*
D03*
X172150Y434850D02*
G54D10*
D03*
X146150Y435750D02*
G54D10*
D03*
X426050Y360250D02*
G54D10*
D03*
X273550Y359550D02*
G54D10*
D03*
X223250Y257850D02*
G54D10*
D03*
X247650Y258450D02*
G54D10*
D03*
X426350Y258450D02*
G54D10*
D03*
X578750Y258450D02*
G54D10*
D03*
X171250Y638250D02*
G54D10*
D03*
X210650Y612850D02*
G54D10*
D03*
X56950Y701450D02*
G54D10*
D03*
X55850Y728650D02*
G54D10*
D03*
X184650Y702050D02*
G54D10*
D03*
X223350Y688950D02*
G54D10*
D03*
X300050Y701550D02*
G54D10*
D03*
X325620Y688759D02*
G54D10*
D03*
X363650Y676750D02*
G54D10*
D03*
X351050Y714550D02*
G54D10*
D03*
X491050Y632150D02*
G54D10*
D03*
X452450Y702250D02*
G54D10*
D03*
X509750Y676650D02*
G54D10*
D03*
X274350Y752450D02*
G54D10*
D03*
X427450Y753250D02*
G54D10*
D03*
X477650Y499050D02*
G54D10*
D03*
X547522Y384272D02*
G54D10*
D03*
X573250Y360250D02*
G54D10*
D03*
X731550Y358450D02*
G54D10*
D03*
X725550Y257550D02*
G54D10*
D03*
X884550Y257750D02*
G54D10*
D03*
X885350Y358950D02*
G54D10*
D03*
X783250Y397950D02*
G54D10*
D03*
X808150Y409850D02*
G54D10*
D03*
X1087650Y359550D02*
G54D10*
D03*
X1062050Y257150D02*
G54D10*
D03*
X1265650Y257750D02*
G54D10*
D03*
X1290350Y358550D02*
G54D10*
D03*
X1202550Y371450D02*
G54D10*
D03*
X1213650Y409450D02*
G54D10*
D03*
X1214250Y459950D02*
G54D10*
D03*
X1444150Y256950D02*
G54D10*
D03*
X1608750Y256250D02*
G54D10*
D03*
X1557550Y358750D02*
G54D10*
D03*
X1468750Y359050D02*
G54D10*
D03*
X1673287Y338112D02*
G54D10*
D03*
X1634550Y358150D02*
G54D10*
D03*
X1379550Y396450D02*
G54D10*
D03*
X1342450Y410050D02*
G54D10*
D03*
X1353950Y435150D02*
G54D10*
D03*
X1379850Y434950D02*
G54D10*
D03*
X1392650Y459850D02*
G54D10*
D03*
X1354850Y460850D02*
G54D10*
D03*
X1354638Y485214D02*
G54D10*
D03*
X1532350Y434150D02*
G54D10*
D03*
X1544850Y460350D02*
G54D10*
D03*
X1523850Y485550D02*
G54D10*
D03*
X1742950Y256050D02*
G54D10*
D03*
X1709750Y447250D02*
G54D10*
D03*
X1685450Y447950D02*
G54D10*
D03*
X1698150Y485250D02*
G54D10*
D03*
X1723050Y485550D02*
G54D10*
D03*
X1723498Y522929D02*
G54D10*
D03*
X1850950Y358650D02*
G54D10*
D03*
X1850050Y384550D02*
G54D10*
D03*
X1710850Y408850D02*
G54D10*
D03*
X1959350Y256250D02*
G54D10*
D03*
X2060450Y256050D02*
G54D10*
D03*
X617050Y676450D02*
G54D10*
D03*
X725631Y751456D02*
G54D10*
D03*
X630450Y790250D02*
G54D10*
D03*
X337850Y828450D02*
G54D10*
D03*
X332150Y892250D02*
G54D10*
D03*
X988350Y865550D02*
G54D10*
D03*
X1151640Y853758D02*
G54D10*
D03*
X1208446Y878815D02*
G54D10*
D03*
X1125750Y714250D02*
G54D10*
D03*
X1150650Y689350D02*
G54D10*
D03*
X1113750Y638150D02*
G54D10*
D03*
X1182782Y637213D02*
G54D10*
D03*
X1202045Y574350D02*
G54D10*
D03*
X1201309Y548950D02*
G54D10*
D03*
X1113050Y613050D02*
G54D10*
D03*
X1018050Y631550D02*
G54D10*
D03*
X1018350Y606650D02*
G54D10*
D03*
X801950Y561850D02*
G54D10*
D03*
X802250Y511850D02*
G54D10*
D03*
X640850Y575450D02*
G54D10*
D03*
X1080850Y751250D02*
G54D10*
D03*
X877350Y752150D02*
G54D10*
D03*
X1284150Y750450D02*
G54D10*
D03*
X1380450Y827650D02*
G54D10*
D03*
X1387750Y802250D02*
G54D10*
D03*
X1329726Y726527D02*
G54D10*
D03*
X1469050Y752050D02*
G54D10*
D03*
X1354350Y688950D02*
G54D10*
D03*
X1536792Y878936D02*
G54D10*
D03*
X1547650Y854050D02*
G54D10*
D03*
X1547850Y827950D02*
G54D10*
D03*
X1523950Y840950D02*
G54D10*
D03*
X1628662Y751867D02*
G54D10*
D03*
X1698150Y802850D02*
G54D10*
D03*
X1733350Y827350D02*
G54D10*
D03*
X1707550Y841350D02*
G54D10*
D03*
X1732850Y879050D02*
G54D10*
D03*
X1672350Y725850D02*
G54D10*
D03*
X1684950Y701450D02*
G54D10*
D03*
X1672150Y675350D02*
G54D10*
D03*
X1646850Y674650D02*
G54D10*
D03*
X1583550Y675250D02*
G54D10*
D03*
X1559050Y675050D02*
G54D10*
D03*
X1379650Y511250D02*
G54D10*
D03*
X1341850Y574350D02*
G54D10*
D03*
X1354650Y637750D02*
G54D10*
D03*
X1367550Y611850D02*
G54D10*
D03*
X1398650Y612150D02*
G54D10*
D03*
X1494650Y644050D02*
G54D10*
D03*
X1494750Y611550D02*
G54D10*
D03*
X1519450Y612250D02*
G54D10*
D03*
X1558150Y624250D02*
G54D10*
D03*
X1736750Y676450D02*
G54D10*
D03*
X1698750Y612150D02*
G54D10*
D03*
X1722850Y625150D02*
G54D10*
D03*
X1812550Y345850D02*
G54D10*
D03*
X1766750Y459750D02*
G54D10*
D03*
X1711250Y549450D02*
G54D10*
D03*
X1685350Y422150D02*
G54D10*
D03*
X1825450Y599221D02*
G54D10*
D03*
X1882250Y612050D02*
G54D10*
D03*
X1913150Y643650D02*
G54D10*
D03*
X1921450Y688350D02*
G54D10*
D03*
X1812550Y827150D02*
G54D10*
D03*
X1812650Y802050D02*
G54D10*
D03*
X1832550Y764750D02*
G54D10*
D03*
X1946350Y877950D02*
G54D10*
D03*
X2040950Y739050D02*
G54D10*
D03*
X1993050Y738650D02*
G54D10*
D03*
X1978050Y712650D02*
G54D10*
D03*
X1945650Y536350D02*
G54D10*
D03*
X1850744Y524038D02*
G54D10*
D03*
X1852156Y549025D02*
G54D10*
D03*
X1837650Y485450D02*
G54D10*
D03*
X1888550Y472550D02*
G54D10*
D03*
X2066850Y699250D02*
G54D10*
D03*
X2030350Y974250D02*
G54D10*
D03*
X2029550Y998750D02*
G54D10*
D03*
X2026150Y1037450D02*
G54D10*
D03*
X2048450Y1017950D02*
G54D10*
D03*
X2059950Y1056450D02*
G54D10*
D03*
X2067750Y1030650D02*
G54D10*
D03*
X2042850Y1107350D02*
G54D10*
D03*
X1953050Y903150D02*
G54D10*
D03*
X1959750Y955050D02*
G54D10*
D03*
X1959650Y1005950D02*
G54D10*
D03*
X1889383Y928912D02*
G54D10*
D03*
X1889750Y955150D02*
G54D10*
D03*
X1890550Y980350D02*
G54D10*
D03*
X1794350Y904850D02*
G54D10*
D03*
X1825773Y916622D02*
G54D10*
D03*
X1826250Y942150D02*
G54D10*
D03*
X1825550Y993150D02*
G54D10*
D03*
X1840150Y1044350D02*
G54D10*
D03*
X1838351Y1082036D02*
G54D10*
D03*
X1813650Y1044150D02*
G54D10*
D03*
X1813650Y1018950D02*
G54D10*
D03*
X1685750Y903850D02*
G54D10*
D03*
X1692450Y942750D02*
G54D10*
D03*
X1711950Y954750D02*
G54D10*
D03*
X1711350Y929950D02*
G54D10*
D03*
X1699004Y1018360D02*
G54D10*
D03*
X1724525Y1068813D02*
G54D10*
D03*
X1724250Y1108250D02*
G54D10*
D03*
X1667550Y1094750D02*
G54D10*
D03*
X1661337Y1055706D02*
G54D10*
D03*
X1609550Y1062750D02*
G54D10*
D03*
X1582550Y980450D02*
G54D10*
D03*
X1558550Y980850D02*
G54D10*
D03*
X1525750Y954850D02*
G54D10*
D03*
X1558450Y1005550D02*
G54D10*
D03*
X1508250Y1044550D02*
G54D10*
D03*
X1348350Y917550D02*
G54D10*
D03*
X1374360Y980157D02*
G54D10*
D03*
X1418350Y1031450D02*
G54D10*
D03*
X1393650Y1044150D02*
G54D10*
D03*
X1394250Y1069650D02*
G54D10*
D03*
X1443650Y1060850D02*
G54D10*
D03*
X1202902Y916816D02*
G54D10*
D03*
X1179350Y966850D02*
G54D10*
D03*
X1153650Y979350D02*
G54D10*
D03*
X1087950Y1107550D02*
G54D10*
D03*
X1285750Y1107950D02*
G54D10*
D03*
X1476450Y1107650D02*
G54D10*
D03*
X1508450Y1088050D02*
G54D10*
D03*
X1527071Y1100748D02*
G54D10*
D03*
X1628997Y1107615D02*
G54D10*
D03*
X1635050Y1146050D02*
G54D10*
D03*
X1610150Y1171150D02*
G54D10*
D03*
X1240750Y1184250D02*
G54D10*
D03*
X1266250Y1145350D02*
G54D10*
D03*
X1329550Y1184050D02*
G54D10*
D03*
X1377450Y1157350D02*
G54D10*
D03*
X1419650Y1177850D02*
G54D10*
D03*
X1114750Y1234550D02*
G54D10*
D03*
X1163850Y1247150D02*
G54D10*
D03*
X1190250Y1298350D02*
G54D10*
D03*
X1356150Y1273150D02*
G54D10*
D03*
X1380350Y1298550D02*
G54D10*
D03*
X1406450Y1310850D02*
G54D10*
D03*
X1431650Y1298450D02*
G54D10*
D03*
X1479150Y1337050D02*
G54D10*
D03*
X1636450Y1336850D02*
G54D10*
D03*
X1552950Y1273150D02*
G54D10*
D03*
X1527250Y1272550D02*
G54D10*
D03*
X1724484Y1298115D02*
G54D10*
D03*
X1737450Y1247850D02*
G54D10*
D03*
X1737750Y1222050D02*
G54D10*
D03*
X1456750Y1386450D02*
G54D10*
D03*
X1289150Y1336950D02*
G54D10*
D03*
X945293Y1030326D02*
G54D10*
D03*
X994850Y992650D02*
G54D10*
D03*
X973568Y1043743D02*
G54D10*
D03*
X796088Y1068443D02*
G54D10*
D03*
X758175Y1018032D02*
G54D10*
D03*
X681463Y1005631D02*
G54D10*
D03*
X859850Y1106950D02*
G54D10*
D03*
X858750Y1131750D02*
G54D10*
D03*
X700050Y1133350D02*
G54D10*
D03*
X1037588Y1132150D02*
G54D10*
D03*
X989857Y1158225D02*
G54D10*
D03*
X1030450Y1209050D02*
G54D10*
D03*
X1005550Y1221850D02*
G54D10*
D03*
X973950Y1248150D02*
G54D10*
D03*
X949150Y1285750D02*
G54D10*
D03*
X770350Y1246450D02*
G54D10*
D03*
X731850Y1182950D02*
G54D10*
D03*
X643192Y1157876D02*
G54D10*
D03*
X579350Y1133950D02*
G54D10*
D03*
X547850Y1152450D02*
G54D10*
D03*
X547750Y1203450D02*
G54D10*
D03*
X478405Y1107319D02*
G54D10*
D03*
X426750Y1184350D02*
G54D10*
D03*
X402297Y1157835D02*
G54D10*
D03*
X490750Y1069625D02*
G54D10*
D03*
X490137Y1043913D02*
G54D10*
D03*
X478274Y1018700D02*
G54D10*
D03*
X490150Y994150D02*
G54D10*
D03*
X350626Y1018425D02*
G54D10*
D03*
X211650Y1044050D02*
G54D10*
D03*
X166750Y1056450D02*
G54D10*
D03*
X172450Y1083450D02*
G54D10*
D03*
X185906Y1106888D02*
G54D10*
D03*
X197636Y1081623D02*
G54D10*
D03*
X224088Y1107013D02*
G54D10*
D03*
X326275Y1107107D02*
G54D10*
D03*
X351382Y1106688D02*
G54D10*
D03*
X59450Y1133450D02*
G54D10*
D03*
X59145Y1310493D02*
G54D10*
D03*
X192092Y1234735D02*
G54D10*
D03*
X170113Y1315544D02*
G54D10*
D03*
X163644Y1397955D02*
G54D10*
D03*
X111350Y1627750D02*
G54D10*
D03*
X326862Y1627338D02*
G54D10*
D03*
X269750Y1703250D02*
G54D10*
D03*
X225350Y1753750D02*
G54D10*
D03*
X295031Y1728538D02*
G54D10*
D03*
X312806Y1778219D02*
G54D10*
D03*
X314150Y1817150D02*
G54D10*
D03*
X364850Y1818650D02*
G54D10*
D03*
X384350Y1805350D02*
G54D10*
D03*
X401602Y1817176D02*
G54D10*
D03*
X275245Y1209382D02*
G54D10*
D03*
X300792Y1209335D02*
G54D10*
D03*
X509750Y1665458D02*
G54D10*
D03*
X529670Y1652261D02*
G54D10*
D03*
X504306Y1639938D02*
G54D10*
D03*
X547956Y1526745D02*
G54D10*
D03*
X541903Y1449527D02*
G54D10*
D03*
X541551Y1423974D02*
G54D10*
D03*
X569050Y1780150D02*
G54D10*
D03*
X580650Y1741850D02*
G54D10*
D03*
X560508Y1715997D02*
G54D10*
D03*
X649350Y1716650D02*
G54D10*
D03*
X579650Y1691850D02*
G54D10*
D03*
X681650Y1742050D02*
G54D10*
D03*
X784250Y1767750D02*
G54D10*
D03*
X760650Y1729250D02*
G54D10*
D03*
X681221Y1659198D02*
G54D10*
D03*
X759750Y1602050D02*
G54D10*
D03*
X713794Y1551445D02*
G54D10*
D03*
X656251Y1551307D02*
G54D10*
D03*
X668886Y1525397D02*
G54D10*
D03*
X657750Y1500950D02*
G54D10*
D03*
X656208Y1474934D02*
G54D10*
D03*
X668510Y1385902D02*
G54D10*
D03*
X835550Y1513550D02*
G54D10*
D03*
X834698Y1487640D02*
G54D10*
D03*
X1045150Y1806050D02*
G54D10*
D03*
X1160750Y1836150D02*
G54D10*
D03*
X1046350Y1766950D02*
G54D10*
D03*
X1001950Y1741950D02*
G54D10*
D03*
X1064750Y1722750D02*
G54D10*
D03*
X1266050Y1723450D02*
G54D10*
D03*
X1331250Y1768350D02*
G54D10*
D03*
X911650Y1551550D02*
G54D10*
D03*
X1012450Y1551550D02*
G54D10*
D03*
X1209662Y1678125D02*
G54D10*
D03*
X1165550Y1677450D02*
G54D10*
D03*
X1215362Y1653119D02*
G54D10*
D03*
X1171450Y1602350D02*
G54D10*
D03*
X1203348Y1513470D02*
G54D10*
D03*
X1355350Y1723550D02*
G54D10*
D03*
X1343050Y1691850D02*
G54D10*
D03*
X1497750Y1767550D02*
G54D10*
D03*
X1533150Y1691950D02*
G54D10*
D03*
X1494250Y1602550D02*
G54D10*
D03*
X1469550Y1589550D02*
G54D10*
D03*
X1425668Y1550614D02*
G54D10*
D03*
X1470450Y1552450D02*
G54D10*
D03*
X1432669Y1500219D02*
G54D10*
D03*
X1508632Y1513351D02*
G54D10*
D03*
X1495250Y1463350D02*
G54D10*
D03*
X1584650Y1463250D02*
G54D10*
D03*
X1570650Y1438150D02*
G54D10*
D03*
X1557850Y1413050D02*
G54D10*
D03*
X1534050Y1412550D02*
G54D10*
D03*
X1713050Y1399650D02*
G54D10*
D03*
X1696550Y1501350D02*
G54D10*
D03*
X1686750Y1539350D02*
G54D10*
D03*
X1711650Y1590450D02*
G54D10*
D03*
X1699650Y1628150D02*
G54D10*
D03*
X1724750Y1615450D02*
G54D10*
D03*
X1725550Y1641150D02*
G54D10*
D03*
X1725688Y1665664D02*
G54D10*
D03*
X1724550Y1704950D02*
G54D10*
D03*
X1699150Y1716650D02*
G54D10*
D03*
X1724912Y1741501D02*
G54D10*
D03*
X2043750Y1766850D02*
G54D10*
D03*
X2081150Y1779650D02*
G54D10*
D03*
X2082150Y1825050D02*
G54D10*
D03*
X1979950Y1767850D02*
G54D10*
D03*
X1904150Y1780250D02*
G54D10*
D03*
X1878750Y1780250D02*
G54D10*
D03*
X2107250Y1583050D02*
G54D10*
D03*
X2080550Y1627250D02*
G54D10*
D03*
X2079950Y1601550D02*
G54D10*
D03*
X1942250Y1678850D02*
G54D10*
D03*
X2036150Y1671950D02*
G54D10*
D03*
X2036350Y1653050D02*
G54D10*
D03*
X2035950Y1634450D02*
G54D10*
D03*
X2035250Y1614650D02*
G54D10*
D03*
X2036450Y1589950D02*
G54D10*
D03*
X2042350Y1564750D02*
G54D10*
D03*
X2049650Y1538850D02*
G54D10*
D03*
X2055350Y1511150D02*
G54D10*
D03*
X2060850Y1487950D02*
G54D10*
D03*
X2061550Y1463250D02*
G54D10*
D03*
X2067550Y1437750D02*
G54D10*
D03*
X2074089Y1412214D02*
G54D10*
D03*
X1997450Y1398750D02*
G54D10*
D03*
X1979450Y1450350D02*
G54D10*
D03*
X1978850Y1475650D02*
G54D10*
D03*
X1979450Y1501350D02*
G54D10*
D03*
X1978529Y1526128D02*
G54D10*
D03*
X1967050Y1551550D02*
G54D10*
D03*
X1965187Y1576294D02*
G54D10*
D03*
X1959114Y1601674D02*
G54D10*
D03*
X1952713Y1627559D02*
G54D10*
D03*
X1725250Y1805550D02*
G54D10*
D03*
X1839050Y1691950D02*
G54D10*
D03*
X1883240Y1677495D02*
G54D10*
D03*
X1884150Y1653350D02*
G54D10*
D03*
X1839350Y1653550D02*
G54D10*
D03*
X1813684Y1639876D02*
G54D10*
D03*
X1795250Y1666350D02*
G54D10*
D03*
X1851650Y1614350D02*
G54D10*
D03*
X1801250Y1615350D02*
G54D10*
D03*
X1795350Y1538050D02*
G54D10*
D03*
X2017150Y1335550D02*
G54D10*
D03*
X1871150Y1336050D02*
G54D10*
D03*
X1870750Y1311150D02*
G54D10*
D03*
X1838250Y1234550D02*
G54D10*
D03*
X1801750Y1208850D02*
G54D10*
D03*
X1788850Y1273050D02*
G54D10*
D03*
X1699150Y1196950D02*
G54D10*
D03*
X1874250Y1132650D02*
G54D10*
D03*
X2061050Y1233620D02*
G54D10*
D03*
X2067950Y1208550D02*
G54D10*
D03*
X2068450Y1182850D02*
G54D10*
D03*
X2143650Y1132750D02*
G54D10*
D03*
X2047850Y1208450D02*
G54D10*
D03*
X275150Y512050D02*
G54D10*
D03*
X822350Y1335950D02*
G54D10*
D03*
X809750Y1361450D02*
G54D10*
D03*
X777250Y1386950D02*
G54D10*
D03*
X885850Y1386550D02*
G54D10*
D03*
X2436950Y1247150D02*
G54D10*
D03*
X2455950Y1246850D02*
G54D10*
D03*
X2474950Y1247150D02*
G54D10*
D03*
X2493850Y1247150D02*
G54D10*
D03*
X2519550Y1247150D02*
G54D10*
D03*
X2538650Y1247150D02*
G54D10*
D03*
X2557550Y1247150D02*
G54D10*
D03*
X2576650Y1246850D02*
G54D10*
D03*
X2595450Y1246850D02*
G54D10*
D03*
X2614650Y1246750D02*
G54D10*
D03*
X2633750Y1247550D02*
G54D10*
D03*
X2729750Y1221650D02*
G54D10*
D03*
X2748450Y1240350D02*
G54D10*
D03*
X2728850Y1253850D02*
G54D10*
D03*
X2729750Y1316650D02*
G54D10*
D03*
X2703950Y1316250D02*
G54D10*
D03*
X2834750Y1532250D02*
G54D10*
D03*
X2920450Y1467550D02*
G54D10*
D03*
X3193550Y1349450D02*
G54D10*
D03*
X3076650Y1425050D02*
G54D10*
D03*
X3034550Y1443450D02*
G54D10*
D03*
X3047016Y1468815D02*
G54D10*
D03*
X3078650Y1469150D02*
G54D10*
D03*
X3103350Y1373850D02*
G54D10*
D03*
X3267350Y1224350D02*
G54D10*
D03*
X3180032Y1525347D02*
G54D10*
D03*
X2964750Y1310050D02*
G54D10*
D03*
X2867950Y1284750D02*
G54D10*
D03*
X2831450Y1246450D02*
G54D10*
D03*
X3478706Y1569559D02*
G54D10*
D03*
X3460476Y1550330D02*
G54D10*
D03*
X3479658Y1549854D02*
G54D10*
D03*
X3283750Y1754550D02*
G54D10*
D03*
X2806850Y1766450D02*
G54D10*
D03*
X2813050Y1683550D02*
G54D10*
D03*
X2832450Y1684750D02*
G54D10*
D03*
X3327450Y1759250D02*
G54D10*
D03*
X3397450Y1754350D02*
G54D10*
D03*
X3377241Y1689443D02*
G54D10*
D03*
X3397850Y1709750D02*
G54D10*
D03*
X3447250Y1696250D02*
G54D10*
D03*
X3472950Y1664850D02*
G54D10*
D03*
X3493350Y1652850D02*
G54D10*
D03*
X3467750Y1620650D02*
G54D10*
D03*
X3511850Y1614950D02*
G54D10*
D03*
X2278250Y1297550D02*
G54D10*
D03*
X2252462Y1304503D02*
G54D10*
D03*
X2156818Y1178072D02*
G54D10*
D03*
X2170050Y1151350D02*
G54D10*
D03*
X2194750Y1158350D02*
G54D10*
D03*
X2251450Y981350D02*
G54D10*
D03*
X2250950Y1011750D02*
G54D10*
D03*
X2334150Y955650D02*
G54D10*
D03*
X2276950Y980850D02*
G54D10*
D03*
X2264450Y923450D02*
G54D10*
D03*
X2288750Y917150D02*
G54D10*
D03*
X2302950Y459750D02*
G54D10*
D03*
X2295950Y878250D02*
G54D10*
D03*
X2270250Y814750D02*
G54D10*
D03*
X2264450Y763750D02*
G54D10*
D03*
X2303750Y726450D02*
G54D10*
D03*
X2226950Y662750D02*
G54D10*
D03*
X2194450Y681950D02*
G54D10*
D03*
X2173386Y689191D02*
G54D10*
D03*
X2220250Y701050D02*
G54D10*
D03*
X2162150Y624750D02*
G54D10*
D03*
X2207450Y586250D02*
G54D10*
D03*
X2169618Y474095D02*
G54D10*
D03*
X2315150Y751150D02*
G54D10*
D03*
X2314950Y675350D02*
G54D10*
D03*
X2314150Y598250D02*
G54D10*
D03*
X2302421Y512256D02*
G54D10*
D03*
X2346350Y458450D02*
G54D10*
D03*
X2283350Y509350D02*
G54D10*
D03*
X2290550Y485550D02*
G54D10*
D03*
X2207850Y433950D02*
G54D10*
D03*
X2195050Y383650D02*
G54D10*
D03*
X2194350Y409350D02*
G54D10*
D03*
X2238250Y382550D02*
G54D10*
D03*
X2486550Y255950D02*
G54D10*
D03*
X2588471Y262532D02*
G54D10*
D03*
X2334950Y485350D02*
G54D10*
D03*
X2925450Y263250D02*
G54D10*
D03*
X3026450Y263450D02*
G54D10*
D03*
X2740650Y453050D02*
G54D10*
D03*
X3523350Y447550D02*
G54D10*
D03*
X3510821Y383507D02*
G54D10*
D03*
X3797850Y396650D02*
G54D10*
D03*
X3708450Y397350D02*
G54D10*
D03*
X3677550Y397150D02*
G54D10*
D03*
X3682850Y460650D02*
G54D10*
D03*
X3707950Y522550D02*
G54D10*
D03*
X3675550Y523450D02*
G54D10*
D03*
X3617750Y608350D02*
G54D10*
D03*
X3593450Y609850D02*
G54D10*
D03*
X3619250Y813950D02*
G54D10*
D03*
X3593950Y814650D02*
G54D10*
D03*
X3851960Y790499D02*
G54D11*
D03*
X3790950Y688050D02*
G54D10*
D03*
X2333850Y612450D02*
G54D10*
D03*
X1813038Y574344D02*
G54D10*
D03*
X2333750Y739044D02*
G54D10*
D03*
X3676000Y1415200D02*
G54D10*
D03*
X1811944Y459938D02*
G54D10*
D03*
X2333450Y586500D02*
G54D10*
D03*
X2333850Y567438D02*
G54D10*
D03*
X2334150Y548087D02*
G54D10*
D03*
X2334450Y529338D02*
G54D10*
D03*
X2334150Y510838D02*
G54D10*
D03*
X2137308Y560384D02*
G54D10*
D03*
X2334150Y688756D02*
G54D10*
D03*
X2333850Y663056D02*
G54D10*
D03*
X2333550Y637356D02*
G54D10*
D03*
X1507950Y1151750D02*
G54D10*
D03*
X1311750Y1590050D02*
G54D10*
D03*
X1063750Y1362550D02*
G54D10*
D03*
X3224450Y1468350D02*
G54D10*
D03*
X3803850Y1049450D02*
G54D10*
D03*
X3803750Y968850D02*
G54D10*
D03*
X3741892Y1914034D02*
G54D12*
D03*
X2282250Y955150D02*
G54D10*
D03*
X2334150Y1145650D02*
G54D10*
D03*
X2334240Y1126450D02*
G54D10*
D03*
X2335050Y1107850D02*
G54D10*
D03*
X2334450Y1087750D02*
G54D10*
D03*
X2334750Y1068950D02*
G54D10*
D03*
X2334750Y1050050D02*
G54D10*
D03*
X2334350Y1031250D02*
G54D10*
D03*
X2334350Y1005850D02*
G54D10*
D03*
X2333550Y980450D02*
G54D10*
D03*
X2302150Y853650D02*
G54D10*
D03*
X2332950Y916850D02*
G54D10*
D03*
X2333950Y897950D02*
G54D10*
D03*
X2332950Y879550D02*
G54D10*
D03*
X2334250Y853650D02*
G54D10*
D03*
X2333950Y833150D02*
G54D10*
D03*
X2333550Y815350D02*
G54D10*
D03*
X2333750Y796750D02*
G54D10*
D03*
X2333950Y777050D02*
G54D10*
D03*
X2334150Y758050D02*
G54D10*
D03*
X2334250Y713950D02*
G54D10*
D03*
X2730050Y1462250D02*
G54D10*
D03*
X2704050Y1449650D02*
G54D10*
D03*
X2705550Y1907350D02*
G54D10*
D03*
X1985681Y1234666D02*
G54D10*
D03*
X1788780Y1690938D02*
G54D10*
D03*
X1839850Y1722450D02*
G54D10*
D03*
X1821650Y1704450D02*
G54D10*
D03*
X1837850Y407750D02*
G54D10*
D03*
X2355950Y1185650D02*
G54D10*
D03*
X2627650Y1193650D02*
G54D10*
D03*
X3568550Y1170050D02*
G54D10*
D03*
X3090050Y483950D02*
G54D10*
D03*
X2924650Y483950D02*
G54D10*
D03*
X2633950Y484750D02*
G54D10*
D03*
X2410350Y484350D02*
G54D10*
D03*
X2679750Y1119450D02*
G54D10*
D03*
X2386050Y1126250D02*
G54D10*
D03*
X2386050Y1106450D02*
G54D10*
D03*
X2385050Y1087550D02*
G54D10*
D03*
X2385550Y1068750D02*
G54D10*
D03*
X2385050Y1049450D02*
G54D10*
D03*
X2385550Y1030150D02*
G54D10*
D03*
X2423650Y1081750D02*
G54D10*
D03*
X2423250Y1062450D02*
G54D10*
D03*
X2467650Y1042150D02*
G54D10*
D03*
X2543950Y1049450D02*
G54D10*
D03*
X2532350Y1030150D02*
G54D10*
D03*
X2651750Y1004950D02*
G54D10*
D03*
X2518850Y967450D02*
G54D10*
D03*
X2385150Y910250D02*
G54D10*
D03*
X2385150Y833750D02*
G54D10*
D03*
X2455450Y827450D02*
G54D10*
D03*
X2455150Y776550D02*
G54D10*
D03*
X2455150Y744550D02*
G54D10*
D03*
X2385450Y713450D02*
G54D10*
D03*
X2518550Y852850D02*
G54D10*
D03*
X2519150Y827450D02*
G54D10*
D03*
X2518850Y801950D02*
G54D10*
D03*
X2500850Y780250D02*
G54D10*
D03*
X2385450Y687950D02*
G54D10*
D03*
X2385150Y662550D02*
G54D10*
D03*
X2384244Y638221D02*
G54D10*
D03*
X2385450Y611750D02*
G54D10*
D03*
X2385234Y587801D02*
G54D10*
D03*
X2461450Y599150D02*
G54D10*
D03*
X2385089Y562424D02*
G54D10*
D03*
X2384850Y535150D02*
G54D10*
D03*
X2384550Y509950D02*
G54D10*
D03*
X2467150Y548550D02*
G54D10*
D03*
X2461150Y509750D02*
G54D10*
D03*
X2625950Y561150D02*
G54D10*
D03*
X2651240Y549890D02*
G54D10*
D03*
X2627150Y535450D02*
G54D10*
D03*
X2613950Y510250D02*
G54D10*
D03*
X3098050Y1063450D02*
G54D10*
D03*
X2969550Y1061050D02*
G54D10*
D03*
X3122250Y883750D02*
G54D10*
D03*
X2995650Y883750D02*
G54D10*
D03*
X2995150Y858650D02*
G54D10*
D03*
X3122250Y859050D02*
G54D10*
D03*
X2970150Y733150D02*
G54D10*
D03*
X3511650Y510250D02*
G54D10*
D03*
X3325521Y708950D02*
G54D10*
D03*
X3490350Y864850D02*
G54D10*
D03*
X3478826Y898597D02*
G54D10*
D03*
X3281550Y897550D02*
G54D10*
D03*
G36*
X3214450Y907550D02*
X3235450Y907550D01*
X3235450Y886550D01*
X3214450Y886550D01*
X3214450Y907550D01*
G37*
G36*
X3322850Y907350D02*
X3343850Y907350D01*
X3343850Y886350D01*
X3322850Y886350D01*
X3322850Y907350D01*
G37*
X2373150Y1379750D02*
G54D13*
D03*
X2449150Y1379750D02*
G54D13*
D03*
X2525950Y1379350D02*
G54D13*
D03*
X2569850Y1379750D02*
G54D10*
D03*
X2367750Y1345150D02*
G54D10*
D03*
X2156350Y1347250D02*
G54D10*
D03*
X2811950Y1398450D02*
G54D10*
D03*
X2786950Y1348450D02*
G54D10*
D03*
X3351754Y782257D02*
G54D10*
D03*
X3179896Y485891D02*
G54D14*
D03*
X3568168Y875010D02*
G54D14*
D03*
X3180538Y1194424D02*
G54D14*
D03*
X2741767Y1195924D02*
G54D14*
D03*
X2360638Y810024D02*
G54D14*
D03*
X2739944Y485775D02*
G54D14*
D03*
X2930938Y833224D02*
G54D14*
D03*
X59500Y563250D02*
G54D10*
D03*
X186500Y563250D02*
G54D10*
D03*
X58375Y537175D02*
G54D10*
D03*
X185375Y537175D02*
G54D10*
D03*
X58300Y512075D02*
G54D10*
D03*
X185300Y512075D02*
G54D10*
D03*
X59275Y486550D02*
G54D10*
D03*
X186275Y486550D02*
G54D10*
D03*
X58100Y588450D02*
G54D10*
D03*
X185100Y588450D02*
G54D10*
D03*
X2875375Y1462300D02*
G54D10*
D03*
X3002375Y1462300D02*
G54D10*
D03*
X2868750Y1425250D02*
G54D10*
D03*
X2995750Y1425250D02*
G54D10*
D03*
X1539350Y510850D02*
G54D10*
D03*
X1539350Y383850D02*
G54D10*
D03*
X2288450Y383000D02*
G54D10*
D03*
X2288450Y256000D02*
G54D10*
D03*
X2334175Y383125D02*
G54D10*
D03*
X2334175Y256125D02*
G54D10*
D03*
X2372100Y383250D02*
G54D10*
D03*
X2372100Y256250D02*
G54D10*
D03*
X2531200Y383625D02*
G54D10*
D03*
X2531200Y256625D02*
G54D10*
D03*
G36*
X2249219Y507919D02*
X2249219Y486919D01*
X2228219Y486919D01*
X2228219Y507919D01*
X2249219Y507919D01*
G37*
X2238719Y472019D02*
G54D10*
D03*
X2238719Y446619D02*
G54D10*
D03*
X2657750Y454050D02*
G54D10*
D03*
X2632550Y454050D02*
G54D10*
D03*
X2606950Y454450D02*
G54D10*
D03*
X3116672Y383808D02*
G54D10*
D03*
X3116672Y256808D02*
G54D10*
D03*
X3143130Y383508D02*
G54D10*
D03*
X3143130Y256508D02*
G54D10*
D03*
X3167630Y256147D02*
G54D10*
D03*
X3167630Y383147D02*
G54D10*
D03*
X3701950Y256850D02*
G54D10*
D03*
X3574950Y256850D02*
G54D10*
D03*
X3808250Y497850D02*
G54D15*
D03*
X3808250Y472450D02*
G54D15*
D03*
X3808250Y447050D02*
G54D15*
D03*
X3802535Y667986D02*
G54D10*
D03*
X3675535Y667986D02*
G54D10*
D03*
X3802450Y630550D02*
G54D10*
D03*
X3675450Y630550D02*
G54D10*
D03*
X3606571Y1144772D02*
G54D10*
D03*
X3606571Y1169972D02*
G54D10*
D03*
X3606971Y1195572D02*
G54D10*
D03*
X3472550Y1526750D02*
G54D10*
D03*
X3345550Y1526750D02*
G54D10*
D03*
G36*
X2931050Y1301050D02*
X2910050Y1301050D01*
X2910050Y1322050D01*
X2931050Y1322050D01*
X2931050Y1301050D01*
G37*
X2895150Y1311550D02*
G54D10*
D03*
X2869750Y1311550D02*
G54D10*
D03*
X3015350Y1247050D02*
G54D10*
D03*
X3015350Y1374050D02*
G54D10*
D03*
G36*
X2851550Y1257250D02*
X2872550Y1257250D01*
X2872550Y1236250D01*
X2851550Y1236250D01*
X2851550Y1257250D01*
G37*
X2887450Y1246750D02*
G54D10*
D03*
X2912850Y1246750D02*
G54D10*
D03*
X2678850Y1278450D02*
G54D10*
D03*
X2805850Y1278450D02*
G54D10*
D03*
X2679154Y1247081D02*
G54D10*
D03*
X2806154Y1247081D02*
G54D10*
D03*
X1062850Y1170350D02*
G54D10*
D03*
X1189850Y1170350D02*
G54D10*
D03*
X1979194Y1138740D02*
G54D10*
D03*
X1979194Y1265741D02*
G54D10*
D03*
X2041697Y1139037D02*
G54D10*
D03*
X2041697Y1266038D02*
G54D10*
D03*
X2869450Y1374650D02*
G54D10*
D03*
X2894850Y1374650D02*
G54D10*
D03*
X2920250Y1374650D02*
G54D10*
D03*
G36*
X662950Y1794745D02*
X641950Y1794745D01*
X641950Y1815745D01*
X662950Y1815745D01*
X662950Y1794745D01*
G37*
X473650Y1805250D02*
G54D10*
D03*
X499050Y1805250D02*
G54D10*
D03*
X524450Y1805250D02*
G54D10*
D03*
X549850Y1805250D02*
G54D10*
D03*
X575250Y1805250D02*
G54D10*
D03*
X600650Y1805250D02*
G54D10*
D03*
X626050Y1805250D02*
G54D10*
D03*
G36*
X971374Y991560D02*
X971374Y970560D01*
X950374Y970560D01*
X950374Y991560D01*
X971374Y991560D01*
G37*
X960868Y802260D02*
G54D10*
D03*
X960868Y827660D02*
G54D10*
D03*
X960868Y853060D02*
G54D10*
D03*
X960868Y878460D02*
G54D10*
D03*
X960868Y903860D02*
G54D10*
D03*
X960868Y929260D02*
G54D10*
D03*
X960868Y954660D02*
G54D10*
D03*
G36*
X971850Y598550D02*
X971850Y577550D01*
X950850Y577550D01*
X950850Y598550D01*
X971850Y598550D01*
G37*
X961345Y409250D02*
G54D10*
D03*
X961345Y434650D02*
G54D10*
D03*
X961345Y460050D02*
G54D10*
D03*
X961345Y485450D02*
G54D10*
D03*
X961345Y510850D02*
G54D10*
D03*
X961345Y536250D02*
G54D10*
D03*
X961345Y561650D02*
G54D10*
D03*
G36*
X234250Y1700350D02*
X234250Y1680350D01*
X214250Y1680350D01*
X214250Y1700350D01*
X234250Y1700350D01*
G37*
X224250Y1664950D02*
G54D16*
D03*
X224250Y1639550D02*
G54D16*
D03*
X224250Y1614150D02*
G54D16*
D03*
X224250Y1588750D02*
G54D16*
D03*
X224250Y1563350D02*
G54D16*
D03*
X224250Y1537950D02*
G54D16*
D03*
X224250Y1512550D02*
G54D16*
D03*
X224250Y1487150D02*
G54D16*
D03*
X224250Y1461750D02*
G54D16*
D03*
X224250Y1436350D02*
G54D16*
D03*
X224250Y1410950D02*
G54D16*
D03*
X224250Y1385550D02*
G54D16*
D03*
X224250Y1360150D02*
G54D16*
D03*
X224250Y1334750D02*
G54D16*
D03*
X224250Y1309350D02*
G54D16*
D03*
X224250Y1283950D02*
G54D16*
D03*
X224250Y1258550D02*
G54D16*
D03*
X224250Y1233150D02*
G54D16*
D03*
X224250Y1207750D02*
G54D16*
D03*
X376650Y1207750D02*
G54D16*
D03*
X376650Y1233150D02*
G54D16*
D03*
X376650Y1258550D02*
G54D16*
D03*
X376650Y1283950D02*
G54D16*
D03*
X376650Y1309350D02*
G54D16*
D03*
X376650Y1334750D02*
G54D16*
D03*
X376650Y1360150D02*
G54D16*
D03*
X376650Y1385550D02*
G54D16*
D03*
X376650Y1410950D02*
G54D16*
D03*
X376650Y1436350D02*
G54D16*
D03*
X376650Y1461750D02*
G54D16*
D03*
X376650Y1487150D02*
G54D16*
D03*
X376650Y1512550D02*
G54D16*
D03*
X376650Y1537950D02*
G54D16*
D03*
X376650Y1563350D02*
G54D16*
D03*
X376650Y1588750D02*
G54D16*
D03*
X376650Y1614150D02*
G54D16*
D03*
X376650Y1639550D02*
G54D16*
D03*
X376650Y1664950D02*
G54D16*
D03*
X376650Y1690350D02*
G54D16*
D03*
G36*
X488950Y1700350D02*
X488950Y1680350D01*
X468950Y1680350D01*
X468950Y1700350D01*
X488950Y1700350D01*
G37*
X478950Y1664950D02*
G54D16*
D03*
X478950Y1639550D02*
G54D16*
D03*
X478950Y1614150D02*
G54D16*
D03*
X478950Y1588750D02*
G54D16*
D03*
X478950Y1563350D02*
G54D16*
D03*
X478950Y1537950D02*
G54D16*
D03*
X478950Y1512550D02*
G54D16*
D03*
X478950Y1487150D02*
G54D16*
D03*
X478950Y1461750D02*
G54D16*
D03*
X478950Y1436350D02*
G54D16*
D03*
X478950Y1410950D02*
G54D16*
D03*
X478950Y1385550D02*
G54D16*
D03*
X478950Y1360150D02*
G54D16*
D03*
X478950Y1334750D02*
G54D16*
D03*
X478950Y1309350D02*
G54D16*
D03*
X478950Y1283950D02*
G54D16*
D03*
X478950Y1258550D02*
G54D16*
D03*
X478950Y1233150D02*
G54D16*
D03*
X478950Y1207750D02*
G54D16*
D03*
X631350Y1207750D02*
G54D16*
D03*
X631350Y1233150D02*
G54D16*
D03*
X631350Y1258550D02*
G54D16*
D03*
X631350Y1283950D02*
G54D16*
D03*
X631350Y1309350D02*
G54D16*
D03*
X631350Y1334750D02*
G54D16*
D03*
X631350Y1360150D02*
G54D16*
D03*
X631350Y1385550D02*
G54D16*
D03*
X631350Y1410950D02*
G54D16*
D03*
X631350Y1436350D02*
G54D16*
D03*
X631350Y1461750D02*
G54D16*
D03*
X631350Y1487150D02*
G54D16*
D03*
X631350Y1512550D02*
G54D16*
D03*
X631350Y1537950D02*
G54D16*
D03*
X631350Y1563350D02*
G54D16*
D03*
X631350Y1588750D02*
G54D16*
D03*
X631350Y1614150D02*
G54D16*
D03*
X631350Y1639550D02*
G54D16*
D03*
X631350Y1664950D02*
G54D16*
D03*
X631350Y1690350D02*
G54D16*
D03*
G36*
X743950Y1701050D02*
X743950Y1681050D01*
X723950Y1681050D01*
X723950Y1701050D01*
X743950Y1701050D01*
G37*
X733950Y1665650D02*
G54D16*
D03*
X733950Y1640250D02*
G54D16*
D03*
X733950Y1614850D02*
G54D16*
D03*
X733950Y1589450D02*
G54D16*
D03*
X733950Y1564050D02*
G54D16*
D03*
X733950Y1538650D02*
G54D16*
D03*
X733950Y1513250D02*
G54D16*
D03*
X733950Y1487850D02*
G54D16*
D03*
X733950Y1462450D02*
G54D16*
D03*
X733950Y1437050D02*
G54D16*
D03*
X733950Y1411650D02*
G54D16*
D03*
X886350Y1411650D02*
G54D16*
D03*
X886350Y1437050D02*
G54D16*
D03*
X886350Y1462450D02*
G54D16*
D03*
X886350Y1487850D02*
G54D16*
D03*
X886350Y1513250D02*
G54D16*
D03*
X886350Y1538650D02*
G54D16*
D03*
X886350Y1564050D02*
G54D16*
D03*
X886350Y1589450D02*
G54D16*
D03*
X886350Y1614850D02*
G54D16*
D03*
X886350Y1640250D02*
G54D16*
D03*
X886350Y1665650D02*
G54D16*
D03*
X886350Y1691050D02*
G54D16*
D03*
G36*
X996350Y1702150D02*
X996350Y1682150D01*
X976350Y1682150D01*
X976350Y1702150D01*
X996350Y1702150D01*
G37*
X986350Y1666750D02*
G54D16*
D03*
X986350Y1641350D02*
G54D16*
D03*
X986350Y1615950D02*
G54D16*
D03*
X986350Y1590550D02*
G54D16*
D03*
X986350Y1565150D02*
G54D16*
D03*
X986350Y1539750D02*
G54D16*
D03*
X986350Y1514350D02*
G54D16*
D03*
X986350Y1488950D02*
G54D16*
D03*
X986350Y1463550D02*
G54D16*
D03*
X986350Y1438150D02*
G54D16*
D03*
X986350Y1412750D02*
G54D16*
D03*
X1138750Y1412750D02*
G54D16*
D03*
X1138750Y1438150D02*
G54D16*
D03*
X1138750Y1463550D02*
G54D16*
D03*
X1138750Y1488950D02*
G54D16*
D03*
X1138750Y1514350D02*
G54D16*
D03*
X1138750Y1539750D02*
G54D16*
D03*
X1138750Y1565150D02*
G54D16*
D03*
X1138750Y1590550D02*
G54D16*
D03*
X1138750Y1615950D02*
G54D16*
D03*
X1138750Y1641350D02*
G54D16*
D03*
X1138750Y1666750D02*
G54D16*
D03*
X1138750Y1692150D02*
G54D16*
D03*
G36*
X1252550Y1701950D02*
X1252550Y1681950D01*
X1232550Y1681950D01*
X1232550Y1701950D01*
X1252550Y1701950D01*
G37*
X1242550Y1666550D02*
G54D16*
D03*
X1242550Y1641150D02*
G54D16*
D03*
X1242550Y1615750D02*
G54D16*
D03*
X1242550Y1590350D02*
G54D16*
D03*
X1242550Y1564950D02*
G54D16*
D03*
X1242550Y1539550D02*
G54D16*
D03*
X1242550Y1514150D02*
G54D16*
D03*
X1242550Y1488750D02*
G54D16*
D03*
X1242550Y1463350D02*
G54D16*
D03*
X1242550Y1437950D02*
G54D16*
D03*
X1242550Y1412550D02*
G54D16*
D03*
X1394950Y1412550D02*
G54D16*
D03*
X1394950Y1437950D02*
G54D16*
D03*
X1394950Y1463350D02*
G54D16*
D03*
X1394950Y1488750D02*
G54D16*
D03*
X1394950Y1514150D02*
G54D16*
D03*
X1394950Y1539550D02*
G54D16*
D03*
X1394950Y1564950D02*
G54D16*
D03*
X1394950Y1590350D02*
G54D16*
D03*
X1394950Y1615750D02*
G54D16*
D03*
X1394950Y1641150D02*
G54D16*
D03*
X1394950Y1666550D02*
G54D16*
D03*
X1394950Y1691950D02*
G54D16*
D03*
G36*
X1774150Y1701150D02*
X1774150Y1681150D01*
X1754150Y1681150D01*
X1754150Y1701150D01*
X1774150Y1701150D01*
G37*
X1764150Y1665750D02*
G54D16*
D03*
X1764150Y1640350D02*
G54D16*
D03*
X1764150Y1614950D02*
G54D16*
D03*
X1764150Y1589550D02*
G54D16*
D03*
X1764150Y1564150D02*
G54D16*
D03*
X1764150Y1538750D02*
G54D16*
D03*
X1764150Y1513350D02*
G54D16*
D03*
X1764150Y1487950D02*
G54D16*
D03*
X1764150Y1462550D02*
G54D16*
D03*
X1764150Y1437150D02*
G54D16*
D03*
X1764150Y1411750D02*
G54D16*
D03*
X1764150Y1386350D02*
G54D16*
D03*
X1764150Y1360950D02*
G54D16*
D03*
X1764150Y1335550D02*
G54D16*
D03*
X1764150Y1310150D02*
G54D16*
D03*
X1764150Y1284750D02*
G54D16*
D03*
X1764150Y1259350D02*
G54D16*
D03*
X1764150Y1233950D02*
G54D16*
D03*
X1764150Y1208550D02*
G54D16*
D03*
X1916550Y1208550D02*
G54D16*
D03*
X1916550Y1233950D02*
G54D16*
D03*
X1916550Y1259350D02*
G54D16*
D03*
X1916550Y1284750D02*
G54D16*
D03*
X1916550Y1310150D02*
G54D16*
D03*
X1916550Y1335550D02*
G54D16*
D03*
X1916550Y1360950D02*
G54D16*
D03*
X1916550Y1386350D02*
G54D16*
D03*
X1916550Y1411750D02*
G54D16*
D03*
X1916550Y1437150D02*
G54D16*
D03*
X1916550Y1462550D02*
G54D16*
D03*
X1916550Y1487950D02*
G54D16*
D03*
X1916550Y1513350D02*
G54D16*
D03*
X1916550Y1538750D02*
G54D16*
D03*
X1916550Y1564150D02*
G54D16*
D03*
X1916550Y1589550D02*
G54D16*
D03*
X1916550Y1614950D02*
G54D16*
D03*
X1916550Y1640350D02*
G54D16*
D03*
X1916550Y1665750D02*
G54D16*
D03*
X1916550Y1691150D02*
G54D16*
D03*
G36*
X1595550Y1701650D02*
X1595550Y1681650D01*
X1575550Y1681650D01*
X1575550Y1701650D01*
X1595550Y1701650D01*
G37*
X1585550Y1666250D02*
G54D16*
D03*
X1585550Y1640850D02*
G54D16*
D03*
X1585550Y1615450D02*
G54D16*
D03*
X1585550Y1590050D02*
G54D16*
D03*
X1585550Y1564650D02*
G54D16*
D03*
X1585550Y1539250D02*
G54D16*
D03*
X1585550Y1513850D02*
G54D16*
D03*
X1585550Y1488450D02*
G54D16*
D03*
X1661750Y1488450D02*
G54D16*
D03*
X1661750Y1513850D02*
G54D16*
D03*
X1661750Y1539250D02*
G54D16*
D03*
X1661750Y1564650D02*
G54D16*
D03*
X1661750Y1590050D02*
G54D16*
D03*
X1661750Y1615450D02*
G54D16*
D03*
X1661750Y1640850D02*
G54D16*
D03*
X1661750Y1666250D02*
G54D16*
D03*
X1661750Y1691650D02*
G54D16*
D03*
X1255050Y1805950D02*
G54D10*
D03*
X1128050Y1805950D02*
G54D10*
D03*
X1203550Y1767450D02*
G54D10*
D03*
X1076550Y1767450D02*
G54D10*
D03*
X1356350Y1767450D02*
G54D10*
D03*
X1229350Y1767450D02*
G54D10*
D03*
X1457650Y1805850D02*
G54D10*
D03*
X1330650Y1805850D02*
G54D10*
D03*
X185650Y1158450D02*
G54D10*
D03*
X58650Y1158450D02*
G54D10*
D03*
X351350Y1159050D02*
G54D10*
D03*
X224350Y1159050D02*
G54D10*
D03*
X606650Y1158650D02*
G54D10*
D03*
X479650Y1158650D02*
G54D10*
D03*
X859350Y1361750D02*
G54D10*
D03*
X732350Y1361750D02*
G54D10*
D03*
X1113150Y1362550D02*
G54D10*
D03*
X986150Y1362550D02*
G54D10*
D03*
X1368350Y1362650D02*
G54D10*
D03*
X1241350Y1362650D02*
G54D10*
D03*
X1712050Y1361550D02*
G54D10*
D03*
X1585050Y1361550D02*
G54D10*
D03*
X185850Y993250D02*
G54D10*
D03*
X58850Y993250D02*
G54D10*
D03*
X185450Y954850D02*
G54D10*
D03*
X58450Y954850D02*
G54D10*
D03*
X185050Y916050D02*
G54D10*
D03*
X58050Y916050D02*
G54D10*
D03*
X185450Y878850D02*
G54D10*
D03*
X58450Y878850D02*
G54D10*
D03*
X187150Y840950D02*
G54D10*
D03*
X60150Y840950D02*
G54D10*
D03*
X185450Y802950D02*
G54D10*
D03*
X58450Y802950D02*
G54D10*
D03*
X185150Y753950D02*
G54D10*
D03*
X58150Y753950D02*
G54D10*
D03*
X350550Y753350D02*
G54D10*
D03*
X223550Y753350D02*
G54D10*
D03*
X503250Y753950D02*
G54D10*
D03*
X376250Y753950D02*
G54D10*
D03*
X656550Y753350D02*
G54D10*
D03*
X529550Y753350D02*
G54D10*
D03*
X810950Y752250D02*
G54D10*
D03*
X683950Y752250D02*
G54D10*
D03*
X185150Y663750D02*
G54D10*
D03*
X58150Y663750D02*
G54D10*
D03*
G36*
X233550Y965050D02*
X233550Y945050D01*
X213550Y945050D01*
X213550Y965050D01*
X233550Y965050D01*
G37*
X223550Y929650D02*
G54D16*
D03*
X223550Y904250D02*
G54D16*
D03*
X223550Y878850D02*
G54D16*
D03*
X223550Y853450D02*
G54D16*
D03*
X223550Y828050D02*
G54D16*
D03*
X223550Y802650D02*
G54D16*
D03*
X299750Y802650D02*
G54D16*
D03*
X299750Y828050D02*
G54D16*
D03*
X299750Y853450D02*
G54D16*
D03*
X299750Y878850D02*
G54D16*
D03*
X299750Y904250D02*
G54D16*
D03*
X299750Y929650D02*
G54D16*
D03*
X299750Y955050D02*
G54D16*
D03*
G36*
X233350Y597550D02*
X233350Y577550D01*
X213350Y577550D01*
X213350Y597550D01*
X233350Y597550D01*
G37*
X223350Y562150D02*
G54D16*
D03*
X223350Y536750D02*
G54D16*
D03*
X223350Y511350D02*
G54D16*
D03*
X223350Y485950D02*
G54D16*
D03*
X223350Y460550D02*
G54D16*
D03*
X223350Y435150D02*
G54D16*
D03*
X299550Y435150D02*
G54D16*
D03*
X299550Y460550D02*
G54D16*
D03*
X299550Y485950D02*
G54D16*
D03*
X299550Y511350D02*
G54D16*
D03*
X299550Y536750D02*
G54D16*
D03*
X299550Y562150D02*
G54D16*
D03*
X299550Y587550D02*
G54D16*
D03*
X1329050Y1069050D02*
G54D10*
D03*
X1202050Y1069050D02*
G54D10*
D03*
X1583750Y1133850D02*
G54D10*
D03*
X1456750Y1133850D02*
G54D10*
D03*
X1584150Y1159050D02*
G54D10*
D03*
X1457150Y1159050D02*
G54D10*
D03*
X1583946Y1183732D02*
G54D10*
D03*
X1456946Y1183732D02*
G54D10*
D03*
G36*
X1594250Y964450D02*
X1594250Y944450D01*
X1574250Y944450D01*
X1574250Y964450D01*
X1594250Y964450D01*
G37*
X1584250Y929050D02*
G54D16*
D03*
X1584250Y903650D02*
G54D16*
D03*
X1584250Y878250D02*
G54D16*
D03*
X1584250Y852850D02*
G54D16*
D03*
X1584250Y827450D02*
G54D16*
D03*
X1584250Y802050D02*
G54D16*
D03*
X1660450Y802050D02*
G54D16*
D03*
X1660450Y827450D02*
G54D16*
D03*
X1660450Y852850D02*
G54D16*
D03*
X1660450Y878250D02*
G54D16*
D03*
X1660450Y903650D02*
G54D16*
D03*
X1660450Y929050D02*
G54D16*
D03*
X1660450Y954450D02*
G54D16*
D03*
G36*
X1593750Y571550D02*
X1593750Y551550D01*
X1573750Y551550D01*
X1573750Y571550D01*
X1593750Y571550D01*
G37*
X1583750Y536150D02*
G54D16*
D03*
X1583750Y510750D02*
G54D16*
D03*
X1583750Y485350D02*
G54D16*
D03*
X1583750Y459950D02*
G54D16*
D03*
X1583750Y434550D02*
G54D16*
D03*
X1583750Y409150D02*
G54D16*
D03*
X1659950Y409150D02*
G54D16*
D03*
X1659950Y434550D02*
G54D16*
D03*
X1659950Y459950D02*
G54D16*
D03*
X1659950Y485350D02*
G54D16*
D03*
X1659950Y510750D02*
G54D16*
D03*
X1659950Y536150D02*
G54D16*
D03*
X1659950Y561550D02*
G54D16*
D03*
G36*
X1428950Y572150D02*
X1428950Y552150D01*
X1408950Y552150D01*
X1408950Y572150D01*
X1428950Y572150D01*
G37*
X1418950Y536750D02*
G54D16*
D03*
X1418950Y511350D02*
G54D16*
D03*
X1418950Y485950D02*
G54D16*
D03*
X1418950Y460550D02*
G54D16*
D03*
X1418950Y435150D02*
G54D16*
D03*
X1418950Y409750D02*
G54D16*
D03*
X1495150Y409750D02*
G54D16*
D03*
X1495150Y435150D02*
G54D16*
D03*
X1495150Y460550D02*
G54D16*
D03*
X1495150Y485950D02*
G54D16*
D03*
X1495150Y511350D02*
G54D16*
D03*
X1495150Y536750D02*
G54D16*
D03*
X1495150Y562150D02*
G54D16*
D03*
G36*
X2421950Y1015450D02*
X2421950Y995450D01*
X2401950Y995450D01*
X2401950Y1015450D01*
X2421950Y1015450D01*
G37*
X2411950Y980050D02*
G54D16*
D03*
X2411950Y954650D02*
G54D16*
D03*
X2411950Y929250D02*
G54D16*
D03*
X2411950Y903850D02*
G54D16*
D03*
X2411950Y878450D02*
G54D16*
D03*
X2411950Y853050D02*
G54D16*
D03*
X2411950Y827650D02*
G54D16*
D03*
X2411950Y802250D02*
G54D16*
D03*
X2411950Y776850D02*
G54D16*
D03*
X2411950Y751450D02*
G54D16*
D03*
X2411950Y726050D02*
G54D16*
D03*
X2411950Y700650D02*
G54D16*
D03*
X2411950Y675250D02*
G54D16*
D03*
X2411950Y649850D02*
G54D16*
D03*
X2411950Y624450D02*
G54D16*
D03*
X2411950Y599050D02*
G54D16*
D03*
X2411950Y573650D02*
G54D16*
D03*
X2411950Y548250D02*
G54D16*
D03*
X2411950Y522850D02*
G54D16*
D03*
X2564350Y522850D02*
G54D16*
D03*
X2564350Y548250D02*
G54D16*
D03*
X2564350Y573650D02*
G54D16*
D03*
X2564350Y599050D02*
G54D16*
D03*
X2564350Y624450D02*
G54D16*
D03*
X2564350Y649850D02*
G54D16*
D03*
X2564350Y675250D02*
G54D16*
D03*
X2564350Y700650D02*
G54D16*
D03*
X2564350Y726050D02*
G54D16*
D03*
X2564350Y751450D02*
G54D16*
D03*
X2564350Y776850D02*
G54D16*
D03*
X2564350Y802250D02*
G54D16*
D03*
X2564350Y827650D02*
G54D16*
D03*
X2564350Y853050D02*
G54D16*
D03*
X2564350Y878450D02*
G54D16*
D03*
X2564350Y903850D02*
G54D16*
D03*
X2564350Y929250D02*
G54D16*
D03*
X2564350Y954650D02*
G54D16*
D03*
X2564350Y980050D02*
G54D16*
D03*
X2564350Y1005450D02*
G54D16*
D03*
X960150Y752750D02*
G54D10*
D03*
X833150Y752750D02*
G54D10*
D03*
X1163950Y753150D02*
G54D10*
D03*
X1036950Y753150D02*
G54D10*
D03*
X1367250Y752750D02*
G54D10*
D03*
X1240250Y752750D02*
G54D10*
D03*
X1544950Y752350D02*
G54D10*
D03*
X1417950Y752350D02*
G54D10*
D03*
X1711550Y752750D02*
G54D10*
D03*
X1584550Y752750D02*
G54D10*
D03*
X1888350Y726550D02*
G54D10*
D03*
X1761350Y726550D02*
G54D10*
D03*
X2134350Y712650D02*
G54D10*
D03*
X2007350Y712650D02*
G54D10*
D03*
X2231850Y765350D02*
G54D10*
D03*
X2231850Y892350D02*
G54D10*
D03*
X2193942Y764818D02*
G54D10*
D03*
X2193942Y891818D02*
G54D10*
D03*
X2232650Y930350D02*
G54D10*
D03*
X2232650Y1057350D02*
G54D10*
D03*
X2195150Y929550D02*
G54D10*
D03*
X2195150Y1056550D02*
G54D10*
D03*
X2233150Y1081450D02*
G54D10*
D03*
X2233150Y1208450D02*
G54D10*
D03*
X2194350Y1082250D02*
G54D10*
D03*
X2194350Y1209250D02*
G54D10*
D03*
X1800950Y1158250D02*
G54D10*
D03*
X1927950Y1158250D02*
G54D10*
D03*
X642850Y639450D02*
G54D10*
D03*
X769850Y639450D02*
G54D10*
D03*
X223650Y360150D02*
G54D10*
D03*
X350650Y360150D02*
G54D10*
D03*
X376250Y360450D02*
G54D10*
D03*
X503250Y360450D02*
G54D10*
D03*
X528250Y360150D02*
G54D10*
D03*
X655250Y360150D02*
G54D10*
D03*
X680850Y360450D02*
G54D10*
D03*
X807850Y360450D02*
G54D10*
D03*
X832750Y358850D02*
G54D10*
D03*
X959750Y358850D02*
G54D10*
D03*
X1036950Y359150D02*
G54D10*
D03*
X1163950Y359150D02*
G54D10*
D03*
X1241250Y358550D02*
G54D10*
D03*
X1368250Y358550D02*
G54D10*
D03*
X1405350Y358350D02*
G54D10*
D03*
X1532350Y358350D02*
G54D10*
D03*
X1583912Y357800D02*
G54D10*
D03*
X1710912Y357800D02*
G54D10*
D03*
X1774050Y536650D02*
G54D10*
D03*
X1774050Y409650D02*
G54D10*
D03*
X1800050Y536350D02*
G54D10*
D03*
X1800050Y409350D02*
G54D10*
D03*
X1971050Y597250D02*
G54D10*
D03*
X1971050Y470250D02*
G54D10*
D03*
X2009950Y596750D02*
G54D10*
D03*
X2009950Y469750D02*
G54D10*
D03*
X2034150Y596750D02*
G54D10*
D03*
X2034150Y469750D02*
G54D10*
D03*
X2059350Y596750D02*
G54D10*
D03*
X2059350Y469750D02*
G54D10*
D03*
X2086150Y597650D02*
G54D10*
D03*
X2086150Y470650D02*
G54D10*
D03*
X2125550Y598250D02*
G54D10*
D03*
X2125550Y471250D02*
G54D10*
D03*
G36*
X385850Y990650D02*
X385850Y970650D01*
X365850Y970650D01*
X365850Y990650D01*
X385850Y990650D01*
G37*
X375850Y955250D02*
G54D16*
D03*
X375850Y929850D02*
G54D16*
D03*
X375850Y904450D02*
G54D16*
D03*
X375850Y879050D02*
G54D16*
D03*
X375850Y853650D02*
G54D16*
D03*
X375850Y828250D02*
G54D16*
D03*
X375850Y802850D02*
G54D16*
D03*
X452050Y802850D02*
G54D16*
D03*
X452050Y828250D02*
G54D16*
D03*
X452050Y853650D02*
G54D16*
D03*
X452050Y879050D02*
G54D16*
D03*
X452050Y904450D02*
G54D16*
D03*
X452050Y929850D02*
G54D16*
D03*
X452050Y955250D02*
G54D16*
D03*
X452050Y980650D02*
G54D16*
D03*
G36*
X539150Y991250D02*
X539150Y971250D01*
X519150Y971250D01*
X519150Y991250D01*
X539150Y991250D01*
G37*
X529150Y955850D02*
G54D16*
D03*
X529150Y930450D02*
G54D16*
D03*
X529150Y905050D02*
G54D16*
D03*
X529150Y879650D02*
G54D16*
D03*
X529150Y854250D02*
G54D16*
D03*
X529150Y828850D02*
G54D16*
D03*
X529150Y803450D02*
G54D16*
D03*
X605350Y803450D02*
G54D16*
D03*
X605350Y828850D02*
G54D16*
D03*
X605350Y854250D02*
G54D16*
D03*
X605350Y879650D02*
G54D16*
D03*
X605350Y905050D02*
G54D16*
D03*
X605350Y930450D02*
G54D16*
D03*
X605350Y955850D02*
G54D16*
D03*
X605350Y981250D02*
G54D16*
D03*
G36*
X691050Y991350D02*
X691050Y971350D01*
X671050Y971350D01*
X671050Y991350D01*
X691050Y991350D01*
G37*
X681050Y955950D02*
G54D16*
D03*
X681050Y930550D02*
G54D16*
D03*
X681050Y905150D02*
G54D16*
D03*
X681050Y879750D02*
G54D16*
D03*
X681050Y854350D02*
G54D16*
D03*
X681050Y828950D02*
G54D16*
D03*
X681050Y803550D02*
G54D16*
D03*
X757250Y803550D02*
G54D16*
D03*
X757250Y828950D02*
G54D16*
D03*
X757250Y854350D02*
G54D16*
D03*
X757250Y879750D02*
G54D16*
D03*
X757250Y905150D02*
G54D16*
D03*
X757250Y930550D02*
G54D16*
D03*
X757250Y955950D02*
G54D16*
D03*
X757250Y981350D02*
G54D16*
D03*
G36*
X843650Y991050D02*
X843650Y971050D01*
X823650Y971050D01*
X823650Y991050D01*
X843650Y991050D01*
G37*
X833650Y955650D02*
G54D16*
D03*
X833650Y930250D02*
G54D16*
D03*
X833650Y904850D02*
G54D16*
D03*
X833650Y879450D02*
G54D16*
D03*
X833650Y854050D02*
G54D16*
D03*
X833650Y828650D02*
G54D16*
D03*
X833650Y803250D02*
G54D16*
D03*
X909850Y803250D02*
G54D16*
D03*
X909850Y828650D02*
G54D16*
D03*
X909850Y854050D02*
G54D16*
D03*
X909850Y879450D02*
G54D16*
D03*
X909850Y904850D02*
G54D16*
D03*
X909850Y930250D02*
G54D16*
D03*
X909850Y955650D02*
G54D16*
D03*
X909850Y981050D02*
G54D16*
D03*
G36*
X1046450Y990650D02*
X1046450Y970650D01*
X1026450Y970650D01*
X1026450Y990650D01*
X1046450Y990650D01*
G37*
X1036450Y955250D02*
G54D16*
D03*
X1036450Y929850D02*
G54D16*
D03*
X1036450Y904450D02*
G54D16*
D03*
X1036450Y879050D02*
G54D16*
D03*
X1036450Y853650D02*
G54D16*
D03*
X1036450Y828250D02*
G54D16*
D03*
X1036450Y802850D02*
G54D16*
D03*
X1112650Y802850D02*
G54D16*
D03*
X1112650Y828250D02*
G54D16*
D03*
X1112650Y853650D02*
G54D16*
D03*
X1112650Y879050D02*
G54D16*
D03*
X1112650Y904450D02*
G54D16*
D03*
X1112650Y929850D02*
G54D16*
D03*
X1112650Y955250D02*
G54D16*
D03*
X1112650Y980650D02*
G54D16*
D03*
G36*
X1428950Y990450D02*
X1428950Y970450D01*
X1408950Y970450D01*
X1408950Y990450D01*
X1428950Y990450D01*
G37*
X1418950Y955050D02*
G54D16*
D03*
X1418950Y929650D02*
G54D16*
D03*
X1418950Y904250D02*
G54D16*
D03*
X1418950Y878850D02*
G54D16*
D03*
X1418950Y853450D02*
G54D16*
D03*
X1418950Y828050D02*
G54D16*
D03*
X1418950Y802650D02*
G54D16*
D03*
X1495150Y802650D02*
G54D16*
D03*
X1495150Y828050D02*
G54D16*
D03*
X1495150Y853450D02*
G54D16*
D03*
X1495150Y878850D02*
G54D16*
D03*
X1495150Y904250D02*
G54D16*
D03*
X1495150Y929650D02*
G54D16*
D03*
X1495150Y955050D02*
G54D16*
D03*
X1495150Y980450D02*
G54D16*
D03*
G36*
X386550Y597750D02*
X386550Y577750D01*
X366550Y577750D01*
X366550Y597750D01*
X386550Y597750D01*
G37*
X376550Y562350D02*
G54D16*
D03*
X376550Y536950D02*
G54D16*
D03*
X376550Y511550D02*
G54D16*
D03*
X376550Y486150D02*
G54D16*
D03*
X376550Y460750D02*
G54D16*
D03*
X376550Y435350D02*
G54D16*
D03*
X376550Y409950D02*
G54D16*
D03*
X452750Y409950D02*
G54D16*
D03*
X452750Y435350D02*
G54D16*
D03*
X452750Y460750D02*
G54D16*
D03*
X452750Y486150D02*
G54D16*
D03*
X452750Y511550D02*
G54D16*
D03*
X452750Y536950D02*
G54D16*
D03*
X452750Y562350D02*
G54D16*
D03*
X452750Y587750D02*
G54D16*
D03*
G36*
X538150Y597626D02*
X538150Y577626D01*
X518150Y577626D01*
X518150Y597626D01*
X538150Y597626D01*
G37*
X528150Y562226D02*
G54D16*
D03*
X528150Y536826D02*
G54D16*
D03*
X528150Y511426D02*
G54D16*
D03*
X528150Y486026D02*
G54D16*
D03*
X528150Y460626D02*
G54D16*
D03*
X528150Y435226D02*
G54D16*
D03*
X528150Y409826D02*
G54D16*
D03*
X604350Y409826D02*
G54D16*
D03*
X604350Y435226D02*
G54D16*
D03*
X604350Y460626D02*
G54D16*
D03*
X604350Y486026D02*
G54D16*
D03*
X604350Y511426D02*
G54D16*
D03*
X604350Y536826D02*
G54D16*
D03*
X604350Y562226D02*
G54D16*
D03*
X604350Y587626D02*
G54D16*
D03*
G36*
X684038Y597226D02*
X684038Y577226D01*
X664038Y577226D01*
X664038Y597226D01*
X684038Y597226D01*
G37*
X674038Y561826D02*
G54D16*
D03*
X674038Y536426D02*
G54D16*
D03*
X674038Y511026D02*
G54D16*
D03*
X674038Y485626D02*
G54D16*
D03*
X674038Y460226D02*
G54D16*
D03*
X674038Y434826D02*
G54D16*
D03*
X674038Y409426D02*
G54D16*
D03*
X750238Y409426D02*
G54D16*
D03*
X750238Y434826D02*
G54D16*
D03*
X750238Y460226D02*
G54D16*
D03*
X750238Y485626D02*
G54D16*
D03*
X750238Y511026D02*
G54D16*
D03*
X750238Y536426D02*
G54D16*
D03*
X750238Y561826D02*
G54D16*
D03*
X750238Y587226D02*
G54D16*
D03*
G36*
X842950Y597550D02*
X842950Y577550D01*
X822950Y577550D01*
X822950Y597550D01*
X842950Y597550D01*
G37*
X832950Y562150D02*
G54D16*
D03*
X832950Y536750D02*
G54D16*
D03*
X832950Y511350D02*
G54D16*
D03*
X832950Y485950D02*
G54D16*
D03*
X832950Y460550D02*
G54D16*
D03*
X832950Y435150D02*
G54D16*
D03*
X832950Y409750D02*
G54D16*
D03*
X909150Y409750D02*
G54D16*
D03*
X909150Y435150D02*
G54D16*
D03*
X909150Y460550D02*
G54D16*
D03*
X909150Y485950D02*
G54D16*
D03*
X909150Y511350D02*
G54D16*
D03*
X909150Y536750D02*
G54D16*
D03*
X909150Y562150D02*
G54D16*
D03*
X909150Y587550D02*
G54D16*
D03*
G36*
X1046550Y597650D02*
X1046550Y577650D01*
X1026550Y577650D01*
X1026550Y597650D01*
X1046550Y597650D01*
G37*
X1036550Y562250D02*
G54D16*
D03*
X1036550Y536850D02*
G54D16*
D03*
X1036550Y511450D02*
G54D16*
D03*
X1036550Y486050D02*
G54D16*
D03*
X1036550Y460650D02*
G54D16*
D03*
X1036550Y435250D02*
G54D16*
D03*
X1036550Y409850D02*
G54D16*
D03*
X1112750Y409850D02*
G54D16*
D03*
X1112750Y435250D02*
G54D16*
D03*
X1112750Y460650D02*
G54D16*
D03*
X1112750Y486050D02*
G54D16*
D03*
X1112750Y511450D02*
G54D16*
D03*
X1112750Y536850D02*
G54D16*
D03*
X1112750Y562250D02*
G54D16*
D03*
X1112750Y587650D02*
G54D16*
D03*
G36*
X2973011Y640891D02*
X2993011Y640891D01*
X2993011Y620891D01*
X2973011Y620891D01*
X2973011Y640891D01*
G37*
X3008411Y630891D02*
G54D16*
D03*
X3033811Y630891D02*
G54D16*
D03*
X3059211Y630891D02*
G54D16*
D03*
X3084611Y630891D02*
G54D16*
D03*
X3110011Y630891D02*
G54D16*
D03*
X3135411Y630891D02*
G54D16*
D03*
X3160811Y630891D02*
G54D16*
D03*
X3160811Y707091D02*
G54D16*
D03*
X3135411Y707091D02*
G54D16*
D03*
X3110011Y707091D02*
G54D16*
D03*
X3084611Y707091D02*
G54D16*
D03*
X3059211Y707091D02*
G54D16*
D03*
X3033811Y707091D02*
G54D16*
D03*
X3008411Y707091D02*
G54D16*
D03*
X2983011Y707091D02*
G54D16*
D03*
G36*
X3329350Y532550D02*
X3349350Y532550D01*
X3349350Y512550D01*
X3329350Y512550D01*
X3329350Y532550D01*
G37*
X3364750Y522550D02*
G54D16*
D03*
X3390150Y522550D02*
G54D16*
D03*
X3415550Y522550D02*
G54D16*
D03*
X3440950Y522550D02*
G54D16*
D03*
X3466350Y522550D02*
G54D16*
D03*
X3491750Y522550D02*
G54D16*
D03*
X3491750Y598750D02*
G54D16*
D03*
X3466350Y598750D02*
G54D16*
D03*
X3440950Y598750D02*
G54D16*
D03*
X3415550Y598750D02*
G54D16*
D03*
X3390150Y598750D02*
G54D16*
D03*
X3364750Y598750D02*
G54D16*
D03*
X3339350Y598750D02*
G54D16*
D03*
G36*
X3152050Y754850D02*
X3172050Y754850D01*
X3172050Y734850D01*
X3152050Y734850D01*
X3152050Y754850D01*
G37*
X3187450Y744850D02*
G54D16*
D03*
X3212850Y744850D02*
G54D16*
D03*
X3238250Y744850D02*
G54D16*
D03*
X3263650Y744850D02*
G54D16*
D03*
X3289050Y744850D02*
G54D16*
D03*
X3314450Y744850D02*
G54D16*
D03*
X3339850Y744850D02*
G54D16*
D03*
X3339850Y821050D02*
G54D16*
D03*
X3314450Y821050D02*
G54D16*
D03*
X3289050Y821050D02*
G54D16*
D03*
X3263650Y821050D02*
G54D16*
D03*
X3238250Y821050D02*
G54D16*
D03*
X3212850Y821050D02*
G54D16*
D03*
X3187450Y821050D02*
G54D16*
D03*
X3162050Y821050D02*
G54D16*
D03*
X2602050Y1158850D02*
G54D10*
D03*
X2475050Y1158850D02*
G54D10*
D03*
X2603050Y1132550D02*
G54D10*
D03*
X2476050Y1132550D02*
G54D10*
D03*
X2755350Y1031850D02*
G54D10*
D03*
X2755350Y1158850D02*
G54D10*
D03*
X2778850Y979050D02*
G54D10*
D03*
X2651850Y979050D02*
G54D10*
D03*
X2778350Y954850D02*
G54D10*
D03*
X2651350Y954850D02*
G54D10*
D03*
X2779850Y929050D02*
G54D10*
D03*
X2652850Y929050D02*
G54D10*
D03*
X2779350Y903750D02*
G54D10*
D03*
X2652350Y903750D02*
G54D10*
D03*
X2779350Y879050D02*
G54D10*
D03*
X2652350Y879050D02*
G54D10*
D03*
X2778850Y853750D02*
G54D10*
D03*
X2651850Y853750D02*
G54D10*
D03*
X2881350Y833050D02*
G54D10*
D03*
X2754350Y833050D02*
G54D10*
D03*
G36*
X2813550Y892450D02*
X2813550Y913450D01*
X2834550Y913450D01*
X2834550Y892450D01*
X2813550Y892450D01*
G37*
X2824050Y928350D02*
G54D10*
D03*
X2824050Y953750D02*
G54D10*
D03*
X2996250Y732550D02*
G54D10*
D03*
X3123250Y732550D02*
G54D10*
D03*
X2756350Y809350D02*
G54D10*
D03*
X2883350Y809350D02*
G54D10*
D03*
G36*
X2832250Y787050D02*
X2853250Y787050D01*
X2853250Y766050D01*
X2832250Y766050D01*
X2832250Y787050D01*
G37*
X2868150Y776550D02*
G54D10*
D03*
X2893550Y776550D02*
G54D10*
D03*
X2677550Y776550D02*
G54D10*
D03*
X2804550Y776550D02*
G54D10*
D03*
X2772050Y738150D02*
G54D10*
D03*
X2899050Y738150D02*
G54D10*
D03*
X2608850Y725550D02*
G54D10*
D03*
X2735850Y725550D02*
G54D10*
D03*
X2608350Y688650D02*
G54D10*
D03*
X2735350Y688650D02*
G54D10*
D03*
X2607850Y649750D02*
G54D10*
D03*
X2734850Y649750D02*
G54D10*
D03*
X2605972Y613031D02*
G54D10*
D03*
X2732972Y613031D02*
G54D10*
D03*
X2773550Y693650D02*
G54D10*
D03*
X2900550Y693650D02*
G54D10*
D03*
X2773550Y669450D02*
G54D10*
D03*
X2900550Y669450D02*
G54D10*
D03*
G36*
X2794350Y647150D02*
X2815350Y647150D01*
X2815350Y626150D01*
X2794350Y626150D01*
X2794350Y647150D01*
G37*
X2830250Y636650D02*
G54D10*
D03*
X2855650Y636650D02*
G54D10*
D03*
X2766950Y611350D02*
G54D10*
D03*
X2893950Y611350D02*
G54D10*
D03*
X2766342Y587490D02*
G54D10*
D03*
X2893342Y587490D02*
G54D10*
D03*
X2766950Y561350D02*
G54D10*
D03*
X2893950Y561350D02*
G54D10*
D03*
X2767450Y535150D02*
G54D10*
D03*
X2894450Y535150D02*
G54D10*
D03*
X2969181Y537294D02*
G54D10*
D03*
X3096181Y537294D02*
G54D10*
D03*
X2969450Y562531D02*
G54D10*
D03*
X3096450Y562531D02*
G54D10*
D03*
X2969450Y587990D02*
G54D10*
D03*
X3096450Y587990D02*
G54D10*
D03*
X3046750Y606350D02*
G54D10*
D03*
X3173750Y606350D02*
G54D10*
D03*
X3200350Y644250D02*
G54D10*
D03*
X3327350Y644250D02*
G54D10*
D03*
X3149250Y555850D02*
G54D10*
D03*
X3276250Y555850D02*
G54D10*
D03*
X3134150Y529550D02*
G54D10*
D03*
X3261150Y529550D02*
G54D10*
D03*
X3351850Y630050D02*
G54D10*
D03*
X3478850Y630050D02*
G54D10*
D03*
X3384150Y655850D02*
G54D10*
D03*
X3511150Y655850D02*
G54D10*
D03*
G36*
X3482850Y689250D02*
X3461850Y689250D01*
X3461850Y710250D01*
X3482850Y710250D01*
X3482850Y689250D01*
G37*
X3446950Y699750D02*
G54D10*
D03*
X3421550Y699750D02*
G54D10*
D03*
X2678650Y1004850D02*
G54D10*
D03*
X2678650Y1157250D02*
G54D10*
D03*
X2716450Y1005250D02*
G54D10*
D03*
X2716450Y1157650D02*
G54D10*
D03*
X2563250Y1082850D02*
G54D10*
D03*
X2563650Y1031050D02*
G54D10*
D03*
G36*
X2000750Y1117250D02*
X2000750Y1097250D01*
X1980750Y1097250D01*
X1980750Y1117250D01*
X2000750Y1117250D01*
G37*
X1990750Y1081850D02*
G54D16*
D03*
X1990750Y1056450D02*
G54D16*
D03*
X1990750Y1031050D02*
G54D16*
D03*
X1990750Y1005650D02*
G54D16*
D03*
X1990750Y980250D02*
G54D16*
D03*
X1990750Y954850D02*
G54D16*
D03*
X1990750Y929450D02*
G54D16*
D03*
X1990750Y904050D02*
G54D16*
D03*
X1990750Y878650D02*
G54D16*
D03*
X1990750Y853250D02*
G54D16*
D03*
X1990750Y827850D02*
G54D16*
D03*
X1990750Y802450D02*
G54D16*
D03*
X1990750Y777050D02*
G54D16*
D03*
X2143150Y777050D02*
G54D16*
D03*
X2143150Y802450D02*
G54D16*
D03*
X2143150Y827850D02*
G54D16*
D03*
X2143150Y853250D02*
G54D16*
D03*
X2143150Y878650D02*
G54D16*
D03*
X2143150Y904050D02*
G54D16*
D03*
X2143150Y929450D02*
G54D16*
D03*
X2143150Y954850D02*
G54D16*
D03*
X2143150Y980250D02*
G54D16*
D03*
X2143150Y1005650D02*
G54D16*
D03*
X2143150Y1031050D02*
G54D16*
D03*
X2143150Y1056450D02*
G54D16*
D03*
X2143150Y1081850D02*
G54D16*
D03*
X2143150Y1107250D02*
G54D16*
D03*
G36*
X1773050Y1117250D02*
X1773050Y1097250D01*
X1753050Y1097250D01*
X1753050Y1117250D01*
X1773050Y1117250D01*
G37*
X1763050Y1081850D02*
G54D16*
D03*
X1763050Y1056450D02*
G54D16*
D03*
X1763050Y1031050D02*
G54D16*
D03*
X1763050Y1005650D02*
G54D16*
D03*
X1763050Y980250D02*
G54D16*
D03*
X1763050Y954850D02*
G54D16*
D03*
X1763050Y929450D02*
G54D16*
D03*
X1763050Y904050D02*
G54D16*
D03*
X1763050Y878650D02*
G54D16*
D03*
X1763050Y853250D02*
G54D16*
D03*
X1763050Y827850D02*
G54D16*
D03*
X1763050Y802450D02*
G54D16*
D03*
X1763050Y777050D02*
G54D16*
D03*
X1915450Y777050D02*
G54D16*
D03*
X1915450Y802450D02*
G54D16*
D03*
X1915450Y827850D02*
G54D16*
D03*
X1915450Y853250D02*
G54D16*
D03*
X1915450Y878650D02*
G54D16*
D03*
X1915450Y904050D02*
G54D16*
D03*
X1915450Y929450D02*
G54D16*
D03*
X1915450Y954850D02*
G54D16*
D03*
X1915450Y980250D02*
G54D16*
D03*
X1915450Y1005650D02*
G54D16*
D03*
X1915450Y1031050D02*
G54D16*
D03*
X1915450Y1056450D02*
G54D16*
D03*
X1915450Y1081850D02*
G54D16*
D03*
X1915450Y1107250D02*
G54D16*
D03*
X1700450Y1170950D02*
G54D10*
D03*
G36*
X1689950Y1135550D02*
X1689950Y1156550D01*
X1710950Y1156550D01*
X1710950Y1135550D01*
X1689950Y1135550D01*
G37*
X318350Y665350D02*
G54D10*
D03*
G36*
X282950Y675850D02*
X303950Y675850D01*
X303950Y654850D01*
X282950Y654850D01*
X282950Y675850D01*
G37*
X1947050Y739250D02*
G54D10*
D03*
G36*
X1936550Y703850D02*
X1936550Y724850D01*
X1957550Y724850D01*
X1957550Y703850D01*
X1936550Y703850D01*
G37*
X338050Y538350D02*
G54D10*
D03*
G36*
X327550Y502950D02*
X327550Y523950D01*
X348550Y523950D01*
X348550Y502950D01*
X327550Y502950D01*
G37*
X2836950Y1438950D02*
G54D17*
D03*
G36*
X2848150Y1475050D02*
X2848150Y1452650D01*
X2825750Y1452650D01*
X2825750Y1475050D01*
X2848150Y1475050D01*
G37*
X2622750Y1285250D02*
G54D10*
D03*
G36*
X2658150Y1274750D02*
X2637150Y1274750D01*
X2637150Y1295750D01*
X2658150Y1295750D01*
X2658150Y1274750D01*
G37*
X2246250Y1260250D02*
G54D10*
D03*
G36*
X2281650Y1249750D02*
X2260650Y1249750D01*
X2260650Y1270750D01*
X2281650Y1270750D01*
X2281650Y1249750D01*
G37*
X2176250Y1259550D02*
G54D10*
D03*
G36*
X2211650Y1249050D02*
X2190650Y1249050D01*
X2190650Y1270050D01*
X2211650Y1270050D01*
X2211650Y1249050D01*
G37*
X2111625Y256179D02*
G54D10*
D03*
G36*
X2147025Y245679D02*
X2126025Y245679D01*
X2126025Y266679D01*
X2147025Y266679D01*
X2147025Y245679D01*
G37*
X2226949Y256454D02*
G54D10*
D03*
G36*
X2191549Y266954D02*
X2212549Y266954D01*
X2212549Y245954D01*
X2191549Y245954D01*
X2191549Y266954D01*
G37*
X2463150Y381950D02*
G54D17*
D03*
G36*
X2499250Y370750D02*
X2476850Y370750D01*
X2476850Y393150D01*
X2499250Y393150D01*
X2499250Y370750D01*
G37*
G36*
X3180450Y395350D02*
X3203450Y395350D01*
X3203450Y372350D01*
X3180450Y372350D01*
X3180450Y395350D01*
G37*
X3575250Y383550D02*
G54D18*
D03*
G36*
X2704465Y394264D02*
X2727465Y394264D01*
X2727465Y371264D01*
X2704465Y371264D01*
X2704465Y394264D01*
G37*
X3091550Y382750D02*
G54D18*
D03*
X2807050Y1137750D02*
G54D10*
D03*
G36*
X2842450Y1127250D02*
X2821450Y1127250D01*
X2821450Y1148250D01*
X2842450Y1148250D01*
X2842450Y1127250D01*
G37*
X2990450Y1138350D02*
G54D10*
D03*
G36*
X3000950Y1173750D02*
X3000950Y1152750D01*
X2979950Y1152750D01*
X2979950Y1173750D01*
X3000950Y1173750D01*
G37*
X3264850Y592150D02*
G54D19*
D03*
X3239550Y566950D02*
G54D19*
D03*
X3213350Y590650D02*
G54D19*
D03*
X2676004Y535608D02*
G54D19*
D03*
X2701304Y560808D02*
G54D19*
D03*
X2727504Y537108D02*
G54D19*
D03*
X3006750Y1011450D02*
G54D10*
D03*
X3007150Y959650D02*
G54D10*
D03*
X696578Y1701622D02*
G54D10*
D03*
X696578Y1828622D02*
G54D10*
D03*
X1947469Y1856229D02*
G54D20*
D03*
X1873613Y1856606D02*
G54D20*
D03*
X1896536Y1830540D02*
G54D20*
D03*
X1997121Y1830436D02*
G54D20*
D03*
X2021700Y1855340D02*
G54D20*
D03*
X1896670Y1954583D02*
G54D20*
D03*
X1996755Y1955310D02*
G54D20*
D03*
X1648994Y1856631D02*
G54D20*
D03*
X1572850Y1854931D02*
G54D20*
D03*
X1597182Y1831344D02*
G54D20*
D03*
X1648094Y1806344D02*
G54D20*
D03*
X1698600Y1831238D02*
G54D20*
D03*
X1723838Y1856519D02*
G54D20*
D03*
X1596894Y1955744D02*
G54D20*
D03*
X1698600Y1956650D02*
G54D20*
D03*
X3701850Y1380600D02*
G54D21*
D03*
X3701850Y1352100D02*
G54D21*
D03*
X3701850Y1320200D02*
G54D21*
D03*
X3701850Y1290800D02*
G54D21*
D03*
X3701850Y1260200D02*
G54D21*
D03*
X3734450Y1363300D02*
G54D21*
D03*
X3734450Y1335600D02*
G54D21*
D03*
X3734450Y1307900D02*
G54D21*
D03*
X3734450Y1278100D02*
G54D21*
D03*
X3696050Y1774750D02*
G54D10*
D03*
X3696050Y1749350D02*
G54D10*
D03*
X3604850Y1621150D02*
G54D10*
D03*
X3757250Y1621150D02*
G54D10*
D03*
G36*
X3087850Y1448770D02*
X3104230Y1465150D01*
X3127470Y1465150D01*
X3143850Y1448770D01*
X3143850Y1425530D01*
X3127470Y1409150D01*
X3104230Y1409150D01*
X3087850Y1425530D01*
X3087850Y1448770D01*
G37*
G36*
X3164844Y1448770D02*
X3181224Y1465150D01*
X3204464Y1465150D01*
X3220844Y1448770D01*
X3220844Y1425530D01*
X3204464Y1409150D01*
X3181224Y1409150D01*
X3164844Y1425530D01*
X3164844Y1448770D01*
G37*
G36*
X3441862Y1447976D02*
X3458242Y1464356D01*
X3481482Y1464356D01*
X3497862Y1447976D01*
X3497862Y1424736D01*
X3481482Y1408356D01*
X3458242Y1408356D01*
X3441862Y1424736D01*
X3441862Y1447976D01*
G37*
G36*
X3364869Y1447976D02*
X3381249Y1464356D01*
X3404489Y1464356D01*
X3420869Y1447976D01*
X3420869Y1424736D01*
X3404489Y1408356D01*
X3381249Y1408356D01*
X3364869Y1424736D01*
X3364869Y1447976D01*
G37*
X3104850Y1308850D02*
G54D10*
D03*
X3491550Y1309150D02*
G54D10*
D03*
X3296550Y1521850D02*
G54D17*
D03*
G36*
X3235350Y1533050D02*
X3257750Y1533050D01*
X3257750Y1510650D01*
X3235350Y1510650D01*
X3235350Y1533050D01*
G37*
G36*
X2954344Y1510471D02*
X2975344Y1510471D01*
X2975344Y1489471D01*
X2954344Y1489471D01*
X2954344Y1510471D01*
G37*
X2990244Y1499971D02*
G54D10*
D03*
X3015644Y1499971D02*
G54D10*
D03*
X3041044Y1499971D02*
G54D10*
D03*
X3066444Y1499971D02*
G54D10*
D03*
X3091844Y1499971D02*
G54D10*
D03*
X3117244Y1499971D02*
G54D10*
D03*
X3142644Y1499971D02*
G54D10*
D03*
X3168044Y1499971D02*
G54D10*
D03*
X3193444Y1499971D02*
G54D10*
D03*
X3600750Y1246650D02*
G54D10*
D03*
X3600750Y1297450D02*
G54D10*
D03*
X3524550Y1246650D02*
G54D10*
D03*
X3524550Y1297450D02*
G54D10*
D03*
X3021550Y1154650D02*
G54D10*
D03*
X3173950Y1154650D02*
G54D10*
D03*
X3365650Y1138150D02*
G54D10*
D03*
X3518050Y1138150D02*
G54D10*
D03*
G36*
X1251350Y1015750D02*
X1251350Y995750D01*
X1231350Y995750D01*
X1231350Y1015750D01*
X1251350Y1015750D01*
G37*
X1241350Y980350D02*
G54D16*
D03*
X1241350Y954950D02*
G54D16*
D03*
X1241350Y929550D02*
G54D16*
D03*
X1241350Y904150D02*
G54D16*
D03*
X1241350Y878750D02*
G54D16*
D03*
X1241350Y853350D02*
G54D16*
D03*
X1241350Y827950D02*
G54D16*
D03*
X1241350Y802550D02*
G54D16*
D03*
X1317550Y802550D02*
G54D16*
D03*
X1317550Y827950D02*
G54D16*
D03*
X1317550Y853350D02*
G54D16*
D03*
X1317550Y878750D02*
G54D16*
D03*
X1317550Y904150D02*
G54D16*
D03*
X1317550Y929550D02*
G54D16*
D03*
X1317550Y954950D02*
G54D16*
D03*
X1317550Y980350D02*
G54D16*
D03*
X1317550Y1005750D02*
G54D16*
D03*
G36*
X1250650Y647292D02*
X1250650Y627292D01*
X1230650Y627292D01*
X1230650Y647292D01*
X1250650Y647292D01*
G37*
X1240650Y611892D02*
G54D16*
D03*
X1240650Y586492D02*
G54D16*
D03*
X1240650Y561092D02*
G54D16*
D03*
X1240650Y535692D02*
G54D16*
D03*
X1240650Y510292D02*
G54D16*
D03*
X1240650Y484892D02*
G54D16*
D03*
X1240650Y459492D02*
G54D16*
D03*
X1240650Y434092D02*
G54D16*
D03*
X1240650Y408692D02*
G54D16*
D03*
X1316850Y408692D02*
G54D16*
D03*
X1316850Y434092D02*
G54D16*
D03*
X1316850Y459492D02*
G54D16*
D03*
X1316850Y484892D02*
G54D16*
D03*
X1316850Y510292D02*
G54D16*
D03*
X1316850Y535692D02*
G54D16*
D03*
X1316850Y561092D02*
G54D16*
D03*
X1316850Y586492D02*
G54D16*
D03*
X1316850Y611892D02*
G54D16*
D03*
X1316850Y637292D02*
G54D16*
D03*
X3371251Y745252D02*
G54D10*
D03*
X3522351Y745252D02*
G54D10*
D03*
X132150Y1715550D02*
G54D15*
D03*
X132150Y1690150D02*
G54D15*
D03*
X132150Y1664750D02*
G54D15*
D03*
X132150Y1639350D02*
G54D15*
D03*
X132150Y1613950D02*
G54D15*
D03*
X132150Y1588550D02*
G54D15*
D03*
X132150Y1563150D02*
G54D15*
D03*
X132150Y1537750D02*
G54D15*
D03*
X132150Y1512350D02*
G54D15*
D03*
X132150Y1486950D02*
G54D15*
D03*
X132150Y1461550D02*
G54D15*
D03*
X132150Y1436150D02*
G54D15*
D03*
X132150Y1410750D02*
G54D15*
D03*
X132150Y1385350D02*
G54D15*
D03*
X132150Y1359950D02*
G54D15*
D03*
X132150Y1334550D02*
G54D15*
D03*
X132150Y1309150D02*
G54D15*
D03*
X132150Y1283750D02*
G54D15*
D03*
X132150Y1258350D02*
G54D15*
D03*
X132150Y1232950D02*
G54D15*
D03*
X1089650Y1803550D02*
G54D10*
D03*
X962650Y1803550D02*
G54D10*
D03*
X318777Y1931268D02*
G54D22*
D03*
X358464Y1931268D02*
G54D22*
D03*
X398152Y1931268D02*
G54D22*
D03*
X437839Y1931268D02*
G54D22*
D03*
X477527Y1931268D02*
G54D22*
D03*
X517214Y1931268D02*
G54D22*
D03*
X556902Y1931268D02*
G54D22*
D03*
X593414Y1931268D02*
G54D22*
D03*
X634689Y1931268D02*
G54D22*
D03*
X674376Y1931268D02*
G54D22*
D03*
X239016Y1931268D02*
G54D23*
D03*
X280577Y1931268D02*
G54D23*
D03*
X1280781Y1934300D02*
G54D24*
D03*
X1162031Y1933675D02*
G54D24*
D03*
X1122656Y1934300D02*
G54D24*
D03*
X1083906Y1933675D02*
G54D24*
D03*
X1242756Y1934337D02*
G54D25*
D03*
X1199894Y1934337D02*
G54D25*
D03*
X1084006Y1875600D02*
G54D26*
D03*
X1122106Y1875600D02*
G54D26*
D03*
X1160206Y1875600D02*
G54D26*
D03*
X1199894Y1875600D02*
G54D26*
D03*
X1242756Y1875600D02*
G54D26*
D03*
X1285619Y1875600D02*
G54D26*
D03*
X3700770Y1063610D02*
G54D21*
D03*
X3700770Y1035110D02*
G54D21*
D03*
X3700770Y1003210D02*
G54D21*
D03*
X3700770Y973810D02*
G54D21*
D03*
X3700770Y943210D02*
G54D21*
D03*
X3733370Y1046310D02*
G54D21*
D03*
X3733370Y1018610D02*
G54D21*
D03*
X3733370Y990910D02*
G54D21*
D03*
X3733370Y961110D02*
G54D21*
D03*
X3651350Y1873250D02*
G54D10*
D03*
X3650950Y1823750D02*
G54D10*
D03*
X3651650Y1899650D02*
G54D10*
D03*
X3650950Y1798550D02*
G54D10*
D03*
X3696550Y1830650D02*
G54D10*
D03*
X3696550Y1805250D02*
G54D10*
D03*
X3664250Y1772250D02*
G54D10*
D03*
X3638850Y1772250D02*
G54D10*
D03*
X3607950Y1749450D02*
G54D10*
D03*
X3607950Y1774850D02*
G54D10*
D03*
X3631150Y1659650D02*
G54D10*
D03*
X3656550Y1659650D02*
G54D10*
D03*
X3777276Y1732986D02*
G54D20*
D03*
X3777276Y1803630D02*
G54D20*
D03*
X3724888Y1806011D02*
G54D20*
D03*
X3750288Y1782199D02*
G54D20*
D03*
X3724888Y1732986D02*
G54D20*
D03*
X3751082Y1682980D02*
G54D20*
D03*
X3726476Y1661548D02*
G54D20*
D03*
X3778863Y1662342D02*
G54D20*
D03*
X3877288Y1783786D02*
G54D20*
D03*
X3876494Y1682980D02*
G54D20*
D03*
X3572350Y1577050D02*
G54D10*
D03*
X3597750Y1577050D02*
G54D10*
D03*
X3711550Y1577950D02*
G54D27*
D03*
X3672950Y1578350D02*
G54D27*
D03*
X3634950Y1577750D02*
G54D27*
D03*
X3634650Y1527750D02*
G54D27*
D03*
X3673250Y1527150D02*
G54D27*
D03*
X3712050Y1527150D02*
G54D27*
D03*
X3838350Y1526950D02*
G54D27*
D03*
X3838950Y1578050D02*
G54D27*
D03*
X3376700Y769800D02*
G54D10*
D03*
X3503700Y769800D02*
G54D10*
D03*
X3377550Y797250D02*
G54D10*
D03*
X3504550Y797250D02*
G54D10*
D03*
X3377400Y820800D02*
G54D10*
D03*
X3504400Y820800D02*
G54D10*
D03*
X3326459Y858553D02*
G54D10*
D03*
X3453459Y858553D02*
G54D10*
D03*
X2995750Y808350D02*
G54D10*
D03*
X3122750Y808350D02*
G54D10*
D03*
X2996750Y833550D02*
G54D10*
D03*
X3123750Y833550D02*
G54D10*
D03*
X3172550Y858350D02*
G54D10*
D03*
X3299550Y858350D02*
G54D10*
D03*
X2996750Y909850D02*
G54D10*
D03*
X3123750Y909850D02*
G54D10*
D03*
X2868450Y987150D02*
G54D10*
D03*
X2868450Y860150D02*
G54D10*
D03*
X2868450Y1139150D02*
G54D10*
D03*
X2868450Y1012150D02*
G54D10*
D03*
G36*
X3437850Y1104450D02*
X3437850Y1084450D01*
X3417850Y1084450D01*
X3417850Y1104450D01*
X3437850Y1104450D01*
G37*
X3427850Y1069050D02*
G54D16*
D03*
X3427850Y1043650D02*
G54D16*
D03*
X3427850Y1018250D02*
G54D16*
D03*
X3427850Y992850D02*
G54D16*
D03*
X3427850Y967450D02*
G54D16*
D03*
X3427850Y942050D02*
G54D16*
D03*
X3427850Y916650D02*
G54D16*
D03*
X3504050Y916650D02*
G54D16*
D03*
X3504050Y942050D02*
G54D16*
D03*
X3504050Y967450D02*
G54D16*
D03*
X3504050Y992850D02*
G54D16*
D03*
X3504050Y1018250D02*
G54D16*
D03*
X3504050Y1043650D02*
G54D16*
D03*
X3504050Y1069050D02*
G54D16*
D03*
X3504050Y1094450D02*
G54D16*
D03*
G36*
X3311450Y1103450D02*
X3311450Y1083450D01*
X3291450Y1083450D01*
X3291450Y1103450D01*
X3311450Y1103450D01*
G37*
X3301450Y1068050D02*
G54D16*
D03*
X3301450Y1042650D02*
G54D16*
D03*
X3301450Y1017250D02*
G54D16*
D03*
X3301450Y991850D02*
G54D16*
D03*
X3301450Y966450D02*
G54D16*
D03*
X3301450Y941050D02*
G54D16*
D03*
X3377650Y941050D02*
G54D16*
D03*
X3377650Y966450D02*
G54D16*
D03*
X3377650Y991850D02*
G54D16*
D03*
X3377650Y1017250D02*
G54D16*
D03*
X3377650Y1042650D02*
G54D16*
D03*
X3377650Y1068050D02*
G54D16*
D03*
X3377650Y1093450D02*
G54D16*
D03*
G36*
X3183700Y1103300D02*
X3183700Y1083300D01*
X3163700Y1083300D01*
X3163700Y1103300D01*
X3183700Y1103300D01*
G37*
X3173700Y1067900D02*
G54D16*
D03*
X3173700Y1042500D02*
G54D16*
D03*
X3173700Y1017100D02*
G54D16*
D03*
X3173700Y991700D02*
G54D16*
D03*
X3173700Y966300D02*
G54D16*
D03*
X3173700Y940900D02*
G54D16*
D03*
X3249900Y940900D02*
G54D16*
D03*
X3249900Y966300D02*
G54D16*
D03*
X3249900Y991700D02*
G54D16*
D03*
X3249900Y1017100D02*
G54D16*
D03*
X3249900Y1042500D02*
G54D16*
D03*
X3249900Y1067900D02*
G54D16*
D03*
X3249900Y1093300D02*
G54D16*
D03*
X3124050Y1062350D02*
G54D10*
D03*
X3124050Y935350D02*
G54D10*
D03*
X3327000Y1137229D02*
G54D10*
D03*
X3200000Y1137229D02*
G54D10*
D03*
X3097550Y1113350D02*
G54D10*
D03*
X2970550Y1113350D02*
G54D10*
D03*
X3097550Y1087150D02*
G54D10*
D03*
X2970550Y1087150D02*
G54D10*
D03*
X2963950Y1246150D02*
G54D10*
D03*
X2963950Y1373150D02*
G54D10*
D03*
X2989450Y1246250D02*
G54D10*
D03*
X2989450Y1373250D02*
G54D10*
D03*
X3041250Y1245950D02*
G54D10*
D03*
X3041250Y1372950D02*
G54D10*
D03*
X3070950Y1246650D02*
G54D10*
D03*
X3070950Y1373650D02*
G54D10*
D03*
G36*
X2738143Y1830268D02*
X2774143Y1830268D01*
X2774143Y1764268D01*
X2738143Y1764268D01*
X2738143Y1830268D01*
G37*
G36*
X2128731Y1524838D02*
X2139261Y1535368D01*
X2154201Y1535368D01*
X2164731Y1524838D01*
X2164731Y1479898D01*
X2154201Y1469368D01*
X2139261Y1469368D01*
X2128731Y1479898D01*
X2128731Y1524838D01*
G37*
G36*
X2336468Y1973743D02*
X2336468Y1937743D01*
X2270468Y1937743D01*
X2270468Y1973743D01*
X2336468Y1973743D01*
G37*
G36*
X2628993Y1368480D02*
X2628993Y1332480D01*
X2562993Y1332480D01*
X2562993Y1368480D01*
X2628993Y1368480D01*
G37*
X2756050Y1507695D02*
G54D28*
D03*
X2146025Y1800832D02*
G54D28*
D03*
X2298337Y1349832D02*
G54D28*
D03*
X2592112Y1957995D02*
G54D28*
D03*
X2729693Y1436818D02*
G54D10*
D03*
X2730393Y1405618D02*
G54D10*
D03*
X2730393Y1381018D02*
G54D10*
D03*
X2170493Y1467618D02*
G54D10*
D03*
X3573115Y1692567D02*
G54D27*
D03*
X2786238Y1688871D02*
G54D27*
D03*
X2964915Y1652467D02*
G54D15*
D03*
X2990315Y1652467D02*
G54D15*
D03*
X3015715Y1652467D02*
G54D15*
D03*
X3041115Y1652467D02*
G54D15*
D03*
X3066515Y1652467D02*
G54D15*
D03*
X3091915Y1652467D02*
G54D15*
D03*
X3117315Y1652467D02*
G54D15*
D03*
X3142715Y1652467D02*
G54D15*
D03*
X3168115Y1652467D02*
G54D15*
D03*
X3193515Y1652467D02*
G54D15*
D03*
X3218915Y1652467D02*
G54D15*
D03*
X3244315Y1652467D02*
G54D15*
D03*
X3269715Y1652467D02*
G54D15*
D03*
X3295115Y1652467D02*
G54D15*
D03*
X3320515Y1652467D02*
G54D15*
D03*
X3345915Y1652467D02*
G54D15*
D03*
X3371315Y1652467D02*
G54D15*
D03*
X3396715Y1652467D02*
G54D15*
D03*
X3422115Y1652467D02*
G54D15*
D03*
X3447515Y1652467D02*
G54D15*
D03*
X2965615Y1602667D02*
G54D15*
D03*
X2991015Y1602667D02*
G54D15*
D03*
X3016415Y1602667D02*
G54D15*
D03*
X3041815Y1602667D02*
G54D15*
D03*
X3067215Y1602667D02*
G54D15*
D03*
X3092615Y1602667D02*
G54D15*
D03*
X3118015Y1602667D02*
G54D15*
D03*
X3143415Y1602667D02*
G54D15*
D03*
X3168815Y1602667D02*
G54D15*
D03*
X3194215Y1602667D02*
G54D15*
D03*
X3219615Y1602667D02*
G54D15*
D03*
X3245015Y1602667D02*
G54D15*
D03*
X3270415Y1602667D02*
G54D15*
D03*
X3295815Y1602667D02*
G54D15*
D03*
X3321215Y1602667D02*
G54D15*
D03*
X3346615Y1602667D02*
G54D15*
D03*
X3372015Y1602667D02*
G54D15*
D03*
X3397415Y1602667D02*
G54D15*
D03*
X3422815Y1602667D02*
G54D15*
D03*
X3448215Y1602667D02*
G54D15*
D03*
X2939515Y1652467D02*
G54D15*
D03*
X2914115Y1652467D02*
G54D15*
D03*
X2940215Y1602667D02*
G54D15*
D03*
X2914815Y1602667D02*
G54D15*
D03*
G36*
X3603412Y1916051D02*
X3585570Y1898209D01*
X3560254Y1898209D01*
X3542412Y1916051D01*
X3542412Y1941367D01*
X3560254Y1959209D01*
X3585570Y1959209D01*
X3603412Y1941367D01*
X3603412Y1916051D01*
G37*
G36*
X2816013Y1914464D02*
X2798171Y1896622D01*
X2772855Y1896622D01*
X2755013Y1914464D01*
X2755013Y1939780D01*
X2772855Y1957622D01*
X2798171Y1957622D01*
X2816013Y1939780D01*
X2816013Y1914464D01*
G37*
M02*
