%FSLAX34Y34*%
%MOMM*%
%LNOUTLINE*%
G71*
G01*
%ADD10C, 0.010*%
%ADD11C, 0.800*%
%LPD*%
G54D10*
X33000Y1873300D02*
X8200Y1873300D01*
X8200Y200000D01*
X3888900Y197700D01*
X3895800Y197700D01*
X3895900Y1992700D01*
X3545100Y1992500D01*
X3541600Y1992500D01*
X3541500Y1711100D01*
X3504800Y1711100D01*
X3504800Y1807100D01*
X3498500Y1807100D01*
X2869900Y1808100D01*
X2866800Y1808100D01*
X2866800Y1713900D01*
X2865200Y1712300D01*
X2832000Y1712300D01*
X2830000Y1714300D01*
X2830000Y1990000D01*
X2825200Y1994800D01*
X1442800Y1994800D01*
X1439800Y1991800D01*
X1439800Y1875400D01*
X1438200Y1873800D01*
X1313000Y1873800D01*
X1313000Y1980100D01*
X1298800Y1994300D01*
X1239000Y1994300D01*
X1226200Y1981500D01*
X1226200Y1895500D01*
X1225500Y1894800D01*
X1213900Y1894800D01*
X1213200Y1895500D01*
X1213200Y1983800D01*
X1202500Y1994500D01*
X1058200Y1994500D01*
X1044200Y1980500D01*
X1044200Y1873800D01*
X712000Y1873800D01*
X712000Y1994500D01*
X667900Y1994500D01*
X660800Y1983500D01*
X660800Y1896800D01*
X658800Y1894800D01*
X650000Y1894800D01*
X648500Y1896300D01*
X648400Y1984000D01*
X638500Y1994300D01*
X312000Y1994400D01*
X303900Y1984200D01*
X303800Y1896400D01*
X302000Y1893800D01*
X293800Y1893800D01*
X292200Y1896900D01*
X292200Y1984100D01*
X284000Y1994300D01*
X200000Y1994300D01*
X200000Y1873300D01*
X33000Y1873300D01*
G36*
X2751380Y1816318D02*
X2762635Y1816318D01*
X2762635Y1777298D01*
X2751380Y1777298D01*
X2751380Y1816318D01*
G37*
G54D11*
X2751380Y1816318D02*
X2762635Y1816318D01*
X2762635Y1777298D01*
X2751380Y1777298D01*
X2751380Y1816318D01*
G36*
X2141968Y1521418D02*
X2153223Y1521418D01*
X2153223Y1482398D01*
X2141968Y1482398D01*
X2141968Y1521418D01*
G37*
G54D11*
X2141968Y1521418D02*
X2153223Y1521418D01*
X2153223Y1482398D01*
X2141968Y1482398D01*
X2141968Y1521418D01*
G36*
X2322518Y1960505D02*
X2322518Y1949251D01*
X2283498Y1949251D01*
X2283498Y1960505D01*
X2322518Y1960505D01*
G37*
G54D11*
X2322518Y1960505D02*
X2322518Y1949251D01*
X2283498Y1949251D01*
X2283498Y1960505D01*
X2322518Y1960505D01*
G36*
X2615043Y1355243D02*
X2615043Y1343988D01*
X2576023Y1343988D01*
X2576023Y1355243D01*
X2615043Y1355243D01*
G37*
G54D11*
X2615043Y1355243D02*
X2615043Y1343988D01*
X2576023Y1343988D01*
X2576023Y1355243D01*
X2615043Y1355243D01*
G36*
X3579477Y1945729D02*
X3568222Y1945729D01*
X3568222Y1913059D01*
X3579477Y1913059D01*
X3579477Y1945729D01*
G37*
G54D11*
X3579477Y1945729D02*
X3568222Y1945729D01*
X3568222Y1913059D01*
X3579477Y1913059D01*
X3579477Y1945729D01*
G36*
X2792077Y1944142D02*
X2780823Y1944142D01*
X2780823Y1911472D01*
X2792077Y1911472D01*
X2792077Y1944142D01*
G37*
G54D11*
X2792077Y1944142D02*
X2780823Y1944142D01*
X2780823Y1911472D01*
X2792077Y1911472D01*
X2792077Y1944142D01*
M02*
