%FSLAX34Y34*%
%MOMM*%
%LNCOPPER_BOTTOM*%
G71*
G01*
%ADD10C, 1.500*%
%ADD11C, 4.500*%
%ADD12C, 5.500*%
%ADD13C, 2.000*%
%ADD14C, 0.300*%
%ADD15C, 1.300*%
%ADD16C, 1.600*%
%ADD17C, 0.700*%
%ADD18C, 2.600*%
%ADD19C, 2.400*%
%ADD20C, 3.000*%
%ADD21C, 1.520*%
%ADD22C, 1.400*%
%ADD23C, 1.640*%
%ADD24C, 1.700*%
%ADD25C, 2.000*%
%ADD26C, 2.000*%
%ADD27C, 1.500*%
%ADD28R, 2.500X11.100*%
%ADD29R, 2.300X11.100*%
%ADD30C, 1.800*%
%ADD31R, 2.500X11.500*%
%ADD32R, 2.300X11.500*%
%ADD33C, 2.800*%
%ADD34C, 2.500*%
%ADD35C, 0.286*%
%LPD*%
X159550Y258050D02*
G54D10*
D03*
X172550Y282850D02*
G54D10*
D03*
X197050Y296550D02*
G54D10*
D03*
X184942Y321710D02*
G54D10*
D03*
X221850Y321450D02*
G54D10*
D03*
X121750Y384250D02*
G54D10*
D03*
X145950Y384950D02*
G54D10*
D03*
X171450Y384150D02*
G54D10*
D03*
X197550Y384950D02*
G54D10*
D03*
X172150Y434850D02*
G54D10*
D03*
X146150Y435750D02*
G54D10*
D03*
X426050Y360250D02*
G54D10*
D03*
X273550Y359550D02*
G54D10*
D03*
X223250Y257850D02*
G54D10*
D03*
X247650Y258450D02*
G54D10*
D03*
X426350Y258450D02*
G54D10*
D03*
X578750Y258450D02*
G54D10*
D03*
X171250Y638250D02*
G54D10*
D03*
X210650Y612850D02*
G54D10*
D03*
X56950Y701450D02*
G54D10*
D03*
X55850Y728650D02*
G54D10*
D03*
X184650Y702050D02*
G54D10*
D03*
X223350Y688950D02*
G54D10*
D03*
X300050Y701550D02*
G54D10*
D03*
X325620Y688759D02*
G54D10*
D03*
X363650Y676750D02*
G54D10*
D03*
X351050Y714550D02*
G54D10*
D03*
X491050Y632150D02*
G54D10*
D03*
X452450Y702250D02*
G54D10*
D03*
X509750Y676650D02*
G54D10*
D03*
X274350Y752450D02*
G54D10*
D03*
X427450Y753250D02*
G54D10*
D03*
X477650Y499050D02*
G54D10*
D03*
X547522Y384272D02*
G54D10*
D03*
X573250Y360250D02*
G54D10*
D03*
X731550Y358450D02*
G54D10*
D03*
X725550Y257550D02*
G54D10*
D03*
X884550Y257750D02*
G54D10*
D03*
X885350Y358950D02*
G54D10*
D03*
X783250Y397950D02*
G54D10*
D03*
X808150Y409850D02*
G54D10*
D03*
X1087650Y359550D02*
G54D10*
D03*
X1062050Y257150D02*
G54D10*
D03*
X1265650Y257750D02*
G54D10*
D03*
X1290350Y358550D02*
G54D10*
D03*
X1202550Y371450D02*
G54D10*
D03*
X1213650Y409450D02*
G54D10*
D03*
X1214250Y459950D02*
G54D10*
D03*
X1444150Y256950D02*
G54D10*
D03*
X1608750Y256250D02*
G54D10*
D03*
X1557550Y358750D02*
G54D10*
D03*
X1468750Y359050D02*
G54D10*
D03*
X1673287Y338112D02*
G54D10*
D03*
X1634550Y358150D02*
G54D10*
D03*
X1379550Y396450D02*
G54D10*
D03*
X1342450Y410050D02*
G54D10*
D03*
X1353950Y435150D02*
G54D10*
D03*
X1379850Y434950D02*
G54D10*
D03*
X1392650Y459850D02*
G54D10*
D03*
X1354850Y460850D02*
G54D10*
D03*
X1354638Y485214D02*
G54D10*
D03*
X1532350Y434150D02*
G54D10*
D03*
X1544850Y460350D02*
G54D10*
D03*
X1523850Y485550D02*
G54D10*
D03*
X1742950Y256050D02*
G54D10*
D03*
X1709750Y447250D02*
G54D10*
D03*
X1685450Y447950D02*
G54D10*
D03*
X1698150Y485250D02*
G54D10*
D03*
X1723050Y485550D02*
G54D10*
D03*
X1723498Y522929D02*
G54D10*
D03*
X1850950Y358650D02*
G54D10*
D03*
X1850050Y384550D02*
G54D10*
D03*
X1710850Y408850D02*
G54D10*
D03*
X1959350Y256250D02*
G54D10*
D03*
X2060450Y256050D02*
G54D10*
D03*
X617050Y676450D02*
G54D10*
D03*
X725631Y751456D02*
G54D10*
D03*
X630450Y790250D02*
G54D10*
D03*
X337850Y828450D02*
G54D10*
D03*
X332150Y892250D02*
G54D10*
D03*
X988350Y865550D02*
G54D10*
D03*
X1151640Y853758D02*
G54D10*
D03*
X1208446Y878815D02*
G54D10*
D03*
X1125750Y714250D02*
G54D10*
D03*
X1150650Y689350D02*
G54D10*
D03*
X1113750Y638150D02*
G54D10*
D03*
X1182782Y637213D02*
G54D10*
D03*
X1202045Y574350D02*
G54D10*
D03*
X1201309Y548950D02*
G54D10*
D03*
X1113050Y613050D02*
G54D10*
D03*
X1018050Y631550D02*
G54D10*
D03*
X1018350Y606650D02*
G54D10*
D03*
X801950Y561850D02*
G54D10*
D03*
X802250Y511850D02*
G54D10*
D03*
X640850Y575450D02*
G54D10*
D03*
X1080850Y751250D02*
G54D10*
D03*
X877350Y752150D02*
G54D10*
D03*
X1284150Y750450D02*
G54D10*
D03*
X1380450Y827650D02*
G54D10*
D03*
X1387750Y802250D02*
G54D10*
D03*
X1329726Y726527D02*
G54D10*
D03*
X1469050Y752050D02*
G54D10*
D03*
X1354350Y688950D02*
G54D10*
D03*
X1536792Y878936D02*
G54D10*
D03*
X1547650Y854050D02*
G54D10*
D03*
X1547850Y827950D02*
G54D10*
D03*
X1523950Y840950D02*
G54D10*
D03*
X1628662Y751867D02*
G54D10*
D03*
X1698150Y802850D02*
G54D10*
D03*
X1733350Y827350D02*
G54D10*
D03*
X1707550Y841350D02*
G54D10*
D03*
X1732850Y879050D02*
G54D10*
D03*
X1672350Y725850D02*
G54D10*
D03*
X1684950Y701450D02*
G54D10*
D03*
X1672150Y675350D02*
G54D10*
D03*
X1646850Y674650D02*
G54D10*
D03*
X1583550Y675250D02*
G54D10*
D03*
X1559050Y675050D02*
G54D10*
D03*
X1379650Y511250D02*
G54D10*
D03*
X1341850Y574350D02*
G54D10*
D03*
X1354650Y637750D02*
G54D10*
D03*
X1367550Y611850D02*
G54D10*
D03*
X1398650Y612150D02*
G54D10*
D03*
X1494650Y644050D02*
G54D10*
D03*
X1494750Y611550D02*
G54D10*
D03*
X1519450Y612250D02*
G54D10*
D03*
X1558150Y624250D02*
G54D10*
D03*
X1736750Y676450D02*
G54D10*
D03*
X1698750Y612150D02*
G54D10*
D03*
X1722850Y625150D02*
G54D10*
D03*
X1812550Y345850D02*
G54D10*
D03*
X1766750Y459750D02*
G54D10*
D03*
X1711250Y549450D02*
G54D10*
D03*
X1685350Y422150D02*
G54D10*
D03*
X1825450Y599221D02*
G54D10*
D03*
X1882250Y612050D02*
G54D10*
D03*
X1913150Y643650D02*
G54D10*
D03*
X1921450Y688350D02*
G54D10*
D03*
X1812550Y827150D02*
G54D10*
D03*
X1812650Y802050D02*
G54D10*
D03*
X1832550Y764750D02*
G54D10*
D03*
X1946350Y877950D02*
G54D10*
D03*
X2040950Y739050D02*
G54D10*
D03*
X1993050Y738650D02*
G54D10*
D03*
X1978050Y712650D02*
G54D10*
D03*
X1945650Y536350D02*
G54D10*
D03*
X1850744Y524038D02*
G54D10*
D03*
X1852156Y549025D02*
G54D10*
D03*
X1837650Y485450D02*
G54D10*
D03*
X1888550Y472550D02*
G54D10*
D03*
X2066850Y699250D02*
G54D10*
D03*
X2030350Y974250D02*
G54D10*
D03*
X2029550Y998750D02*
G54D10*
D03*
X2026150Y1037450D02*
G54D10*
D03*
X2048450Y1017950D02*
G54D10*
D03*
X2059950Y1056450D02*
G54D10*
D03*
X2067750Y1030650D02*
G54D10*
D03*
X2042850Y1107350D02*
G54D10*
D03*
X1953050Y903150D02*
G54D10*
D03*
X1959750Y955050D02*
G54D10*
D03*
X1959650Y1005950D02*
G54D10*
D03*
X1889383Y928912D02*
G54D10*
D03*
X1889750Y955150D02*
G54D10*
D03*
X1890550Y980350D02*
G54D10*
D03*
X1794350Y904850D02*
G54D10*
D03*
X1825773Y916622D02*
G54D10*
D03*
X1826250Y942150D02*
G54D10*
D03*
X1825550Y993150D02*
G54D10*
D03*
X1840150Y1044350D02*
G54D10*
D03*
X1838351Y1082036D02*
G54D10*
D03*
X1813650Y1044150D02*
G54D10*
D03*
X1813650Y1018950D02*
G54D10*
D03*
X1685750Y903850D02*
G54D10*
D03*
X1692450Y942750D02*
G54D10*
D03*
X1711950Y954750D02*
G54D10*
D03*
X1711350Y929950D02*
G54D10*
D03*
X1699004Y1018360D02*
G54D10*
D03*
X1724525Y1068813D02*
G54D10*
D03*
X1724250Y1108250D02*
G54D10*
D03*
X1667550Y1094750D02*
G54D10*
D03*
X1661337Y1055706D02*
G54D10*
D03*
X1609550Y1062750D02*
G54D10*
D03*
X1582550Y980450D02*
G54D10*
D03*
X1558550Y980850D02*
G54D10*
D03*
X1525750Y954850D02*
G54D10*
D03*
X1558450Y1005550D02*
G54D10*
D03*
X1508250Y1044550D02*
G54D10*
D03*
X1348350Y917550D02*
G54D10*
D03*
X1374360Y980157D02*
G54D10*
D03*
X1418350Y1031450D02*
G54D10*
D03*
X1393650Y1044150D02*
G54D10*
D03*
X1394250Y1069650D02*
G54D10*
D03*
X1443650Y1060850D02*
G54D10*
D03*
X1202902Y916816D02*
G54D10*
D03*
X1179350Y966850D02*
G54D10*
D03*
X1153650Y979350D02*
G54D10*
D03*
X1087950Y1107550D02*
G54D10*
D03*
X1285750Y1107950D02*
G54D10*
D03*
X1476450Y1107650D02*
G54D10*
D03*
X1508450Y1088050D02*
G54D10*
D03*
X1527071Y1100748D02*
G54D10*
D03*
X1628997Y1107615D02*
G54D10*
D03*
X1635050Y1146050D02*
G54D10*
D03*
X1610150Y1171150D02*
G54D10*
D03*
X1240750Y1184250D02*
G54D10*
D03*
X1266250Y1145350D02*
G54D10*
D03*
X1329550Y1184050D02*
G54D10*
D03*
X1377450Y1157350D02*
G54D10*
D03*
X1419650Y1177850D02*
G54D10*
D03*
X1114750Y1234550D02*
G54D10*
D03*
X1163850Y1247150D02*
G54D10*
D03*
X1190250Y1298350D02*
G54D10*
D03*
X1356150Y1273150D02*
G54D10*
D03*
X1380350Y1298550D02*
G54D10*
D03*
X1406450Y1310850D02*
G54D10*
D03*
X1431650Y1298450D02*
G54D10*
D03*
X1479150Y1337050D02*
G54D10*
D03*
X1636450Y1336850D02*
G54D10*
D03*
X1552950Y1273150D02*
G54D10*
D03*
X1527250Y1272550D02*
G54D10*
D03*
X1724484Y1298115D02*
G54D10*
D03*
X1737450Y1247850D02*
G54D10*
D03*
X1737750Y1222050D02*
G54D10*
D03*
X1456750Y1386450D02*
G54D10*
D03*
X1289150Y1336950D02*
G54D10*
D03*
X945293Y1030326D02*
G54D10*
D03*
X994850Y992650D02*
G54D10*
D03*
X973568Y1043743D02*
G54D10*
D03*
X796088Y1068443D02*
G54D10*
D03*
X758175Y1018032D02*
G54D10*
D03*
X681463Y1005631D02*
G54D10*
D03*
X859850Y1106950D02*
G54D10*
D03*
X858750Y1131750D02*
G54D10*
D03*
X700050Y1133350D02*
G54D10*
D03*
X1037588Y1132150D02*
G54D10*
D03*
X989857Y1158225D02*
G54D10*
D03*
X1030450Y1209050D02*
G54D10*
D03*
X1005550Y1221850D02*
G54D10*
D03*
X973950Y1248150D02*
G54D10*
D03*
X949150Y1285750D02*
G54D10*
D03*
X770350Y1246450D02*
G54D10*
D03*
X731850Y1182950D02*
G54D10*
D03*
X643192Y1157876D02*
G54D10*
D03*
X579350Y1133950D02*
G54D10*
D03*
X547850Y1152450D02*
G54D10*
D03*
X547750Y1203450D02*
G54D10*
D03*
X478405Y1107319D02*
G54D10*
D03*
X426750Y1184350D02*
G54D10*
D03*
X402297Y1157835D02*
G54D10*
D03*
X490750Y1069625D02*
G54D10*
D03*
X490137Y1043913D02*
G54D10*
D03*
X478274Y1018700D02*
G54D10*
D03*
X490150Y994150D02*
G54D10*
D03*
X350626Y1018425D02*
G54D10*
D03*
X211650Y1044050D02*
G54D10*
D03*
X166750Y1056450D02*
G54D10*
D03*
X172450Y1083450D02*
G54D10*
D03*
X185906Y1106888D02*
G54D10*
D03*
X197636Y1081623D02*
G54D10*
D03*
X224088Y1107013D02*
G54D10*
D03*
X326275Y1107107D02*
G54D10*
D03*
X351382Y1106688D02*
G54D10*
D03*
X59450Y1133450D02*
G54D10*
D03*
X59145Y1310493D02*
G54D10*
D03*
X192092Y1234735D02*
G54D10*
D03*
X170113Y1315544D02*
G54D10*
D03*
X163644Y1397955D02*
G54D10*
D03*
X111350Y1627750D02*
G54D10*
D03*
X326862Y1627338D02*
G54D10*
D03*
X269750Y1703250D02*
G54D10*
D03*
X225350Y1753750D02*
G54D10*
D03*
X295031Y1728538D02*
G54D10*
D03*
X312806Y1778219D02*
G54D10*
D03*
X314150Y1817150D02*
G54D10*
D03*
X364850Y1818650D02*
G54D10*
D03*
X384350Y1805350D02*
G54D10*
D03*
X401602Y1817176D02*
G54D10*
D03*
X275245Y1209382D02*
G54D10*
D03*
X300792Y1209335D02*
G54D10*
D03*
X509750Y1665458D02*
G54D10*
D03*
X529670Y1652261D02*
G54D10*
D03*
X504306Y1639938D02*
G54D10*
D03*
X547956Y1526745D02*
G54D10*
D03*
X541903Y1449527D02*
G54D10*
D03*
X541551Y1423974D02*
G54D10*
D03*
X569050Y1780150D02*
G54D10*
D03*
X580650Y1741850D02*
G54D10*
D03*
X560508Y1715997D02*
G54D10*
D03*
X649350Y1716650D02*
G54D10*
D03*
X579650Y1691850D02*
G54D10*
D03*
X681650Y1742050D02*
G54D10*
D03*
X784250Y1767750D02*
G54D10*
D03*
X760650Y1729250D02*
G54D10*
D03*
X681221Y1659198D02*
G54D10*
D03*
X759750Y1602050D02*
G54D10*
D03*
X713794Y1551445D02*
G54D10*
D03*
X656251Y1551307D02*
G54D10*
D03*
X668886Y1525397D02*
G54D10*
D03*
X657750Y1500950D02*
G54D10*
D03*
X656208Y1474934D02*
G54D10*
D03*
X668510Y1385902D02*
G54D10*
D03*
X835550Y1513550D02*
G54D10*
D03*
X834698Y1487640D02*
G54D10*
D03*
X1045150Y1806050D02*
G54D10*
D03*
X1160750Y1836150D02*
G54D10*
D03*
X1046350Y1766950D02*
G54D10*
D03*
X1001950Y1741950D02*
G54D10*
D03*
X1064750Y1722750D02*
G54D10*
D03*
X1266050Y1723450D02*
G54D10*
D03*
X1331250Y1768350D02*
G54D10*
D03*
X911650Y1551550D02*
G54D10*
D03*
X1012450Y1551550D02*
G54D10*
D03*
X1209662Y1678125D02*
G54D10*
D03*
X1165550Y1677450D02*
G54D10*
D03*
X1215362Y1653119D02*
G54D10*
D03*
X1171450Y1602350D02*
G54D10*
D03*
X1203348Y1513470D02*
G54D10*
D03*
X1355350Y1723550D02*
G54D10*
D03*
X1343050Y1691850D02*
G54D10*
D03*
X1497750Y1767550D02*
G54D10*
D03*
X1533150Y1691950D02*
G54D10*
D03*
X1494250Y1602550D02*
G54D10*
D03*
X1469550Y1589550D02*
G54D10*
D03*
X1425668Y1550614D02*
G54D10*
D03*
X1470450Y1552450D02*
G54D10*
D03*
X1432669Y1500219D02*
G54D10*
D03*
X1508632Y1513351D02*
G54D10*
D03*
X1495250Y1463350D02*
G54D10*
D03*
X1584650Y1463250D02*
G54D10*
D03*
X1570650Y1438150D02*
G54D10*
D03*
X1557850Y1413050D02*
G54D10*
D03*
X1534050Y1412550D02*
G54D10*
D03*
X1713050Y1399650D02*
G54D10*
D03*
X1696550Y1501350D02*
G54D10*
D03*
X1686750Y1539350D02*
G54D10*
D03*
X1711650Y1590450D02*
G54D10*
D03*
X1699650Y1628150D02*
G54D10*
D03*
X1724750Y1615450D02*
G54D10*
D03*
X1725550Y1641150D02*
G54D10*
D03*
X1725688Y1665664D02*
G54D10*
D03*
X1724550Y1704950D02*
G54D10*
D03*
X1699150Y1716650D02*
G54D10*
D03*
X1724912Y1741501D02*
G54D10*
D03*
X2043750Y1766850D02*
G54D10*
D03*
X2081150Y1779650D02*
G54D10*
D03*
X2082150Y1825050D02*
G54D10*
D03*
X1979950Y1767850D02*
G54D10*
D03*
X1904150Y1780250D02*
G54D10*
D03*
X1878750Y1780250D02*
G54D10*
D03*
X2107250Y1583050D02*
G54D10*
D03*
X2080550Y1627250D02*
G54D10*
D03*
X2079950Y1601550D02*
G54D10*
D03*
X1942250Y1678850D02*
G54D10*
D03*
X2036150Y1671950D02*
G54D10*
D03*
X2036350Y1653050D02*
G54D10*
D03*
X2035950Y1634450D02*
G54D10*
D03*
X2035250Y1614650D02*
G54D10*
D03*
X2036450Y1589950D02*
G54D10*
D03*
X2042350Y1564750D02*
G54D10*
D03*
X2049650Y1538850D02*
G54D10*
D03*
X2055350Y1511150D02*
G54D10*
D03*
X2060850Y1487950D02*
G54D10*
D03*
X2061550Y1463250D02*
G54D10*
D03*
X2067550Y1437750D02*
G54D10*
D03*
X2074089Y1412214D02*
G54D10*
D03*
X1997450Y1398750D02*
G54D10*
D03*
X1979450Y1450350D02*
G54D10*
D03*
X1978850Y1475650D02*
G54D10*
D03*
X1979450Y1501350D02*
G54D10*
D03*
X1978529Y1526128D02*
G54D10*
D03*
X1967050Y1551550D02*
G54D10*
D03*
X1965187Y1576294D02*
G54D10*
D03*
X1959114Y1601674D02*
G54D10*
D03*
X1952713Y1627559D02*
G54D10*
D03*
X1725250Y1805550D02*
G54D10*
D03*
X1839050Y1691950D02*
G54D10*
D03*
X1883240Y1677495D02*
G54D10*
D03*
X1884150Y1653350D02*
G54D10*
D03*
X1839350Y1653550D02*
G54D10*
D03*
X1813684Y1639876D02*
G54D10*
D03*
X1795250Y1666350D02*
G54D10*
D03*
X1851650Y1614350D02*
G54D10*
D03*
X1801250Y1615350D02*
G54D10*
D03*
X1795350Y1538050D02*
G54D10*
D03*
X2017150Y1335550D02*
G54D10*
D03*
X1871150Y1336050D02*
G54D10*
D03*
X1870750Y1311150D02*
G54D10*
D03*
X1838250Y1234550D02*
G54D10*
D03*
X1801750Y1208850D02*
G54D10*
D03*
X1788850Y1273050D02*
G54D10*
D03*
X1699150Y1196950D02*
G54D10*
D03*
X1874250Y1132650D02*
G54D10*
D03*
X2061050Y1233620D02*
G54D10*
D03*
X2067950Y1208550D02*
G54D10*
D03*
X2068450Y1182850D02*
G54D10*
D03*
X2143650Y1132750D02*
G54D10*
D03*
X2047850Y1208450D02*
G54D10*
D03*
X275150Y512050D02*
G54D10*
D03*
X822350Y1335950D02*
G54D10*
D03*
X809750Y1361450D02*
G54D10*
D03*
X777250Y1386950D02*
G54D10*
D03*
X885850Y1386550D02*
G54D10*
D03*
X2436950Y1247150D02*
G54D10*
D03*
X2455950Y1246850D02*
G54D10*
D03*
X2474950Y1247150D02*
G54D10*
D03*
X2493850Y1247150D02*
G54D10*
D03*
X2519550Y1247150D02*
G54D10*
D03*
X2538650Y1247150D02*
G54D10*
D03*
X2557550Y1247150D02*
G54D10*
D03*
X2576650Y1246850D02*
G54D10*
D03*
X2595450Y1246850D02*
G54D10*
D03*
X2614650Y1246750D02*
G54D10*
D03*
X2633750Y1247550D02*
G54D10*
D03*
X2729750Y1221650D02*
G54D10*
D03*
X2748450Y1240350D02*
G54D10*
D03*
X2728850Y1253850D02*
G54D10*
D03*
X2729750Y1316650D02*
G54D10*
D03*
X2703950Y1316250D02*
G54D10*
D03*
X2834750Y1532250D02*
G54D10*
D03*
X2920450Y1467550D02*
G54D10*
D03*
X3193550Y1349450D02*
G54D10*
D03*
X3076650Y1425050D02*
G54D10*
D03*
X3034550Y1443450D02*
G54D10*
D03*
X3047016Y1468815D02*
G54D10*
D03*
X3078650Y1469150D02*
G54D10*
D03*
X3103350Y1373850D02*
G54D10*
D03*
X3267350Y1224350D02*
G54D10*
D03*
X3180032Y1525347D02*
G54D10*
D03*
X2964750Y1310050D02*
G54D10*
D03*
X2867950Y1284750D02*
G54D10*
D03*
X2831450Y1246450D02*
G54D10*
D03*
X3478706Y1569559D02*
G54D10*
D03*
X3460476Y1550330D02*
G54D10*
D03*
X3479658Y1549854D02*
G54D10*
D03*
X3283750Y1754550D02*
G54D10*
D03*
X2806850Y1766450D02*
G54D10*
D03*
X2813050Y1683550D02*
G54D10*
D03*
X2832450Y1684750D02*
G54D10*
D03*
X3327450Y1759250D02*
G54D10*
D03*
X3397450Y1754350D02*
G54D10*
D03*
X3377241Y1689443D02*
G54D10*
D03*
X3397850Y1709750D02*
G54D10*
D03*
X3447250Y1696250D02*
G54D10*
D03*
X3472950Y1664850D02*
G54D10*
D03*
X3493350Y1652850D02*
G54D10*
D03*
X3467750Y1620650D02*
G54D10*
D03*
X3511850Y1614950D02*
G54D10*
D03*
X2278250Y1297550D02*
G54D10*
D03*
X2252462Y1304503D02*
G54D10*
D03*
X2156818Y1178072D02*
G54D10*
D03*
X2170050Y1151350D02*
G54D10*
D03*
X2194750Y1158350D02*
G54D10*
D03*
X2251450Y981350D02*
G54D10*
D03*
X2250950Y1011750D02*
G54D10*
D03*
X2334150Y955650D02*
G54D10*
D03*
X2276950Y980850D02*
G54D10*
D03*
X2264450Y923450D02*
G54D10*
D03*
X2288750Y917150D02*
G54D10*
D03*
X2302950Y459750D02*
G54D10*
D03*
X2295950Y878250D02*
G54D10*
D03*
X2270250Y814750D02*
G54D10*
D03*
X2264450Y763750D02*
G54D10*
D03*
X2303750Y726450D02*
G54D10*
D03*
X2226950Y662750D02*
G54D10*
D03*
X2194450Y681950D02*
G54D10*
D03*
X2173386Y689191D02*
G54D10*
D03*
X2220250Y701050D02*
G54D10*
D03*
X2162150Y624750D02*
G54D10*
D03*
X2207450Y586250D02*
G54D10*
D03*
X2169618Y474095D02*
G54D10*
D03*
X2315150Y751150D02*
G54D10*
D03*
X2314950Y675350D02*
G54D10*
D03*
X2314150Y598250D02*
G54D10*
D03*
X2302421Y512256D02*
G54D10*
D03*
X2346350Y458450D02*
G54D10*
D03*
X2283350Y509350D02*
G54D10*
D03*
X2290550Y485550D02*
G54D10*
D03*
X2207850Y433950D02*
G54D10*
D03*
X2195050Y383650D02*
G54D10*
D03*
X2194350Y409350D02*
G54D10*
D03*
X2238250Y382550D02*
G54D10*
D03*
X2486550Y255950D02*
G54D10*
D03*
X2588471Y262532D02*
G54D10*
D03*
X2334950Y485350D02*
G54D10*
D03*
X2925450Y263250D02*
G54D10*
D03*
X3026450Y263450D02*
G54D10*
D03*
X2740650Y453050D02*
G54D10*
D03*
X3523350Y447550D02*
G54D10*
D03*
X3510821Y383507D02*
G54D10*
D03*
X3797850Y396650D02*
G54D10*
D03*
X3708450Y397350D02*
G54D10*
D03*
X3677550Y397150D02*
G54D10*
D03*
X3682850Y460650D02*
G54D10*
D03*
X3707950Y522550D02*
G54D10*
D03*
X3675550Y523450D02*
G54D10*
D03*
X3617750Y608350D02*
G54D10*
D03*
X3593450Y609850D02*
G54D10*
D03*
X3619250Y813950D02*
G54D10*
D03*
X3593950Y814650D02*
G54D10*
D03*
X3851960Y790499D02*
G54D11*
D03*
X3790950Y688050D02*
G54D10*
D03*
X2333850Y612450D02*
G54D10*
D03*
X1813038Y574344D02*
G54D10*
D03*
X2333750Y739044D02*
G54D10*
D03*
X3676000Y1415200D02*
G54D10*
D03*
X1811944Y459938D02*
G54D10*
D03*
X2333450Y586500D02*
G54D10*
D03*
X2333850Y567438D02*
G54D10*
D03*
X2334150Y548087D02*
G54D10*
D03*
X2334450Y529338D02*
G54D10*
D03*
X2334150Y510838D02*
G54D10*
D03*
X2137308Y560384D02*
G54D10*
D03*
X2334150Y688756D02*
G54D10*
D03*
X2333850Y663056D02*
G54D10*
D03*
X2333550Y637356D02*
G54D10*
D03*
X1507950Y1151750D02*
G54D10*
D03*
X1311750Y1590050D02*
G54D10*
D03*
X1063750Y1362550D02*
G54D10*
D03*
X3224450Y1468350D02*
G54D10*
D03*
X3803850Y1049450D02*
G54D10*
D03*
X3803750Y968850D02*
G54D10*
D03*
X3741892Y1914034D02*
G54D12*
D03*
X2282250Y955150D02*
G54D10*
D03*
X2334150Y1145650D02*
G54D10*
D03*
X2334240Y1126450D02*
G54D10*
D03*
X2335050Y1107850D02*
G54D10*
D03*
X2334450Y1087750D02*
G54D10*
D03*
X2334750Y1068950D02*
G54D10*
D03*
X2334750Y1050050D02*
G54D10*
D03*
X2334350Y1031250D02*
G54D10*
D03*
X2334350Y1005850D02*
G54D10*
D03*
X2333550Y980450D02*
G54D10*
D03*
X2302150Y853650D02*
G54D10*
D03*
X2332950Y916850D02*
G54D10*
D03*
X2333950Y897950D02*
G54D10*
D03*
X2332950Y879550D02*
G54D10*
D03*
X2334250Y853650D02*
G54D10*
D03*
X2333950Y833150D02*
G54D10*
D03*
X2333550Y815350D02*
G54D10*
D03*
X2333750Y796750D02*
G54D10*
D03*
X2333950Y777050D02*
G54D10*
D03*
X2334150Y758050D02*
G54D10*
D03*
X2334250Y713950D02*
G54D10*
D03*
X2730050Y1462250D02*
G54D10*
D03*
X2704050Y1449650D02*
G54D10*
D03*
X2705550Y1907350D02*
G54D10*
D03*
X1985681Y1234666D02*
G54D10*
D03*
X1788780Y1690938D02*
G54D10*
D03*
X1839850Y1722450D02*
G54D10*
D03*
X1821650Y1704450D02*
G54D10*
D03*
X1837850Y407750D02*
G54D10*
D03*
X2355950Y1185650D02*
G54D10*
D03*
X2627650Y1193650D02*
G54D10*
D03*
X3568550Y1170050D02*
G54D10*
D03*
X3090050Y483950D02*
G54D10*
D03*
X2924650Y483950D02*
G54D10*
D03*
X2633950Y484750D02*
G54D10*
D03*
X2410350Y484350D02*
G54D10*
D03*
X2679750Y1119450D02*
G54D10*
D03*
X2386050Y1126250D02*
G54D10*
D03*
X2386050Y1106450D02*
G54D10*
D03*
X2385050Y1087550D02*
G54D10*
D03*
X2385550Y1068750D02*
G54D10*
D03*
X2385050Y1049450D02*
G54D10*
D03*
X2385550Y1030150D02*
G54D10*
D03*
X2423650Y1081750D02*
G54D10*
D03*
X2423250Y1062450D02*
G54D10*
D03*
X2467650Y1042150D02*
G54D10*
D03*
X2543950Y1049450D02*
G54D10*
D03*
X2532350Y1030150D02*
G54D10*
D03*
X2651750Y1004950D02*
G54D10*
D03*
X2518850Y967450D02*
G54D10*
D03*
X2385150Y910250D02*
G54D10*
D03*
X2385150Y833750D02*
G54D10*
D03*
X2455450Y827450D02*
G54D10*
D03*
X2455150Y776550D02*
G54D10*
D03*
X2455150Y744550D02*
G54D10*
D03*
X2385450Y713450D02*
G54D10*
D03*
X2518550Y852850D02*
G54D10*
D03*
X2519150Y827450D02*
G54D10*
D03*
X2518850Y801950D02*
G54D10*
D03*
X2500850Y780250D02*
G54D10*
D03*
X2385450Y687950D02*
G54D10*
D03*
X2385150Y662550D02*
G54D10*
D03*
X2384244Y638221D02*
G54D10*
D03*
X2385450Y611750D02*
G54D10*
D03*
X2385234Y587801D02*
G54D10*
D03*
X2461450Y599150D02*
G54D10*
D03*
X2385089Y562424D02*
G54D10*
D03*
X2384850Y535150D02*
G54D10*
D03*
X2384550Y509950D02*
G54D10*
D03*
X2467150Y548550D02*
G54D10*
D03*
X2461150Y509750D02*
G54D10*
D03*
X2625950Y561150D02*
G54D10*
D03*
X2651240Y549890D02*
G54D10*
D03*
X2627150Y535450D02*
G54D10*
D03*
X2613950Y510250D02*
G54D10*
D03*
X3098050Y1063450D02*
G54D10*
D03*
X2969550Y1061050D02*
G54D10*
D03*
X3122250Y883750D02*
G54D10*
D03*
X2995650Y883750D02*
G54D10*
D03*
X2995150Y858650D02*
G54D10*
D03*
X3122250Y859050D02*
G54D10*
D03*
X2970150Y733150D02*
G54D10*
D03*
X3511650Y510250D02*
G54D10*
D03*
X3325521Y708950D02*
G54D10*
D03*
X3490350Y864850D02*
G54D10*
D03*
X3478826Y898597D02*
G54D10*
D03*
X3281550Y897550D02*
G54D10*
D03*
G36*
X3217450Y904550D02*
X3232450Y904550D01*
X3232450Y889550D01*
X3217450Y889550D01*
X3217450Y904550D01*
G37*
G36*
X3325850Y904350D02*
X3340850Y904350D01*
X3340850Y889350D01*
X3325850Y889350D01*
X3325850Y904350D01*
G37*
X2373150Y1379750D02*
G54D13*
D03*
X2449150Y1379750D02*
G54D13*
D03*
X2525950Y1379350D02*
G54D13*
D03*
X2569850Y1379750D02*
G54D10*
D03*
X2367750Y1345150D02*
G54D10*
D03*
X2156350Y1347250D02*
G54D10*
D03*
X2811950Y1398450D02*
G54D10*
D03*
X2786950Y1348450D02*
G54D10*
D03*
G54D14*
X132150Y1715550D02*
X154150Y1715550D01*
X192350Y1676950D01*
X191750Y1287650D01*
X176350Y1273150D01*
X175950Y1199250D01*
X147350Y1170750D01*
X146350Y485550D01*
X171950Y459050D01*
X172150Y434850D01*
G54D14*
X132150Y1690150D02*
X91350Y1690150D01*
X78350Y1677350D01*
X76350Y346550D01*
X82250Y340050D01*
X144850Y340550D01*
X152150Y332050D01*
X152450Y276350D01*
X158450Y270050D01*
X158450Y259150D01*
X159550Y258050D01*
G54D14*
X132150Y1664750D02*
X94650Y1664750D01*
X84850Y1654950D01*
X82550Y353650D01*
X89350Y345950D01*
X151950Y346150D01*
X159250Y339650D01*
X159250Y288650D01*
X165050Y283150D01*
X172550Y282850D01*
G54D14*
X132150Y1639350D02*
X98050Y1639350D01*
X90950Y1632450D01*
X89050Y359450D01*
X95950Y351950D01*
X158550Y352550D01*
X165150Y345150D01*
X165350Y304250D01*
X175350Y294550D01*
X195050Y294550D01*
X197050Y296550D01*
G54D14*
X111350Y1627750D02*
X96650Y1613250D01*
X95350Y365450D01*
X101050Y358750D01*
X165250Y358650D01*
X171850Y352550D01*
X171850Y313950D01*
X177950Y308350D01*
X209750Y308750D01*
X222550Y294550D01*
X222550Y258550D01*
X223250Y257850D01*
G54D14*
X132150Y1613950D02*
X119050Y1613750D01*
X103450Y1598750D01*
X101650Y370350D01*
X106950Y365150D01*
X171650Y365250D01*
X183950Y352250D01*
X184942Y321710D01*
G54D14*
X132150Y1512350D02*
X116850Y1512350D01*
X109550Y1505450D01*
X107650Y377750D01*
X113950Y371150D01*
X184750Y371050D01*
X221750Y333750D01*
X221850Y321450D01*
G54D14*
X132150Y1486950D02*
X122650Y1486950D01*
X116050Y1480550D01*
X114150Y403650D01*
X121350Y395750D01*
X121750Y384250D01*
G54D14*
X132150Y1563150D02*
X145150Y1563150D01*
X185750Y1521750D01*
X185850Y1293850D01*
X169350Y1277050D01*
X169350Y1205450D01*
X141150Y1177050D01*
X139750Y453850D01*
X146050Y446450D01*
X146150Y435750D01*
G54D14*
X132150Y1461550D02*
X146650Y1461550D01*
X150650Y1456550D01*
X150250Y1224650D01*
X121650Y1196350D01*
X120550Y418950D01*
X144750Y395550D01*
X144950Y385950D01*
X145950Y384950D01*
G54D14*
X163644Y1399192D02*
X163644Y1395544D01*
X157550Y1389450D01*
X157350Y1218250D01*
X127950Y1188550D01*
X126950Y425850D01*
X142450Y409950D01*
X166150Y410250D01*
X171650Y401850D01*
X171450Y384150D01*
G54D14*
X171144Y1316987D02*
X170787Y1316987D01*
X163950Y1310150D01*
X162950Y1211050D01*
X134350Y1182850D01*
X133050Y427550D01*
X146450Y415550D01*
X184850Y416350D01*
X197250Y404250D01*
X197250Y385250D01*
X197550Y384950D01*
G54D14*
X192092Y1234735D02*
X191592Y1201492D01*
X153850Y1164350D01*
X153050Y522550D01*
X165550Y511650D01*
X185300Y512075D01*
G54D14*
X166750Y1056450D02*
X166750Y1055550D01*
X160350Y1049150D01*
X159950Y811150D01*
X170150Y801350D01*
X183850Y801350D01*
X185450Y802950D01*
G54D14*
X185650Y1158450D02*
X153750Y1158450D01*
G54D14*
X295650Y1728950D02*
X295650Y1722150D01*
X293350Y1719250D01*
X292750Y1217377D01*
X300792Y1209335D01*
G54D14*
X326450Y1627750D02*
X325850Y1627750D01*
X312650Y1640950D01*
X312650Y1746350D01*
X274350Y1785050D01*
X274350Y1927129D01*
X281553Y1934332D01*
G54D14*
X314150Y1817150D02*
X312850Y1817150D01*
X306150Y1810450D01*
X306150Y1785250D01*
X307650Y1783750D01*
X310450Y1783750D01*
X314350Y1779850D01*
G54D14*
X364850Y1818650D02*
X362750Y1818650D01*
X357150Y1813050D01*
X357150Y1709250D01*
X344550Y1696650D01*
X343550Y1208250D01*
X324850Y1188850D01*
X324650Y1109350D01*
X325450Y1108550D01*
G54D14*
X172450Y1083450D02*
X172450Y1069950D01*
X178650Y1063750D01*
X178650Y1023450D01*
X166250Y1011250D01*
X166050Y923150D01*
X171950Y917250D01*
X183850Y917250D01*
X185050Y916050D01*
G54D14*
X184050Y1108950D02*
X184050Y1100150D01*
X185050Y1099150D01*
X185050Y994050D01*
X185850Y993250D01*
G54D14*
X196950Y1083450D02*
X198150Y1026950D01*
X201250Y1022150D01*
X201350Y850650D01*
X196450Y846050D01*
X187150Y840950D01*
G54D14*
X211650Y1044050D02*
X211650Y1040950D01*
X206950Y1036250D01*
X207750Y919750D01*
X223550Y904250D01*
G54D14*
X222850Y1108250D02*
X223250Y983850D01*
X238150Y968750D01*
X238450Y935150D01*
X230950Y927950D01*
X223550Y929650D01*
G54D14*
X223550Y853450D02*
X223350Y853450D01*
X204050Y834150D01*
X204050Y783950D01*
X198250Y777150D01*
X173250Y777150D01*
X159750Y764950D01*
X159150Y661750D01*
X171250Y650050D01*
X171250Y638250D01*
G54D14*
X223350Y688950D02*
X223000Y697900D01*
X222750Y713850D01*
X189000Y747850D01*
X185150Y753950D01*
G54D14*
X376650Y1690350D02*
X376650Y1769250D01*
X382150Y1774750D01*
X382150Y1803150D01*
X384350Y1805350D01*
G54D14*
X376650Y1512550D02*
X361050Y1512250D01*
X350650Y1502550D01*
X350650Y1194850D01*
X369350Y1177050D01*
X369150Y1018950D01*
X349950Y999750D01*
X350450Y801650D01*
X324850Y777150D01*
X324050Y734150D01*
X331450Y726150D01*
X362050Y725950D01*
X368450Y719850D01*
X368850Y700950D01*
X362550Y695850D01*
X362774Y680099D01*
X363650Y676750D01*
G54D14*
X299750Y878850D02*
X315050Y878850D01*
X321050Y872850D01*
X321850Y786950D01*
X318150Y782450D01*
X317950Y720050D01*
X324250Y713150D01*
X346516Y713232D01*
X351050Y714550D01*
G54D14*
X299750Y853450D02*
X299850Y853450D01*
X314550Y838750D01*
X314750Y792450D01*
X305650Y782550D01*
X305750Y718350D01*
X324050Y701350D01*
X324050Y691150D01*
X325050Y690150D01*
G54D14*
X299750Y929650D02*
X298350Y929650D01*
X284150Y913550D01*
X283850Y776450D01*
X299050Y762050D01*
X299050Y702550D01*
X300050Y701550D01*
G54D14*
X350350Y1108750D02*
X350350Y1056750D01*
X331150Y1038350D01*
X331150Y893250D01*
X332150Y892250D01*
G54D14*
X351450Y1019250D02*
X351450Y1018450D01*
X343850Y1010450D01*
X344250Y835750D01*
X337850Y828450D01*
G54D14*
X376650Y1487150D02*
X361950Y1487150D01*
X356950Y1481950D01*
X356750Y1201750D01*
X375350Y1182750D01*
X375350Y1008350D01*
X356250Y988650D01*
X356450Y960950D01*
X362950Y954950D01*
X375550Y954950D01*
X375850Y955250D01*
G54D14*
X376650Y1233150D02*
X389050Y1233150D01*
X394850Y1225650D01*
X394050Y1195050D01*
X385350Y1186750D01*
X384950Y1132850D01*
X391250Y1125950D01*
X391250Y945250D01*
X375850Y929850D01*
G54D14*
X375850Y929850D02*
X375250Y929850D01*
X355850Y910450D01*
X356650Y796150D01*
X330950Y769950D01*
X330650Y739250D01*
X336450Y732850D01*
X378550Y733050D01*
X390550Y720250D01*
X390550Y548650D01*
X376550Y536950D01*
G54D14*
X363650Y676750D02*
X362750Y651150D01*
X356050Y642950D01*
X356050Y568450D01*
X362250Y561150D01*
X376550Y562350D01*
G54D14*
X318350Y665350D02*
X318350Y664550D01*
X324050Y658850D01*
X324250Y647150D01*
X314450Y636650D01*
X314250Y451650D01*
X299550Y435150D01*
G54D14*
X319753Y1934332D02*
X319753Y1885853D01*
X315450Y1881550D01*
X315450Y1850350D01*
X321550Y1842350D01*
X401250Y1842650D01*
X414050Y1829150D01*
X414050Y1347050D01*
X477920Y1284156D01*
G54D14*
X403150Y1817950D02*
X403150Y1811650D01*
X401350Y1809850D01*
X401350Y1792150D01*
X408350Y1785150D01*
X407550Y1328550D01*
X479156Y1257932D01*
G54D14*
X359440Y1934332D02*
X359440Y1884640D01*
X356350Y1881550D01*
X356150Y1866350D01*
X372150Y1849050D01*
X407150Y1848650D01*
X420550Y1836650D01*
X420350Y1366350D01*
X478950Y1309350D01*
G54D14*
X399128Y1934332D02*
X399128Y1886428D01*
X394250Y1881550D01*
X394250Y1869450D01*
X407850Y1855450D01*
X417650Y1855650D01*
X427050Y1845350D01*
X427250Y1385250D01*
X478332Y1334544D01*
G54D14*
X438815Y1934332D02*
X438815Y1888715D01*
X433650Y1882550D01*
X433150Y1406250D01*
X478950Y1360150D01*
G54D14*
X478503Y1934332D02*
X478503Y1888003D01*
X470550Y1880050D01*
X470550Y1860950D01*
X466950Y1857350D01*
X453350Y1857350D01*
X440250Y1843450D01*
X440050Y1423650D01*
X478950Y1385550D01*
G54D14*
X518190Y1934332D02*
X518190Y1890890D01*
X508850Y1881550D01*
X509250Y1855950D01*
X496150Y1842050D01*
X452150Y1842050D01*
X445950Y1836450D01*
X445750Y1441450D01*
X478950Y1410950D01*
G54D14*
X557878Y1934332D02*
X557878Y1889078D01*
X550750Y1881350D01*
X550550Y1852350D01*
X535250Y1836050D01*
X458950Y1836050D01*
X452350Y1829850D01*
X452550Y1460250D01*
X478950Y1436350D01*
G54D14*
X594390Y1934332D02*
X594390Y1880690D01*
X591750Y1878050D01*
X591950Y1846150D01*
X575950Y1829750D01*
X464250Y1829750D01*
X458750Y1822850D01*
X458550Y1480050D01*
X478950Y1461750D01*
G54D14*
X473650Y1805250D02*
X473650Y1801054D01*
X471517Y1798921D01*
X471517Y1784783D01*
X493350Y1762950D01*
X493350Y1652750D01*
X505750Y1640350D01*
G54D14*
X499050Y1805250D02*
X499050Y1799550D01*
X502850Y1795750D01*
X502850Y1675550D01*
X512250Y1666150D01*
G54D14*
X524450Y1805250D02*
X524450Y1797450D01*
X521850Y1794850D01*
X521850Y1662350D01*
X530908Y1653292D01*
G54D14*
X569050Y1780150D02*
X554550Y1780150D01*
X547450Y1773050D01*
X547450Y1527250D01*
X547956Y1526745D01*
G54D14*
X478950Y1639550D02*
X479050Y1639550D01*
X534950Y1582250D01*
X534950Y1493850D01*
X553850Y1475550D01*
X553650Y1335550D01*
X547650Y1329250D01*
X547050Y1204150D01*
X547750Y1203450D01*
G54D14*
X478950Y1588750D02*
X479350Y1588750D01*
X522050Y1546050D01*
X521850Y1034050D01*
X489750Y1002750D01*
X489950Y994350D01*
X490150Y994150D01*
G54D14*
X478950Y1563350D02*
X478950Y1563150D01*
X515650Y1526450D01*
X515650Y1043950D01*
X489350Y1017750D01*
X479180Y1017794D01*
G54D14*
X478950Y1537950D02*
X479650Y1537950D01*
X509250Y1508350D01*
X508850Y1061950D01*
X490137Y1043913D01*
G54D14*
X478950Y1512550D02*
X479150Y1512550D01*
X502850Y1488850D01*
X502850Y1082550D01*
X490750Y1070450D01*
G54D14*
X478950Y1487150D02*
X479350Y1487150D01*
X496650Y1469850D01*
X496650Y1125550D01*
X477168Y1107318D01*
G54D14*
X547956Y1526745D02*
X547956Y1526244D01*
X563050Y1511150D01*
X562050Y659750D01*
X568550Y652250D01*
X568450Y391150D01*
X561850Y385350D01*
X547850Y385750D01*
G54D14*
X543150Y1450434D02*
X540934Y1450434D01*
X528050Y1437550D01*
X528250Y1027750D01*
X502950Y1002650D01*
X502750Y800950D01*
X480550Y777150D01*
X480050Y725550D01*
X508350Y696950D01*
X508350Y678050D01*
X509750Y676650D01*
X509750Y670350D01*
X508050Y668650D01*
X508050Y570350D01*
X515450Y562950D01*
X528050Y562950D01*
X528150Y563050D01*
G54D14*
X543150Y1424887D02*
X543150Y1418050D01*
X541050Y1415950D01*
X541050Y1342250D01*
X534850Y1336050D01*
X534850Y1021950D01*
X508750Y995450D01*
X508750Y960750D01*
X515150Y954750D01*
X524418Y954476D01*
X529150Y955850D01*
G54D14*
X452050Y929850D02*
X473750Y908150D01*
X473350Y714050D01*
X483150Y703150D01*
X482950Y640250D01*
X491050Y632150D01*
G54D14*
X452050Y955250D02*
X450850Y955250D01*
X435750Y940150D01*
X435750Y781550D01*
X445350Y771950D01*
X445150Y744050D01*
X435950Y733950D01*
X435350Y634550D01*
X467050Y602650D01*
X467050Y576650D01*
X452750Y562350D01*
G54D14*
X529150Y905050D02*
X525250Y905050D01*
X508550Y888350D01*
X509350Y792650D01*
X486950Y770150D01*
X486450Y732150D01*
X528050Y690650D01*
X527650Y624450D01*
X543450Y608850D01*
X543350Y523650D01*
X534700Y515000D01*
X528150Y511426D01*
G54D14*
X452050Y853650D02*
X452150Y853650D01*
X467950Y837850D01*
X466850Y628650D01*
X495650Y599150D01*
X495050Y479350D01*
X476750Y461150D01*
X452750Y460750D01*
G54D14*
X452450Y702250D02*
X452450Y694050D01*
X451150Y692750D01*
X451150Y634650D01*
X476350Y608950D01*
X476750Y499950D01*
X477650Y499050D01*
G54D14*
X635665Y1934332D02*
X635665Y1893365D01*
X623550Y1881250D01*
X623550Y1807750D01*
X626050Y1805250D01*
G54D14*
X600650Y1805250D02*
X600650Y1799350D01*
X597950Y1796650D01*
X597950Y1784850D01*
X607850Y1775350D01*
X607850Y1231250D01*
X631350Y1207750D01*
G54D14*
X626050Y1805250D02*
X626050Y1799850D01*
X623250Y1797050D01*
X623250Y1784750D01*
X614250Y1774950D01*
X613650Y1301650D01*
X631350Y1283950D01*
G54D14*
X631350Y1639550D02*
X656050Y1639750D01*
X668650Y1626150D01*
X668650Y1529750D01*
X671150Y1527250D01*
G54D14*
X631350Y1614150D02*
X650600Y1613800D01*
X655350Y1607250D01*
X655350Y1554650D01*
X658050Y1551950D01*
G54D14*
X681221Y1659198D02*
X680450Y1651050D01*
X680450Y1006850D01*
X681050Y1006250D01*
G54D14*
X657750Y1500950D02*
X664750Y1500950D01*
X668650Y1497050D01*
X668650Y1388250D01*
X670050Y1386850D01*
G54D14*
X658350Y1475850D02*
X658350Y1470250D01*
X655050Y1466950D01*
X655050Y795950D01*
X629950Y771050D01*
X629650Y726650D01*
X661050Y693650D01*
X660650Y613050D01*
X657650Y610050D01*
X657650Y576750D01*
X668112Y566401D01*
X674038Y561826D01*
G54D14*
X670050Y1386850D02*
X670050Y1380250D01*
X668450Y1378650D01*
X668450Y1368750D01*
X661550Y1361850D01*
X661550Y963650D01*
X670250Y956350D01*
X680650Y956350D01*
X681050Y955950D01*
G54D14*
X631350Y1410950D02*
X637650Y1410950D01*
X639650Y1412950D01*
X655150Y1412950D01*
G54D14*
X631350Y1309350D02*
X631750Y1309350D01*
X648650Y1292450D01*
X648650Y1163334D01*
X643192Y1157876D01*
G54D14*
X631350Y1207750D02*
X631350Y1201950D01*
X629750Y1200350D01*
X629750Y790950D01*
X630450Y790250D01*
G54D14*
X605350Y930450D02*
X617150Y930450D01*
X622850Y924750D01*
X623350Y802850D01*
X614050Y792950D01*
X612950Y680550D01*
X617050Y676450D01*
G54D14*
X605350Y879650D02*
X588650Y863450D01*
X587750Y698450D01*
X597450Y688350D01*
X597450Y630050D01*
X622250Y605350D01*
X621850Y502050D01*
X604350Y486026D01*
G54D14*
X681050Y879750D02*
X680850Y879750D01*
X661650Y859750D01*
X661350Y789050D01*
X635750Y763750D01*
X636050Y732050D01*
X689850Y679850D01*
X689050Y502750D01*
X674038Y485626D01*
G54D14*
X642850Y639450D02*
X642850Y630750D01*
X641450Y628150D01*
X641663Y578531D01*
X640850Y575450D01*
G54D14*
X784250Y1767750D02*
X784250Y1761650D01*
X782350Y1759750D01*
X782350Y1748650D01*
X795550Y1735450D01*
X795550Y1069350D01*
X794850Y1068650D01*
G54D14*
X733950Y1589450D02*
X730950Y1589450D01*
X719850Y1578350D01*
X719850Y1576850D01*
X713550Y1570550D01*
X713550Y1553750D01*
X715650Y1551650D01*
G54D14*
X759750Y1602050D02*
X759750Y1596350D01*
X757850Y1594450D01*
X757350Y1018032D01*
G54D14*
X835550Y1513550D02*
X835550Y1513150D01*
X846750Y1501950D01*
X846950Y1389450D01*
X837050Y1379350D01*
X837050Y1350750D01*
X822350Y1335950D01*
G54D14*
X835650Y1487450D02*
X835650Y1480150D01*
X834150Y1478650D01*
X834150Y1412950D01*
X808450Y1387250D01*
X808450Y1362750D01*
X809750Y1361450D01*
G54D14*
X809750Y1361450D02*
X809750Y1354450D01*
X808450Y1353150D01*
X808050Y1050350D01*
X801650Y1044150D01*
X801250Y806050D01*
X776150Y780650D01*
X775550Y669350D01*
X800650Y644050D01*
X800950Y562850D01*
G54D14*
X822350Y1335950D02*
X814450Y1328050D01*
X814450Y960650D01*
X821950Y954650D01*
X833650Y955650D01*
G54D14*
X770350Y1246450D02*
X770350Y1245750D01*
X776150Y1239950D01*
X776150Y796650D01*
X750650Y771150D01*
X750650Y630750D01*
X781450Y599150D01*
X781450Y399750D01*
X783250Y397950D01*
G54D14*
X833650Y854050D02*
X813850Y854050D01*
X807850Y848050D01*
X807850Y799450D01*
X782550Y773550D01*
X782050Y678350D01*
X817150Y644250D01*
X816550Y462650D01*
X820050Y460650D01*
X832950Y460550D01*
G54D14*
X802250Y511850D02*
X802250Y509950D01*
X806950Y505250D01*
X806950Y411050D01*
X808150Y409850D01*
G54D14*
X757250Y905150D02*
X738250Y884950D01*
X737750Y631250D01*
X768950Y599450D01*
X768950Y530150D01*
X750650Y511850D01*
G54D14*
X833650Y828650D02*
X821350Y828650D01*
X814150Y821450D01*
X814450Y792650D01*
X788450Y767150D01*
X788650Y691050D01*
X851850Y628250D01*
X851850Y454350D01*
X832950Y435150D01*
G54D14*
X1045150Y1806050D02*
X1045150Y1798850D01*
X1043750Y1797450D01*
X1043750Y1769550D01*
X1046350Y1766950D01*
G54D14*
X1001950Y1741950D02*
X1001950Y1736450D01*
X999750Y1734250D01*
X999750Y1716950D01*
X1044050Y1672650D01*
X1044250Y1525450D01*
X1025250Y1507450D01*
X1025250Y1223250D01*
X1018350Y1216350D01*
X1018350Y1203750D01*
X1027650Y1194450D01*
X1027650Y1154650D01*
X1036550Y1146650D01*
X1036550Y1132350D01*
X1036350Y1132150D01*
G54D14*
X986350Y1666750D02*
X994300Y1665500D01*
X1017850Y1665150D01*
X1037750Y1645550D01*
X1037750Y1531850D01*
X1018650Y1513150D01*
X1018050Y1322150D01*
X992550Y1297550D01*
X993350Y1198750D01*
X1015050Y1176450D01*
X1014650Y936450D01*
X1020750Y929550D01*
X1036450Y929850D01*
G54D14*
X986350Y1641350D02*
X1004950Y1640150D01*
X1030850Y1615450D01*
X1031050Y1538450D01*
X1012050Y1519450D01*
X1012050Y1329850D01*
X986850Y1304650D01*
X986850Y1192850D01*
X1008950Y1170250D01*
X1008750Y834050D01*
X1011150Y831650D01*
X1011150Y720550D01*
X1017150Y714550D01*
X1017150Y632450D01*
X1018050Y631550D01*
G54D14*
X1036450Y853650D02*
X1008950Y853650D01*
G54D14*
X986350Y1590550D02*
X967950Y1590550D01*
X961350Y1583950D01*
X961350Y1019750D01*
X941650Y999450D01*
X941050Y737150D01*
X991950Y686250D01*
X991850Y561450D01*
X1016650Y536550D01*
X1036550Y536850D01*
G54D14*
X886350Y1564050D02*
X936450Y1564050D01*
X942150Y1558350D01*
X942350Y1316450D01*
X948450Y1308850D01*
X948350Y1266050D01*
X941750Y1258850D01*
X941750Y1049850D01*
X948650Y1042950D01*
X948750Y1019050D01*
X935250Y1004750D01*
X934850Y681150D01*
X986150Y629350D01*
X985250Y516650D01*
X1017550Y485550D01*
X1036550Y486050D01*
G54D14*
X1012450Y1551550D02*
X1012450Y1535050D01*
X1002750Y1525550D01*
X1002750Y1342950D01*
X976950Y1317150D01*
X976950Y1251150D01*
X973950Y1248150D01*
G54D14*
X911650Y1551550D02*
X911650Y1551350D01*
X929550Y1531350D01*
X928750Y675050D01*
X979050Y625550D01*
X979050Y494950D01*
X1013550Y460050D01*
X1036550Y460650D01*
G54D14*
X973950Y1248150D02*
X973950Y1243450D01*
X977450Y1239950D01*
X976150Y777050D01*
X998850Y753650D01*
X998350Y580450D01*
X1017050Y561950D01*
X1036550Y562250D01*
G54D14*
X1005550Y1221850D02*
X1005550Y1200750D01*
X1021550Y1181850D01*
X1020950Y958850D01*
X1023350Y955350D01*
X1036350Y955350D01*
X1036450Y955250D01*
G54D14*
X1030450Y1209050D02*
X1032550Y1209050D01*
X1037350Y1204250D01*
X1037350Y1168250D01*
X1052750Y1152850D01*
X1052750Y895350D01*
X1036450Y879050D01*
G54D14*
X989650Y1159050D02*
X989650Y1028450D01*
X983150Y1020750D01*
X982834Y868288D01*
X988350Y865550D01*
G54D14*
X994850Y992650D02*
X995250Y992650D01*
X1001750Y985550D01*
X1002350Y827250D01*
X1005050Y824550D01*
X1005050Y596450D01*
X1014750Y587050D01*
X1036550Y587650D01*
G54D14*
X1036450Y828250D02*
X1032050Y828250D01*
X1017750Y813950D01*
X1017750Y733950D01*
X1036150Y713950D01*
X1036150Y612950D01*
X1030650Y607450D01*
X1019150Y607450D01*
X1018350Y606650D01*
G54D14*
X909850Y828650D02*
X893750Y812550D01*
X893750Y774750D01*
X896550Y771950D01*
X896550Y637250D01*
X928150Y605450D01*
X928250Y452950D01*
X909150Y435150D01*
G54D14*
X909850Y803250D02*
X909550Y638350D01*
X934750Y613250D01*
X934750Y431350D01*
X909150Y409750D01*
G54D14*
X1085813Y1874323D02*
X1085813Y1868613D01*
X1081650Y1864450D01*
X1081650Y1814050D01*
X1089650Y1806050D01*
G54D14*
X1123913Y1874323D02*
X1123913Y1866087D01*
X1125550Y1864450D01*
X1125550Y1808450D01*
X1128050Y1805950D01*
G54D14*
X1162013Y1874323D02*
X1162013Y1867887D01*
X1164450Y1865450D01*
X1164450Y1839850D01*
X1160750Y1836150D01*
G54D14*
X1160750Y1836150D02*
X1160750Y1831250D01*
X1164450Y1827550D01*
X1164450Y1726550D01*
X1193250Y1697750D01*
X1193450Y1554350D01*
X1177150Y1538050D01*
X1176950Y1471950D01*
X1189650Y1460350D01*
X1189650Y1298950D01*
X1190250Y1298350D01*
G54D14*
X1214950Y1654150D02*
X1214950Y1130050D01*
X1183150Y1098250D01*
X1183150Y1024450D01*
X1207850Y999750D01*
X1207850Y954050D01*
X1182150Y928550D01*
X1182950Y840850D01*
X1189150Y833350D01*
X1188950Y688550D01*
X1150650Y650250D01*
X1150350Y498250D01*
X1112750Y460650D01*
G54D14*
X1165550Y1677450D02*
X1166050Y1677450D01*
X1186650Y1656850D01*
X1186650Y1573950D01*
X1170550Y1557850D01*
X1170350Y1379750D01*
X1145250Y1354650D01*
X1145250Y1330450D01*
X1142050Y1325850D01*
X1141250Y904350D01*
X1128050Y891150D01*
X1128050Y779250D01*
X1099750Y750650D01*
X1099750Y626350D01*
X1113050Y613050D01*
G54D14*
X1209250Y1678950D02*
X1206250Y1678950D01*
X1202350Y1675050D01*
X1202750Y1551450D01*
X1183750Y1532050D01*
X1183350Y1487150D01*
X1202450Y1466550D01*
X1202250Y1241050D01*
X1170650Y1209250D01*
X1170650Y1012350D01*
X1195150Y987850D01*
X1194950Y959650D01*
X1169850Y935350D01*
X1169850Y782450D01*
X1144650Y757050D01*
X1144150Y720450D01*
X1149950Y714650D01*
X1149950Y690050D01*
X1150650Y689350D01*
G54D14*
X1171450Y1602350D02*
X1171050Y1602350D01*
X1164350Y1595650D01*
X1164550Y1386650D01*
X1138750Y1360750D01*
X1138750Y1338050D01*
X1135950Y1336050D01*
X1134750Y925850D01*
X1112650Y904450D01*
G54D14*
X1138750Y1615950D02*
X1139750Y1615950D01*
X1158150Y1595350D01*
X1158150Y1392750D01*
X1132250Y1366250D01*
X1132250Y1345050D01*
X1113050Y1326050D01*
X1113050Y1236250D01*
X1114750Y1234550D01*
G54D14*
X1202328Y1514720D02*
X1202328Y1494272D01*
X1208750Y1487850D01*
X1208750Y1139650D01*
X1176950Y1106750D01*
X1177150Y1018050D01*
X1202250Y992450D01*
X1201550Y957650D01*
X1176450Y932350D01*
X1176550Y835650D01*
X1182950Y827750D01*
X1182350Y694450D01*
X1144550Y656350D01*
X1144850Y543350D01*
X1124350Y522450D01*
X1112750Y511450D01*
G54D14*
X1242550Y1539550D02*
X1240950Y1539550D01*
X1221750Y1519750D01*
X1221150Y1054350D01*
X1214550Y1047750D01*
X1214550Y947750D01*
X1188550Y922550D01*
X1189050Y846450D01*
X1195250Y839950D01*
X1195150Y682050D01*
X1156950Y643550D01*
X1156950Y480350D01*
X1112750Y435250D01*
G54D14*
X1163850Y1247150D02*
X1163850Y1006750D01*
X1167150Y1003450D01*
X1167150Y970250D01*
X1156950Y960050D01*
X1156950Y891350D01*
X1150350Y884750D01*
X1150350Y854950D01*
X1150850Y854450D01*
G54D14*
X1114750Y1234550D02*
X1114750Y1228450D01*
X1113050Y1226750D01*
X1113250Y1209150D01*
X1128950Y1192750D01*
X1128750Y945350D01*
X1112650Y929850D01*
G54D14*
X1240750Y1184250D02*
X1240150Y1033750D01*
X1255850Y1018050D01*
X1255850Y887450D01*
X1250934Y879598D01*
X1241350Y878750D01*
G54D14*
X1241350Y1005750D02*
X1226250Y1005750D01*
X1220750Y999550D01*
X1220550Y960750D01*
X1227550Y954750D01*
X1241150Y955150D01*
X1241350Y954950D01*
G54D14*
X1201150Y915750D02*
X1198910Y915750D01*
X1195122Y911963D01*
X1195122Y853178D01*
X1202050Y845950D01*
X1201750Y622050D01*
X1185850Y607250D01*
X1185550Y557350D01*
X1192350Y550050D01*
X1201550Y550050D01*
X1202650Y548950D01*
G54D14*
X1241350Y904150D02*
X1226250Y904150D01*
X1220550Y897650D01*
X1220850Y847050D01*
X1214450Y840350D01*
X1214150Y587250D01*
X1234450Y566550D01*
X1240750Y561250D01*
G54D14*
X1153650Y979350D02*
X1153650Y973650D01*
X1150750Y970750D01*
X1150750Y901050D01*
X1135250Y885050D01*
X1134750Y773450D01*
X1113150Y753050D01*
X1112650Y639250D01*
X1113750Y638150D01*
G54D14*
X1179350Y966850D02*
X1163250Y951450D01*
X1163750Y790150D01*
X1132150Y758550D01*
X1131350Y719850D01*
X1125750Y714250D01*
X1131650Y708850D01*
X1131650Y581050D01*
X1112750Y562250D01*
G54D14*
X1150650Y689350D02*
X1150650Y689250D01*
X1137550Y675750D01*
X1138250Y561850D01*
X1112750Y536850D01*
G54D14*
X1209750Y879250D02*
X1209750Y872150D01*
X1207950Y870350D01*
X1207950Y611850D01*
X1195150Y599850D01*
X1195450Y582850D01*
X1202045Y574350D01*
G54D14*
X1182782Y637213D02*
X1183050Y619050D01*
X1169750Y606550D01*
X1169450Y544650D01*
X1176050Y535650D01*
X1240650Y535692D01*
G54D14*
X1241350Y827950D02*
X1238350Y827950D01*
X1220750Y808750D01*
X1220450Y605550D01*
X1240750Y586650D01*
G54D14*
X1240750Y485050D02*
X1232550Y486650D01*
X1214150Y485850D01*
X1200950Y472250D01*
X1200950Y381650D01*
X1202550Y371450D01*
G54D14*
X1214250Y459950D02*
X1213650Y409450D01*
G54D14*
X1316950Y485050D02*
X1329850Y485050D01*
X1340650Y474250D01*
X1341300Y419300D01*
X1342450Y410050D01*
G54D14*
X1354850Y460850D02*
X1354850Y436050D01*
X1353950Y435150D01*
G54D14*
X1343050Y1691850D02*
X1342850Y1310450D01*
X1367650Y1284950D01*
X1367450Y1184650D01*
X1355050Y1172250D01*
X1355050Y951050D01*
X1367350Y938350D01*
X1367450Y888750D01*
X1361350Y881950D01*
X1360850Y784350D01*
X1385750Y759450D01*
X1385750Y517350D01*
X1379650Y511250D01*
G54D14*
X1311750Y1590050D02*
X1311350Y1590050D01*
X1304050Y1582750D01*
X1304050Y1057150D01*
X1316550Y1044650D01*
X1316550Y1006750D01*
X1317550Y1005750D01*
G54D14*
X1329550Y1184050D02*
X1329550Y1069550D01*
X1329050Y1069050D01*
G54D14*
X1394950Y1590350D02*
X1396950Y1590350D01*
X1412650Y1574650D01*
X1412650Y1538550D01*
X1415950Y1535150D01*
X1415550Y1474650D01*
X1444150Y1445050D01*
X1444150Y1285150D01*
X1392750Y1233750D01*
X1392750Y1119950D01*
X1367450Y1094850D01*
X1367450Y1025050D01*
X1386550Y1005350D01*
X1386550Y873050D01*
X1392350Y867250D01*
X1392576Y802520D01*
G54D14*
X1425050Y1551850D02*
X1425050Y1508250D01*
X1432050Y1501250D01*
G54D14*
X1394950Y1514150D02*
X1394950Y1513350D01*
X1409550Y1498750D01*
X1409750Y1468450D01*
X1431350Y1447050D01*
X1431750Y1308050D01*
X1431650Y1298450D01*
G54D14*
X1394950Y1488750D02*
X1393750Y1488750D01*
X1374150Y1469150D01*
X1374150Y1406050D01*
X1393550Y1385950D01*
X1393550Y1336250D01*
X1380750Y1324050D01*
X1380750Y1298950D01*
X1380350Y1298550D01*
G54D14*
X1394950Y1463350D02*
X1412250Y1443150D01*
X1412850Y1316450D01*
X1406450Y1310850D01*
G54D14*
X1356150Y1273150D02*
X1356150Y1255050D01*
X1348450Y1247350D01*
X1348450Y944950D01*
X1360850Y932050D01*
X1360550Y894850D01*
X1354350Y888150D01*
X1354650Y765350D01*
X1348050Y759050D01*
X1348050Y726550D01*
X1379950Y694650D01*
X1379650Y549650D01*
X1366750Y537550D01*
X1366750Y448050D01*
X1379850Y434950D01*
G54D14*
X1377450Y1157350D02*
X1370400Y1155082D01*
X1361250Y1145950D01*
X1361250Y958250D01*
X1373150Y945150D01*
X1373750Y884650D01*
X1367150Y878350D01*
X1367150Y797450D01*
X1392750Y771850D01*
X1392750Y618050D01*
X1398650Y612150D01*
G54D14*
X1394250Y1069650D02*
X1385550Y1068250D01*
X1373750Y1056050D01*
X1373750Y1036950D01*
X1392750Y1018750D01*
X1392750Y930450D01*
X1418950Y904250D01*
G54D14*
X1393650Y1044150D02*
X1393650Y1043850D01*
X1399450Y1038050D01*
X1399450Y949150D01*
X1418950Y929650D01*
G54D14*
X1418350Y1031450D02*
X1418350Y1016050D01*
X1434450Y999950D01*
X1434450Y963750D01*
X1427450Y956750D01*
X1420650Y956750D01*
X1418950Y955050D01*
G54D14*
X1375650Y980950D02*
X1375650Y977350D01*
X1379950Y973050D01*
X1379950Y828150D01*
X1380450Y827650D01*
G54D14*
X1317550Y954950D02*
X1319850Y954950D01*
X1335250Y939550D01*
X1335250Y901050D01*
X1341850Y894450D01*
X1341850Y777850D01*
X1329250Y764150D01*
X1328950Y695450D01*
X1366750Y657050D01*
X1367050Y568750D01*
X1354350Y555550D01*
X1354610Y486150D01*
G54D14*
X1348350Y917550D02*
X1348350Y771350D01*
X1341450Y764950D01*
X1341450Y699850D01*
X1346450Y694850D01*
X1348450Y694850D01*
X1354350Y688950D01*
G54D14*
X1317550Y929550D02*
X1317550Y904150D01*
X1315250Y904150D01*
X1299750Y888650D01*
X1300150Y677950D01*
X1341550Y638350D01*
X1341050Y575150D01*
G54D14*
X1317550Y853350D02*
X1317550Y826950D01*
X1334850Y809650D01*
X1334850Y783050D01*
X1316550Y765250D01*
X1315750Y688250D01*
X1352850Y652050D01*
X1353050Y639350D01*
X1354650Y637750D01*
G54D14*
X1418950Y853450D02*
X1399050Y834050D01*
X1399050Y657050D01*
X1417650Y638450D01*
X1417650Y599550D01*
X1398250Y580450D01*
X1398250Y492450D01*
X1392050Y486250D01*
X1392050Y460450D01*
G54D14*
X1418950Y536750D02*
X1433250Y522450D01*
X1433550Y476650D01*
X1423150Y466550D01*
X1423150Y464750D01*
X1418950Y460550D01*
G54D14*
X1418950Y460550D02*
X1416050Y460550D01*
X1398250Y442750D01*
X1398750Y400750D01*
X1394250Y397250D01*
X1379550Y396450D01*
G54D14*
X1725250Y1805550D02*
X1725250Y1797750D01*
X1723550Y1796050D01*
X1723550Y1745750D01*
X1726150Y1743150D01*
X1726150Y1736350D01*
X1723950Y1734150D01*
X1723950Y1705550D01*
X1724550Y1704950D01*
G54D14*
X1533150Y1691950D02*
X1533150Y1413450D01*
X1534050Y1412550D01*
G54D14*
X1585550Y1666250D02*
X1555650Y1636450D01*
X1555450Y1415450D01*
X1557850Y1413050D01*
G54D14*
X1585550Y1640850D02*
X1576200Y1634500D01*
X1562250Y1620750D01*
X1562250Y1460350D01*
X1570950Y1450850D01*
X1570950Y1438450D01*
X1570650Y1438150D01*
G54D14*
X1469550Y1589550D02*
X1469550Y1553350D01*
X1470450Y1552450D01*
G54D14*
X1494250Y1602550D02*
X1495282Y1467237D01*
X1495250Y1463350D01*
G54D14*
X1506750Y1513450D02*
X1506750Y1453550D01*
X1494750Y1441550D01*
X1494750Y1022750D01*
X1510250Y1007250D01*
X1510250Y685850D01*
X1507150Y682750D01*
X1507150Y581250D01*
X1509550Y578850D01*
X1509550Y426750D01*
X1499050Y416250D01*
X1499050Y413650D01*
X1495150Y409750D01*
G54D14*
X1585550Y1615450D02*
X1568850Y1597950D01*
X1568650Y1478050D01*
X1584650Y1463250D01*
G54D14*
X1648956Y1857331D02*
X1648956Y1844456D01*
X1647250Y1842750D01*
X1647450Y1836450D01*
X1536950Y1725450D01*
X1523750Y1724850D01*
X1514450Y1715450D01*
X1514650Y1545050D01*
X1520650Y1538050D01*
X1520650Y1450150D01*
X1501950Y1431150D01*
X1501550Y1177850D01*
X1507550Y1170850D01*
X1507550Y1152150D01*
X1507950Y1151750D01*
G54D14*
X1700769Y1832044D02*
X1700769Y1822969D01*
X1695950Y1818150D01*
X1696350Y1796650D01*
X1687150Y1786250D01*
X1610350Y1786250D01*
X1540050Y1715850D01*
X1529550Y1715450D01*
X1520650Y1705150D01*
X1520650Y1558650D01*
X1526250Y1552450D01*
X1527050Y1444050D01*
X1507950Y1424250D01*
X1507550Y1197650D01*
X1520050Y1185150D01*
X1520050Y1122550D01*
X1507950Y1110850D01*
X1507950Y1088550D01*
X1508450Y1088050D01*
G54D14*
X1725100Y1855631D02*
X1716200Y1831600D01*
X1708350Y1802850D01*
X1708350Y1782650D01*
X1686750Y1761150D01*
X1607450Y1760950D01*
X1556050Y1708850D01*
X1556450Y1672250D01*
X1546550Y1660850D01*
X1545950Y1393150D01*
X1514350Y1361350D01*
X1514350Y1201750D01*
X1527050Y1189850D01*
X1527050Y1102350D01*
X1526350Y1101650D01*
G54D14*
X1527250Y1272550D02*
X1527250Y1209350D01*
X1539050Y1197550D01*
X1539050Y972350D01*
X1545350Y966050D01*
X1545350Y900750D01*
X1535550Y890150D01*
X1535550Y879750D01*
X1535250Y879450D01*
G54D14*
X1583946Y1183732D02*
X1564750Y1183650D01*
X1558750Y1177350D01*
X1558150Y1005850D01*
X1558450Y1005550D01*
G54D14*
X1584150Y1159050D02*
X1570550Y1157450D01*
X1565350Y1151650D01*
X1564350Y1033050D01*
X1570650Y1026750D01*
X1570650Y992950D01*
X1558550Y980850D01*
G54D14*
X1583750Y1133850D02*
X1583750Y990850D01*
X1583050Y990150D01*
X1583050Y980950D01*
X1582550Y980450D01*
G54D14*
X1552950Y1273150D02*
X1551650Y1273150D01*
X1545350Y1266850D01*
X1545350Y974950D01*
X1551950Y968350D01*
X1551950Y864850D01*
X1549250Y862150D01*
X1549250Y855650D01*
X1547650Y854050D01*
G54D14*
X1508250Y1044550D02*
X1508250Y1037950D01*
X1507150Y1036850D01*
X1507150Y1029150D01*
X1523550Y1012750D01*
X1523550Y977750D01*
X1538750Y962550D01*
X1539050Y920050D01*
X1522650Y904950D01*
X1523150Y863750D01*
X1535250Y850850D01*
X1535250Y808850D01*
X1516950Y789750D01*
X1516350Y647350D01*
X1538750Y625150D01*
X1538750Y511450D01*
X1539350Y510850D01*
G54D14*
X1584250Y954450D02*
X1565950Y954450D01*
X1560850Y949350D01*
X1561350Y802950D01*
X1528950Y770550D01*
X1528950Y705150D01*
X1559050Y675050D01*
G54D14*
X1525750Y954850D02*
X1525750Y919850D01*
X1516550Y910650D01*
X1516550Y857050D01*
X1518450Y855150D01*
X1518450Y846450D01*
X1523950Y840950D01*
G54D14*
X1584250Y878250D02*
X1571950Y878250D01*
X1567150Y873450D01*
X1567750Y714050D01*
X1583450Y697650D01*
X1583450Y675350D01*
X1583550Y675250D01*
G54D14*
X1495150Y802650D02*
X1493550Y645150D01*
X1494650Y644050D01*
G54D14*
X1547850Y827950D02*
X1547850Y823050D01*
X1545350Y820550D01*
X1545350Y799050D01*
X1522850Y777350D01*
X1522750Y673550D01*
X1557750Y638350D01*
X1557750Y624650D01*
X1558150Y624250D01*
G54D14*
X1495150Y904250D02*
X1493250Y904250D01*
X1478350Y889350D01*
X1478350Y778150D01*
X1482050Y772250D01*
X1480750Y624350D01*
X1487350Y617750D01*
X1488550Y617750D01*
X1494750Y611550D01*
G54D14*
X1584250Y852850D02*
X1584250Y827450D01*
G54D14*
X1519450Y612250D02*
X1519450Y493450D01*
X1520050Y492850D01*
X1520050Y489350D01*
X1523850Y485550D01*
G54D14*
X1583750Y536150D02*
X1577950Y536150D01*
X1576050Y538050D01*
X1564350Y538050D01*
X1557350Y531050D01*
X1557850Y499050D01*
X1531950Y474250D01*
X1532350Y434150D01*
G54D14*
X1583750Y510750D02*
X1569650Y510350D01*
X1564350Y505750D01*
X1563950Y479950D01*
X1544850Y460350D01*
G54D14*
X1726050Y1666750D02*
X1726050Y1663750D01*
X1746050Y1643750D01*
X1746450Y1376750D01*
X1764150Y1360950D01*
G54D14*
X1725550Y1641150D02*
X1725550Y1639250D01*
X1740150Y1624650D01*
X1739750Y1357950D01*
X1764150Y1335550D01*
G54D14*
X1724750Y1615450D02*
X1724750Y1613750D01*
X1733550Y1604950D01*
X1733550Y1336250D01*
X1756150Y1313650D01*
X1760650Y1313650D01*
X1764150Y1310150D01*
G54D14*
X1699650Y1628150D02*
X1699650Y1622350D01*
X1701950Y1620050D01*
X1701950Y1617250D01*
X1727450Y1591750D01*
X1727450Y1390250D01*
X1717750Y1380550D01*
X1699150Y1380550D01*
X1692150Y1373550D01*
X1692150Y1342550D01*
X1698150Y1335350D01*
X1699350Y1197150D01*
X1699150Y1196950D01*
G54D14*
X1724484Y1298115D02*
X1724484Y1272784D01*
X1711250Y1259550D01*
X1711250Y1203150D01*
X1717350Y1197050D01*
X1717350Y1114750D01*
X1718650Y1113450D01*
X1719050Y1113450D01*
X1724250Y1108250D01*
G54D14*
X1711650Y1590450D02*
X1711650Y1577450D01*
X1721050Y1568050D01*
X1721050Y1437750D01*
X1711450Y1428150D01*
X1711450Y1401250D01*
X1713050Y1399650D01*
G54D14*
X1661750Y1590050D02*
X1675350Y1590050D01*
X1714450Y1550950D01*
X1714450Y1456350D01*
X1686250Y1428150D01*
X1686250Y1215450D01*
X1679450Y1208650D01*
X1679450Y1126550D01*
X1685350Y1120650D01*
X1685350Y1086250D01*
X1717750Y1053850D01*
X1717750Y1012150D01*
X1739950Y989950D01*
X1739950Y948750D01*
X1736250Y945050D01*
X1736250Y882450D01*
X1732850Y879050D01*
G54D14*
X1661750Y1564650D02*
X1682650Y1564650D01*
X1708150Y1539150D01*
X1708150Y1466050D01*
X1679850Y1437750D01*
X1679850Y1221850D01*
X1673250Y1215250D01*
X1673250Y1120750D01*
X1679650Y1114350D01*
X1679650Y1082050D01*
X1710850Y1050150D01*
X1710650Y1006750D01*
X1733450Y982350D01*
X1733450Y958450D01*
X1729450Y954250D01*
X1729450Y903650D01*
X1717150Y891350D01*
X1717150Y866150D01*
X1729450Y853850D01*
X1729450Y831250D01*
X1733350Y827350D01*
G54D14*
X1686750Y1539350D02*
X1686750Y1538350D01*
X1695450Y1529650D01*
X1695450Y1502450D01*
X1696550Y1501350D01*
G54D14*
X1661750Y1539250D02*
X1666350Y1539250D01*
X1682950Y1522650D01*
X1682950Y1455650D01*
X1673450Y1446150D01*
X1673450Y1234450D01*
X1660550Y1221550D01*
X1660550Y1113950D01*
X1666950Y1107550D01*
X1666950Y1095350D01*
X1667550Y1094750D01*
G54D14*
X1788450Y1692750D02*
X1788450Y1681950D01*
X1778050Y1671550D01*
X1778050Y1656150D01*
X1768250Y1646350D01*
X1768250Y1644450D01*
X1764150Y1640350D01*
G54D14*
X1821650Y1704450D02*
X1821650Y1699150D01*
X1818850Y1696350D01*
X1818850Y1668250D01*
X1800250Y1649650D01*
X1800250Y1616350D01*
X1801250Y1615350D01*
G54D14*
X1795250Y1666350D02*
X1795050Y1666350D01*
X1787550Y1658850D01*
X1787550Y1546750D01*
X1788850Y1545450D01*
X1788850Y1545050D01*
X1794450Y1539450D01*
G54D14*
X1764150Y1589550D02*
X1764150Y1587050D01*
X1777850Y1573350D01*
X1777850Y1469150D01*
X1787750Y1459250D01*
X1787750Y1274150D01*
X1788850Y1273050D01*
G54D14*
X1661750Y1513850D02*
X1661750Y1512950D01*
X1676550Y1498150D01*
X1676550Y1468950D01*
X1667150Y1459550D01*
X1667150Y1240750D01*
X1654150Y1227750D01*
X1654150Y1075750D01*
X1660350Y1069550D01*
X1660350Y1058550D01*
X1661750Y1057150D01*
G54D14*
X1661750Y1488450D02*
X1660550Y1247850D01*
X1647850Y1234550D01*
X1647850Y993250D01*
X1678950Y962150D01*
X1678950Y936250D01*
X1698250Y916950D01*
X1698250Y881650D01*
X1691250Y874650D01*
X1691250Y809750D01*
X1698150Y802850D01*
G54D14*
X1737450Y1247850D02*
X1737450Y1247750D01*
X1723950Y1234250D01*
X1723950Y1203350D01*
X1736650Y1190650D01*
X1736650Y1054250D01*
X1755750Y1035150D01*
X1758950Y1035150D01*
X1763050Y1031050D01*
G54D14*
X1737750Y1222050D02*
X1737750Y1215250D01*
X1736650Y1214150D01*
X1736650Y1203850D01*
X1743450Y1197050D01*
X1743450Y1075450D01*
X1757450Y1061450D01*
X1758050Y1061450D01*
X1763050Y1056450D01*
G54D14*
X1764150Y1208550D02*
X1764150Y1203250D01*
X1762050Y1201150D01*
X1762050Y1145750D01*
X1781150Y1126650D01*
X1781150Y1088850D01*
X1775450Y1083150D01*
X1764350Y1083150D01*
X1763050Y1081850D01*
G54D14*
X1667550Y1094750D02*
X1667550Y1081650D01*
X1673050Y1076150D01*
X1673050Y1002250D01*
X1711450Y963850D01*
X1711450Y955250D01*
X1711950Y954750D01*
G54D14*
X1661750Y1057150D02*
X1661750Y1050350D01*
X1660150Y1048750D01*
X1660150Y992850D01*
X1691950Y961050D01*
X1691950Y943250D01*
X1692450Y942750D01*
G54D14*
X1698750Y1018550D02*
X1698750Y995950D01*
X1723750Y970950D01*
X1723750Y911050D01*
X1711150Y897650D01*
X1711150Y859950D01*
X1722850Y847450D01*
X1722850Y835750D01*
X1718050Y830950D01*
X1718050Y811050D01*
X1726350Y802750D01*
X1726350Y736350D01*
X1716650Y726650D01*
X1716650Y631350D01*
X1722850Y625150D01*
G54D14*
X1725350Y1070050D02*
X1725350Y1063350D01*
X1723250Y1061250D01*
X1723250Y1019150D01*
X1745650Y996750D01*
X1745650Y755650D01*
X1735950Y745950D01*
X1735950Y677250D01*
X1736750Y676450D01*
G54D14*
X1711350Y929950D02*
X1709050Y929950D01*
X1704150Y925050D01*
X1704150Y844750D01*
X1707550Y841350D01*
G54D14*
X1707550Y841350D02*
X1707550Y836950D01*
X1704650Y834050D01*
X1704650Y821750D01*
X1710350Y816050D01*
X1710350Y779750D01*
X1691450Y760850D01*
X1691450Y733050D01*
X1697650Y726850D01*
X1697650Y613250D01*
X1698750Y612150D01*
G54D14*
X1685750Y903850D02*
X1685750Y702250D01*
X1684950Y701450D01*
G54D14*
X1660450Y929050D02*
X1660450Y903650D01*
G54D14*
X1660450Y878250D02*
X1659550Y878250D01*
X1644350Y863050D01*
X1644350Y677150D01*
X1646850Y674650D01*
G54D14*
X1660450Y802050D02*
X1660450Y687050D01*
X1672150Y675350D01*
G54D14*
X1672350Y725850D02*
X1672350Y695150D01*
X1685150Y682350D01*
X1685150Y598950D01*
X1722850Y561050D01*
X1722850Y540250D01*
X1719950Y537350D01*
X1711250Y537350D01*
X1704650Y530750D01*
X1704650Y516550D01*
X1722650Y498550D01*
X1722650Y485950D01*
X1723050Y485550D01*
G54D14*
X1711250Y549450D02*
X1706350Y549450D01*
X1697150Y540250D01*
X1697150Y508050D01*
X1710150Y495050D01*
X1710150Y447650D01*
X1709750Y447250D01*
G54D14*
X1659950Y536150D02*
X1673150Y536150D01*
X1685350Y523950D01*
X1685350Y448050D01*
X1685450Y447950D01*
G54D14*
X1698150Y485250D02*
X1698150Y437450D01*
X1709850Y425750D01*
X1709850Y409850D01*
G54D14*
X1659950Y510750D02*
X1658750Y510750D01*
X1643650Y495650D01*
X1643650Y404050D01*
X1671950Y375750D01*
X1671950Y339450D01*
X1672350Y339050D01*
G54D14*
X1685350Y422150D02*
X1685350Y376250D01*
X1678950Y369850D01*
X1671850Y369850D01*
G54D14*
X1839050Y1691950D02*
X1839050Y1675050D01*
X1825450Y1661450D01*
X1826050Y1272750D01*
X1851350Y1246850D01*
X1851550Y1073050D01*
X1838250Y1059750D01*
X1838250Y1046250D01*
X1840150Y1044350D01*
G54D14*
X1814550Y1640850D02*
X1814550Y1636750D01*
X1819150Y1632150D01*
X1819150Y1082050D01*
X1825450Y1075750D01*
X1825450Y993250D01*
X1825550Y993150D01*
G54D14*
X1839350Y1653550D02*
X1839350Y1651350D01*
X1832350Y1644350D01*
X1832350Y1278950D01*
X1857850Y1253450D01*
X1857850Y1038150D01*
X1844550Y1024850D01*
X1844550Y778550D01*
X1837250Y771250D01*
X1837250Y769450D01*
X1832550Y764750D01*
G54D14*
X1838250Y1234550D02*
X1838250Y1234250D01*
X1832050Y1228050D01*
X1832050Y1088850D01*
X1838350Y1082550D01*
G54D14*
X1813650Y1044150D02*
X1811950Y1044150D01*
X1799650Y1031850D01*
X1799650Y948850D01*
X1806250Y942250D01*
X1806250Y847550D01*
X1812850Y840950D01*
X1812850Y827450D01*
X1812550Y827150D01*
G54D14*
X1813650Y1018950D02*
X1813650Y865150D01*
X1825050Y853750D01*
X1825050Y814450D01*
X1812650Y802050D01*
G54D14*
X1826250Y942150D02*
X1827950Y942150D01*
X1837950Y932150D01*
X1837950Y789650D01*
X1818450Y770150D01*
X1818450Y669550D01*
X1824750Y663250D01*
X1824750Y601850D01*
X1827250Y599350D01*
G54D14*
X1826950Y917050D02*
X1826950Y910450D01*
X1825050Y908550D01*
X1825050Y866350D01*
X1831350Y860050D01*
X1831350Y796650D01*
X1812550Y777850D01*
X1812550Y574831D01*
X1813038Y574344D01*
G54D14*
X1882250Y612050D02*
X1882250Y478850D01*
X1888550Y472550D01*
G54D14*
X1800050Y536350D02*
X1800050Y524550D01*
X1768650Y493150D01*
X1768650Y461650D01*
X1766750Y459750D01*
G54D14*
X1852156Y549025D02*
X1852156Y547244D01*
X1863050Y536350D01*
X1863050Y397550D01*
X1850050Y384550D01*
G54D14*
X1850744Y524038D02*
X1850744Y515044D01*
X1850150Y514450D01*
X1850150Y423850D01*
X1842450Y416150D01*
X1842450Y412350D01*
X1837850Y407750D01*
G54D14*
X1837650Y485450D02*
X1836550Y485450D01*
X1824750Y473650D01*
X1824750Y384850D01*
X1850950Y358650D01*
G54D14*
X1811944Y459938D02*
X1811944Y435856D01*
X1818050Y429750D01*
X1818050Y379250D01*
X1811450Y372650D01*
X1811450Y346950D01*
X1812550Y345850D01*
G54D14*
X1884350Y1678150D02*
X1884350Y1653550D01*
X1884150Y1653350D01*
G54D14*
X1878750Y1780250D02*
X1876650Y1780250D01*
X1870050Y1773650D01*
X1870050Y1435650D01*
X1857850Y1423450D01*
X1857850Y1324050D01*
X1870750Y1311150D01*
G54D14*
X1904150Y1780250D02*
X1901650Y1780250D01*
X1895450Y1774050D01*
X1895450Y1444050D01*
X1869650Y1418250D01*
X1869650Y1337550D01*
X1871150Y1336050D01*
G54D14*
X1898050Y1830738D02*
X1898050Y1818750D01*
X1895450Y1816150D01*
X1895450Y1811650D01*
X1926850Y1780250D01*
X2080550Y1780250D01*
X2081150Y1779650D01*
G54D14*
X2043750Y1766850D02*
X1980950Y1766850D01*
X1979950Y1767850D01*
G54D14*
X1876112Y1856019D02*
X1899019Y1856019D01*
X1914950Y1871950D01*
X2063050Y1871950D01*
X2076650Y1858350D01*
X2076650Y1833850D01*
X2077650Y1832850D01*
X2077650Y1829550D01*
X2082150Y1825050D01*
G54D14*
X1916550Y1411750D02*
X1913650Y1411750D01*
X1886150Y1382850D01*
X1886350Y1018950D01*
X1869650Y1002250D01*
X1869650Y935050D01*
X1874550Y930150D01*
X1889450Y930150D01*
X1889550Y930250D01*
G54D14*
X1916550Y1386350D02*
X1913750Y1386350D01*
X1892750Y1364550D01*
X1891950Y1008850D01*
X1875950Y992850D01*
X1875950Y968750D01*
X1882550Y962150D01*
X1882750Y962150D01*
X1889750Y955150D01*
G54D14*
X1916550Y1360950D02*
X1915150Y1360950D01*
X1898950Y1344750D01*
X1898950Y988750D01*
X1890550Y980350D01*
G54D14*
X1915450Y853250D02*
X1913350Y853250D01*
X1894750Y834650D01*
X1894750Y759750D01*
X1907650Y746850D01*
X1907650Y649150D01*
X1913150Y643650D01*
G54D14*
X1942250Y1678850D02*
X1935950Y1678850D01*
X1933350Y1676250D01*
X1933350Y1196650D01*
X1946050Y1183950D01*
X1946050Y1137850D01*
X1940550Y1132350D01*
X1940050Y883750D01*
X1946350Y877950D01*
G54D14*
X1954050Y1628450D02*
X1953850Y1628450D01*
X1940150Y1614750D01*
X1940150Y1209750D01*
X1952350Y1197550D01*
X1952350Y1131950D01*
X1946650Y1125150D01*
X1946650Y911950D01*
X1946950Y909750D01*
X1946950Y909250D01*
X1953050Y903150D01*
G54D14*
X1960350Y1602250D02*
X1960250Y1602250D01*
X1946450Y1588450D01*
X1946450Y1272650D01*
X1958650Y1260450D01*
X1958650Y1040950D01*
X1974950Y1024650D01*
X1974750Y869050D01*
X1990750Y853250D01*
G54D14*
X1959650Y1005950D02*
X1959650Y1003350D01*
X1965050Y997950D01*
X1965050Y960350D01*
X1959750Y955050D01*
X1961750Y955050D01*
X1965446Y950902D01*
X1965450Y765950D01*
X1974550Y755050D01*
X1974550Y716150D01*
X1978050Y712650D01*
G54D14*
X1966150Y1577150D02*
X1966150Y1576950D01*
X1953250Y1564050D01*
X1952450Y1316750D01*
X1997150Y1272650D01*
X1997150Y1208350D01*
X2016150Y1189350D01*
X2016150Y1064450D01*
X2006250Y1054550D01*
X2006250Y843350D01*
X1990750Y827850D01*
G54D14*
X1967050Y1551550D02*
X1967050Y1550650D01*
X1959150Y1542750D01*
X1959150Y1322450D01*
X2009850Y1271750D01*
X2009850Y1215150D01*
X2022050Y1202950D01*
X2022050Y1060950D01*
X2012050Y1050950D01*
X2012850Y825050D01*
X1990750Y802450D01*
G54D14*
X1979450Y1450350D02*
X1979450Y1440450D01*
X1978150Y1439150D01*
X1978150Y1317450D01*
X2016150Y1279450D01*
X2016150Y1222950D01*
X2029750Y1209350D01*
X2046950Y1209350D01*
X2047850Y1208450D01*
G54D14*
X1997450Y1398750D02*
X1997450Y1328750D01*
X2022450Y1303750D01*
X2022450Y1241050D01*
X2041550Y1221950D01*
X2053750Y1221950D01*
X2061450Y1214250D01*
X2062250Y1214250D01*
X2067950Y1208550D01*
G54D14*
X2017150Y1335550D02*
X2017150Y1335050D01*
X2060550Y1291650D01*
X2060550Y1235150D01*
X2061050Y1234650D01*
G54D14*
X2036450Y1589950D02*
X2036450Y1589750D01*
X2022950Y1576250D01*
X2022950Y1348250D01*
X2080150Y1291050D01*
X2079750Y783250D01*
X2085650Y777550D01*
X2142050Y778150D01*
X2143150Y777050D01*
G54D14*
X2042350Y1564750D02*
X2039850Y1564750D01*
X2028550Y1553450D01*
X2028550Y1355850D01*
X2086050Y1298350D01*
X2086050Y808150D01*
X2090950Y803250D01*
X2142350Y803250D01*
X2143150Y802450D01*
G54D14*
X1979194Y1265741D02*
X1976041Y1265741D01*
X1971450Y1261150D01*
X1971450Y1190450D01*
X1964750Y1183750D01*
X1964750Y1092150D01*
X1973850Y1083050D01*
X1989550Y1083050D01*
X1990750Y1081850D01*
G54D14*
X1979194Y1138740D02*
X1979194Y1138006D01*
X1989850Y1127350D01*
X1989850Y1108150D01*
X1990750Y1107250D01*
G54D14*
X1985681Y1234666D02*
X1985681Y1226981D01*
X1983950Y1225250D01*
X1983950Y1196250D01*
X2009350Y1170850D01*
X2009350Y1075050D01*
X1990750Y1056450D01*
G54D14*
X2041697Y1139037D02*
X2040937Y1139037D01*
X2028150Y1126250D01*
X2028150Y1039450D01*
X2026150Y1037450D01*
G54D14*
X2042850Y1107350D02*
X2042850Y1101550D01*
X2040750Y1099450D01*
X2040750Y1034250D01*
X2028550Y1022050D01*
X2028550Y999750D01*
X2029550Y998750D01*
G54D14*
X1915450Y1031050D02*
X1918250Y1031050D01*
X1932750Y1016550D01*
X1932750Y763950D01*
X1920150Y751350D01*
X1920150Y689650D01*
X1921450Y688350D01*
G54D14*
X2030350Y974250D02*
X2027050Y974250D01*
X2021550Y968750D01*
X2022650Y708450D01*
X1945450Y631050D01*
X1945250Y536750D01*
X1945650Y536350D01*
X3351754Y782257D02*
G54D10*
D03*
G54D14*
X3397850Y1709750D02*
X3397850Y1753950D01*
X3397450Y1754350D01*
G54D14*
X3327450Y1759250D02*
X3327450Y1757650D01*
X3421250Y1663850D01*
X3421250Y1653725D01*
X3422125Y1652850D01*
G54D14*
X3283750Y1754550D02*
X3283750Y1750250D01*
X3293650Y1740350D01*
X3331650Y1740350D01*
X3358350Y1713650D01*
X3357550Y1675850D01*
X3370050Y1664350D01*
X3370050Y1654125D01*
X3371325Y1652850D01*
G54D14*
X3396725Y1652850D02*
X3396725Y1659475D01*
X3375850Y1680350D01*
X3375850Y1689150D01*
X3378750Y1692050D01*
G54D14*
X3345925Y1652850D02*
X3345925Y1706475D01*
X3337350Y1714450D01*
X2883350Y1715050D01*
X2839650Y1670950D01*
X2763150Y1670550D01*
X2673650Y1759450D01*
X2155250Y1760050D01*
X2125050Y1728650D01*
X1977850Y1728450D01*
X1971550Y1723350D01*
X1971350Y1582350D01*
X1966150Y1577150D01*
G54D14*
X3320525Y1652850D02*
X3320525Y1700675D01*
X3312350Y1707450D01*
X2886550Y1708850D01*
X2843050Y1664550D01*
X2756350Y1664550D01*
X2668050Y1753050D01*
X2161850Y1753850D01*
X2130650Y1722650D01*
X1984650Y1722650D01*
X1977350Y1715350D01*
X1977350Y1561850D01*
X1967050Y1551550D01*
G54D14*
X3295125Y1652850D02*
X3294125Y1694375D01*
X3287850Y1701850D01*
X2890050Y1701850D01*
X2846850Y1658250D01*
X2750250Y1658250D01*
X2660850Y1746850D01*
X2168550Y1747050D01*
X2137050Y1716350D01*
X1990350Y1716350D01*
X1984050Y1710050D01*
X1984050Y1541550D01*
X1976850Y1534350D01*
X1976850Y1528450D01*
X1978850Y1526450D01*
G54D14*
X3269725Y1652850D02*
X3269725Y1659975D01*
X3268450Y1661650D01*
X3268850Y1687650D01*
X3261050Y1695250D01*
X2894050Y1695850D01*
X2850250Y1652050D01*
X2744150Y1651850D01*
X2654750Y1740450D01*
X2173950Y1741450D01*
X2143650Y1709150D01*
X1997250Y1709350D01*
X1990450Y1702950D01*
X1990050Y1511950D01*
X1979450Y1501350D01*
G54D14*
X3244325Y1652850D02*
X3244325Y1661175D01*
X3242850Y1662650D01*
X3242850Y1683150D01*
X3236550Y1688650D01*
X2897950Y1689650D01*
X2854350Y1646050D01*
X2736850Y1646050D01*
X2647850Y1734250D01*
X2181450Y1734650D01*
X2150450Y1703650D01*
X2004250Y1703450D01*
X1997050Y1696650D01*
X1997050Y1493850D01*
X1978850Y1475650D01*
G54D14*
X1979450Y1450350D02*
X1979450Y1452250D01*
X2003050Y1475850D01*
X2003250Y1691050D01*
X2009850Y1697250D01*
X2156050Y1697050D01*
X2188550Y1728550D01*
X2641350Y1727750D01*
X2731250Y1639650D01*
X2857750Y1639450D01*
X2903350Y1683450D01*
X3210850Y1682650D01*
X3217450Y1675850D01*
X3218925Y1652850D01*
G54D14*
X3193525Y1652850D02*
X3192125Y1669675D01*
X3186450Y1676150D01*
X2905850Y1677350D01*
X2862150Y1632850D01*
X2724450Y1633250D01*
X2635650Y1721650D01*
X2193550Y1722050D01*
X2162850Y1690550D01*
X2016350Y1690350D01*
X2010050Y1685050D01*
X2010050Y1441450D01*
X1996650Y1428050D01*
X1996650Y1399550D01*
X1997450Y1398750D01*
G54D14*
X2806850Y1766450D02*
X2802650Y1774950D01*
X2796750Y1850050D01*
X2775650Y1865650D01*
X2672350Y1863050D01*
X2600750Y1778950D01*
X2130550Y1778550D01*
X2099050Y1747850D01*
X1941250Y1747850D01*
X1933450Y1740050D01*
X1933450Y1687650D01*
X1942250Y1678850D01*
G54D14*
X2832450Y1684750D02*
X2828950Y1684750D01*
X2779550Y1734150D01*
X2725250Y1732750D01*
X2684350Y1772350D01*
X2143450Y1772750D01*
X2111450Y1741150D01*
X1965550Y1741350D01*
X1958450Y1734850D01*
X1958450Y1632850D01*
X1954050Y1628450D01*
G54D14*
X2813050Y1683550D02*
X2809400Y1691300D01*
X2777550Y1723950D01*
X2724950Y1722450D01*
X2680050Y1765450D01*
X2149050Y1766650D01*
X2118350Y1734550D01*
X1971150Y1734150D01*
X1964750Y1728350D01*
X1964550Y1606450D01*
X1960350Y1602250D01*
G54D14*
X3168125Y1652850D02*
X3168125Y1662475D01*
X3159050Y1669950D01*
X2910450Y1670550D01*
X2866550Y1627250D01*
X2718950Y1626450D01*
X2629050Y1715750D01*
X2200350Y1715750D01*
X2169450Y1684450D01*
X2021850Y1684250D01*
X2016150Y1678350D01*
X2015550Y1337150D01*
X2017150Y1335550D01*
G54D14*
X3142725Y1652850D02*
X3142725Y1631125D01*
X3135050Y1623450D01*
X2901350Y1623450D01*
X2892950Y1613850D01*
X2302550Y1614650D01*
X2276650Y1588750D01*
X2276650Y1446250D01*
X2254550Y1424150D01*
X2254550Y1342850D01*
X2277550Y1319850D01*
X2277550Y1298250D01*
X2278250Y1297550D01*
G54D14*
X2990325Y1652850D02*
X2990325Y1638825D01*
X2981750Y1630250D01*
X2896750Y1630250D01*
X2887250Y1620550D01*
X2713350Y1619950D01*
X2622750Y1709850D01*
X2238650Y1709850D01*
X2201250Y1672450D01*
X2036650Y1672450D01*
X2036150Y1671950D01*
G54D14*
X3421425Y1603050D02*
X3421425Y1588025D01*
X3369650Y1538350D01*
X2852050Y1538350D01*
X2826350Y1563850D01*
X2423750Y1563650D01*
X2391350Y1531850D01*
X2391350Y1342150D01*
X2371850Y1322650D01*
X2371850Y1173250D01*
X2359650Y1161050D01*
X2326650Y1161050D01*
X2314650Y1149050D01*
X2314650Y841550D01*
X2321350Y834850D01*
X2332250Y834850D01*
X2333950Y833150D01*
G54D14*
X3396025Y1603050D02*
X3396025Y1589325D01*
X3351750Y1544450D01*
X2859050Y1544650D01*
X2832750Y1570150D01*
X2372150Y1570550D01*
X2352950Y1551350D01*
X2352950Y1209150D01*
X2308450Y1164650D01*
X2308450Y859950D01*
X2302150Y853650D01*
G54D14*
X3370625Y1603050D02*
X3370625Y1589225D01*
X3333250Y1550850D01*
X2865150Y1550450D01*
X2839250Y1575950D01*
X2366250Y1576750D01*
X2347350Y1557850D01*
X2347350Y1216550D01*
X2301950Y1171150D01*
X2301950Y897850D01*
X2296050Y891950D01*
X2296050Y878350D01*
X2295950Y878250D01*
G54D14*
X3345225Y1603050D02*
X3345225Y1589825D01*
X3314050Y1556850D01*
X2871050Y1557250D01*
X2845150Y1582150D01*
X2359750Y1583550D01*
X2340250Y1564050D01*
X2340250Y1222150D01*
X2295750Y1177650D01*
X2295750Y936150D01*
X2288950Y929350D01*
X2288950Y917350D01*
X2288750Y917150D01*
G54D14*
X3319825Y1603050D02*
X3319825Y1589825D01*
X3293650Y1562850D01*
X2877850Y1563850D01*
X2851850Y1588850D01*
X2353350Y1589650D01*
X2334350Y1570650D01*
X2334350Y1228150D01*
X2289850Y1183650D01*
X2289850Y962750D01*
X2282250Y955150D01*
G54D14*
X3294425Y1603050D02*
X3294425Y1589125D01*
X3275750Y1569650D01*
X2883750Y1570450D01*
X2858050Y1595150D01*
X2347450Y1596150D01*
X2328050Y1576750D01*
X2328050Y1234550D01*
X2283350Y1189850D01*
X2283350Y1000450D01*
X2277450Y994550D01*
X2277450Y981350D01*
X2276950Y980850D01*
G54D14*
X3269025Y1603050D02*
X3269025Y1589025D01*
X3256050Y1575450D01*
X2889550Y1576650D01*
X2864150Y1601650D01*
X2340350Y1601850D01*
X2321350Y1582850D01*
X2321350Y1240850D01*
X2276350Y1195850D01*
X2276350Y1011650D01*
X2254050Y989350D01*
X2254050Y983950D01*
X2251450Y981350D01*
G54D14*
X3243625Y1603050D02*
X3243625Y1588325D01*
X3236650Y1581550D01*
X2896750Y1582550D01*
X2870350Y1607550D01*
X2334350Y1608550D01*
X2315550Y1589750D01*
X2315550Y1247050D01*
X2270750Y1202650D01*
X2270750Y1031550D01*
X2250950Y1011750D01*
G54D14*
X3461550Y1551250D02*
X3461550Y1554550D01*
X3465650Y1558650D01*
X3465650Y1618550D01*
X3467750Y1620650D01*
G54D14*
X3472950Y1664850D02*
X3472950Y1638250D01*
X3484350Y1626850D01*
X3484350Y1594550D01*
X3477850Y1588050D01*
X3477850Y1572950D01*
X3480650Y1570150D01*
G54D14*
X3493350Y1652850D02*
X3493350Y1646350D01*
X3490850Y1643850D01*
X3490850Y1563250D01*
X3478750Y1551150D01*
G54D14*
X3224450Y1468350D02*
X3223250Y1468350D01*
X3214250Y1477350D01*
X3214250Y1516050D01*
X3204550Y1525750D01*
X3182550Y1525750D01*
X3180950Y1527350D01*
G54D14*
X3180950Y1527350D02*
X3171800Y1525600D01*
X3147850Y1525450D01*
X3142150Y1531650D01*
X2893950Y1531650D01*
X2881650Y1519350D01*
X2820750Y1519350D01*
X2789150Y1550950D01*
X2436250Y1551350D01*
X2403850Y1518950D01*
X2404250Y1329150D01*
X2385050Y1310550D01*
X2385050Y1190350D01*
X2410050Y1165350D01*
X2410050Y1057250D01*
X2441850Y1025450D01*
X2441850Y759150D01*
X2449650Y751350D01*
X2449650Y750050D01*
X2455150Y744550D01*
G54D14*
X3142650Y1500850D02*
X3140750Y1500850D01*
X3115550Y1526050D01*
X2900250Y1526050D01*
X2887750Y1513550D01*
X2815050Y1512750D01*
X2782150Y1544850D01*
X2442050Y1544850D01*
X2410650Y1514050D01*
X2410650Y1323350D01*
X2397750Y1310450D01*
X2397750Y1190350D01*
X2422750Y1165350D01*
X2422750Y1082650D01*
X2423650Y1081750D01*
G54D14*
X3091850Y1500850D02*
X3089950Y1500850D01*
X3071150Y1519650D01*
X2906850Y1519650D01*
X2894250Y1507050D01*
X2807650Y1506650D01*
X2776050Y1538050D01*
X2449050Y1538450D01*
X2416950Y1507150D01*
X2416950Y1317550D01*
X2404050Y1304650D01*
X2404050Y1209250D01*
X2441750Y1171550D01*
X2441750Y1068850D01*
X2436550Y1063650D01*
X2424450Y1063650D01*
X2423250Y1062450D01*
G54D14*
X3066450Y1500850D02*
X3066450Y1493450D01*
X3065350Y1492350D01*
X3065350Y1487550D01*
X3058850Y1481050D01*
X3058850Y1459150D01*
X3052350Y1452650D01*
X3052350Y1405850D01*
X3046350Y1399850D01*
X2919850Y1399850D01*
X2913150Y1393350D01*
X2855350Y1393350D01*
X2845850Y1383850D01*
X2845850Y1238050D01*
X2839850Y1232050D01*
X2774950Y1232050D01*
X2765650Y1241350D01*
X2765650Y1263250D01*
X2756050Y1272850D01*
X2722550Y1272850D01*
X2715050Y1265350D01*
X2715050Y1225950D01*
X2717650Y1223350D01*
X2728050Y1223350D01*
X2729750Y1221650D01*
G54D14*
X2728850Y1253850D02*
X2728850Y1242550D01*
X2752050Y1219350D01*
X2931850Y1219350D01*
X2941350Y1228850D01*
X2941350Y1326750D01*
X2947650Y1333050D01*
X3068850Y1333050D01*
X3083650Y1347850D01*
X3083650Y1394050D01*
X3064850Y1412850D01*
X3064850Y1437050D01*
X3077850Y1450050D01*
X3077850Y1468350D01*
X3078650Y1469150D01*
G54D14*
X3168050Y1500850D02*
X3161200Y1492800D01*
X3148250Y1481050D01*
X3071650Y1481650D01*
X3065050Y1475050D01*
X3065050Y1448850D01*
X3059050Y1442850D01*
X3059050Y1351850D01*
X3046850Y1339650D01*
X2942150Y1339650D01*
X2934350Y1331850D01*
X2934350Y1233950D01*
X2926050Y1225650D01*
X2763150Y1225650D01*
X2748450Y1240350D01*
G54D14*
X3076650Y1425050D02*
X3076650Y1413850D01*
X3090050Y1400450D01*
X3090050Y1338350D01*
X3078250Y1326550D01*
X2957250Y1326550D01*
X2947050Y1316350D01*
X2947050Y1217850D01*
X2939050Y1209850D01*
X2785850Y1209850D01*
X2753550Y1177050D01*
X2708850Y1176750D01*
X2695850Y1164650D01*
X2695850Y1129550D01*
X2688650Y1122350D01*
X2682650Y1122350D01*
X2679750Y1119450D01*
G54D14*
X3048250Y1468550D02*
X3048250Y1461350D01*
X3046050Y1459150D01*
X3046050Y1415350D01*
X3036650Y1405950D01*
X2910050Y1405950D01*
X2907150Y1402250D01*
X2833450Y1402250D01*
X2798050Y1437450D01*
X2773050Y1437450D01*
X2734750Y1474750D01*
X2566550Y1474950D01*
X2543850Y1453050D01*
X2543850Y1291250D01*
X2556750Y1278350D01*
X2556750Y1247950D01*
X2557550Y1247150D01*
G54D14*
X3015650Y1500850D02*
X3015650Y1486150D01*
X3008450Y1478950D01*
X2932150Y1478350D01*
X2915250Y1494850D01*
X2795850Y1493950D01*
X2763750Y1526350D01*
X2461550Y1525950D01*
X2429850Y1494050D01*
X2429450Y1304050D01*
X2416850Y1291450D01*
X2416850Y1228650D01*
X2453850Y1191650D01*
X2453850Y1007550D01*
X2467150Y994250D01*
X2467150Y787750D01*
X2461950Y782550D01*
X2461150Y782550D01*
X2455150Y776550D01*
G54D14*
X2990250Y1500850D02*
X2990250Y1491750D01*
X2983050Y1485150D01*
X2937950Y1484550D01*
X2922050Y1500850D01*
X2801250Y1500450D01*
X2769050Y1531850D01*
X2455350Y1532250D01*
X2423350Y1500850D01*
X2423350Y1310350D01*
X2410850Y1297850D01*
X2410850Y1221850D01*
X2448350Y1184350D01*
X2448350Y834550D01*
X2455450Y827450D01*
G54D14*
X2875375Y1462300D02*
X2875375Y1474125D01*
X2861550Y1487950D01*
X2748850Y1487950D01*
X2742350Y1493650D01*
X2493350Y1493650D01*
X2480650Y1481550D01*
X2480650Y1323450D01*
X2435650Y1278450D01*
X2435650Y1248450D01*
X2436950Y1247150D01*
G54D14*
X3034550Y1443450D02*
X2931450Y1443450D01*
X2919050Y1455850D01*
X2919050Y1466150D01*
X2920450Y1467550D01*
G54D14*
X2995750Y1425250D02*
X2916250Y1425250D01*
X2900050Y1409050D01*
X2836350Y1409050D01*
X2801050Y1444350D01*
X2775050Y1444350D01*
X2737350Y1481650D01*
X2528650Y1481450D01*
X2505850Y1459850D01*
X2505850Y1298150D01*
X2473350Y1265650D01*
X2473350Y1248750D01*
X2474950Y1247150D01*
G54D14*
X2868750Y1425250D02*
X2868750Y1436350D01*
X2855050Y1450050D01*
X2855050Y1475450D01*
X2848650Y1481850D01*
X2746350Y1481850D01*
X2740250Y1487450D01*
X2503250Y1487350D01*
X2493250Y1477950D01*
X2493050Y1314250D01*
X2454850Y1276050D01*
X2454850Y1247950D01*
X2455950Y1246850D01*
G54D14*
X2895150Y1311550D02*
X2895150Y1283550D01*
X2912450Y1266250D01*
X2912450Y1247150D01*
X2912850Y1246750D01*
G54D14*
X2867950Y1284750D02*
X2867950Y1276550D01*
X2885850Y1258650D01*
X2885850Y1248350D01*
X2887450Y1246750D01*
G54D14*
X2730050Y1462250D02*
X2686150Y1462250D01*
X2680450Y1456550D01*
X2680450Y1437450D01*
X2690250Y1427650D01*
X2690250Y1304350D01*
X2696450Y1298150D01*
X2696450Y1240650D01*
X2645450Y1189650D01*
X2645450Y1135450D01*
X2616250Y1106250D01*
X2617250Y809050D01*
X2648350Y777350D01*
X2648350Y580950D01*
X2634050Y566650D01*
X2631450Y566650D01*
X2625950Y561150D01*
G54D14*
X2569850Y1379750D02*
X2576550Y1379750D01*
X2577650Y1380850D01*
X2690450Y1380850D01*
G54D14*
X2729750Y1316650D02*
X2729750Y1310050D01*
X2728250Y1308550D01*
X2728250Y1304950D01*
X2708450Y1285150D01*
X2708450Y1228050D01*
X2660650Y1180250D01*
X2660650Y1120750D01*
X2629250Y1089350D01*
X2629250Y965350D01*
X2638650Y955950D01*
X2650250Y955950D01*
X2651350Y954850D01*
G54D14*
X2703950Y1316250D02*
X2703950Y1309250D01*
X2702550Y1307850D01*
X2702550Y1234450D01*
X2651650Y1183550D01*
X2651650Y1127350D01*
X2623050Y1098750D01*
X2623050Y825050D01*
X2657750Y790350D01*
X2657750Y740050D01*
X2670450Y727350D01*
X2734050Y727350D01*
X2735850Y725550D01*
G54D14*
X2677550Y776550D02*
X2670750Y776550D01*
X2669250Y778050D01*
X2657850Y778050D01*
G54D14*
X2633750Y1247550D02*
X2633750Y1236050D01*
X2575350Y1177650D01*
X2575350Y1113950D01*
X2581750Y1107550D01*
X2581750Y591050D01*
X2564350Y573650D01*
G54D14*
X2602050Y1158850D02*
X2585950Y1158850D01*
X2581950Y1154850D01*
X2581950Y1123350D01*
X2588450Y1116850D01*
X2588450Y572350D01*
X2564350Y548250D01*
G54D14*
X2651350Y954850D02*
X2651350Y930550D01*
X2652850Y929050D01*
G54D14*
X2652350Y903750D02*
X2713250Y903750D01*
X2721350Y895650D01*
X2721350Y790750D01*
X2734050Y778050D01*
X2803050Y778050D01*
X2804550Y776550D01*
G54D14*
X2868450Y1012150D02*
X2868450Y987150D01*
X2868450Y906150D01*
X2816650Y854350D01*
X2779450Y854350D01*
X2778850Y853750D01*
G54D14*
X2779350Y879050D02*
X2721450Y879050D01*
G54D14*
X2779850Y929050D02*
X2779850Y904250D01*
X2779350Y903750D01*
X2823250Y903750D01*
X2824050Y902950D01*
G54D14*
X2824050Y928350D02*
X2830350Y928350D01*
X2832350Y930350D01*
X2868250Y930350D01*
G54D14*
X2754350Y833050D02*
X2761364Y834169D01*
X2824050Y834050D01*
X2866950Y791450D01*
X2867150Y777550D01*
X2868150Y776550D01*
G54D14*
X2756350Y809350D02*
X2829950Y809350D01*
X2842150Y797150D01*
X2842150Y777150D01*
X2842750Y776550D01*
G54D14*
X2651850Y853750D02*
X2686550Y853750D01*
X2701950Y838350D01*
X2701950Y774150D01*
X2714450Y761650D01*
X2737650Y761450D01*
X2749650Y749450D01*
X2749650Y663650D01*
X2742550Y656550D01*
X2741650Y656550D01*
X2734850Y649750D01*
G54D14*
X2804550Y776550D02*
X2804550Y708250D01*
X2816850Y695750D01*
X2896194Y695532D01*
X2900550Y693650D01*
G54D14*
X2842750Y776550D02*
X2842350Y727250D01*
X2855050Y714550D01*
X2912050Y714350D01*
X2918350Y708450D01*
X2918350Y676750D01*
X2910750Y669150D01*
X2900850Y669150D01*
X2900550Y669450D01*
G54D14*
X2868150Y776550D02*
X2867750Y733350D01*
X2880750Y720750D01*
X2921050Y720350D01*
X2924850Y716950D01*
X2924850Y646650D01*
X2916050Y638650D01*
X2858250Y639250D01*
X2855650Y636650D01*
G54D14*
X2735350Y688650D02*
X2730608Y685763D01*
X2695350Y685350D01*
X2679150Y669150D01*
X2679150Y532050D01*
X2678150Y531050D01*
G54D14*
X2732972Y613031D02*
X2679450Y612750D01*
G54D14*
X2773550Y693650D02*
X2773550Y669450D01*
G54D14*
X2855650Y636650D02*
X2855650Y619650D01*
X2861850Y613450D01*
X2891850Y613450D01*
X2893950Y611350D01*
G54D14*
X2830250Y636650D02*
X2829450Y588250D01*
G54D14*
X2766342Y587490D02*
X2842350Y588050D01*
X2866850Y563250D01*
X2892050Y563250D01*
X2893950Y561350D01*
G54D14*
X2767450Y535150D02*
X2762352Y537097D01*
X2733750Y562550D01*
X2701304Y560808D01*
G54D14*
X3097550Y1087150D02*
X3087770Y1088524D01*
X3043350Y1088250D01*
X2969650Y1016050D01*
X2969650Y790350D01*
X3019650Y740350D01*
X3019650Y718550D01*
X3008850Y707750D01*
G54D14*
X2995150Y858650D02*
X2995150Y835150D01*
X2996750Y833550D01*
X2996750Y809350D01*
X2995750Y808350D01*
X2996750Y808350D01*
X3033050Y772050D01*
X3033050Y708950D01*
X3034250Y707750D01*
G54D14*
X3098050Y1063450D02*
X3030150Y1063450D01*
X2979050Y1012350D01*
X2979050Y990750D01*
X3001950Y967850D01*
X3001950Y964850D01*
X3007150Y959650D01*
G54D14*
X3006750Y1011450D02*
X3009150Y1011450D01*
X3109250Y911350D01*
X3122250Y911350D01*
X3123750Y909850D01*
G54D14*
X3007150Y959650D02*
X3016150Y959650D01*
X3018850Y962350D01*
X3045950Y962350D01*
X3084250Y924050D01*
X3084250Y708550D01*
X3085050Y707750D01*
G54D14*
X2996750Y909850D02*
X3038050Y909850D01*
X3058850Y889050D01*
X3058850Y708550D01*
X3059650Y707750D01*
G54D14*
X3267350Y1224350D02*
X3269150Y1224350D01*
X3284650Y1208850D01*
X3284650Y1084850D01*
X3301450Y1068050D01*
X3301450Y1071450D01*
X3344350Y1114350D01*
X3389350Y1114350D01*
X3396050Y1107650D01*
X3396050Y1063550D01*
X3382850Y1050350D01*
X3382850Y1047850D01*
X3377650Y1042650D01*
G54D14*
X3301450Y1093450D02*
X3301450Y1114850D01*
X3307650Y1121050D01*
X3414850Y1121050D01*
X3427850Y1108050D01*
X3427850Y1094450D01*
X3429650Y1092650D01*
G54D14*
X3429650Y1016450D02*
X3429650Y1021650D01*
X3446850Y1038850D01*
X3446850Y1079050D01*
X3437050Y1088850D01*
X3433450Y1088850D01*
X3429650Y1092650D01*
G54D14*
X3429650Y1067250D02*
X3425250Y1067250D01*
X3408650Y1050650D01*
X3408650Y1013650D01*
X3423650Y998650D01*
X3423650Y997050D01*
X3429650Y991050D01*
G54D14*
X3377650Y1068050D02*
X3375450Y1068050D01*
X3361050Y1053650D01*
X3361050Y949650D01*
X3368850Y941850D01*
X3376850Y941850D01*
X3377650Y941050D01*
G54D14*
X3377650Y1017250D02*
X3381950Y1017250D01*
X3411850Y987350D01*
X3411850Y907850D01*
X3420850Y898850D01*
X3446850Y898850D01*
X3472350Y924350D01*
X3472350Y937350D01*
X3497850Y962850D01*
X3503050Y962850D01*
X3505850Y965650D01*
G54D14*
X3505850Y991050D02*
X3500950Y991050D01*
X3497650Y994350D01*
X3478350Y994350D01*
X3431350Y947350D01*
X3431350Y941950D01*
X3429650Y940250D01*
G54D14*
X3377650Y991850D02*
X3378850Y991850D01*
X3405350Y965350D01*
X3405350Y905650D01*
X3417150Y892850D01*
X3476350Y892413D01*
X3479650Y896950D01*
G54D14*
X3505850Y914850D02*
X3505850Y909550D01*
X3503650Y907350D01*
X3503850Y898050D01*
X3491050Y885650D01*
X3408450Y885650D01*
X3351050Y943050D01*
X3351050Y981150D01*
X3312850Y1019350D01*
X3303550Y1019350D01*
X3301450Y1017250D01*
G54D14*
X3301450Y991850D02*
X3301450Y991250D01*
X3328350Y964350D01*
X3328350Y956050D01*
X3439350Y845050D01*
X3523350Y845050D01*
X3545050Y823350D01*
X3545050Y784250D01*
X3557650Y771650D01*
X3557650Y670650D01*
X3544650Y657650D01*
X3544650Y521150D01*
X3516350Y492850D01*
X3312450Y492850D01*
X3299650Y505650D01*
X2631850Y505350D01*
X2625850Y511650D01*
X2615350Y511650D01*
G54D14*
X3803750Y968850D02*
X3803750Y963250D01*
X3715850Y875350D01*
X3717450Y737350D01*
X3765250Y688950D01*
X3786588Y689319D01*
X3790950Y688050D01*
G54D14*
X3490350Y864850D02*
X3493450Y864850D01*
X3503550Y854750D01*
X3525350Y854750D01*
X3554850Y825250D01*
X3554850Y787250D01*
X3563550Y778550D01*
X3563550Y660550D01*
X3550750Y647750D01*
X3552050Y518450D01*
X3517050Y483450D01*
X3309050Y483450D01*
X3280850Y455250D01*
X3143850Y455250D01*
X3128550Y470550D01*
X3128550Y492750D01*
X3121750Y499550D01*
X2886450Y498750D01*
X2842150Y455050D01*
X2742650Y455050D01*
X2740650Y453050D01*
G54D14*
X3797850Y396650D02*
X3709150Y396650D01*
X3708450Y397350D01*
G54D14*
X3675550Y523450D02*
X3675550Y467950D01*
X3682850Y460650D01*
G54D14*
X3512250Y384650D02*
X3510488Y391982D01*
X3510168Y440550D01*
X3517887Y449630D01*
X3523350Y447550D01*
G54D14*
X3707950Y522550D02*
X3707950Y534450D01*
X3704450Y537950D01*
X3704250Y600250D01*
X3691750Y613350D01*
X3655650Y613350D01*
X3643450Y625750D01*
X3574550Y625950D01*
X3567450Y619450D01*
X3567250Y521150D01*
X3507350Y461550D01*
X3345250Y461550D01*
X3307350Y423650D01*
X3077450Y423650D01*
X3064350Y410550D01*
X3064350Y263350D01*
X3052550Y251250D01*
X2572150Y250750D01*
X2509850Y314050D01*
X2509850Y454550D01*
X2518350Y463050D01*
X2518350Y775050D01*
X2513050Y780350D01*
X2500950Y780350D01*
X2500850Y780250D01*
G54D14*
X3701250Y1381600D02*
X3701250Y1404050D01*
X3690250Y1415050D01*
X3676150Y1415050D01*
X3676000Y1415200D01*
G54D14*
X3250450Y1017050D02*
X3246550Y1017050D01*
X3230750Y1000050D01*
X3230350Y939850D01*
X3239350Y930050D01*
X3283750Y930050D01*
X3293550Y920050D01*
X3344450Y920450D01*
X3359750Y905550D01*
X3359750Y821950D01*
X3350450Y812650D01*
X3350450Y784750D01*
X3352150Y783050D01*
G54D14*
X3377650Y966450D02*
X3378750Y966450D01*
X3395850Y949350D01*
X3395850Y917650D01*
X3386050Y907850D01*
G54D14*
X3250450Y966250D02*
X3258050Y966250D01*
X3296850Y927450D01*
X3347850Y927450D01*
X3436050Y839250D01*
X3515350Y839250D01*
X3535250Y819350D01*
X3535250Y782250D01*
X3548750Y768750D01*
X3548750Y702950D01*
X3535250Y689450D01*
X3535250Y524550D01*
X3522950Y512250D01*
X3513650Y512250D01*
X3511650Y510250D01*
G54D14*
X3504550Y797250D02*
X3504550Y771450D01*
X3504050Y770950D01*
G54D14*
X3504050Y770950D02*
X3529750Y770950D01*
X3542450Y758250D01*
X3542450Y709650D01*
X3528950Y696150D01*
X3528950Y616950D01*
X3513250Y601250D01*
X3494250Y601250D01*
X3491750Y598750D01*
G54D14*
X3523150Y746050D02*
X3490550Y746050D01*
X3484550Y740050D01*
X3484550Y727450D01*
G54D14*
X3446950Y699750D02*
X3446950Y721450D01*
X3453350Y727850D01*
X3497750Y727850D01*
X3509950Y715650D01*
X3509950Y657050D01*
X3511150Y655850D01*
G54D14*
X3472350Y699750D02*
X3472350Y689450D01*
X3459050Y675950D01*
X3459050Y619250D01*
X3465650Y613050D01*
X3465650Y599450D01*
X3466350Y598750D01*
G54D14*
X3384150Y655850D02*
X3391835Y657475D01*
X3423850Y657450D01*
X3440250Y641350D01*
X3440250Y599450D01*
X3440950Y598750D01*
G54D14*
X3440950Y598750D02*
X3440950Y522550D01*
G54D14*
X3415550Y598750D02*
X3415550Y576050D01*
X3402750Y563250D01*
X3375350Y562450D01*
X3364150Y549050D01*
X3364750Y522550D01*
G54D14*
X3327350Y644250D02*
X3327150Y644250D01*
X3318750Y635850D01*
X3318750Y548950D01*
X3282450Y512650D01*
X2638150Y511350D01*
X2625550Y524450D01*
X2625550Y533850D01*
G54D14*
X2651240Y549890D02*
X2654707Y541815D01*
X2654750Y529950D01*
X2666450Y518550D01*
X2918750Y518550D01*
X2937750Y537550D01*
X2937750Y683550D01*
X2983750Y729550D01*
X2993250Y729550D01*
X2996250Y732550D01*
G54D14*
X3174250Y1017050D02*
X3171250Y1017050D01*
X3157150Y1002950D01*
X3157150Y929950D01*
X3173150Y914150D01*
X3255250Y914150D01*
X3269850Y899550D01*
X3279150Y899950D01*
X3281550Y897550D01*
G54D14*
X3174250Y991650D02*
X3176850Y991650D01*
X3192150Y976350D01*
X3192150Y939350D01*
X3211150Y920550D01*
X3281550Y920550D01*
X3287750Y913750D01*
X3340850Y914150D01*
X3353750Y901650D01*
X3353750Y850150D01*
X3338650Y835050D01*
X3338650Y822250D01*
X3339850Y821050D01*
G54D14*
X3281550Y897550D02*
X3295250Y897550D01*
X3317550Y878050D01*
X3331350Y878050D01*
X3344050Y865350D01*
X3344050Y854050D01*
X3319150Y829150D01*
X3319150Y825750D01*
X3314450Y821050D01*
G54D14*
X3289050Y821050D02*
X3289050Y823850D01*
X3327050Y861850D01*
G54D14*
X3314450Y821050D02*
X3314450Y792950D01*
X3354250Y753150D01*
X3354250Y711750D01*
X3338650Y696150D01*
X3265250Y695550D01*
X3230750Y730050D01*
X3163050Y730450D01*
X3159750Y733750D01*
X3159750Y742550D01*
X3162050Y744850D01*
G54D14*
X3263650Y744850D02*
X3261569Y740430D01*
X3261550Y727350D01*
X3280250Y708050D01*
X3324119Y708025D01*
X3327050Y706950D01*
G54D14*
X3123250Y732550D02*
X3123750Y732550D01*
X3132450Y723850D01*
X3210150Y724050D01*
X3217550Y717250D01*
X3217550Y638850D01*
X3205250Y626550D01*
X3189250Y626550D01*
X3178650Y637150D01*
X3178650Y653650D01*
X3177450Y654850D01*
X3142450Y654850D01*
X3135250Y647650D01*
X3135250Y632150D01*
X3135850Y631550D01*
G54D14*
X3135850Y707750D02*
X3135850Y691350D01*
X3144850Y682750D01*
X3185850Y683150D01*
X3198550Y669350D01*
X3198550Y646050D01*
X3200350Y644250D01*
G54D14*
X3504050Y770950D02*
X3426050Y770950D01*
X3344950Y689850D01*
X3236050Y689850D01*
X3223650Y676750D01*
X3223950Y635050D01*
X3163750Y574850D01*
X3061850Y575150D01*
X3010550Y524650D01*
X2958950Y524450D01*
X2950450Y533750D01*
X2950450Y604250D01*
X2963450Y617250D01*
X3004350Y617250D01*
X3009450Y622350D01*
X3009450Y630950D01*
X3008850Y631550D01*
G54D14*
X3059650Y631550D02*
X3058850Y631550D01*
X3046250Y618950D01*
X3046250Y606850D01*
X3046750Y606350D01*
G54D14*
X2983450Y631550D02*
X2955350Y631550D01*
X2944050Y620250D01*
X2944050Y529950D01*
X2955950Y518550D01*
X3123150Y518550D01*
X3134150Y529550D01*
G54D14*
X3034250Y631550D02*
X3032850Y623750D01*
X3033000Y619300D01*
X3021050Y607350D01*
X2976150Y607350D01*
X2969650Y600850D01*
X2969650Y586850D01*
X2969450Y586650D01*
X2969450Y559850D01*
X2969450Y535150D01*
G54D14*
X3085050Y631550D02*
X3083850Y613250D01*
X3089850Y607050D01*
X3172450Y607650D01*
X3173750Y606350D01*
G54D14*
X3239550Y566950D02*
X3236250Y556542D01*
X3236250Y539950D01*
X3226850Y531350D01*
X3135950Y531350D01*
X3134150Y529550D01*
G54D14*
X3390150Y522550D02*
X3390150Y492850D01*
G54D14*
X2538650Y1247150D02*
X2538650Y1089450D01*
X2506150Y1056950D01*
X2505550Y865650D01*
X2518550Y852850D01*
G54D14*
X2519550Y1247150D02*
X2519550Y1083550D01*
X2499350Y1063350D01*
X2499350Y837750D01*
X2510350Y826750D01*
X2518450Y826750D01*
X2519150Y827450D01*
G54D14*
X2493850Y1247150D02*
X2493850Y1227350D01*
X2505850Y1215350D01*
X2505850Y1088150D01*
X2493150Y1075450D01*
X2492550Y812650D01*
X2502950Y803050D01*
X2517750Y803050D01*
X2518850Y801950D01*
G54D14*
X2564350Y726050D02*
X2557150Y726050D01*
X2555150Y728050D01*
X2545750Y728050D01*
X2537350Y736450D01*
X2537350Y866850D01*
X2518450Y885750D01*
X2518450Y967050D01*
X2518850Y967450D01*
G54D14*
X2564350Y878450D02*
X2545050Y878450D01*
X2530850Y892650D01*
X2530850Y1028650D01*
X2532350Y1030150D01*
G54D14*
X2543950Y1049450D02*
X2543950Y911050D01*
X2549350Y905650D01*
X2562550Y905650D01*
X2564350Y903850D01*
G54D14*
X2834750Y1532250D02*
X2823350Y1532250D01*
X2797350Y1558250D01*
X2430050Y1557650D01*
X2397750Y1525350D01*
X2397350Y1335750D01*
X2378250Y1316650D01*
X2378250Y1184750D01*
X2403850Y1159150D01*
X2403850Y1053350D01*
X2435650Y1021550D01*
X2435650Y733250D01*
X2479550Y689350D01*
X2479550Y560950D01*
X2467150Y548550D01*
G54D14*
X2334150Y1145650D02*
X2390650Y1145650D01*
X2397650Y1138650D01*
X2397650Y1050550D01*
X2429350Y1018850D01*
X2429350Y726050D01*
X2454350Y701050D01*
X2454350Y530750D01*
X2461050Y524050D01*
X2461050Y509850D01*
X2461150Y509750D01*
G54D14*
X2334240Y1126450D02*
X2385850Y1126450D01*
X2386050Y1126250D01*
G54D14*
X2335050Y1107850D02*
X2384650Y1107850D01*
X2386050Y1106450D01*
G54D14*
X2334450Y1087750D02*
X2384850Y1087750D01*
X2385050Y1087550D01*
G54D14*
X2334750Y1068950D02*
X2385350Y1068950D01*
X2385550Y1068750D01*
G54D14*
X2334750Y1050050D02*
X2384450Y1050050D01*
X2385050Y1049450D01*
G54D14*
X2334350Y1031250D02*
X2384450Y1031250D01*
X2385550Y1030150D01*
G54D14*
X2334350Y1005850D02*
X2411550Y1005850D01*
X2411950Y1005450D01*
G54D14*
X2333550Y980450D02*
X2411550Y980450D01*
X2411950Y980050D01*
G54D14*
X2334150Y955650D02*
X2410950Y955650D01*
X2411950Y954650D01*
G54D14*
X2332950Y916850D02*
X2352450Y916850D01*
X2366250Y929650D01*
X2407870Y929825D01*
X2411950Y929250D01*
G54D14*
X2333950Y897950D02*
X2350750Y897950D01*
X2362950Y911150D01*
X2384250Y911150D01*
X2385150Y910250D01*
G54D14*
X2332950Y879550D02*
X2347450Y879550D01*
X2360150Y891650D01*
X2385050Y891650D01*
X2398650Y906250D01*
X2409550Y906250D01*
X2411950Y903850D01*
G54D14*
X2334250Y853650D02*
X2346350Y853650D01*
X2372050Y879350D01*
X2411050Y879350D01*
X2411950Y878450D01*
G54D14*
X2333950Y833150D02*
X2344350Y833150D01*
X2365550Y854350D01*
X2410650Y854350D01*
X2411950Y853050D01*
G54D14*
X2333550Y815350D02*
X2338950Y815350D01*
X2359050Y835450D01*
X2383450Y835450D01*
X2385150Y833750D01*
G54D14*
X2333750Y796750D02*
X2336750Y796750D01*
X2342050Y790350D01*
X2372250Y790250D01*
X2405450Y824150D01*
X2408450Y824150D01*
X2411950Y827650D01*
G54D14*
X2333950Y777050D02*
X2411750Y777050D01*
X2411950Y776850D01*
G54D14*
X2334150Y758050D02*
X2372850Y758050D01*
X2378250Y752650D01*
X2410750Y752650D01*
X2411950Y751450D01*
G54D14*
X2333750Y739044D02*
X2385056Y739044D01*
X2396750Y727350D01*
X2410650Y727350D01*
X2411950Y726050D01*
G54D14*
X2334250Y713950D02*
X2384950Y713950D01*
X2385450Y713450D01*
G54D14*
X2334150Y688756D02*
X2384644Y688756D01*
X2385450Y687950D01*
G54D14*
X2333850Y663056D02*
X2384644Y663056D01*
X2385150Y662550D01*
G54D14*
X2333550Y637356D02*
X2384944Y637356D01*
X2385150Y637150D01*
G54D14*
X2333850Y612450D02*
X2384750Y612450D01*
X2385450Y611750D01*
G54D14*
X2333450Y586500D02*
X2384600Y586500D01*
X2385150Y585950D01*
G54D14*
X2411950Y573650D02*
X2407377Y575140D01*
X2338476Y574568D01*
X2333850Y567438D01*
G54D14*
X2334150Y548087D02*
X2345687Y549087D01*
X2358950Y562150D01*
X2386020Y561952D01*
G54D14*
X2334450Y529338D02*
X2344738Y529338D01*
X2365850Y550450D01*
X2409750Y550450D01*
X2411950Y548250D01*
G54D14*
X2334150Y510838D02*
X2344838Y510838D01*
X2371450Y537450D01*
X2382550Y537450D01*
X2384850Y535150D01*
G54D14*
X2334950Y485350D02*
X2344350Y485350D01*
X2371850Y511850D01*
X2381450Y511812D01*
X2384550Y509950D01*
G54D14*
X2036350Y1653050D02*
X2054750Y1653050D01*
X2067150Y1640650D01*
X2067150Y1569950D01*
X2099050Y1538050D01*
X2099050Y1411750D01*
X2143450Y1367350D01*
X2142850Y1171550D01*
X2149050Y1165350D01*
X2175250Y1165350D01*
X2181450Y1159150D01*
X2193950Y1159150D01*
X2194750Y1158350D01*
G54D14*
X2079950Y1601550D02*
X2079950Y1569750D01*
X2105150Y1544550D01*
X2105150Y1425450D01*
X2174950Y1355650D01*
X2174950Y1260850D01*
X2176250Y1259550D01*
G54D14*
X2080550Y1627250D02*
X2092350Y1627250D01*
X2095450Y1624150D01*
X2095450Y1598150D01*
X2089550Y1592250D01*
X2089550Y1573150D01*
X2111350Y1551350D01*
X2111350Y1469850D01*
X2264250Y1316950D01*
X2263850Y1291050D01*
X2250650Y1277650D01*
X2250650Y1236350D01*
X2258050Y1228950D01*
X2258050Y1049950D01*
X2232550Y1024450D01*
X2232550Y967450D01*
X2251250Y948750D01*
X2251250Y859550D01*
X2257750Y853050D01*
X2257750Y803350D01*
X2277050Y782150D01*
X2276250Y516450D01*
X2283350Y509350D01*
G54D14*
X2250650Y1304750D02*
X2239550Y1304550D01*
X2219750Y1286150D01*
X2219750Y1253350D01*
X2251250Y1222450D01*
X2251250Y1053050D01*
X2225750Y1027550D01*
X2225950Y962050D01*
X2244450Y942950D01*
X2244450Y853750D01*
X2251250Y845550D01*
X2251050Y796450D01*
X2263950Y784150D01*
X2263950Y764250D01*
X2264450Y763750D01*
G54D14*
X2271150Y1260250D02*
X2264250Y1253350D01*
X2264450Y1047150D01*
X2238950Y1021950D01*
X2238950Y973250D01*
X2276650Y936450D01*
X2276650Y871450D01*
X2285650Y862450D01*
X2285650Y838150D01*
X2301950Y821850D01*
X2301950Y728250D01*
X2303750Y726450D01*
G54D14*
X2201150Y1259550D02*
X2201150Y1234650D01*
X2209750Y1226050D01*
X2209750Y1071150D01*
X2195150Y1056550D01*
G54D14*
X2233150Y1208450D02*
X2233150Y1159550D01*
X2216250Y1142650D01*
X2216250Y1073750D01*
X2232650Y1057350D01*
G54D14*
X2107250Y1583050D02*
X2170650Y1583050D01*
X2197250Y1557450D01*
X2197450Y1492500D01*
X2169875Y1467725D01*
G54D14*
X2035950Y1634450D02*
X2053250Y1634450D01*
X2060850Y1626850D01*
X2060850Y1564350D01*
X2092850Y1532350D01*
X2092850Y1406050D01*
X2137050Y1361850D01*
X2137050Y1158650D01*
X2143650Y1152050D01*
X2169350Y1152050D01*
X2170050Y1151350D01*
G54D14*
X2035250Y1614650D02*
X2047450Y1614650D01*
X2054250Y1607850D01*
X2054250Y1557950D01*
X2086050Y1526150D01*
X2086050Y1399650D01*
X2130850Y1354850D01*
X2130850Y1152050D01*
X2136950Y1145950D01*
X2136950Y1137150D01*
X2136550Y1136750D01*
X2139650Y1136750D01*
X2143650Y1132750D01*
G54D14*
X2049650Y1538850D02*
X2047850Y1538850D01*
X2034650Y1525650D01*
X2034650Y1361850D01*
X2092650Y1303850D01*
X2092650Y834750D01*
X2099050Y828350D01*
X2142650Y828350D01*
X2143150Y827850D01*
G54D14*
X2143150Y853250D02*
X2105950Y853250D01*
X2098350Y860850D01*
X2098950Y1310150D01*
X2041450Y1367250D01*
X2041850Y1495650D01*
X2048050Y1501850D01*
X2048050Y1503850D01*
X2055350Y1511150D01*
G54D14*
X2060850Y1487950D02*
X2057650Y1487950D01*
X2054050Y1484350D01*
X2054050Y1474650D01*
X2048050Y1468650D01*
X2048050Y1373850D01*
X2105250Y1315850D01*
X2105050Y885650D01*
X2111350Y879350D01*
X2142450Y879350D01*
X2143150Y878650D01*
G54D14*
X2143150Y904050D02*
X2118050Y904050D01*
X2111050Y911050D01*
X2111650Y1323250D01*
X2054050Y1381650D01*
X2054050Y1444050D01*
X2060650Y1450650D01*
X2060650Y1462350D01*
X2061550Y1463250D01*
G54D14*
X2067550Y1437750D02*
X2065050Y1437750D01*
X2060650Y1433350D01*
X2060650Y1386050D01*
X2118150Y1329150D01*
X2117350Y936750D01*
X2124050Y930050D01*
X2142550Y930050D01*
X2143150Y929450D01*
G54D14*
X2143150Y954850D02*
X2131350Y954850D01*
X2123850Y962350D01*
X2123850Y1342850D01*
X2073650Y1393050D01*
X2073650Y1410950D01*
X2074850Y1412150D01*
G54D14*
X2232650Y930350D02*
X2231850Y853550D01*
X2244950Y840450D01*
X2244950Y789650D01*
X2251050Y783550D01*
X2250250Y755250D01*
X2269650Y736350D01*
X2269150Y492850D01*
X2276250Y485750D01*
X2290350Y485750D01*
X2290550Y485550D01*
G54D14*
X2162150Y624750D02*
X2162150Y472250D01*
X2168350Y470950D01*
X2169350Y471950D01*
G54D14*
X2193942Y764818D02*
X2193950Y711050D01*
X2172850Y687850D01*
G54D14*
X2194450Y681950D02*
X2193214Y409451D01*
G54D14*
X2207450Y586250D02*
X2206400Y595800D01*
X2205850Y631650D01*
X2212750Y638950D01*
X2212350Y692950D01*
X2220250Y701050D01*
G54D14*
X2226950Y662750D02*
X2225214Y653901D01*
X2225950Y571650D01*
X2199350Y545050D01*
X2199550Y442850D01*
X2207850Y433950D01*
G54D14*
X2238719Y497419D02*
X2238350Y707150D01*
X2229050Y717050D01*
X2195450Y717050D01*
G54D14*
X2264450Y923450D02*
X2264450Y872550D01*
X2273250Y862650D01*
X2273550Y837350D01*
X2289750Y821350D01*
X2289250Y552850D01*
X2314050Y528050D01*
X2314050Y472150D01*
X2308650Y466750D01*
X2308650Y465450D01*
X2302950Y459750D01*
G54D14*
X2302850Y510650D02*
X2302850Y518050D01*
X2301050Y519850D01*
X2301050Y528450D01*
X2282750Y546150D01*
X2283250Y793550D01*
X2273350Y805050D01*
X2273350Y811650D01*
X2270250Y814750D01*
G54D14*
X2143150Y1005650D02*
X2152250Y1005650D01*
X2158450Y999450D01*
X2159050Y752350D01*
X2144450Y738350D01*
X2119450Y738350D01*
X2102250Y721150D01*
X2104650Y563350D01*
X2136808Y562484D01*
G54D14*
X1736750Y676450D02*
X1736750Y654250D01*
X1738650Y652350D01*
X1738650Y609850D01*
X1729250Y600450D01*
X1729250Y529550D01*
X1724150Y524450D01*
G54D14*
X1495150Y485950D02*
X1477950Y468750D01*
X1478150Y393950D01*
X1487350Y383850D01*
X1539350Y383850D01*
G54D14*
X1583750Y459950D02*
X1557550Y435150D01*
X1557550Y358750D01*
G54D14*
X223350Y485950D02*
X203450Y503950D01*
X203450Y606650D01*
X213350Y612850D01*
G54D14*
X3377050Y770950D02*
X3377050Y751050D01*
X3372050Y746050D01*
G54D14*
X2315150Y751150D02*
X2315150Y675550D01*
X2314950Y675350D01*
X2314950Y599050D01*
X2314150Y598250D01*
G54D14*
X2411950Y624450D02*
X2405867Y625935D01*
X2314750Y625750D01*
G54D15*
X269750Y1703250D02*
X269750Y1717950D01*
X259250Y1728450D01*
X196950Y1728450D01*
X184550Y1740850D01*
X41827Y1740781D01*
G36*
X41824Y1747281D02*
X41830Y1734281D01*
X35330Y1734278D01*
X35324Y1747278D01*
X41824Y1747281D01*
G37*
G54D15*
X224250Y1690350D02*
X236650Y1690350D01*
X246250Y1680750D01*
X246250Y1582250D01*
X251950Y1576550D01*
X251950Y262750D01*
X247650Y258450D01*
G54D15*
X223550Y802650D02*
X251850Y802650D01*
G54D15*
X223550Y753350D02*
X251850Y753350D01*
G54D15*
X185150Y663750D02*
X251550Y663750D01*
G54D15*
X224350Y1159050D02*
X251650Y1159050D01*
G54D15*
X223350Y435150D02*
X251550Y435150D01*
G54D15*
X223650Y360150D02*
X251750Y360150D01*
G54D14*
X223350Y587550D02*
X223350Y562150D01*
G54D15*
X269750Y1703250D02*
X269750Y1609250D01*
X274750Y1604250D01*
X270850Y234750D01*
G54D15*
X299550Y485950D02*
X271450Y485950D01*
G54D15*
X299550Y587550D02*
X271950Y587550D01*
G54D15*
X293450Y665350D02*
X272650Y665350D01*
G54D15*
X299750Y955050D02*
X272850Y955050D01*
G54D16*
X225350Y1753750D02*
X224561Y1758853D01*
X224550Y1774850D01*
X235950Y1787050D01*
X236450Y1879750D01*
X239992Y1934332D01*
G54D15*
X58450Y954850D02*
X31750Y954850D01*
G54D15*
X58450Y878850D02*
X35550Y878850D01*
G54D15*
X58450Y802950D02*
X34750Y802950D01*
G54D15*
X58150Y753950D02*
X42950Y753950D01*
G54D15*
X56950Y701450D02*
X38250Y701450D01*
G54D15*
X55850Y728650D02*
X34750Y728650D01*
G54D15*
X58650Y1158450D02*
X35350Y1158450D01*
G54D15*
X59450Y1133450D02*
X34850Y1133450D01*
G54D15*
X59145Y1310493D02*
X34892Y1310493D01*
G54D15*
X58100Y588450D02*
X35750Y588450D01*
G54D15*
X58375Y537175D02*
X36675Y537175D01*
G54D15*
X59275Y486550D02*
X35850Y486550D01*
G54D15*
X402297Y1157835D02*
X404250Y1126450D01*
X403650Y266350D01*
X402297Y238197D01*
G54D15*
X426350Y258450D02*
X421950Y269350D01*
X423150Y739850D01*
X423450Y1169750D01*
X426350Y1183950D01*
X426750Y1184350D01*
G54D15*
X376250Y360450D02*
X403850Y360450D01*
G54D15*
X376550Y409950D02*
X403750Y409950D01*
G54D15*
X375850Y802850D02*
X403850Y802850D01*
G54D15*
X376250Y753950D02*
X403750Y753950D01*
G54D15*
X452050Y980650D02*
X423450Y980650D01*
G54D15*
X560508Y1715997D02*
X559850Y1704650D01*
X560050Y1664950D01*
X576050Y1648550D01*
X574950Y1146950D01*
X579350Y1133950D01*
G54D15*
X580650Y1741850D02*
X580650Y1692850D01*
X579650Y1691850D01*
X579650Y1677250D01*
X594350Y1662550D01*
X594350Y1192450D01*
X604050Y1182750D01*
X604050Y1161250D01*
X605050Y1143050D01*
X604850Y994450D01*
X605350Y981250D01*
X588354Y981054D01*
X575250Y966850D01*
X575250Y677450D01*
X581150Y671150D01*
X581550Y333750D01*
X577650Y329850D01*
X577650Y259550D01*
X578750Y258450D01*
G54D15*
X547850Y1152450D02*
X549750Y1150550D01*
X549750Y637250D01*
X555550Y631450D01*
X555550Y422650D01*
X543550Y410650D01*
X528150Y410650D01*
X528150Y360250D01*
X528250Y360150D01*
G54D15*
X452750Y587750D02*
X422250Y587750D01*
G54D15*
X604350Y588450D02*
X581450Y588450D01*
G54D15*
X529150Y803450D02*
X549850Y803450D01*
G54D15*
X529550Y753350D02*
X549950Y753350D01*
G54D15*
X478950Y1207750D02*
X477250Y1198350D01*
X477350Y1170450D01*
X478950Y1159350D01*
X479650Y1158650D01*
G54D15*
X528250Y360150D02*
X542750Y360150D01*
X552450Y350450D01*
X552450Y239750D01*
G54D16*
X652450Y1805245D02*
X648950Y1797150D01*
X649150Y1726650D01*
X649350Y1716650D01*
X662050Y1703350D01*
X685350Y1702950D01*
X695431Y1702850D01*
X696089Y1703508D01*
X700347Y1700781D01*
X700350Y1620750D01*
X694650Y1613850D01*
X693989Y1174811D01*
X699750Y1165750D01*
X699750Y1110050D01*
X706650Y1103150D01*
X705450Y237350D01*
G54D15*
X681050Y803550D02*
X705750Y803550D01*
G54D15*
X683950Y752250D02*
X705850Y752250D01*
G54D15*
X674450Y410250D02*
X705350Y410250D01*
G54D15*
X680850Y360450D02*
X705450Y360450D01*
G54D16*
X681650Y1742050D02*
X681650Y1803850D01*
X671050Y1814450D01*
X671050Y1930030D01*
X675352Y1934332D01*
G54D16*
X758705Y1727305D02*
X777640Y1707982D01*
X777250Y1386950D01*
G54D15*
X733950Y1411650D02*
X732350Y1410050D01*
X732350Y1361750D01*
X732650Y1343050D01*
X725550Y1336750D01*
X725550Y257550D01*
G54D15*
X750650Y588050D02*
X725250Y588050D01*
G54D15*
X757250Y981350D02*
X724850Y981350D01*
G54D15*
X859350Y1361750D02*
X859350Y713025D01*
X864538Y705456D01*
X864538Y234550D01*
G54D15*
X884550Y257750D02*
X884550Y722350D01*
X878350Y728550D01*
X878350Y1316550D01*
X885150Y1323350D01*
X885150Y1385850D01*
X885850Y1386550D01*
G54D15*
X832750Y358850D02*
X863450Y358850D01*
G54D15*
X832950Y409750D02*
X863450Y409750D01*
G54D15*
X909150Y587550D02*
X884050Y587550D01*
G54D15*
X833150Y752750D02*
X859550Y752750D01*
G54D15*
X833650Y803250D02*
X858850Y803250D01*
G54D15*
X909850Y981050D02*
X878350Y981050D01*
G54D16*
X859350Y1361750D02*
X859350Y1689494D01*
X886350Y1691050D01*
G54D16*
X696089Y1703508D02*
X706508Y1703508D01*
X717650Y1714650D01*
X717650Y1776550D01*
X732850Y1791750D01*
X802850Y1791750D01*
X821150Y1773450D01*
X821150Y1707750D01*
X838750Y1690150D01*
X859350Y1690150D01*
G54D16*
X886350Y1691050D02*
X923550Y1691050D01*
X960850Y1728350D01*
X962017Y1804250D01*
G54D15*
X1064750Y1722750D02*
X1063350Y1711550D01*
X1062950Y1376550D01*
X1064750Y1363550D01*
X1063750Y1362550D01*
X1063750Y1339350D01*
X1069050Y1332450D01*
X1068650Y848550D01*
X1061250Y841150D01*
X1061250Y257950D01*
X1062050Y257150D01*
G54D15*
X1036950Y359150D02*
X1061550Y359150D01*
G54D15*
X1036550Y409850D02*
X1060950Y409850D01*
G54D15*
X1036950Y753150D02*
X1061350Y753150D01*
G54D15*
X1036450Y802850D02*
X1061350Y802850D01*
G54D15*
X968650Y1766450D02*
X1009550Y1766450D01*
X1030950Y1745050D01*
X1075550Y1745050D01*
X1114050Y1706550D01*
X1114050Y1362250D01*
X1088350Y1336550D01*
X1088350Y824450D01*
X1080750Y816850D01*
X1080750Y235450D01*
G54D15*
X1112750Y587650D02*
X1081550Y587650D01*
G54D15*
X1112650Y980650D02*
X1088350Y980650D01*
G54D15*
X1138750Y1692150D02*
X1113850Y1692150D01*
G54D15*
X1201701Y1874323D02*
X1201701Y1769299D01*
X1203550Y1767450D01*
G54D16*
X1244563Y1874323D02*
X1244563Y1852863D01*
X1227050Y1835350D01*
X1227050Y1769750D01*
X1229350Y1767450D01*
G54D15*
X1282588Y1932398D02*
X1282588Y1857912D01*
X1292350Y1848150D01*
X1292350Y1772650D01*
X1265950Y1746250D01*
X1265300Y1042200D01*
X1268700Y1032000D01*
X1269000Y852400D01*
X1266500Y842100D01*
X1265950Y258050D01*
X1265650Y257750D01*
G54D15*
X1241250Y358550D02*
X1265250Y358550D01*
G54D15*
X1240750Y408850D02*
X1265550Y408850D01*
G54D15*
X1240250Y752750D02*
X1266050Y752750D01*
G54D15*
X1241350Y802550D02*
X1266350Y802550D01*
G54D16*
X1240215Y1412160D02*
X1240215Y1363072D01*
G54D15*
X1330650Y1805850D02*
X1330650Y1768950D01*
X1331250Y1768350D01*
G54D16*
X1356350Y1767450D02*
X1356350Y1721150D01*
X1368250Y1709250D01*
X1368250Y1533750D01*
X1358150Y1523650D01*
X1358150Y1384350D01*
X1367150Y1375350D01*
X1367150Y1363850D01*
X1368350Y1362650D01*
G54D15*
X1289150Y1336950D02*
X1286850Y235850D01*
G54D15*
X1316950Y637450D02*
X1287850Y637450D01*
G54D15*
X1317550Y980350D02*
X1289250Y980350D01*
G54D15*
X1394950Y1691950D02*
X1368850Y1691950D01*
G54D15*
X1394950Y1615750D02*
X1368950Y1615750D01*
G54D15*
X1457650Y1805850D02*
X1457650Y1677850D01*
X1444250Y1664450D01*
X1444250Y1538650D01*
X1457350Y1525550D01*
X1457350Y1273450D01*
X1417450Y1233550D01*
X1417450Y1122950D01*
X1447750Y1092650D01*
X1447750Y324950D01*
X1442250Y319450D01*
X1442250Y258850D01*
X1444150Y256950D01*
G54D15*
X1405350Y358350D02*
X1447250Y358350D01*
G54D15*
X1418950Y409750D02*
X1446950Y409750D01*
G54D15*
X1417950Y752350D02*
X1446750Y752350D01*
G54D15*
X1418950Y802650D02*
X1447650Y802650D01*
G54D15*
X1479150Y1337050D02*
X1479150Y1259450D01*
X1465950Y1246250D01*
X1465950Y1208850D01*
X1464450Y232150D01*
G54D15*
X1495150Y562150D02*
X1465650Y562150D01*
G54D15*
X1495150Y536750D02*
X1464750Y536750D01*
G54D15*
X1495150Y980450D02*
X1465350Y980450D01*
G54D15*
X1585550Y1488450D02*
X1602250Y1488450D01*
X1609982Y1479550D01*
X1608426Y258261D01*
X1608750Y256250D01*
G54D15*
X1584850Y359050D02*
X1608375Y359050D01*
G54D15*
X1583750Y409150D02*
X1607569Y408850D01*
G54D15*
X1584550Y752750D02*
X1608269Y752750D01*
G54D15*
X1584250Y802050D02*
X1608369Y802050D01*
G54D15*
X1585050Y1361550D02*
X1608627Y1361550D01*
G54D15*
X1699150Y1716650D02*
X1699150Y1700150D01*
X1691050Y1692050D01*
X1642250Y1692050D01*
X1628250Y1678050D01*
X1628250Y242050D01*
G54D15*
X1659950Y561550D02*
X1628850Y561550D01*
G54D15*
X1660450Y954450D02*
X1628650Y954450D01*
G54D15*
X1457650Y1805850D02*
X1373750Y1805850D01*
X1348850Y1830750D01*
X1293250Y1830750D01*
G54D16*
X1599350Y1831938D02*
X1599350Y1820650D01*
X1519850Y1741150D01*
X1459650Y1741150D01*
X1456950Y1738450D01*
G54D15*
X1801750Y1208850D02*
X1801750Y1159050D01*
X1800950Y1158250D01*
X1800950Y1144150D01*
X1793750Y1136950D01*
X1793750Y1061850D01*
X1783850Y1051950D01*
X1783850Y749050D01*
X1761350Y726550D01*
X1761350Y599850D01*
X1741950Y580450D01*
X1741950Y257050D01*
X1742950Y256050D01*
G54D15*
X1774050Y409650D02*
X1742550Y409650D01*
G54D15*
X1800050Y409350D02*
X1774350Y409350D01*
X1774050Y409650D01*
G54D15*
X1763050Y777050D02*
X1783350Y777050D01*
G54D15*
X1839850Y1722450D02*
X1851150Y1722450D01*
X1857550Y1716050D01*
X1857550Y1640050D01*
X1851250Y1633750D01*
X1851250Y1582550D01*
X1844950Y1576250D01*
X1844950Y1303850D01*
X1871050Y1277750D01*
X1871050Y1031350D01*
X1857250Y1017550D01*
X1857250Y904650D01*
X1882650Y879250D01*
X1882650Y745950D01*
X1889550Y739050D01*
X1889550Y637350D01*
X1919850Y607050D01*
X1919850Y487550D01*
X1933250Y474150D01*
X1967150Y474150D01*
X1971050Y470250D01*
G54D15*
X2156350Y1347250D02*
X2156350Y1238650D01*
X2161950Y1233050D01*
X2161950Y1182950D01*
X2156818Y1178072D01*
G54D15*
X2194350Y1209250D02*
X2161850Y1209250D01*
G54D15*
X2068450Y1182850D02*
X2066850Y1182850D01*
X2060150Y1176150D01*
X2060150Y1056650D01*
X2059950Y1056450D01*
G54D17*
X2367750Y1345150D02*
X2363850Y1333950D01*
X2361550Y1195550D01*
X2355950Y1185650D01*
G54D15*
X2067750Y1030650D02*
X2067750Y659250D01*
X2033650Y625150D01*
X2033650Y597250D01*
X2034150Y596750D01*
G54D15*
X1990750Y777050D02*
X1990750Y740950D01*
X1993050Y738650D01*
G54D15*
X2048450Y1017950D02*
X2048450Y927550D01*
X2043350Y922450D01*
X2043350Y685050D01*
X2008350Y650050D01*
X2008350Y549650D01*
X2021150Y536850D01*
X2071450Y536850D01*
X2085050Y550450D01*
X2085050Y596650D01*
X2086150Y597750D01*
G54D15*
X2125550Y598250D02*
X2123250Y611150D01*
X2123950Y646250D01*
X2171350Y727150D01*
X2171350Y1097950D01*
X2162050Y1107250D01*
X2143150Y1107250D01*
G54D15*
X2195150Y929550D02*
X2195150Y891950D01*
X2195550Y891550D01*
X2195550Y856350D01*
X2227050Y824850D01*
X2227050Y750050D01*
X2257350Y719750D01*
X2257350Y301950D01*
G54D15*
X2288450Y256000D02*
X2288450Y270850D01*
X2257350Y301950D01*
G54D16*
X2060450Y256050D02*
X2060450Y468650D01*
X2059350Y469750D01*
G54D16*
X2034539Y474030D02*
X2057793Y474030D01*
G54D16*
X2084593Y473085D02*
X2125438Y472696D01*
X2125550Y404950D01*
X2145350Y385150D01*
X2193550Y385150D01*
X2193883Y320650D01*
X2199450Y316250D01*
X2199450Y256850D01*
G54D16*
X2136250Y254250D02*
X2136250Y276550D01*
X2198650Y276550D01*
G54D16*
X1971050Y470250D02*
X1971050Y397150D01*
X1996684Y370348D01*
X1996295Y234850D01*
G54D16*
X2008781Y472085D02*
X1971549Y472473D01*
G54D16*
X2059350Y469750D02*
X2059350Y524750D01*
X2071450Y536850D01*
G54D15*
X2238719Y446619D02*
X2238250Y382550D01*
G54D16*
X2288450Y383000D02*
X2288450Y335150D01*
X2333950Y289650D01*
X2333950Y256350D01*
X2334175Y256125D01*
G54D16*
X2410005Y522852D02*
X2410350Y474850D01*
X2371850Y436350D01*
X2262550Y436350D01*
G54D16*
X2334175Y383125D02*
X2371975Y383125D01*
X2372100Y383250D01*
X2401250Y383250D01*
X2435650Y417650D01*
X2435650Y690750D01*
X2424650Y701750D01*
X2413050Y701750D01*
X2411950Y700650D01*
G54D15*
X2486550Y255950D02*
X2486550Y314950D01*
X2459750Y341750D01*
X2459750Y378550D01*
X2463150Y381950D01*
G54D15*
X2531200Y383625D02*
X2531200Y430200D01*
X2555450Y454450D01*
X2606950Y454450D01*
G54D16*
X2633950Y484750D02*
X2631228Y282825D01*
X2615850Y267450D01*
X2592650Y267450D01*
X2588471Y262532D01*
G54D16*
X2657750Y454050D02*
X2697150Y454050D01*
X2714950Y436250D01*
X2715965Y382764D01*
G54D15*
X2476050Y1132550D02*
X2467650Y1124150D01*
X2467650Y1042150D01*
G54D15*
X2627650Y1193650D02*
X2627650Y1195577D01*
X2664750Y1245350D01*
X2679154Y1247081D01*
X2667119Y1247081D01*
X2648350Y1265850D01*
X2629394Y1265850D01*
X2622550Y1274250D01*
X2622550Y1285050D01*
G54D15*
X2620416Y1286417D02*
X2619248Y1335770D01*
X2614425Y1344095D01*
G54D15*
X2647650Y1285250D02*
X2672050Y1285250D01*
X2678850Y1278450D01*
G54D15*
X2704050Y1449650D02*
X2704050Y1363650D01*
X2717950Y1349750D01*
X2785650Y1349750D01*
X2786950Y1348450D01*
G54D15*
X2729775Y1405725D02*
X2764075Y1405725D01*
X2808250Y1361550D01*
X2808250Y1310150D01*
X2805650Y1307550D01*
X2805650Y1247584D01*
X2806154Y1247081D01*
G54D15*
X2811950Y1398450D02*
X2821150Y1398450D01*
X2830550Y1389050D01*
X2830550Y1247350D01*
X2831450Y1246450D01*
G54D15*
X2894850Y1374650D02*
X2894850Y1358050D01*
X2901450Y1351450D01*
X2954650Y1351450D01*
X2963950Y1360750D01*
X2963950Y1373150D01*
X2963850Y1373250D01*
G54D15*
X3242659Y1519515D02*
X3243048Y1400526D01*
X3217850Y1374550D01*
X3104050Y1374550D01*
X3103350Y1373850D01*
G54D16*
X2964750Y1310050D02*
X3103650Y1310050D01*
X3104850Y1308850D01*
X3104850Y1284750D01*
X3115950Y1273650D01*
X3535850Y1272093D01*
X3587350Y1222150D01*
X3617250Y1222150D01*
X3637350Y1202050D01*
X3637350Y1156650D01*
X3624950Y1144250D01*
X3609950Y1144250D01*
X3607450Y1146750D01*
X3608450Y1146750D01*
X3618450Y1136750D01*
X3618450Y876950D01*
X3591250Y849750D01*
X3591250Y817350D01*
X3593950Y814650D01*
G54D16*
X2924650Y483950D02*
X2924650Y264050D01*
X2925450Y263250D01*
G54D16*
X3090050Y483950D02*
X3090050Y469150D01*
X3077050Y456150D01*
X3036950Y456150D01*
X3026482Y444904D01*
X3026483Y264261D01*
G54D15*
X3091550Y382750D02*
X3091550Y316650D01*
X3116650Y291550D01*
X3116672Y256808D01*
G54D16*
X3116672Y383808D02*
X3116672Y347228D01*
X3139850Y324050D01*
X3141017Y257389D01*
G54D15*
X3141730Y382508D02*
X3166992Y382508D01*
X3167630Y383147D01*
X3191247Y383147D01*
X3191950Y383850D01*
G54D15*
X3167630Y256147D02*
X3574247Y256147D01*
X3574950Y256850D01*
G54D16*
X3677550Y397150D02*
X3677550Y417850D01*
X3707350Y447650D01*
X3707350Y521950D01*
X3707950Y522550D01*
G54D16*
X3808250Y447050D02*
X3767850Y447050D01*
X3759250Y455650D01*
X3759250Y598850D01*
X3725150Y632950D01*
X3677850Y632950D01*
X3675450Y630550D01*
G54D16*
X3808250Y497850D02*
X3759650Y497850D01*
G54D15*
X3617750Y608350D02*
X3617750Y401050D01*
X3602350Y385650D01*
X3580150Y385650D01*
X3578650Y384150D01*
G54D15*
X3593450Y609850D02*
X3593450Y442650D01*
X3547450Y396650D01*
X3547450Y256950D01*
G54D15*
X3096450Y562531D02*
X3127150Y561950D01*
X3133250Y555950D01*
X3170550Y555950D01*
X3199850Y585250D01*
X3207950Y585250D01*
X3213350Y590650D01*
X3225150Y590650D01*
X3236950Y602450D01*
X3236950Y652350D01*
X3255550Y670950D01*
X3339950Y670950D01*
X3348450Y662450D01*
X3348450Y633450D01*
X3351850Y630050D01*
X3351850Y627350D01*
X3336950Y612450D01*
X3336950Y601150D01*
X3339350Y598750D01*
G54D15*
X3421550Y699750D02*
X3380036Y699750D01*
X3348422Y668136D01*
G54D15*
X2899050Y738150D02*
X2893550Y743650D01*
X2893550Y776550D01*
X2905550Y788550D01*
X2905550Y1047450D01*
X2894850Y1058150D01*
X2791250Y1058150D01*
X2778850Y1045750D01*
X2778850Y979050D01*
G54D15*
X2678650Y1004850D02*
X2678650Y1019150D01*
X2691250Y1031750D01*
X2755250Y1031750D01*
X2755350Y1031850D01*
X2778650Y1031850D01*
G54D15*
X2651750Y1004950D02*
X2651750Y1058050D01*
X2715550Y1121850D01*
X2715550Y1156750D01*
X2716450Y1157650D01*
X2764650Y1157650D01*
X2804850Y1197850D01*
X2990450Y1197850D01*
X2990450Y1163250D01*
G54D15*
X2831950Y1137750D02*
X2831450Y1137750D01*
X2831450Y1197150D01*
G54D15*
X2990450Y1197850D02*
X2990450Y1210050D01*
X3003250Y1222850D01*
X3107450Y1222850D01*
X3132450Y1247850D01*
X3300250Y1247850D01*
X3344450Y1203650D01*
X3344450Y1141250D01*
X3366650Y1141250D01*
G54D15*
X3327350Y1139650D02*
X3327350Y1141250D01*
X3344450Y1141250D01*
G54D15*
X3607850Y1197550D02*
X3541950Y1197550D01*
X3509250Y1164850D01*
X3344450Y1164850D01*
X3344450Y1141250D01*
G54D16*
X3193550Y1349450D02*
X3502650Y1349450D01*
X3529550Y1322550D01*
X3594450Y1322550D01*
X3599950Y1317050D01*
X3599950Y1298250D01*
X3600750Y1297450D01*
G54D15*
X3524550Y1297450D02*
X3524550Y1273550D01*
G54D16*
X3651350Y1873250D02*
X3654150Y1873250D01*
X3671450Y1855950D01*
X3672140Y1814581D01*
X3681302Y1804498D01*
X3696610Y1804038D01*
G54D15*
X3696550Y1805250D02*
X3696550Y1798350D01*
X3723350Y1771550D01*
X3723350Y1733475D01*
X3723406Y1733419D01*
G54D16*
X3650950Y1823750D02*
X3635050Y1823750D01*
X3627250Y1815950D01*
X3627250Y1783850D01*
X3638850Y1772250D01*
G54D16*
X3650950Y1798550D02*
X3650950Y1797450D01*
X3661950Y1786450D01*
X3661950Y1774550D01*
X3664250Y1772250D01*
G54D16*
X3605646Y1745995D02*
X3652200Y1746000D01*
X3696872Y1745994D01*
G54D16*
X3604262Y1772087D02*
X3585380Y1772086D01*
X3572728Y1762429D01*
X3572498Y1740672D01*
X3608450Y1704950D01*
X3608450Y1678650D01*
X3566850Y1637050D01*
X3566850Y1617650D01*
X3534350Y1585150D01*
X3534350Y1492550D01*
X3494450Y1452650D01*
X3486156Y1452650D01*
X3469862Y1436356D01*
G54D16*
X3510652Y1614950D02*
X3509454Y1537357D01*
X3497350Y1525253D01*
X3472550Y1525253D01*
G54D16*
X3447250Y1696250D02*
X3447250Y1653125D01*
X3447525Y1652850D01*
X3447525Y1603750D01*
X3446825Y1603050D01*
X3446825Y1577125D01*
X3394350Y1524650D01*
X3347650Y1524650D01*
X3345550Y1526750D01*
G54D16*
X3748806Y1782631D02*
X3748806Y1627106D01*
X3742250Y1620550D01*
X3671350Y1620550D01*
X3655850Y1636050D01*
X3655850Y1658950D01*
X3656550Y1659650D01*
G54D16*
X3710254Y1527151D02*
X3710253Y1500048D01*
X3643450Y1432346D01*
X3643450Y1241650D01*
X3665550Y1219550D01*
X3665550Y1136050D01*
X3643506Y1112061D01*
X3642728Y821650D01*
X3636250Y815950D01*
X3621250Y815950D01*
X3619250Y813950D01*
G54D16*
X3733850Y1308900D02*
X3754100Y1308900D01*
X3765550Y1297450D01*
X3765550Y1181750D01*
X3671950Y1088150D01*
X3671950Y672050D01*
X3675250Y670558D01*
G54D15*
X3733850Y1017400D02*
X3750500Y1017400D01*
X3784850Y1051750D01*
X3801550Y1051750D01*
X3803850Y1049450D01*
G54D15*
X3505850Y1094207D02*
X3522451Y1094206D01*
X3531950Y1083150D01*
X3531950Y873150D01*
X3566250Y838850D01*
X3566250Y800350D01*
X3574850Y791750D01*
X3594050Y791750D01*
X3610550Y775250D01*
X3610550Y668850D01*
X3626950Y651477D01*
X3812275Y651152D01*
G54D15*
X2824050Y953750D02*
X2824050Y1053950D01*
X2819650Y1058350D01*
G54D15*
X2868450Y1139150D02*
X2868450Y1062350D01*
X2873550Y1057250D01*
G54D15*
X2970550Y1113350D02*
X2970550Y1087150D01*
X2971050Y1086650D01*
X2948850Y1086650D01*
X2938050Y1075850D01*
X2938050Y885150D01*
X2957350Y865850D01*
X2957350Y755350D01*
X2969800Y742400D01*
X2970150Y733150D01*
G54D15*
X3238250Y744850D02*
X3238250Y757450D01*
X3186050Y809650D01*
X3186050Y819650D01*
X3187450Y821050D01*
X3162050Y821050D01*
X3162050Y856650D01*
G54D15*
X2970550Y1113350D02*
X3031550Y1113350D01*
X3059450Y1141250D01*
X3202450Y1141250D01*
X3250450Y1093250D01*
X3250450Y1067850D01*
X3257650Y1067850D01*
X3271950Y1053550D01*
X3271950Y1000450D01*
X3266850Y995350D01*
X3254150Y995350D01*
X3250450Y991650D01*
G54D15*
X3124050Y1062350D02*
X3140650Y1062350D01*
X3144550Y1066250D01*
X3144550Y1136750D01*
X3149150Y1141350D01*
G54D15*
X3124050Y1062350D02*
X3142068Y1062350D01*
X3144512Y1059905D01*
X3144512Y907588D01*
X3153750Y898350D01*
X3223650Y898350D01*
X3224950Y897050D01*
G54D16*
X1497750Y1767550D02*
X1497750Y1794050D01*
X1528450Y1824750D01*
X1528450Y1898350D01*
X1548850Y1918750D01*
X2625150Y1917972D01*
X2639383Y1904128D01*
X2703107Y1904129D01*
G54D15*
X1948456Y1856531D02*
X1948456Y1815544D01*
X1965650Y1798350D01*
X2142817Y1798350D01*
X2145407Y1800940D01*
G54D18*
X30150Y1737450D02*
X30150Y345050D01*
X56450Y318750D01*
X122350Y318750D01*
X130650Y310450D01*
X130650Y241350D01*
X142250Y229750D01*
X3717450Y229750D01*
X3739450Y251750D01*
X3739450Y316050D01*
X3767450Y344050D01*
X3809250Y344050D01*
X3854850Y389650D01*
X3854850Y555550D01*
X3815850Y594550D01*
X3815850Y709450D01*
X3745550Y779750D01*
X3745550Y870950D01*
X3840550Y963750D01*
X3839950Y1380250D01*
X3738350Y1428650D01*
X3738350Y1469850D01*
X3769650Y1501150D01*
X3769650Y1556150D01*
X3749950Y1575850D01*
X3713650Y1575850D01*
X3711550Y1577950D01*
G36*
X43150Y1737450D02*
X17150Y1737450D01*
X17150Y1750450D01*
X43150Y1750450D01*
X43150Y1737450D01*
G37*
G54D19*
X3733850Y989700D02*
X3750400Y989700D01*
X3761450Y978650D01*
X3761450Y955650D01*
X3710850Y905050D01*
X3676850Y905050D01*
X3676250Y904450D01*
G54D15*
X3607450Y1171950D02*
X3570450Y1171950D01*
X3568550Y1170050D01*
G54D15*
X3600750Y1246650D02*
X3638450Y1246650D01*
X3643450Y1241650D01*
G54D15*
X3378550Y822450D02*
X3378550Y798250D01*
X3377550Y797250D01*
G54D14*
X2766950Y561350D02*
X2789450Y561350D01*
X2813250Y537550D01*
X2892050Y537550D01*
X2894450Y535150D01*
G54D16*
X986350Y1412750D02*
X986350Y1362750D01*
X986150Y1362550D01*
G54D16*
X1241350Y1362650D02*
X1264262Y1362650D01*
G54D16*
X3651650Y1899650D02*
X3662850Y1899650D01*
X3694150Y1866750D01*
X3694149Y1828441D01*
X3709495Y1828785D01*
X3721975Y1817462D01*
X3722814Y1805551D01*
X3179896Y485891D02*
G54D20*
D03*
X3568168Y875010D02*
G54D20*
D03*
X3180538Y1194424D02*
G54D20*
D03*
X2741767Y1195924D02*
G54D20*
D03*
X2360638Y810024D02*
G54D20*
D03*
X2739944Y485775D02*
G54D20*
D03*
X2930938Y833224D02*
G54D20*
D03*
X59500Y563250D02*
G54D10*
D03*
X186500Y563250D02*
G54D10*
D03*
X58375Y537175D02*
G54D10*
D03*
X185375Y537175D02*
G54D10*
D03*
X58300Y512075D02*
G54D10*
D03*
X185300Y512075D02*
G54D10*
D03*
X59275Y486550D02*
G54D10*
D03*
X186275Y486550D02*
G54D10*
D03*
X58100Y588450D02*
G54D10*
D03*
X185100Y588450D02*
G54D10*
D03*
X2875375Y1462300D02*
G54D10*
D03*
X3002375Y1462300D02*
G54D10*
D03*
X2868750Y1425250D02*
G54D10*
D03*
X2995750Y1425250D02*
G54D10*
D03*
X1539350Y510850D02*
G54D10*
D03*
X1539350Y383850D02*
G54D10*
D03*
X2288450Y383000D02*
G54D10*
D03*
X2288450Y256000D02*
G54D10*
D03*
X2334175Y383125D02*
G54D10*
D03*
X2334175Y256125D02*
G54D10*
D03*
X2372100Y383250D02*
G54D10*
D03*
X2372100Y256250D02*
G54D10*
D03*
X2531200Y383625D02*
G54D10*
D03*
X2531200Y256625D02*
G54D10*
D03*
G36*
X2246219Y504919D02*
X2246219Y489919D01*
X2231219Y489919D01*
X2231219Y504919D01*
X2246219Y504919D01*
G37*
X2238719Y472019D02*
G54D10*
D03*
X2238719Y446619D02*
G54D10*
D03*
X2657750Y454050D02*
G54D10*
D03*
X2632550Y454050D02*
G54D10*
D03*
X2606950Y454450D02*
G54D10*
D03*
X3116672Y383808D02*
G54D10*
D03*
X3116672Y256808D02*
G54D10*
D03*
X3143130Y383508D02*
G54D10*
D03*
X3143130Y256508D02*
G54D10*
D03*
X3167630Y256147D02*
G54D10*
D03*
X3167630Y383147D02*
G54D10*
D03*
X3701950Y256850D02*
G54D10*
D03*
X3574950Y256850D02*
G54D10*
D03*
X3808250Y497850D02*
G54D21*
D03*
X3808250Y472450D02*
G54D21*
D03*
X3808250Y447050D02*
G54D21*
D03*
X3802535Y667986D02*
G54D10*
D03*
X3675535Y667986D02*
G54D10*
D03*
X3802450Y630550D02*
G54D10*
D03*
X3675450Y630550D02*
G54D10*
D03*
X3606571Y1144772D02*
G54D10*
D03*
X3606571Y1169972D02*
G54D10*
D03*
X3606971Y1195572D02*
G54D10*
D03*
X3472550Y1526750D02*
G54D10*
D03*
X3345550Y1526750D02*
G54D10*
D03*
G36*
X2928050Y1304050D02*
X2913050Y1304050D01*
X2913050Y1319050D01*
X2928050Y1319050D01*
X2928050Y1304050D01*
G37*
X2895150Y1311550D02*
G54D10*
D03*
X2869750Y1311550D02*
G54D10*
D03*
X3015350Y1247050D02*
G54D10*
D03*
X3015350Y1374050D02*
G54D10*
D03*
G36*
X2854550Y1254250D02*
X2869550Y1254250D01*
X2869550Y1239250D01*
X2854550Y1239250D01*
X2854550Y1254250D01*
G37*
X2887450Y1246750D02*
G54D10*
D03*
X2912850Y1246750D02*
G54D10*
D03*
X2678850Y1278450D02*
G54D10*
D03*
X2805850Y1278450D02*
G54D10*
D03*
X2679154Y1247081D02*
G54D10*
D03*
X2806154Y1247081D02*
G54D10*
D03*
X1062850Y1170350D02*
G54D10*
D03*
X1189850Y1170350D02*
G54D10*
D03*
X1979194Y1138740D02*
G54D10*
D03*
X1979194Y1265741D02*
G54D10*
D03*
X2041697Y1139037D02*
G54D10*
D03*
X2041697Y1266038D02*
G54D10*
D03*
X2869450Y1374650D02*
G54D10*
D03*
X2894850Y1374650D02*
G54D10*
D03*
X2920250Y1374650D02*
G54D10*
D03*
G36*
X659950Y1797745D02*
X644950Y1797745D01*
X644950Y1812745D01*
X659950Y1812745D01*
X659950Y1797745D01*
G37*
X473650Y1805250D02*
G54D10*
D03*
X499050Y1805250D02*
G54D10*
D03*
X524450Y1805250D02*
G54D10*
D03*
X549850Y1805250D02*
G54D10*
D03*
X575250Y1805250D02*
G54D10*
D03*
X600650Y1805250D02*
G54D10*
D03*
X626050Y1805250D02*
G54D10*
D03*
G36*
X968374Y988560D02*
X968374Y973560D01*
X953374Y973560D01*
X953374Y988560D01*
X968374Y988560D01*
G37*
X960868Y802260D02*
G54D10*
D03*
X960868Y827660D02*
G54D10*
D03*
X960868Y853060D02*
G54D10*
D03*
X960868Y878460D02*
G54D10*
D03*
X960868Y903860D02*
G54D10*
D03*
X960868Y929260D02*
G54D10*
D03*
X960868Y954660D02*
G54D10*
D03*
G36*
X968850Y595550D02*
X968850Y580550D01*
X953850Y580550D01*
X953850Y595550D01*
X968850Y595550D01*
G37*
X961345Y409250D02*
G54D10*
D03*
X961345Y434650D02*
G54D10*
D03*
X961345Y460050D02*
G54D10*
D03*
X961345Y485450D02*
G54D10*
D03*
X961345Y510850D02*
G54D10*
D03*
X961345Y536250D02*
G54D10*
D03*
X961345Y561650D02*
G54D10*
D03*
G36*
X231250Y1697350D02*
X231250Y1683350D01*
X217250Y1683350D01*
X217250Y1697350D01*
X231250Y1697350D01*
G37*
X224250Y1664950D02*
G54D22*
D03*
X224250Y1639550D02*
G54D22*
D03*
X224250Y1614150D02*
G54D22*
D03*
X224250Y1588750D02*
G54D22*
D03*
X224250Y1563350D02*
G54D22*
D03*
X224250Y1537950D02*
G54D22*
D03*
X224250Y1512550D02*
G54D22*
D03*
X224250Y1487150D02*
G54D22*
D03*
X224250Y1461750D02*
G54D22*
D03*
X224250Y1436350D02*
G54D22*
D03*
X224250Y1410950D02*
G54D22*
D03*
X224250Y1385550D02*
G54D22*
D03*
X224250Y1360150D02*
G54D22*
D03*
X224250Y1334750D02*
G54D22*
D03*
X224250Y1309350D02*
G54D22*
D03*
X224250Y1283950D02*
G54D22*
D03*
X224250Y1258550D02*
G54D22*
D03*
X224250Y1233150D02*
G54D22*
D03*
X224250Y1207750D02*
G54D22*
D03*
X376650Y1207750D02*
G54D22*
D03*
X376650Y1233150D02*
G54D22*
D03*
X376650Y1258550D02*
G54D22*
D03*
X376650Y1283950D02*
G54D22*
D03*
X376650Y1309350D02*
G54D22*
D03*
X376650Y1334750D02*
G54D22*
D03*
X376650Y1360150D02*
G54D22*
D03*
X376650Y1385550D02*
G54D22*
D03*
X376650Y1410950D02*
G54D22*
D03*
X376650Y1436350D02*
G54D22*
D03*
X376650Y1461750D02*
G54D22*
D03*
X376650Y1487150D02*
G54D22*
D03*
X376650Y1512550D02*
G54D22*
D03*
X376650Y1537950D02*
G54D22*
D03*
X376650Y1563350D02*
G54D22*
D03*
X376650Y1588750D02*
G54D22*
D03*
X376650Y1614150D02*
G54D22*
D03*
X376650Y1639550D02*
G54D22*
D03*
X376650Y1664950D02*
G54D22*
D03*
X376650Y1690350D02*
G54D22*
D03*
G36*
X485950Y1697350D02*
X485950Y1683350D01*
X471950Y1683350D01*
X471950Y1697350D01*
X485950Y1697350D01*
G37*
X478950Y1664950D02*
G54D22*
D03*
X478950Y1639550D02*
G54D22*
D03*
X478950Y1614150D02*
G54D22*
D03*
X478950Y1588750D02*
G54D22*
D03*
X478950Y1563350D02*
G54D22*
D03*
X478950Y1537950D02*
G54D22*
D03*
X478950Y1512550D02*
G54D22*
D03*
X478950Y1487150D02*
G54D22*
D03*
X478950Y1461750D02*
G54D22*
D03*
X478950Y1436350D02*
G54D22*
D03*
X478950Y1410950D02*
G54D22*
D03*
X478950Y1385550D02*
G54D22*
D03*
X478950Y1360150D02*
G54D22*
D03*
X478950Y1334750D02*
G54D22*
D03*
X478950Y1309350D02*
G54D22*
D03*
X478950Y1283950D02*
G54D22*
D03*
X478950Y1258550D02*
G54D22*
D03*
X478950Y1233150D02*
G54D22*
D03*
X478950Y1207750D02*
G54D22*
D03*
X631350Y1207750D02*
G54D22*
D03*
X631350Y1233150D02*
G54D22*
D03*
X631350Y1258550D02*
G54D22*
D03*
X631350Y1283950D02*
G54D22*
D03*
X631350Y1309350D02*
G54D22*
D03*
X631350Y1334750D02*
G54D22*
D03*
X631350Y1360150D02*
G54D22*
D03*
X631350Y1385550D02*
G54D22*
D03*
X631350Y1410950D02*
G54D22*
D03*
X631350Y1436350D02*
G54D22*
D03*
X631350Y1461750D02*
G54D22*
D03*
X631350Y1487150D02*
G54D22*
D03*
X631350Y1512550D02*
G54D22*
D03*
X631350Y1537950D02*
G54D22*
D03*
X631350Y1563350D02*
G54D22*
D03*
X631350Y1588750D02*
G54D22*
D03*
X631350Y1614150D02*
G54D22*
D03*
X631350Y1639550D02*
G54D22*
D03*
X631350Y1664950D02*
G54D22*
D03*
X631350Y1690350D02*
G54D22*
D03*
G36*
X740950Y1698050D02*
X740950Y1684050D01*
X726950Y1684050D01*
X726950Y1698050D01*
X740950Y1698050D01*
G37*
X733950Y1665650D02*
G54D22*
D03*
X733950Y1640250D02*
G54D22*
D03*
X733950Y1614850D02*
G54D22*
D03*
X733950Y1589450D02*
G54D22*
D03*
X733950Y1564050D02*
G54D22*
D03*
X733950Y1538650D02*
G54D22*
D03*
X733950Y1513250D02*
G54D22*
D03*
X733950Y1487850D02*
G54D22*
D03*
X733950Y1462450D02*
G54D22*
D03*
X733950Y1437050D02*
G54D22*
D03*
X733950Y1411650D02*
G54D22*
D03*
X886350Y1411650D02*
G54D22*
D03*
X886350Y1437050D02*
G54D22*
D03*
X886350Y1462450D02*
G54D22*
D03*
X886350Y1487850D02*
G54D22*
D03*
X886350Y1513250D02*
G54D22*
D03*
X886350Y1538650D02*
G54D22*
D03*
X886350Y1564050D02*
G54D22*
D03*
X886350Y1589450D02*
G54D22*
D03*
X886350Y1614850D02*
G54D22*
D03*
X886350Y1640250D02*
G54D22*
D03*
X886350Y1665650D02*
G54D22*
D03*
X886350Y1691050D02*
G54D22*
D03*
G36*
X993350Y1699150D02*
X993350Y1685150D01*
X979350Y1685150D01*
X979350Y1699150D01*
X993350Y1699150D01*
G37*
X986350Y1666750D02*
G54D22*
D03*
X986350Y1641350D02*
G54D22*
D03*
X986350Y1615950D02*
G54D22*
D03*
X986350Y1590550D02*
G54D22*
D03*
X986350Y1565150D02*
G54D22*
D03*
X986350Y1539750D02*
G54D22*
D03*
X986350Y1514350D02*
G54D22*
D03*
X986350Y1488950D02*
G54D22*
D03*
X986350Y1463550D02*
G54D22*
D03*
X986350Y1438150D02*
G54D22*
D03*
X986350Y1412750D02*
G54D22*
D03*
X1138750Y1412750D02*
G54D22*
D03*
X1138750Y1438150D02*
G54D22*
D03*
X1138750Y1463550D02*
G54D22*
D03*
X1138750Y1488950D02*
G54D22*
D03*
X1138750Y1514350D02*
G54D22*
D03*
X1138750Y1539750D02*
G54D22*
D03*
X1138750Y1565150D02*
G54D22*
D03*
X1138750Y1590550D02*
G54D22*
D03*
X1138750Y1615950D02*
G54D22*
D03*
X1138750Y1641350D02*
G54D22*
D03*
X1138750Y1666750D02*
G54D22*
D03*
X1138750Y1692150D02*
G54D22*
D03*
G36*
X1249550Y1698950D02*
X1249550Y1684950D01*
X1235550Y1684950D01*
X1235550Y1698950D01*
X1249550Y1698950D01*
G37*
X1242550Y1666550D02*
G54D22*
D03*
X1242550Y1641150D02*
G54D22*
D03*
X1242550Y1615750D02*
G54D22*
D03*
X1242550Y1590350D02*
G54D22*
D03*
X1242550Y1564950D02*
G54D22*
D03*
X1242550Y1539550D02*
G54D22*
D03*
X1242550Y1514150D02*
G54D22*
D03*
X1242550Y1488750D02*
G54D22*
D03*
X1242550Y1463350D02*
G54D22*
D03*
X1242550Y1437950D02*
G54D22*
D03*
X1242550Y1412550D02*
G54D22*
D03*
X1394950Y1412550D02*
G54D22*
D03*
X1394950Y1437950D02*
G54D22*
D03*
X1394950Y1463350D02*
G54D22*
D03*
X1394950Y1488750D02*
G54D22*
D03*
X1394950Y1514150D02*
G54D22*
D03*
X1394950Y1539550D02*
G54D22*
D03*
X1394950Y1564950D02*
G54D22*
D03*
X1394950Y1590350D02*
G54D22*
D03*
X1394950Y1615750D02*
G54D22*
D03*
X1394950Y1641150D02*
G54D22*
D03*
X1394950Y1666550D02*
G54D22*
D03*
X1394950Y1691950D02*
G54D22*
D03*
G36*
X1771150Y1698150D02*
X1771150Y1684150D01*
X1757150Y1684150D01*
X1757150Y1698150D01*
X1771150Y1698150D01*
G37*
X1764150Y1665750D02*
G54D22*
D03*
X1764150Y1640350D02*
G54D22*
D03*
X1764150Y1614950D02*
G54D22*
D03*
X1764150Y1589550D02*
G54D22*
D03*
X1764150Y1564150D02*
G54D22*
D03*
X1764150Y1538750D02*
G54D22*
D03*
X1764150Y1513350D02*
G54D22*
D03*
X1764150Y1487950D02*
G54D22*
D03*
X1764150Y1462550D02*
G54D22*
D03*
X1764150Y1437150D02*
G54D22*
D03*
X1764150Y1411750D02*
G54D22*
D03*
X1764150Y1386350D02*
G54D22*
D03*
X1764150Y1360950D02*
G54D22*
D03*
X1764150Y1335550D02*
G54D22*
D03*
X1764150Y1310150D02*
G54D22*
D03*
X1764150Y1284750D02*
G54D22*
D03*
X1764150Y1259350D02*
G54D22*
D03*
X1764150Y1233950D02*
G54D22*
D03*
X1764150Y1208550D02*
G54D22*
D03*
X1916550Y1208550D02*
G54D22*
D03*
X1916550Y1233950D02*
G54D22*
D03*
X1916550Y1259350D02*
G54D22*
D03*
X1916550Y1284750D02*
G54D22*
D03*
X1916550Y1310150D02*
G54D22*
D03*
X1916550Y1335550D02*
G54D22*
D03*
X1916550Y1360950D02*
G54D22*
D03*
X1916550Y1386350D02*
G54D22*
D03*
X1916550Y1411750D02*
G54D22*
D03*
X1916550Y1437150D02*
G54D22*
D03*
X1916550Y1462550D02*
G54D22*
D03*
X1916550Y1487950D02*
G54D22*
D03*
X1916550Y1513350D02*
G54D22*
D03*
X1916550Y1538750D02*
G54D22*
D03*
X1916550Y1564150D02*
G54D22*
D03*
X1916550Y1589550D02*
G54D22*
D03*
X1916550Y1614950D02*
G54D22*
D03*
X1916550Y1640350D02*
G54D22*
D03*
X1916550Y1665750D02*
G54D22*
D03*
X1916550Y1691150D02*
G54D22*
D03*
G36*
X1592550Y1698650D02*
X1592550Y1684650D01*
X1578550Y1684650D01*
X1578550Y1698650D01*
X1592550Y1698650D01*
G37*
X1585550Y1666250D02*
G54D22*
D03*
X1585550Y1640850D02*
G54D22*
D03*
X1585550Y1615450D02*
G54D22*
D03*
X1585550Y1590050D02*
G54D22*
D03*
X1585550Y1564650D02*
G54D22*
D03*
X1585550Y1539250D02*
G54D22*
D03*
X1585550Y1513850D02*
G54D22*
D03*
X1585550Y1488450D02*
G54D22*
D03*
X1661750Y1488450D02*
G54D22*
D03*
X1661750Y1513850D02*
G54D22*
D03*
X1661750Y1539250D02*
G54D22*
D03*
X1661750Y1564650D02*
G54D22*
D03*
X1661750Y1590050D02*
G54D22*
D03*
X1661750Y1615450D02*
G54D22*
D03*
X1661750Y1640850D02*
G54D22*
D03*
X1661750Y1666250D02*
G54D22*
D03*
X1661750Y1691650D02*
G54D22*
D03*
X1255050Y1805950D02*
G54D10*
D03*
X1128050Y1805950D02*
G54D10*
D03*
X1203550Y1767450D02*
G54D10*
D03*
X1076550Y1767450D02*
G54D10*
D03*
X1356350Y1767450D02*
G54D10*
D03*
X1229350Y1767450D02*
G54D10*
D03*
X1457650Y1805850D02*
G54D10*
D03*
X1330650Y1805850D02*
G54D10*
D03*
X185650Y1158450D02*
G54D10*
D03*
X58650Y1158450D02*
G54D10*
D03*
X351350Y1159050D02*
G54D10*
D03*
X224350Y1159050D02*
G54D10*
D03*
X606650Y1158650D02*
G54D10*
D03*
X479650Y1158650D02*
G54D10*
D03*
X859350Y1361750D02*
G54D10*
D03*
X732350Y1361750D02*
G54D10*
D03*
X1113150Y1362550D02*
G54D10*
D03*
X986150Y1362550D02*
G54D10*
D03*
X1368350Y1362650D02*
G54D10*
D03*
X1241350Y1362650D02*
G54D10*
D03*
X1712050Y1361550D02*
G54D10*
D03*
X1585050Y1361550D02*
G54D10*
D03*
X185850Y993250D02*
G54D10*
D03*
X58850Y993250D02*
G54D10*
D03*
X185450Y954850D02*
G54D10*
D03*
X58450Y954850D02*
G54D10*
D03*
X185050Y916050D02*
G54D10*
D03*
X58050Y916050D02*
G54D10*
D03*
X185450Y878850D02*
G54D10*
D03*
X58450Y878850D02*
G54D10*
D03*
X187150Y840950D02*
G54D10*
D03*
X60150Y840950D02*
G54D10*
D03*
X185450Y802950D02*
G54D10*
D03*
X58450Y802950D02*
G54D10*
D03*
X185150Y753950D02*
G54D10*
D03*
X58150Y753950D02*
G54D10*
D03*
X350550Y753350D02*
G54D10*
D03*
X223550Y753350D02*
G54D10*
D03*
X503250Y753950D02*
G54D10*
D03*
X376250Y753950D02*
G54D10*
D03*
X656550Y753350D02*
G54D10*
D03*
X529550Y753350D02*
G54D10*
D03*
X810950Y752250D02*
G54D10*
D03*
X683950Y752250D02*
G54D10*
D03*
X185150Y663750D02*
G54D10*
D03*
X58150Y663750D02*
G54D10*
D03*
G36*
X230550Y962050D02*
X230550Y948050D01*
X216550Y948050D01*
X216550Y962050D01*
X230550Y962050D01*
G37*
X223550Y929650D02*
G54D22*
D03*
X223550Y904250D02*
G54D22*
D03*
X223550Y878850D02*
G54D22*
D03*
X223550Y853450D02*
G54D22*
D03*
X223550Y828050D02*
G54D22*
D03*
X223550Y802650D02*
G54D22*
D03*
X299750Y802650D02*
G54D22*
D03*
X299750Y828050D02*
G54D22*
D03*
X299750Y853450D02*
G54D22*
D03*
X299750Y878850D02*
G54D22*
D03*
X299750Y904250D02*
G54D22*
D03*
X299750Y929650D02*
G54D22*
D03*
X299750Y955050D02*
G54D22*
D03*
G36*
X230350Y594550D02*
X230350Y580550D01*
X216350Y580550D01*
X216350Y594550D01*
X230350Y594550D01*
G37*
X223350Y562150D02*
G54D22*
D03*
X223350Y536750D02*
G54D22*
D03*
X223350Y511350D02*
G54D22*
D03*
X223350Y485950D02*
G54D22*
D03*
X223350Y460550D02*
G54D22*
D03*
X223350Y435150D02*
G54D22*
D03*
X299550Y435150D02*
G54D22*
D03*
X299550Y460550D02*
G54D22*
D03*
X299550Y485950D02*
G54D22*
D03*
X299550Y511350D02*
G54D22*
D03*
X299550Y536750D02*
G54D22*
D03*
X299550Y562150D02*
G54D22*
D03*
X299550Y587550D02*
G54D22*
D03*
X1329050Y1069050D02*
G54D10*
D03*
X1202050Y1069050D02*
G54D10*
D03*
X1583750Y1133850D02*
G54D10*
D03*
X1456750Y1133850D02*
G54D10*
D03*
X1584150Y1159050D02*
G54D10*
D03*
X1457150Y1159050D02*
G54D10*
D03*
X1583946Y1183732D02*
G54D10*
D03*
X1456946Y1183732D02*
G54D10*
D03*
G36*
X1591250Y961450D02*
X1591250Y947450D01*
X1577250Y947450D01*
X1577250Y961450D01*
X1591250Y961450D01*
G37*
X1584250Y929050D02*
G54D22*
D03*
X1584250Y903650D02*
G54D22*
D03*
X1584250Y878250D02*
G54D22*
D03*
X1584250Y852850D02*
G54D22*
D03*
X1584250Y827450D02*
G54D22*
D03*
X1584250Y802050D02*
G54D22*
D03*
X1660450Y802050D02*
G54D22*
D03*
X1660450Y827450D02*
G54D22*
D03*
X1660450Y852850D02*
G54D22*
D03*
X1660450Y878250D02*
G54D22*
D03*
X1660450Y903650D02*
G54D22*
D03*
X1660450Y929050D02*
G54D22*
D03*
X1660450Y954450D02*
G54D22*
D03*
G36*
X1590750Y568550D02*
X1590750Y554550D01*
X1576750Y554550D01*
X1576750Y568550D01*
X1590750Y568550D01*
G37*
X1583750Y536150D02*
G54D22*
D03*
X1583750Y510750D02*
G54D22*
D03*
X1583750Y485350D02*
G54D22*
D03*
X1583750Y459950D02*
G54D22*
D03*
X1583750Y434550D02*
G54D22*
D03*
X1583750Y409150D02*
G54D22*
D03*
X1659950Y409150D02*
G54D22*
D03*
X1659950Y434550D02*
G54D22*
D03*
X1659950Y459950D02*
G54D22*
D03*
X1659950Y485350D02*
G54D22*
D03*
X1659950Y510750D02*
G54D22*
D03*
X1659950Y536150D02*
G54D22*
D03*
X1659950Y561550D02*
G54D22*
D03*
G36*
X1425950Y569150D02*
X1425950Y555150D01*
X1411950Y555150D01*
X1411950Y569150D01*
X1425950Y569150D01*
G37*
X1418950Y536750D02*
G54D22*
D03*
X1418950Y511350D02*
G54D22*
D03*
X1418950Y485950D02*
G54D22*
D03*
X1418950Y460550D02*
G54D22*
D03*
X1418950Y435150D02*
G54D22*
D03*
X1418950Y409750D02*
G54D22*
D03*
X1495150Y409750D02*
G54D22*
D03*
X1495150Y435150D02*
G54D22*
D03*
X1495150Y460550D02*
G54D22*
D03*
X1495150Y485950D02*
G54D22*
D03*
X1495150Y511350D02*
G54D22*
D03*
X1495150Y536750D02*
G54D22*
D03*
X1495150Y562150D02*
G54D22*
D03*
G36*
X2418950Y1012450D02*
X2418950Y998450D01*
X2404950Y998450D01*
X2404950Y1012450D01*
X2418950Y1012450D01*
G37*
X2411950Y980050D02*
G54D22*
D03*
X2411950Y954650D02*
G54D22*
D03*
X2411950Y929250D02*
G54D22*
D03*
X2411950Y903850D02*
G54D22*
D03*
X2411950Y878450D02*
G54D22*
D03*
X2411950Y853050D02*
G54D22*
D03*
X2411950Y827650D02*
G54D22*
D03*
X2411950Y802250D02*
G54D22*
D03*
X2411950Y776850D02*
G54D22*
D03*
X2411950Y751450D02*
G54D22*
D03*
X2411950Y726050D02*
G54D22*
D03*
X2411950Y700650D02*
G54D22*
D03*
X2411950Y675250D02*
G54D22*
D03*
X2411950Y649850D02*
G54D22*
D03*
X2411950Y624450D02*
G54D22*
D03*
X2411950Y599050D02*
G54D22*
D03*
X2411950Y573650D02*
G54D22*
D03*
X2411950Y548250D02*
G54D22*
D03*
X2411950Y522850D02*
G54D22*
D03*
X2564350Y522850D02*
G54D22*
D03*
X2564350Y548250D02*
G54D22*
D03*
X2564350Y573650D02*
G54D22*
D03*
X2564350Y599050D02*
G54D22*
D03*
X2564350Y624450D02*
G54D22*
D03*
X2564350Y649850D02*
G54D22*
D03*
X2564350Y675250D02*
G54D22*
D03*
X2564350Y700650D02*
G54D22*
D03*
X2564350Y726050D02*
G54D22*
D03*
X2564350Y751450D02*
G54D22*
D03*
X2564350Y776850D02*
G54D22*
D03*
X2564350Y802250D02*
G54D22*
D03*
X2564350Y827650D02*
G54D22*
D03*
X2564350Y853050D02*
G54D22*
D03*
X2564350Y878450D02*
G54D22*
D03*
X2564350Y903850D02*
G54D22*
D03*
X2564350Y929250D02*
G54D22*
D03*
X2564350Y954650D02*
G54D22*
D03*
X2564350Y980050D02*
G54D22*
D03*
X2564350Y1005450D02*
G54D22*
D03*
X960150Y752750D02*
G54D10*
D03*
X833150Y752750D02*
G54D10*
D03*
X1163950Y753150D02*
G54D10*
D03*
X1036950Y753150D02*
G54D10*
D03*
X1367250Y752750D02*
G54D10*
D03*
X1240250Y752750D02*
G54D10*
D03*
X1544950Y752350D02*
G54D10*
D03*
X1417950Y752350D02*
G54D10*
D03*
X1711550Y752750D02*
G54D10*
D03*
X1584550Y752750D02*
G54D10*
D03*
X1888350Y726550D02*
G54D10*
D03*
X1761350Y726550D02*
G54D10*
D03*
X2134350Y712650D02*
G54D10*
D03*
X2007350Y712650D02*
G54D10*
D03*
X2231850Y765350D02*
G54D10*
D03*
X2231850Y892350D02*
G54D10*
D03*
X2193942Y764818D02*
G54D10*
D03*
X2193942Y891818D02*
G54D10*
D03*
X2232650Y930350D02*
G54D10*
D03*
X2232650Y1057350D02*
G54D10*
D03*
X2195150Y929550D02*
G54D10*
D03*
X2195150Y1056550D02*
G54D10*
D03*
X2233150Y1081450D02*
G54D10*
D03*
X2233150Y1208450D02*
G54D10*
D03*
X2194350Y1082250D02*
G54D10*
D03*
X2194350Y1209250D02*
G54D10*
D03*
X1800950Y1158250D02*
G54D10*
D03*
X1927950Y1158250D02*
G54D10*
D03*
X642850Y639450D02*
G54D10*
D03*
X769850Y639450D02*
G54D10*
D03*
X223650Y360150D02*
G54D10*
D03*
X350650Y360150D02*
G54D10*
D03*
X376250Y360450D02*
G54D10*
D03*
X503250Y360450D02*
G54D10*
D03*
X528250Y360150D02*
G54D10*
D03*
X655250Y360150D02*
G54D10*
D03*
X680850Y360450D02*
G54D10*
D03*
X807850Y360450D02*
G54D10*
D03*
X832750Y358850D02*
G54D10*
D03*
X959750Y358850D02*
G54D10*
D03*
X1036950Y359150D02*
G54D10*
D03*
X1163950Y359150D02*
G54D10*
D03*
X1241250Y358550D02*
G54D10*
D03*
X1368250Y358550D02*
G54D10*
D03*
X1405350Y358350D02*
G54D10*
D03*
X1532350Y358350D02*
G54D10*
D03*
X1583912Y357800D02*
G54D10*
D03*
X1710912Y357800D02*
G54D10*
D03*
X1774050Y536650D02*
G54D10*
D03*
X1774050Y409650D02*
G54D10*
D03*
X1800050Y536350D02*
G54D10*
D03*
X1800050Y409350D02*
G54D10*
D03*
X1971050Y597250D02*
G54D10*
D03*
X1971050Y470250D02*
G54D10*
D03*
X2009950Y596750D02*
G54D10*
D03*
X2009950Y469750D02*
G54D10*
D03*
X2034150Y596750D02*
G54D10*
D03*
X2034150Y469750D02*
G54D10*
D03*
X2059350Y596750D02*
G54D10*
D03*
X2059350Y469750D02*
G54D10*
D03*
X2086150Y597650D02*
G54D10*
D03*
X2086150Y470650D02*
G54D10*
D03*
X2125550Y598250D02*
G54D10*
D03*
X2125550Y471250D02*
G54D10*
D03*
G36*
X382850Y987650D02*
X382850Y973650D01*
X368850Y973650D01*
X368850Y987650D01*
X382850Y987650D01*
G37*
X375850Y955250D02*
G54D22*
D03*
X375850Y929850D02*
G54D22*
D03*
X375850Y904450D02*
G54D22*
D03*
X375850Y879050D02*
G54D22*
D03*
X375850Y853650D02*
G54D22*
D03*
X375850Y828250D02*
G54D22*
D03*
X375850Y802850D02*
G54D22*
D03*
X452050Y802850D02*
G54D22*
D03*
X452050Y828250D02*
G54D22*
D03*
X452050Y853650D02*
G54D22*
D03*
X452050Y879050D02*
G54D22*
D03*
X452050Y904450D02*
G54D22*
D03*
X452050Y929850D02*
G54D22*
D03*
X452050Y955250D02*
G54D22*
D03*
X452050Y980650D02*
G54D22*
D03*
G36*
X536150Y988250D02*
X536150Y974250D01*
X522150Y974250D01*
X522150Y988250D01*
X536150Y988250D01*
G37*
X529150Y955850D02*
G54D22*
D03*
X529150Y930450D02*
G54D22*
D03*
X529150Y905050D02*
G54D22*
D03*
X529150Y879650D02*
G54D22*
D03*
X529150Y854250D02*
G54D22*
D03*
X529150Y828850D02*
G54D22*
D03*
X529150Y803450D02*
G54D22*
D03*
X605350Y803450D02*
G54D22*
D03*
X605350Y828850D02*
G54D22*
D03*
X605350Y854250D02*
G54D22*
D03*
X605350Y879650D02*
G54D22*
D03*
X605350Y905050D02*
G54D22*
D03*
X605350Y930450D02*
G54D22*
D03*
X605350Y955850D02*
G54D22*
D03*
X605350Y981250D02*
G54D22*
D03*
G36*
X688050Y988350D02*
X688050Y974350D01*
X674050Y974350D01*
X674050Y988350D01*
X688050Y988350D01*
G37*
X681050Y955950D02*
G54D22*
D03*
X681050Y930550D02*
G54D22*
D03*
X681050Y905150D02*
G54D22*
D03*
X681050Y879750D02*
G54D22*
D03*
X681050Y854350D02*
G54D22*
D03*
X681050Y828950D02*
G54D22*
D03*
X681050Y803550D02*
G54D22*
D03*
X757250Y803550D02*
G54D22*
D03*
X757250Y828950D02*
G54D22*
D03*
X757250Y854350D02*
G54D22*
D03*
X757250Y879750D02*
G54D22*
D03*
X757250Y905150D02*
G54D22*
D03*
X757250Y930550D02*
G54D22*
D03*
X757250Y955950D02*
G54D22*
D03*
X757250Y981350D02*
G54D22*
D03*
G36*
X840650Y988050D02*
X840650Y974050D01*
X826650Y974050D01*
X826650Y988050D01*
X840650Y988050D01*
G37*
X833650Y955650D02*
G54D22*
D03*
X833650Y930250D02*
G54D22*
D03*
X833650Y904850D02*
G54D22*
D03*
X833650Y879450D02*
G54D22*
D03*
X833650Y854050D02*
G54D22*
D03*
X833650Y828650D02*
G54D22*
D03*
X833650Y803250D02*
G54D22*
D03*
X909850Y803250D02*
G54D22*
D03*
X909850Y828650D02*
G54D22*
D03*
X909850Y854050D02*
G54D22*
D03*
X909850Y879450D02*
G54D22*
D03*
X909850Y904850D02*
G54D22*
D03*
X909850Y930250D02*
G54D22*
D03*
X909850Y955650D02*
G54D22*
D03*
X909850Y981050D02*
G54D22*
D03*
G36*
X1043450Y987650D02*
X1043450Y973650D01*
X1029450Y973650D01*
X1029450Y987650D01*
X1043450Y987650D01*
G37*
X1036450Y955250D02*
G54D22*
D03*
X1036450Y929850D02*
G54D22*
D03*
X1036450Y904450D02*
G54D22*
D03*
X1036450Y879050D02*
G54D22*
D03*
X1036450Y853650D02*
G54D22*
D03*
X1036450Y828250D02*
G54D22*
D03*
X1036450Y802850D02*
G54D22*
D03*
X1112650Y802850D02*
G54D22*
D03*
X1112650Y828250D02*
G54D22*
D03*
X1112650Y853650D02*
G54D22*
D03*
X1112650Y879050D02*
G54D22*
D03*
X1112650Y904450D02*
G54D22*
D03*
X1112650Y929850D02*
G54D22*
D03*
X1112650Y955250D02*
G54D22*
D03*
X1112650Y980650D02*
G54D22*
D03*
G36*
X1425950Y987450D02*
X1425950Y973450D01*
X1411950Y973450D01*
X1411950Y987450D01*
X1425950Y987450D01*
G37*
X1418950Y955050D02*
G54D22*
D03*
X1418950Y929650D02*
G54D22*
D03*
X1418950Y904250D02*
G54D22*
D03*
X1418950Y878850D02*
G54D22*
D03*
X1418950Y853450D02*
G54D22*
D03*
X1418950Y828050D02*
G54D22*
D03*
X1418950Y802650D02*
G54D22*
D03*
X1495150Y802650D02*
G54D22*
D03*
X1495150Y828050D02*
G54D22*
D03*
X1495150Y853450D02*
G54D22*
D03*
X1495150Y878850D02*
G54D22*
D03*
X1495150Y904250D02*
G54D22*
D03*
X1495150Y929650D02*
G54D22*
D03*
X1495150Y955050D02*
G54D22*
D03*
X1495150Y980450D02*
G54D22*
D03*
G36*
X383550Y594750D02*
X383550Y580750D01*
X369550Y580750D01*
X369550Y594750D01*
X383550Y594750D01*
G37*
X376550Y562350D02*
G54D22*
D03*
X376550Y536950D02*
G54D22*
D03*
X376550Y511550D02*
G54D22*
D03*
X376550Y486150D02*
G54D22*
D03*
X376550Y460750D02*
G54D22*
D03*
X376550Y435350D02*
G54D22*
D03*
X376550Y409950D02*
G54D22*
D03*
X452750Y409950D02*
G54D22*
D03*
X452750Y435350D02*
G54D22*
D03*
X452750Y460750D02*
G54D22*
D03*
X452750Y486150D02*
G54D22*
D03*
X452750Y511550D02*
G54D22*
D03*
X452750Y536950D02*
G54D22*
D03*
X452750Y562350D02*
G54D22*
D03*
X452750Y587750D02*
G54D22*
D03*
G36*
X535150Y594626D02*
X535150Y580626D01*
X521150Y580626D01*
X521150Y594626D01*
X535150Y594626D01*
G37*
X528150Y562226D02*
G54D22*
D03*
X528150Y536826D02*
G54D22*
D03*
X528150Y511426D02*
G54D22*
D03*
X528150Y486026D02*
G54D22*
D03*
X528150Y460626D02*
G54D22*
D03*
X528150Y435226D02*
G54D22*
D03*
X528150Y409826D02*
G54D22*
D03*
X604350Y409826D02*
G54D22*
D03*
X604350Y435226D02*
G54D22*
D03*
X604350Y460626D02*
G54D22*
D03*
X604350Y486026D02*
G54D22*
D03*
X604350Y511426D02*
G54D22*
D03*
X604350Y536826D02*
G54D22*
D03*
X604350Y562226D02*
G54D22*
D03*
X604350Y587626D02*
G54D22*
D03*
G36*
X681038Y594226D02*
X681038Y580226D01*
X667038Y580226D01*
X667038Y594226D01*
X681038Y594226D01*
G37*
X674038Y561826D02*
G54D22*
D03*
X674038Y536426D02*
G54D22*
D03*
X674038Y511026D02*
G54D22*
D03*
X674038Y485626D02*
G54D22*
D03*
X674038Y460226D02*
G54D22*
D03*
X674038Y434826D02*
G54D22*
D03*
X674038Y409426D02*
G54D22*
D03*
X750238Y409426D02*
G54D22*
D03*
X750238Y434826D02*
G54D22*
D03*
X750238Y460226D02*
G54D22*
D03*
X750238Y485626D02*
G54D22*
D03*
X750238Y511026D02*
G54D22*
D03*
X750238Y536426D02*
G54D22*
D03*
X750238Y561826D02*
G54D22*
D03*
X750238Y587226D02*
G54D22*
D03*
G36*
X839950Y594550D02*
X839950Y580550D01*
X825950Y580550D01*
X825950Y594550D01*
X839950Y594550D01*
G37*
X832950Y562150D02*
G54D22*
D03*
X832950Y536750D02*
G54D22*
D03*
X832950Y511350D02*
G54D22*
D03*
X832950Y485950D02*
G54D22*
D03*
X832950Y460550D02*
G54D22*
D03*
X832950Y435150D02*
G54D22*
D03*
X832950Y409750D02*
G54D22*
D03*
X909150Y409750D02*
G54D22*
D03*
X909150Y435150D02*
G54D22*
D03*
X909150Y460550D02*
G54D22*
D03*
X909150Y485950D02*
G54D22*
D03*
X909150Y511350D02*
G54D22*
D03*
X909150Y536750D02*
G54D22*
D03*
X909150Y562150D02*
G54D22*
D03*
X909150Y587550D02*
G54D22*
D03*
G36*
X1043550Y594650D02*
X1043550Y580650D01*
X1029550Y580650D01*
X1029550Y594650D01*
X1043550Y594650D01*
G37*
X1036550Y562250D02*
G54D22*
D03*
X1036550Y536850D02*
G54D22*
D03*
X1036550Y511450D02*
G54D22*
D03*
X1036550Y486050D02*
G54D22*
D03*
X1036550Y460650D02*
G54D22*
D03*
X1036550Y435250D02*
G54D22*
D03*
X1036550Y409850D02*
G54D22*
D03*
X1112750Y409850D02*
G54D22*
D03*
X1112750Y435250D02*
G54D22*
D03*
X1112750Y460650D02*
G54D22*
D03*
X1112750Y486050D02*
G54D22*
D03*
X1112750Y511450D02*
G54D22*
D03*
X1112750Y536850D02*
G54D22*
D03*
X1112750Y562250D02*
G54D22*
D03*
X1112750Y587650D02*
G54D22*
D03*
G36*
X2976011Y637891D02*
X2990011Y637891D01*
X2990011Y623891D01*
X2976011Y623891D01*
X2976011Y637891D01*
G37*
X3008411Y630891D02*
G54D22*
D03*
X3033811Y630891D02*
G54D22*
D03*
X3059211Y630891D02*
G54D22*
D03*
X3084611Y630891D02*
G54D22*
D03*
X3110011Y630891D02*
G54D22*
D03*
X3135411Y630891D02*
G54D22*
D03*
X3160811Y630891D02*
G54D22*
D03*
X3160811Y707091D02*
G54D22*
D03*
X3135411Y707091D02*
G54D22*
D03*
X3110011Y707091D02*
G54D22*
D03*
X3084611Y707091D02*
G54D22*
D03*
X3059211Y707091D02*
G54D22*
D03*
X3033811Y707091D02*
G54D22*
D03*
X3008411Y707091D02*
G54D22*
D03*
X2983011Y707091D02*
G54D22*
D03*
G36*
X3332350Y529550D02*
X3346350Y529550D01*
X3346350Y515550D01*
X3332350Y515550D01*
X3332350Y529550D01*
G37*
X3364750Y522550D02*
G54D22*
D03*
X3390150Y522550D02*
G54D22*
D03*
X3415550Y522550D02*
G54D22*
D03*
X3440950Y522550D02*
G54D22*
D03*
X3466350Y522550D02*
G54D22*
D03*
X3491750Y522550D02*
G54D22*
D03*
X3491750Y598750D02*
G54D22*
D03*
X3466350Y598750D02*
G54D22*
D03*
X3440950Y598750D02*
G54D22*
D03*
X3415550Y598750D02*
G54D22*
D03*
X3390150Y598750D02*
G54D22*
D03*
X3364750Y598750D02*
G54D22*
D03*
X3339350Y598750D02*
G54D22*
D03*
G36*
X3155050Y751850D02*
X3169050Y751850D01*
X3169050Y737850D01*
X3155050Y737850D01*
X3155050Y751850D01*
G37*
X3187450Y744850D02*
G54D22*
D03*
X3212850Y744850D02*
G54D22*
D03*
X3238250Y744850D02*
G54D22*
D03*
X3263650Y744850D02*
G54D22*
D03*
X3289050Y744850D02*
G54D22*
D03*
X3314450Y744850D02*
G54D22*
D03*
X3339850Y744850D02*
G54D22*
D03*
X3339850Y821050D02*
G54D22*
D03*
X3314450Y821050D02*
G54D22*
D03*
X3289050Y821050D02*
G54D22*
D03*
X3263650Y821050D02*
G54D22*
D03*
X3238250Y821050D02*
G54D22*
D03*
X3212850Y821050D02*
G54D22*
D03*
X3187450Y821050D02*
G54D22*
D03*
X3162050Y821050D02*
G54D22*
D03*
X2602050Y1158850D02*
G54D10*
D03*
X2475050Y1158850D02*
G54D10*
D03*
X2603050Y1132550D02*
G54D10*
D03*
X2476050Y1132550D02*
G54D10*
D03*
X2755350Y1031850D02*
G54D10*
D03*
X2755350Y1158850D02*
G54D10*
D03*
X2778850Y979050D02*
G54D10*
D03*
X2651850Y979050D02*
G54D10*
D03*
X2778350Y954850D02*
G54D10*
D03*
X2651350Y954850D02*
G54D10*
D03*
X2779850Y929050D02*
G54D10*
D03*
X2652850Y929050D02*
G54D10*
D03*
X2779350Y903750D02*
G54D10*
D03*
X2652350Y903750D02*
G54D10*
D03*
X2779350Y879050D02*
G54D10*
D03*
X2652350Y879050D02*
G54D10*
D03*
X2778850Y853750D02*
G54D10*
D03*
X2651850Y853750D02*
G54D10*
D03*
X2881350Y833050D02*
G54D10*
D03*
X2754350Y833050D02*
G54D10*
D03*
G36*
X2816550Y895450D02*
X2816550Y910450D01*
X2831550Y910450D01*
X2831550Y895450D01*
X2816550Y895450D01*
G37*
X2824050Y928350D02*
G54D10*
D03*
X2824050Y953750D02*
G54D10*
D03*
X2996250Y732550D02*
G54D10*
D03*
X3123250Y732550D02*
G54D10*
D03*
X2756350Y809350D02*
G54D10*
D03*
X2883350Y809350D02*
G54D10*
D03*
G36*
X2835250Y784050D02*
X2850250Y784050D01*
X2850250Y769050D01*
X2835250Y769050D01*
X2835250Y784050D01*
G37*
X2868150Y776550D02*
G54D10*
D03*
X2893550Y776550D02*
G54D10*
D03*
X2677550Y776550D02*
G54D10*
D03*
X2804550Y776550D02*
G54D10*
D03*
X2772050Y738150D02*
G54D10*
D03*
X2899050Y738150D02*
G54D10*
D03*
X2608850Y725550D02*
G54D10*
D03*
X2735850Y725550D02*
G54D10*
D03*
X2608350Y688650D02*
G54D10*
D03*
X2735350Y688650D02*
G54D10*
D03*
X2607850Y649750D02*
G54D10*
D03*
X2734850Y649750D02*
G54D10*
D03*
X2605972Y613031D02*
G54D10*
D03*
X2732972Y613031D02*
G54D10*
D03*
X2773550Y693650D02*
G54D10*
D03*
X2900550Y693650D02*
G54D10*
D03*
X2773550Y669450D02*
G54D10*
D03*
X2900550Y669450D02*
G54D10*
D03*
G36*
X2797350Y644150D02*
X2812350Y644150D01*
X2812350Y629150D01*
X2797350Y629150D01*
X2797350Y644150D01*
G37*
X2830250Y636650D02*
G54D10*
D03*
X2855650Y636650D02*
G54D10*
D03*
X2766950Y611350D02*
G54D10*
D03*
X2893950Y611350D02*
G54D10*
D03*
X2766342Y587490D02*
G54D10*
D03*
X2893342Y587490D02*
G54D10*
D03*
X2766950Y561350D02*
G54D10*
D03*
X2893950Y561350D02*
G54D10*
D03*
X2767450Y535150D02*
G54D10*
D03*
X2894450Y535150D02*
G54D10*
D03*
X2969181Y537294D02*
G54D10*
D03*
X3096181Y537294D02*
G54D10*
D03*
X2969450Y562531D02*
G54D10*
D03*
X3096450Y562531D02*
G54D10*
D03*
X2969450Y587990D02*
G54D10*
D03*
X3096450Y587990D02*
G54D10*
D03*
X3046750Y606350D02*
G54D10*
D03*
X3173750Y606350D02*
G54D10*
D03*
X3200350Y644250D02*
G54D10*
D03*
X3327350Y644250D02*
G54D10*
D03*
X3149250Y555850D02*
G54D10*
D03*
X3276250Y555850D02*
G54D10*
D03*
X3134150Y529550D02*
G54D10*
D03*
X3261150Y529550D02*
G54D10*
D03*
X3351850Y630050D02*
G54D10*
D03*
X3478850Y630050D02*
G54D10*
D03*
X3384150Y655850D02*
G54D10*
D03*
X3511150Y655850D02*
G54D10*
D03*
G36*
X3479850Y692250D02*
X3464850Y692250D01*
X3464850Y707250D01*
X3479850Y707250D01*
X3479850Y692250D01*
G37*
X3446950Y699750D02*
G54D10*
D03*
X3421550Y699750D02*
G54D10*
D03*
X2678650Y1004850D02*
G54D10*
D03*
X2678650Y1157250D02*
G54D10*
D03*
X2716450Y1005250D02*
G54D10*
D03*
X2716450Y1157650D02*
G54D10*
D03*
X2563250Y1082850D02*
G54D10*
D03*
X2563650Y1031050D02*
G54D10*
D03*
G36*
X1997750Y1114250D02*
X1997750Y1100250D01*
X1983750Y1100250D01*
X1983750Y1114250D01*
X1997750Y1114250D01*
G37*
X1990750Y1081850D02*
G54D22*
D03*
X1990750Y1056450D02*
G54D22*
D03*
X1990750Y1031050D02*
G54D22*
D03*
X1990750Y1005650D02*
G54D22*
D03*
X1990750Y980250D02*
G54D22*
D03*
X1990750Y954850D02*
G54D22*
D03*
X1990750Y929450D02*
G54D22*
D03*
X1990750Y904050D02*
G54D22*
D03*
X1990750Y878650D02*
G54D22*
D03*
X1990750Y853250D02*
G54D22*
D03*
X1990750Y827850D02*
G54D22*
D03*
X1990750Y802450D02*
G54D22*
D03*
X1990750Y777050D02*
G54D22*
D03*
X2143150Y777050D02*
G54D22*
D03*
X2143150Y802450D02*
G54D22*
D03*
X2143150Y827850D02*
G54D22*
D03*
X2143150Y853250D02*
G54D22*
D03*
X2143150Y878650D02*
G54D22*
D03*
X2143150Y904050D02*
G54D22*
D03*
X2143150Y929450D02*
G54D22*
D03*
X2143150Y954850D02*
G54D22*
D03*
X2143150Y980250D02*
G54D22*
D03*
X2143150Y1005650D02*
G54D22*
D03*
X2143150Y1031050D02*
G54D22*
D03*
X2143150Y1056450D02*
G54D22*
D03*
X2143150Y1081850D02*
G54D22*
D03*
X2143150Y1107250D02*
G54D22*
D03*
G36*
X1770050Y1114250D02*
X1770050Y1100250D01*
X1756050Y1100250D01*
X1756050Y1114250D01*
X1770050Y1114250D01*
G37*
X1763050Y1081850D02*
G54D22*
D03*
X1763050Y1056450D02*
G54D22*
D03*
X1763050Y1031050D02*
G54D22*
D03*
X1763050Y1005650D02*
G54D22*
D03*
X1763050Y980250D02*
G54D22*
D03*
X1763050Y954850D02*
G54D22*
D03*
X1763050Y929450D02*
G54D22*
D03*
X1763050Y904050D02*
G54D22*
D03*
X1763050Y878650D02*
G54D22*
D03*
X1763050Y853250D02*
G54D22*
D03*
X1763050Y827850D02*
G54D22*
D03*
X1763050Y802450D02*
G54D22*
D03*
X1763050Y777050D02*
G54D22*
D03*
X1915450Y777050D02*
G54D22*
D03*
X1915450Y802450D02*
G54D22*
D03*
X1915450Y827850D02*
G54D22*
D03*
X1915450Y853250D02*
G54D22*
D03*
X1915450Y878650D02*
G54D22*
D03*
X1915450Y904050D02*
G54D22*
D03*
X1915450Y929450D02*
G54D22*
D03*
X1915450Y954850D02*
G54D22*
D03*
X1915450Y980250D02*
G54D22*
D03*
X1915450Y1005650D02*
G54D22*
D03*
X1915450Y1031050D02*
G54D22*
D03*
X1915450Y1056450D02*
G54D22*
D03*
X1915450Y1081850D02*
G54D22*
D03*
X1915450Y1107250D02*
G54D22*
D03*
X1700450Y1170950D02*
G54D10*
D03*
G36*
X1692950Y1138550D02*
X1692950Y1153550D01*
X1707950Y1153550D01*
X1707950Y1138550D01*
X1692950Y1138550D01*
G37*
X318350Y665350D02*
G54D10*
D03*
G36*
X285950Y672850D02*
X300950Y672850D01*
X300950Y657850D01*
X285950Y657850D01*
X285950Y672850D01*
G37*
X1947050Y739250D02*
G54D10*
D03*
G36*
X1939550Y706850D02*
X1939550Y721850D01*
X1954550Y721850D01*
X1954550Y706850D01*
X1939550Y706850D01*
G37*
X338050Y538350D02*
G54D10*
D03*
G36*
X330550Y505950D02*
X330550Y520950D01*
X345550Y520950D01*
X345550Y505950D01*
X330550Y505950D01*
G37*
X2836950Y1438950D02*
G54D23*
D03*
G36*
X2845150Y1472050D02*
X2845150Y1455650D01*
X2828750Y1455650D01*
X2828750Y1472050D01*
X2845150Y1472050D01*
G37*
X2622750Y1285250D02*
G54D10*
D03*
G36*
X2655150Y1277750D02*
X2640150Y1277750D01*
X2640150Y1292750D01*
X2655150Y1292750D01*
X2655150Y1277750D01*
G37*
X2246250Y1260250D02*
G54D10*
D03*
G36*
X2278650Y1252750D02*
X2263650Y1252750D01*
X2263650Y1267750D01*
X2278650Y1267750D01*
X2278650Y1252750D01*
G37*
X2176250Y1259550D02*
G54D10*
D03*
G36*
X2208650Y1252050D02*
X2193650Y1252050D01*
X2193650Y1267050D01*
X2208650Y1267050D01*
X2208650Y1252050D01*
G37*
X2111625Y256179D02*
G54D10*
D03*
G36*
X2144025Y248679D02*
X2129025Y248679D01*
X2129025Y263679D01*
X2144025Y263679D01*
X2144025Y248679D01*
G37*
X2226949Y256454D02*
G54D10*
D03*
G36*
X2194549Y263954D02*
X2209549Y263954D01*
X2209549Y248954D01*
X2194549Y248954D01*
X2194549Y263954D01*
G37*
X2463150Y381950D02*
G54D23*
D03*
G36*
X2496250Y373750D02*
X2479850Y373750D01*
X2479850Y390150D01*
X2496250Y390150D01*
X2496250Y373750D01*
G37*
G36*
X3183450Y392350D02*
X3200450Y392350D01*
X3200450Y375350D01*
X3183450Y375350D01*
X3183450Y392350D01*
G37*
X3575250Y383550D02*
G54D24*
D03*
G36*
X2707465Y391264D02*
X2724465Y391264D01*
X2724465Y374264D01*
X2707465Y374264D01*
X2707465Y391264D01*
G37*
X3091550Y382750D02*
G54D24*
D03*
X2807050Y1137750D02*
G54D10*
D03*
G36*
X2839450Y1130250D02*
X2824450Y1130250D01*
X2824450Y1145250D01*
X2839450Y1145250D01*
X2839450Y1130250D01*
G37*
X2990450Y1138350D02*
G54D10*
D03*
G36*
X2997950Y1170750D02*
X2997950Y1155750D01*
X2982950Y1155750D01*
X2982950Y1170750D01*
X2997950Y1170750D01*
G37*
X3264850Y592150D02*
G54D25*
D03*
X3239550Y566950D02*
G54D25*
D03*
X3213350Y590650D02*
G54D25*
D03*
X2676004Y535608D02*
G54D25*
D03*
X2701304Y560808D02*
G54D25*
D03*
X2727504Y537108D02*
G54D25*
D03*
X3006750Y1011450D02*
G54D10*
D03*
X3007150Y959650D02*
G54D10*
D03*
X696578Y1701622D02*
G54D10*
D03*
X696578Y1828622D02*
G54D10*
D03*
X1947469Y1856229D02*
G54D26*
D03*
X1873613Y1856606D02*
G54D26*
D03*
X1896536Y1830540D02*
G54D26*
D03*
X1997121Y1830436D02*
G54D26*
D03*
X2021700Y1855340D02*
G54D26*
D03*
X1896670Y1954583D02*
G54D26*
D03*
X1996755Y1955310D02*
G54D26*
D03*
X1648994Y1856631D02*
G54D26*
D03*
X1572850Y1854931D02*
G54D26*
D03*
X1597182Y1831344D02*
G54D26*
D03*
X1648094Y1806344D02*
G54D26*
D03*
X1698600Y1831238D02*
G54D26*
D03*
X1723838Y1856519D02*
G54D26*
D03*
X1596894Y1955744D02*
G54D26*
D03*
X1698600Y1956650D02*
G54D26*
D03*
X3701850Y1380600D02*
G54D27*
D03*
X3701850Y1352100D02*
G54D27*
D03*
X3701850Y1320200D02*
G54D27*
D03*
X3701850Y1290800D02*
G54D27*
D03*
X3701850Y1260200D02*
G54D27*
D03*
X3734450Y1363300D02*
G54D27*
D03*
X3734450Y1335600D02*
G54D27*
D03*
X3734450Y1307900D02*
G54D27*
D03*
X3734450Y1278100D02*
G54D27*
D03*
X3696050Y1774750D02*
G54D10*
D03*
X3696050Y1749350D02*
G54D10*
D03*
X3604850Y1621150D02*
G54D10*
D03*
X3757250Y1621150D02*
G54D10*
D03*
G36*
X3090850Y1447525D02*
X3105475Y1462150D01*
X3126225Y1462150D01*
X3140850Y1447525D01*
X3140850Y1426775D01*
X3126225Y1412150D01*
X3105475Y1412150D01*
X3090850Y1426775D01*
X3090850Y1447525D01*
G37*
G36*
X3167844Y1447525D02*
X3182469Y1462150D01*
X3203219Y1462150D01*
X3217844Y1447525D01*
X3217844Y1426775D01*
X3203219Y1412150D01*
X3182469Y1412150D01*
X3167844Y1426775D01*
X3167844Y1447525D01*
G37*
G36*
X3444862Y1446731D02*
X3459487Y1461356D01*
X3480237Y1461356D01*
X3494862Y1446731D01*
X3494862Y1425981D01*
X3480237Y1411356D01*
X3459487Y1411356D01*
X3444862Y1425981D01*
X3444862Y1446731D01*
G37*
G36*
X3367869Y1446731D02*
X3382494Y1461356D01*
X3403244Y1461356D01*
X3417869Y1446731D01*
X3417869Y1425981D01*
X3403244Y1411356D01*
X3382494Y1411356D01*
X3367869Y1425981D01*
X3367869Y1446731D01*
G37*
X3104850Y1308850D02*
G54D10*
D03*
X3491550Y1309150D02*
G54D10*
D03*
X3296550Y1521850D02*
G54D23*
D03*
G36*
X3238350Y1530050D02*
X3254750Y1530050D01*
X3254750Y1513650D01*
X3238350Y1513650D01*
X3238350Y1530050D01*
G37*
G36*
X2957344Y1507471D02*
X2972344Y1507471D01*
X2972344Y1492471D01*
X2957344Y1492471D01*
X2957344Y1507471D01*
G37*
X2990244Y1499971D02*
G54D10*
D03*
X3015644Y1499971D02*
G54D10*
D03*
X3041044Y1499971D02*
G54D10*
D03*
X3066444Y1499971D02*
G54D10*
D03*
X3091844Y1499971D02*
G54D10*
D03*
X3117244Y1499971D02*
G54D10*
D03*
X3142644Y1499971D02*
G54D10*
D03*
X3168044Y1499971D02*
G54D10*
D03*
X3193444Y1499971D02*
G54D10*
D03*
X3600750Y1246650D02*
G54D10*
D03*
X3600750Y1297450D02*
G54D10*
D03*
X3524550Y1246650D02*
G54D10*
D03*
X3524550Y1297450D02*
G54D10*
D03*
X3021550Y1154650D02*
G54D10*
D03*
X3173950Y1154650D02*
G54D10*
D03*
X3365650Y1138150D02*
G54D10*
D03*
X3518050Y1138150D02*
G54D10*
D03*
G36*
X1248350Y1012750D02*
X1248350Y998750D01*
X1234350Y998750D01*
X1234350Y1012750D01*
X1248350Y1012750D01*
G37*
X1241350Y980350D02*
G54D22*
D03*
X1241350Y954950D02*
G54D22*
D03*
X1241350Y929550D02*
G54D22*
D03*
X1241350Y904150D02*
G54D22*
D03*
X1241350Y878750D02*
G54D22*
D03*
X1241350Y853350D02*
G54D22*
D03*
X1241350Y827950D02*
G54D22*
D03*
X1241350Y802550D02*
G54D22*
D03*
X1317550Y802550D02*
G54D22*
D03*
X1317550Y827950D02*
G54D22*
D03*
X1317550Y853350D02*
G54D22*
D03*
X1317550Y878750D02*
G54D22*
D03*
X1317550Y904150D02*
G54D22*
D03*
X1317550Y929550D02*
G54D22*
D03*
X1317550Y954950D02*
G54D22*
D03*
X1317550Y980350D02*
G54D22*
D03*
X1317550Y1005750D02*
G54D22*
D03*
G36*
X1247650Y644292D02*
X1247650Y630292D01*
X1233650Y630292D01*
X1233650Y644292D01*
X1247650Y644292D01*
G37*
X1240650Y611892D02*
G54D22*
D03*
X1240650Y586492D02*
G54D22*
D03*
X1240650Y561092D02*
G54D22*
D03*
X1240650Y535692D02*
G54D22*
D03*
X1240650Y510292D02*
G54D22*
D03*
X1240650Y484892D02*
G54D22*
D03*
X1240650Y459492D02*
G54D22*
D03*
X1240650Y434092D02*
G54D22*
D03*
X1240650Y408692D02*
G54D22*
D03*
X1316850Y408692D02*
G54D22*
D03*
X1316850Y434092D02*
G54D22*
D03*
X1316850Y459492D02*
G54D22*
D03*
X1316850Y484892D02*
G54D22*
D03*
X1316850Y510292D02*
G54D22*
D03*
X1316850Y535692D02*
G54D22*
D03*
X1316850Y561092D02*
G54D22*
D03*
X1316850Y586492D02*
G54D22*
D03*
X1316850Y611892D02*
G54D22*
D03*
X1316850Y637292D02*
G54D22*
D03*
X3371251Y745252D02*
G54D10*
D03*
X3522351Y745252D02*
G54D10*
D03*
X132150Y1715550D02*
G54D21*
D03*
X132150Y1690150D02*
G54D21*
D03*
X132150Y1664750D02*
G54D21*
D03*
X132150Y1639350D02*
G54D21*
D03*
X132150Y1613950D02*
G54D21*
D03*
X132150Y1588550D02*
G54D21*
D03*
X132150Y1563150D02*
G54D21*
D03*
X132150Y1537750D02*
G54D21*
D03*
X132150Y1512350D02*
G54D21*
D03*
X132150Y1486950D02*
G54D21*
D03*
X132150Y1461550D02*
G54D21*
D03*
X132150Y1436150D02*
G54D21*
D03*
X132150Y1410750D02*
G54D21*
D03*
X132150Y1385350D02*
G54D21*
D03*
X132150Y1359950D02*
G54D21*
D03*
X132150Y1334550D02*
G54D21*
D03*
X132150Y1309150D02*
G54D21*
D03*
X132150Y1283750D02*
G54D21*
D03*
X132150Y1258350D02*
G54D21*
D03*
X132150Y1232950D02*
G54D21*
D03*
X1089650Y1803550D02*
G54D10*
D03*
X962650Y1803550D02*
G54D10*
D03*
X318777Y1931268D02*
G54D28*
D03*
X358464Y1931268D02*
G54D28*
D03*
X398152Y1931268D02*
G54D28*
D03*
X437839Y1931268D02*
G54D28*
D03*
X477527Y1931268D02*
G54D28*
D03*
X517214Y1931268D02*
G54D28*
D03*
X556902Y1931268D02*
G54D28*
D03*
X593414Y1931268D02*
G54D28*
D03*
X634689Y1931268D02*
G54D28*
D03*
X674376Y1931268D02*
G54D28*
D03*
X239016Y1931268D02*
G54D29*
D03*
X280577Y1931268D02*
G54D29*
D03*
X1084006Y1875600D02*
G54D30*
D03*
X1122106Y1875600D02*
G54D30*
D03*
X1160206Y1875600D02*
G54D30*
D03*
X1199894Y1875600D02*
G54D30*
D03*
X1242756Y1875600D02*
G54D30*
D03*
X1285619Y1875600D02*
G54D30*
D03*
X1280781Y1933675D02*
G54D31*
D03*
X1162031Y1933675D02*
G54D31*
D03*
X1122656Y1933675D02*
G54D31*
D03*
X1083906Y1933675D02*
G54D31*
D03*
X1242756Y1933675D02*
G54D32*
D03*
X1199894Y1933675D02*
G54D32*
D03*
G54D15*
X2766950Y611350D02*
X2766950Y588099D01*
X2766342Y587490D01*
X3700770Y1063610D02*
G54D27*
D03*
X3700770Y1035110D02*
G54D27*
D03*
X3700770Y1003210D02*
G54D27*
D03*
X3700770Y973810D02*
G54D27*
D03*
X3700770Y943210D02*
G54D27*
D03*
X3733370Y1046310D02*
G54D27*
D03*
X3733370Y1018610D02*
G54D27*
D03*
X3733370Y990910D02*
G54D27*
D03*
X3733370Y961110D02*
G54D27*
D03*
X3651350Y1873250D02*
G54D10*
D03*
X3650950Y1823750D02*
G54D10*
D03*
X3651650Y1899650D02*
G54D10*
D03*
X3650950Y1798550D02*
G54D10*
D03*
X3696550Y1830650D02*
G54D10*
D03*
X3696550Y1805250D02*
G54D10*
D03*
X3664250Y1772250D02*
G54D10*
D03*
X3638850Y1772250D02*
G54D10*
D03*
X3607950Y1749450D02*
G54D10*
D03*
X3607950Y1774850D02*
G54D10*
D03*
X3631150Y1659650D02*
G54D10*
D03*
X3656550Y1659650D02*
G54D10*
D03*
X3777276Y1732986D02*
G54D26*
D03*
X3777276Y1803630D02*
G54D26*
D03*
X3724888Y1806011D02*
G54D26*
D03*
X3750288Y1782199D02*
G54D26*
D03*
X3724888Y1732986D02*
G54D26*
D03*
X3751082Y1682980D02*
G54D26*
D03*
X3726476Y1661548D02*
G54D26*
D03*
X3778863Y1662342D02*
G54D26*
D03*
X3877288Y1783786D02*
G54D26*
D03*
X3876494Y1682980D02*
G54D26*
D03*
X3572350Y1577050D02*
G54D10*
D03*
X3597750Y1577050D02*
G54D10*
D03*
X3711550Y1577950D02*
G54D33*
D03*
X3672950Y1578350D02*
G54D33*
D03*
X3634950Y1577750D02*
G54D33*
D03*
X3634650Y1527750D02*
G54D33*
D03*
X3673250Y1527150D02*
G54D33*
D03*
X3712050Y1527150D02*
G54D33*
D03*
X3838350Y1526950D02*
G54D33*
D03*
X3838950Y1578050D02*
G54D33*
D03*
X3376700Y769800D02*
G54D10*
D03*
X3503700Y769800D02*
G54D10*
D03*
X3377550Y797250D02*
G54D10*
D03*
X3504550Y797250D02*
G54D10*
D03*
X3377400Y820800D02*
G54D10*
D03*
X3504400Y820800D02*
G54D10*
D03*
X3326459Y858553D02*
G54D10*
D03*
X3453459Y858553D02*
G54D10*
D03*
X2995750Y808350D02*
G54D10*
D03*
X3122750Y808350D02*
G54D10*
D03*
X2996750Y833550D02*
G54D10*
D03*
X3123750Y833550D02*
G54D10*
D03*
X3172550Y858350D02*
G54D10*
D03*
X3299550Y858350D02*
G54D10*
D03*
X2996750Y909850D02*
G54D10*
D03*
X3123750Y909850D02*
G54D10*
D03*
X2868450Y987150D02*
G54D10*
D03*
X2868450Y860150D02*
G54D10*
D03*
X2868450Y1139150D02*
G54D10*
D03*
X2868450Y1012150D02*
G54D10*
D03*
G36*
X3434850Y1101450D02*
X3434850Y1087450D01*
X3420850Y1087450D01*
X3420850Y1101450D01*
X3434850Y1101450D01*
G37*
X3427850Y1069050D02*
G54D22*
D03*
X3427850Y1043650D02*
G54D22*
D03*
X3427850Y1018250D02*
G54D22*
D03*
X3427850Y992850D02*
G54D22*
D03*
X3427850Y967450D02*
G54D22*
D03*
X3427850Y942050D02*
G54D22*
D03*
X3427850Y916650D02*
G54D22*
D03*
X3504050Y916650D02*
G54D22*
D03*
X3504050Y942050D02*
G54D22*
D03*
X3504050Y967450D02*
G54D22*
D03*
X3504050Y992850D02*
G54D22*
D03*
X3504050Y1018250D02*
G54D22*
D03*
X3504050Y1043650D02*
G54D22*
D03*
X3504050Y1069050D02*
G54D22*
D03*
X3504050Y1094450D02*
G54D22*
D03*
G36*
X3308450Y1100450D02*
X3308450Y1086450D01*
X3294450Y1086450D01*
X3294450Y1100450D01*
X3308450Y1100450D01*
G37*
X3301450Y1068050D02*
G54D22*
D03*
X3301450Y1042650D02*
G54D22*
D03*
X3301450Y1017250D02*
G54D22*
D03*
X3301450Y991850D02*
G54D22*
D03*
X3301450Y966450D02*
G54D22*
D03*
X3301450Y941050D02*
G54D22*
D03*
X3377650Y941050D02*
G54D22*
D03*
X3377650Y966450D02*
G54D22*
D03*
X3377650Y991850D02*
G54D22*
D03*
X3377650Y1017250D02*
G54D22*
D03*
X3377650Y1042650D02*
G54D22*
D03*
X3377650Y1068050D02*
G54D22*
D03*
X3377650Y1093450D02*
G54D22*
D03*
G36*
X3180700Y1100300D02*
X3180700Y1086300D01*
X3166700Y1086300D01*
X3166700Y1100300D01*
X3180700Y1100300D01*
G37*
X3173700Y1067900D02*
G54D22*
D03*
X3173700Y1042500D02*
G54D22*
D03*
X3173700Y1017100D02*
G54D22*
D03*
X3173700Y991700D02*
G54D22*
D03*
X3173700Y966300D02*
G54D22*
D03*
X3173700Y940900D02*
G54D22*
D03*
X3249900Y940900D02*
G54D22*
D03*
X3249900Y966300D02*
G54D22*
D03*
X3249900Y991700D02*
G54D22*
D03*
X3249900Y1017100D02*
G54D22*
D03*
X3249900Y1042500D02*
G54D22*
D03*
X3249900Y1067900D02*
G54D22*
D03*
X3249900Y1093300D02*
G54D22*
D03*
X3124050Y1062350D02*
G54D10*
D03*
X3124050Y935350D02*
G54D10*
D03*
X3327000Y1137229D02*
G54D10*
D03*
X3200000Y1137229D02*
G54D10*
D03*
X3097550Y1113350D02*
G54D10*
D03*
X2970550Y1113350D02*
G54D10*
D03*
X3097550Y1087150D02*
G54D10*
D03*
X2970550Y1087150D02*
G54D10*
D03*
X2963950Y1246150D02*
G54D10*
D03*
X2963950Y1373150D02*
G54D10*
D03*
X2989450Y1246250D02*
G54D10*
D03*
X2989450Y1373250D02*
G54D10*
D03*
X3041250Y1245950D02*
G54D10*
D03*
X3041250Y1372950D02*
G54D10*
D03*
X3070950Y1246650D02*
G54D10*
D03*
X3070950Y1373650D02*
G54D10*
D03*
G36*
X2741143Y1827268D02*
X2771143Y1827268D01*
X2771143Y1767268D01*
X2741143Y1767268D01*
X2741143Y1827268D01*
G37*
G36*
X2131731Y1523593D02*
X2140506Y1532368D01*
X2152956Y1532368D01*
X2161731Y1523593D01*
X2161731Y1481143D01*
X2152956Y1472368D01*
X2140506Y1472368D01*
X2131731Y1481143D01*
X2131731Y1523593D01*
G37*
G36*
X2333468Y1970743D02*
X2333468Y1940743D01*
X2273468Y1940743D01*
X2273468Y1970743D01*
X2333468Y1970743D01*
G37*
G36*
X2625993Y1365480D02*
X2625993Y1335480D01*
X2565993Y1335480D01*
X2565993Y1365480D01*
X2625993Y1365480D01*
G37*
X2756050Y1507695D02*
G54D34*
D03*
X2146025Y1800832D02*
G54D34*
D03*
X2298337Y1349832D02*
G54D34*
D03*
X2592112Y1957995D02*
G54D34*
D03*
X2729693Y1436818D02*
G54D10*
D03*
X2730393Y1405618D02*
G54D10*
D03*
X2730393Y1381018D02*
G54D10*
D03*
X2170493Y1467618D02*
G54D10*
D03*
X3573115Y1692567D02*
G54D33*
D03*
X2786238Y1688871D02*
G54D33*
D03*
X2964915Y1652467D02*
G54D21*
D03*
X2990315Y1652467D02*
G54D21*
D03*
X3015715Y1652467D02*
G54D21*
D03*
X3041115Y1652467D02*
G54D21*
D03*
X3066515Y1652467D02*
G54D21*
D03*
X3091915Y1652467D02*
G54D21*
D03*
X3117315Y1652467D02*
G54D21*
D03*
X3142715Y1652467D02*
G54D21*
D03*
X3168115Y1652467D02*
G54D21*
D03*
X3193515Y1652467D02*
G54D21*
D03*
X3218915Y1652467D02*
G54D21*
D03*
X3244315Y1652467D02*
G54D21*
D03*
X3269715Y1652467D02*
G54D21*
D03*
X3295115Y1652467D02*
G54D21*
D03*
X3320515Y1652467D02*
G54D21*
D03*
X3345915Y1652467D02*
G54D21*
D03*
X3371315Y1652467D02*
G54D21*
D03*
X3396715Y1652467D02*
G54D21*
D03*
X3422115Y1652467D02*
G54D21*
D03*
X3447515Y1652467D02*
G54D21*
D03*
X2965615Y1602667D02*
G54D21*
D03*
X2991015Y1602667D02*
G54D21*
D03*
X3016415Y1602667D02*
G54D21*
D03*
X3041815Y1602667D02*
G54D21*
D03*
X3067215Y1602667D02*
G54D21*
D03*
X3092615Y1602667D02*
G54D21*
D03*
X3118015Y1602667D02*
G54D21*
D03*
X3143415Y1602667D02*
G54D21*
D03*
X3168815Y1602667D02*
G54D21*
D03*
X3194215Y1602667D02*
G54D21*
D03*
X3219615Y1602667D02*
G54D21*
D03*
X3245015Y1602667D02*
G54D21*
D03*
X3270415Y1602667D02*
G54D21*
D03*
X3295815Y1602667D02*
G54D21*
D03*
X3321215Y1602667D02*
G54D21*
D03*
X3346615Y1602667D02*
G54D21*
D03*
X3372015Y1602667D02*
G54D21*
D03*
X3397415Y1602667D02*
G54D21*
D03*
X3422815Y1602667D02*
G54D21*
D03*
X3448215Y1602667D02*
G54D21*
D03*
X2939515Y1652467D02*
G54D21*
D03*
X2914115Y1652467D02*
G54D21*
D03*
X2940215Y1602667D02*
G54D21*
D03*
X2914815Y1602667D02*
G54D21*
D03*
G36*
X3600412Y1917296D02*
X3584326Y1901209D01*
X3561500Y1901209D01*
X3545412Y1917296D01*
X3545412Y1940122D01*
X3561500Y1956209D01*
X3584326Y1956209D01*
X3600412Y1940122D01*
X3600412Y1917296D01*
G37*
G36*
X2813013Y1915709D02*
X2796926Y1899622D01*
X2774100Y1899622D01*
X2758013Y1915709D01*
X2758013Y1938535D01*
X2774100Y1954622D01*
X2796926Y1954622D01*
X2813013Y1938535D01*
X2813013Y1915709D01*
G37*
G54D35*
X1928600Y264000D02*
X1923800Y262000D01*
X1922200Y260000D01*
X1922200Y256000D01*
G54D35*
X1935000Y256000D02*
X1935000Y272000D01*
X1927000Y272000D01*
X1923800Y271000D01*
X1922200Y269000D01*
X1922200Y267000D01*
X1923800Y265000D01*
X1927000Y264000D01*
X1935000Y264000D01*
G54D35*
X1905400Y256000D02*
X1916600Y256000D01*
X1916600Y272000D01*
X1905400Y272000D01*
G54D35*
X1916600Y264000D02*
X1905400Y264000D01*
G54D35*
X1899800Y272000D02*
X1891800Y256000D01*
X1883800Y272000D01*
G54D35*
X1866360Y256000D02*
X1866360Y272000D01*
X1858360Y272000D01*
X1855160Y271000D01*
X1853560Y269000D01*
X1853560Y259000D01*
X1855160Y257000D01*
X1858360Y256000D01*
X1866360Y256000D01*
G54D35*
X1963300Y310900D02*
X1963300Y326900D01*
X1952100Y326900D01*
G54D35*
X1963300Y318900D02*
X1952100Y318900D01*
G54D35*
X1946500Y310900D02*
X1938500Y326900D01*
X1930500Y310900D01*
G54D35*
X1943300Y316900D02*
X1933700Y316900D01*
G54D35*
X1924900Y310900D02*
X1924900Y326900D01*
X1916900Y326900D01*
X1913700Y325900D01*
X1912100Y323900D01*
X1912100Y321900D01*
X1913700Y319900D01*
X1916900Y318900D01*
X1913700Y317900D01*
X1912100Y315900D01*
X1912100Y313900D01*
X1913700Y311900D01*
X1916900Y310900D01*
X1924900Y310900D01*
G54D35*
X1924900Y318900D02*
X1916900Y318900D01*
G54D35*
X1900580Y323900D02*
X1898980Y325900D01*
X1895780Y326900D01*
X1892580Y326900D01*
X1889380Y325900D01*
X1887780Y323900D01*
X1887780Y321900D01*
X1889380Y319900D01*
X1892580Y318900D01*
X1889380Y317900D01*
X1887780Y315900D01*
X1887780Y313900D01*
X1889380Y311900D01*
X1892580Y310900D01*
X1895780Y310900D01*
X1898980Y311900D01*
X1900580Y313900D01*
G54D35*
X1869380Y310900D02*
X1882180Y310900D01*
X1882180Y311900D01*
X1880580Y313900D01*
X1870980Y319900D01*
X1869380Y321900D01*
X1869380Y323900D01*
X1870980Y325900D01*
X1874180Y326900D01*
X1877380Y326900D01*
X1880580Y325900D01*
X1882180Y323900D01*
G54D35*
X1850980Y323900D02*
X1852580Y325900D01*
X1855780Y326900D01*
X1858980Y326900D01*
X1862180Y325900D01*
X1863780Y323900D01*
X1863780Y318900D01*
X1863780Y317900D01*
X1858980Y319900D01*
X1855780Y319900D01*
X1852580Y318900D01*
X1850980Y316900D01*
X1850980Y313900D01*
X1852580Y311900D01*
X1855780Y310900D01*
X1858980Y310900D01*
X1862180Y311900D01*
X1863780Y313900D01*
X1863780Y318900D01*
G54D35*
X1832580Y310900D02*
X1845380Y310900D01*
X1845380Y311900D01*
X1843780Y313900D01*
X1834180Y319900D01*
X1832580Y321900D01*
X1832580Y323900D01*
X1834180Y325900D01*
X1837380Y326900D01*
X1840580Y326900D01*
X1843780Y325900D01*
X1845380Y323900D01*
G54D35*
X1826980Y313900D02*
X1825380Y311900D01*
X1822180Y310900D01*
X1818980Y310900D01*
X1815780Y311900D01*
X1814180Y313900D01*
X1814180Y318900D01*
X1814180Y319900D01*
X1818980Y317900D01*
X1822180Y317900D01*
X1825380Y318900D01*
X1826980Y320900D01*
X1826980Y323900D01*
X1825380Y325900D01*
X1822180Y326900D01*
X1818980Y326900D01*
X1815780Y325900D01*
X1814180Y323900D01*
X1814180Y318900D01*
G54D35*
X1795780Y326900D02*
X1808580Y326900D01*
X1808580Y319900D01*
X1806980Y319900D01*
X1803780Y320900D01*
X1800580Y320900D01*
X1797380Y319900D01*
X1795780Y317900D01*
X1795780Y313900D01*
X1797380Y311900D01*
X1800580Y310900D01*
X1803780Y310900D01*
X1806980Y311900D01*
X1808580Y313900D01*
G54D15*
X3122250Y883750D02*
X3122250Y859050D01*
X3172742Y859120D01*
G54D15*
X3172550Y858350D02*
X3172750Y897250D01*
G54D15*
X696578Y1828622D02*
X670922Y1828622D01*
G54D16*
X3723381Y1660599D02*
X3723406Y1733419D01*
G54D14*
X3289050Y821050D02*
X3263650Y821050D01*
G54D15*
X2881350Y833050D02*
X2905512Y833050D01*
M02*
