; Drill file
; Format: 3.3 (000.000)
M48
METRIC
T01C0.6
T02C0.72
T03C1.0
T04C1.08
T05C1.2
T06C1.5
T07C1.6
T08C1.8
T09C2.0
T10C2.3
T11C3.5
%
G05
G90
T01
X214.670Y150.240
X259.600Y135.050
X275.610Y179.730
X278.550Y192.710
X230.350Y195.570
X357.290Y192.870
T02
X22.340Y43.520
X22.340Y46.060
X22.340Y48.600
X22.340Y51.140
X22.340Y53.680
X22.340Y56.220
X22.340Y58.760
X29.960Y58.760
X29.960Y56.220
X29.960Y53.680
X29.960Y51.140
X29.960Y48.600
X29.960Y46.060
X29.960Y43.520
X37.660Y43.540
X37.660Y46.080
X37.660Y48.620
X37.660Y51.160
X37.660Y53.700
X37.660Y56.240
X37.660Y58.780
X45.280Y58.780
X45.280Y56.240
X45.280Y53.700
X45.280Y51.160
X45.280Y48.620
X45.280Y46.080
X45.280Y43.540
X45.280Y41.000
X52.820Y40.980
X52.820Y43.520
X52.820Y46.060
X52.820Y48.600
X52.820Y51.140
X52.820Y53.680
X52.820Y56.220
X52.820Y58.760
X60.440Y58.760
X60.440Y56.220
X60.440Y53.680
X60.440Y51.140
X60.440Y48.600
X60.440Y46.060
X60.440Y43.520
X60.440Y40.980
X67.400Y40.940
X67.400Y43.480
X67.400Y46.020
X67.400Y48.560
X67.400Y51.100
X67.400Y53.640
X67.400Y56.180
X67.400Y58.720
X75.020Y58.720
X75.020Y56.180
X75.020Y53.640
X75.020Y51.100
X75.020Y48.560
X75.020Y46.020
X75.020Y43.480
X75.020Y40.940
X83.300Y40.980
X83.300Y43.520
X83.300Y46.060
X83.300Y48.600
X83.300Y51.140
X83.300Y53.680
X83.300Y56.220
X83.300Y58.760
X90.920Y58.760
X90.920Y56.220
X90.920Y53.680
X90.920Y51.140
X90.920Y48.600
X90.920Y46.060
X90.920Y43.520
X90.920Y40.980
X103.660Y40.980
X103.660Y43.520
X103.660Y46.060
X103.660Y48.600
X103.660Y51.140
X103.660Y53.680
X103.660Y56.220
X103.660Y58.760
X111.280Y58.760
X111.280Y56.220
X111.280Y53.680
X111.280Y51.140
X111.280Y48.600
X111.280Y46.060
X111.280Y43.520
X111.280Y40.980
X124.060Y40.870
X124.060Y43.410
X124.060Y45.950
X124.060Y48.490
X124.060Y51.030
X124.060Y53.570
X124.060Y56.110
X124.060Y58.650
X124.060Y61.190
X124.060Y63.730
X131.680Y63.730
X131.680Y61.190
X131.680Y58.650
X131.680Y56.110
X131.680Y53.570
X131.680Y51.030
X131.680Y48.490
X131.680Y45.950
X131.680Y43.410
X131.680Y40.870
X141.900Y40.980
X141.900Y43.520
X141.900Y46.060
X141.900Y48.600
X141.900Y51.140
X141.900Y53.680
X141.900Y56.220
X149.520Y56.220
X149.520Y53.680
X149.520Y51.140
X149.520Y48.600
X149.520Y46.060
X149.520Y43.520
X149.520Y40.980
X158.380Y40.920
X158.380Y43.460
X158.380Y46.000
X158.380Y48.540
X158.380Y51.080
X158.380Y53.620
X158.380Y56.160
X166.000Y56.160
X166.000Y53.620
X166.000Y51.080
X166.000Y48.540
X166.000Y46.000
X166.000Y43.460
X166.000Y40.920
X176.300Y77.700
X176.300Y80.240
X176.300Y82.780
X176.300Y85.320
X176.300Y87.860
X176.300Y90.400
X176.300Y92.940
X176.300Y95.480
X176.300Y98.020
X176.300Y100.560
X176.300Y103.100
X176.300Y105.640
X176.300Y108.180
X176.300Y110.720
X176.420Y120.860
X176.420Y123.400
X176.420Y125.940
X176.420Y128.480
X176.420Y131.020
X176.420Y133.560
X176.420Y136.100
X176.420Y138.640
X176.420Y141.180
X176.420Y143.720
X176.420Y146.260
X176.420Y148.800
X176.420Y151.340
X176.420Y153.880
X176.420Y156.420
X176.420Y158.960
X176.420Y161.500
X176.420Y164.040
X176.420Y166.580
X176.420Y169.120
X166.180Y169.160
X166.180Y166.620
X166.180Y164.080
X166.180Y161.540
X166.180Y159.000
X166.180Y156.460
X166.180Y153.920
X166.180Y151.380
X166.180Y148.840
X158.560Y148.840
X158.560Y151.380
X158.560Y153.920
X158.560Y156.460
X158.560Y159.000
X158.560Y161.540
X158.560Y164.080
X158.560Y166.620
X158.560Y169.160
X139.500Y169.200
X139.500Y166.660
X139.500Y164.120
X139.500Y161.580
X139.500Y159.040
X139.500Y156.500
X139.500Y153.960
X139.500Y151.420
X139.500Y148.880
X139.500Y146.340
X139.500Y143.800
X139.500Y141.260
X124.260Y141.260
X124.260Y143.800
X124.260Y146.340
X124.260Y148.880
X124.260Y151.420
X124.260Y153.960
X124.260Y156.500
X124.260Y159.040
X124.260Y161.580
X124.260Y164.120
X124.260Y166.660
X124.260Y169.200
X113.880Y169.220
X113.880Y166.680
X113.880Y164.140
X113.880Y161.600
X113.880Y159.060
X113.880Y156.520
X113.880Y153.980
X113.880Y151.440
X113.880Y148.900
X113.880Y146.360
X113.880Y143.820
X113.880Y141.280
X98.640Y141.280
X98.640Y143.820
X98.640Y146.360
X98.640Y148.900
X98.640Y151.440
X98.640Y153.980
X98.640Y156.520
X98.640Y159.060
X98.640Y161.600
X98.640Y164.140
X98.640Y166.680
X98.640Y169.220
X88.640Y169.100
X88.640Y166.560
X88.640Y164.020
X88.640Y161.480
X88.640Y158.940
X88.640Y156.400
X88.640Y153.860
X88.640Y151.320
X88.640Y148.780
X88.640Y146.240
X88.640Y143.700
X88.640Y141.160
X73.400Y141.160
X73.400Y143.700
X73.400Y146.240
X73.400Y148.780
X73.400Y151.320
X73.400Y153.860
X73.400Y156.400
X73.400Y158.940
X73.400Y161.480
X73.400Y164.020
X73.400Y166.560
X73.400Y169.100
X63.140Y169.040
X63.140Y166.500
X63.140Y163.960
X63.140Y161.420
X63.140Y158.880
X63.140Y156.340
X63.140Y153.800
X63.140Y151.260
X63.140Y148.720
X63.140Y146.180
X63.140Y143.640
X63.140Y141.100
X63.140Y138.560
X63.140Y136.020
X63.140Y133.480
X63.140Y130.940
X63.140Y128.400
X63.140Y125.860
X63.140Y123.320
X63.140Y120.780
X47.900Y120.780
X47.900Y123.320
X47.900Y125.860
X47.900Y128.400
X47.900Y130.940
X47.900Y133.480
X47.900Y136.020
X47.900Y138.560
X47.900Y141.100
X47.900Y143.640
X47.900Y146.180
X47.900Y148.720
X47.900Y151.260
X47.900Y153.800
X47.900Y156.340
X47.900Y158.880
X47.900Y161.420
X47.900Y163.960
X47.900Y166.500
X47.900Y169.040
X37.660Y169.040
X37.660Y166.500
X37.660Y163.960
X37.660Y161.420
X37.660Y158.880
X37.660Y156.340
X37.660Y153.800
X37.660Y151.260
X37.660Y148.720
X37.660Y146.180
X37.660Y143.640
X37.660Y141.100
X37.660Y138.560
X37.660Y136.020
X37.660Y133.480
X37.660Y130.940
X37.660Y128.400
X37.660Y125.860
X37.660Y123.320
X37.660Y120.780
X22.420Y120.780
X22.420Y123.320
X22.420Y125.860
X22.420Y128.400
X22.420Y130.940
X22.420Y133.480
X22.420Y136.020
X22.420Y138.560
X22.420Y141.100
X22.420Y143.640
X22.420Y146.180
X22.420Y148.720
X22.420Y151.260
X22.420Y153.800
X22.420Y156.340
X22.420Y158.880
X22.420Y161.420
X22.420Y163.960
X22.420Y166.500
X22.420Y169.040
X13.220Y169.020
X13.220Y171.560
X13.220Y166.480
X13.220Y163.940
X13.220Y161.400
X13.220Y158.860
X13.220Y156.320
X13.220Y153.780
X13.220Y151.240
X13.220Y148.700
X13.220Y146.160
X13.220Y143.620
X13.220Y141.080
X13.220Y138.540
X13.220Y136.000
X13.220Y133.460
X13.220Y130.920
X13.220Y128.380
X13.220Y125.840
X13.220Y123.300
X22.360Y95.500
X22.360Y92.960
X22.360Y90.420
X22.360Y87.880
X22.360Y85.340
X22.360Y82.800
X22.360Y80.260
X29.980Y80.260
X29.980Y82.800
X29.980Y85.340
X29.980Y87.880
X29.980Y90.420
X29.980Y92.960
X29.980Y95.500
X37.580Y95.520
X37.580Y98.060
X37.580Y92.980
X37.580Y90.440
X37.580Y87.900
X37.580Y85.360
X37.580Y82.820
X37.580Y80.280
X45.200Y80.280
X45.200Y82.820
X45.200Y85.360
X45.200Y87.900
X45.200Y90.440
X45.200Y92.980
X45.200Y95.520
X45.200Y98.060
X52.920Y98.120
X52.920Y95.580
X52.920Y93.040
X52.920Y90.500
X52.920Y87.960
X52.920Y85.420
X52.920Y82.880
X52.920Y80.340
X60.540Y80.340
X60.540Y82.880
X60.540Y85.420
X60.540Y87.960
X60.540Y90.500
X60.540Y93.040
X60.540Y95.580
X60.540Y98.120
X68.100Y98.140
X68.100Y95.600
X68.100Y93.060
X68.100Y90.520
X68.100Y87.980
X68.100Y85.440
X68.100Y82.900
X68.100Y80.360
X75.720Y80.360
X75.720Y82.900
X75.720Y85.440
X75.720Y87.980
X75.720Y90.520
X75.720Y93.060
X75.720Y95.600
X75.720Y98.140
X83.360Y98.100
X83.360Y95.560
X83.360Y93.020
X83.360Y90.480
X83.360Y87.940
X83.360Y85.400
X83.360Y82.860
X83.360Y80.320
X90.980Y80.320
X90.980Y82.860
X90.980Y85.400
X90.980Y87.940
X90.980Y90.480
X90.980Y93.020
X90.980Y95.560
X90.980Y98.100
X103.640Y98.060
X103.640Y95.520
X103.640Y92.980
X103.640Y90.440
X103.640Y87.900
X103.640Y85.360
X103.640Y82.820
X103.640Y80.280
X111.260Y80.280
X111.260Y82.820
X111.260Y85.360
X111.260Y87.900
X111.260Y90.440
X111.260Y92.980
X111.260Y95.520
X111.260Y98.060
X124.140Y98.040
X124.140Y100.580
X124.140Y95.500
X124.140Y92.960
X124.140Y90.420
X124.140Y87.880
X124.140Y85.340
X124.140Y82.800
X124.140Y80.260
X131.760Y80.260
X131.760Y82.800
X131.760Y85.340
X131.760Y87.880
X131.760Y90.420
X131.760Y92.960
X131.760Y95.500
X131.760Y98.040
X131.760Y100.580
X141.900Y98.040
X141.900Y95.500
X141.900Y92.960
X141.900Y90.420
X141.900Y87.880
X141.900Y85.340
X141.900Y82.800
X141.900Y80.260
X149.520Y80.260
X149.520Y82.800
X149.520Y85.340
X149.520Y87.880
X149.520Y90.420
X149.520Y92.960
X149.520Y95.500
X149.520Y98.040
X158.420Y95.440
X158.420Y92.900
X158.420Y90.360
X158.420Y87.820
X158.420Y85.280
X158.420Y82.740
X158.420Y80.200
X166.040Y80.200
X166.040Y82.740
X166.040Y85.280
X166.040Y87.820
X166.040Y90.360
X166.040Y92.900
X166.040Y95.440
X191.540Y95.480
X191.540Y92.940
X191.540Y90.400
X191.540Y87.860
X191.540Y85.320
X191.540Y82.780
X191.540Y80.240
X191.540Y77.700
X199.080Y77.700
X199.080Y80.240
X199.080Y82.780
X199.080Y85.320
X199.080Y87.860
X199.080Y90.400
X199.080Y92.940
X199.080Y95.480
X199.080Y98.020
X199.080Y100.560
X199.080Y103.100
X199.080Y105.640
X199.080Y108.180
X199.080Y110.720
X191.540Y110.720
X191.540Y108.180
X191.540Y105.640
X191.540Y103.100
X191.540Y100.560
X191.540Y98.020
X214.320Y98.020
X214.320Y95.480
X214.320Y92.940
X214.320Y90.400
X214.320Y87.860
X214.320Y85.320
X214.320Y82.780
X214.320Y80.240
X214.320Y77.700
X214.320Y100.560
X214.320Y103.100
X214.320Y105.640
X214.320Y108.180
X214.320Y110.720
X191.660Y120.860
X191.660Y123.400
X191.660Y125.940
X191.660Y128.480
X191.660Y131.020
X191.660Y133.560
X191.660Y136.100
X191.660Y138.640
X191.660Y141.180
X191.660Y143.720
X191.660Y146.260
X191.660Y148.800
X191.660Y151.340
X191.660Y153.880
X191.660Y156.420
X191.660Y158.960
X191.660Y161.500
X191.660Y164.040
X191.660Y166.580
X191.660Y169.120
X241.200Y100.540
X241.200Y98.000
X241.200Y95.460
X241.200Y92.920
X241.200Y90.380
X241.200Y87.840
X241.200Y85.300
X241.200Y82.760
X241.200Y80.220
X241.200Y77.680
X241.200Y75.140
X241.200Y72.600
X241.200Y70.060
X241.200Y67.520
X241.200Y64.980
X241.200Y62.440
X241.200Y59.900
X241.200Y57.360
X241.200Y54.820
X241.200Y52.280
X246.320Y38.200
X248.800Y38.200
X256.440Y52.280
X256.440Y54.820
X256.440Y57.360
X256.440Y59.900
X256.440Y62.440
X256.440Y64.980
X256.440Y67.520
X256.440Y70.060
X256.440Y72.600
X256.440Y75.140
X256.440Y77.680
X256.440Y80.220
X256.440Y82.760
X256.440Y85.300
X256.440Y87.840
X256.440Y90.380
X256.440Y92.920
X256.440Y95.460
X256.440Y98.000
X256.440Y100.540
X283.700Y143.900
X283.700Y146.380
X291.480Y160.270
X294.020Y160.270
X296.560Y160.270
X299.100Y160.270
X301.640Y160.270
X304.180Y160.270
X306.720Y160.270
X309.260Y160.270
X311.800Y160.270
X314.340Y160.270
X316.880Y160.270
X319.420Y160.270
X321.960Y160.270
X324.500Y160.270
X327.040Y160.270
X329.580Y160.270
X332.120Y160.270
X334.660Y160.270
X337.200Y160.270
X339.740Y160.270
X342.280Y160.270
X344.820Y160.270
X344.750Y165.250
X342.210Y165.250
X339.670Y165.250
X337.130Y165.250
X334.590Y165.250
X332.050Y165.250
X329.510Y165.250
X326.970Y165.250
X324.430Y165.250
X321.890Y165.250
X319.350Y165.250
X316.810Y165.250
X314.270Y165.250
X311.730Y165.250
X309.190Y165.250
X306.650Y165.250
X304.110Y165.250
X301.570Y165.250
X299.030Y165.250
X296.490Y165.250
X293.950Y165.250
X291.410Y165.250
X324.660Y152.180
X329.660Y152.180
X330.140Y109.340
X330.140Y106.800
X330.140Y104.260
X330.140Y101.720
X330.140Y99.180
X330.140Y96.640
X330.140Y94.100
X324.990Y94.090
X324.990Y96.630
X324.990Y99.170
X324.990Y101.710
X324.990Y104.250
X324.990Y106.790
X324.990Y109.330
X317.370Y109.330
X317.370Y106.790
X317.370Y104.250
X317.370Y101.710
X317.370Y99.170
X317.370Y96.630
X317.370Y94.090
X316.200Y82.100
X318.740Y82.100
X321.280Y82.100
X323.820Y82.100
X326.360Y82.100
X328.900Y82.100
X331.440Y82.100
X333.980Y82.100
X333.980Y74.480
X331.440Y74.480
X328.900Y74.480
X326.360Y74.480
X323.820Y74.480
X321.280Y74.480
X318.740Y74.480
X316.200Y74.480
X316.080Y70.710
X313.540Y70.710
X311.000Y70.710
X308.460Y70.710
X305.920Y70.710
X303.380Y70.710
X300.840Y70.710
X298.300Y70.710
X298.300Y63.090
X300.840Y63.090
X303.380Y63.090
X305.920Y63.090
X308.460Y63.090
X311.000Y63.090
X313.540Y63.090
X316.080Y63.090
X333.940Y59.880
X336.480Y59.880
X339.020Y59.880
X341.560Y59.880
X344.100Y59.880
X346.640Y59.880
X349.180Y59.880
X349.180Y52.260
X346.640Y52.260
X344.100Y52.260
X341.560Y52.260
X339.020Y52.260
X336.480Y52.260
X333.940Y52.260
X342.780Y91.660
X342.780Y94.200
X342.780Y96.740
X342.780Y99.280
X342.780Y101.820
X342.780Y104.360
X342.780Y106.900
X342.780Y109.440
X337.760Y109.340
X337.760Y106.800
X337.760Y104.260
X337.760Y101.720
X337.760Y99.180
X337.760Y96.640
X337.760Y94.100
X350.400Y94.200
X350.400Y91.660
X350.400Y96.740
X350.400Y99.280
X350.400Y101.820
X350.400Y104.360
X350.400Y106.900
X350.400Y109.440
X380.820Y49.780
X380.820Y47.240
X380.820Y44.700
X37.660Y41.000
T03
X15.960Y25.800
X17.260Y28.280
X19.700Y29.660
X18.490Y32.170
X22.180Y32.140
X22.360Y36.020
X19.760Y38.500
X17.140Y38.420
X14.600Y38.500
X12.180Y38.420
X14.620Y43.580
X17.220Y43.480
X18.630Y48.660
X18.530Y51.210
X18.540Y53.720
X18.650Y56.320
X18.510Y58.840
X21.060Y61.280
X17.120Y63.820
X18.520Y66.380
X18.460Y70.200
X22.340Y68.900
X22.360Y75.340
X18.520Y75.400
X18.540Y80.300
X18.720Y84.100
X18.540Y87.880
X18.500Y91.600
X18.540Y95.480
X18.580Y99.320
X21.160Y104.400
X19.760Y108.160
X17.240Y108.340
X18.590Y110.690
X22.410Y110.700
X22.440Y115.900
X18.560Y115.840
X19.210Y123.470
X17.010Y131.550
X16.360Y139.800
X5.910Y131.050
X5.860Y115.840
X5.940Y113.340
X16.680Y105.640
X5.880Y99.320
X5.840Y95.480
X5.800Y91.600
X5.840Y87.880
X6.020Y84.100
X5.840Y80.300
X5.820Y75.400
X5.580Y72.860
X5.700Y70.140
X5.820Y66.380
X5.810Y58.840
X5.950Y56.320
X5.840Y53.720
X5.830Y51.210
X5.930Y48.660
X27.520Y51.200
X33.800Y51.340
X33.800Y53.840
X31.840Y66.540
X32.560Y68.880
X30.000Y70.160
X29.340Y66.540
X36.360Y67.680
X35.100Y71.460
X35.060Y75.340
X37.620Y75.400
X42.740Y75.320
X45.240Y70.220
X50.980Y67.660
X49.100Y63.220
X50.320Y75.400
X52.960Y75.340
X63.040Y79.020
X65.660Y75.340
X68.400Y75.220
X72.560Y75.150
X81.100Y75.220
X83.320Y75.280
X87.740Y75.220
X96.020Y75.280
X96.090Y80.230
X96.090Y82.770
X96.090Y85.310
X96.090Y87.850
X96.090Y90.390
X96.090Y92.930
X96.090Y95.470
X96.090Y98.110
X99.480Y99.260
X97.360Y104.370
X94.530Y103.030
X85.980Y110.700
X85.880Y113.180
X79.610Y106.840
X75.820Y101.800
X68.150Y100.560
X70.000Y113.340
X73.180Y118.300
X77.040Y124.640
X82.240Y133.600
X80.980Y136.140
X77.720Y138.700
X73.240Y136.180
X66.850Y138.590
X65.620Y147.490
X65.780Y150.100
X66.890Y152.540
X65.630Y155.130
X71.380Y155.140
X75.980Y160.200
X68.120Y165.920
X69.660Y170.160
X68.160Y174.200
X64.940Y171.660
X58.060Y174.180
X56.050Y171.600
X57.960Y169.180
X52.970Y165.230
X50.980Y166.550
X50.430Y163.990
X54.800Y152.670
X54.190Y144.950
X54.160Y142.400
X54.780Y120.340
X54.780Y115.240
X57.940Y113.400
X60.660Y115.860
X64.320Y115.790
X47.960Y115.860
X47.840Y110.730
X49.080Y106.960
X49.010Y104.390
X47.830Y101.870
X49.020Y99.420
X35.060Y101.840
X35.140Y110.670
X32.630Y110.710
X35.140Y115.900
X40.230Y115.780
X42.680Y118.440
X30.080Y120.930
X27.520Y120.940
X33.220Y89.220
X33.780Y82.840
X27.440Y75.240
X47.760Y49.900
X54.750Y38.430
X52.820Y36.020
X50.320Y36.040
X57.320Y36.020
X65.520Y36.020
X68.080Y36.040
X73.160Y35.840
X78.320Y39.800
X80.820Y40.980
X80.780Y36.040
X83.280Y35.880
X88.540Y35.900
X95.980Y35.880
X96.130Y40.920
X96.130Y43.460
X96.130Y46.000
X96.130Y48.540
X96.130Y51.080
X96.130Y53.620
X96.130Y56.160
X96.140Y58.800
X101.840Y60.660
X101.800Y63.160
X111.380Y63.820
X111.300Y61.300
X118.280Y63.720
X115.060Y68.940
X112.580Y71.420
X116.400Y75.320
X124.020Y75.280
X128.420Y75.040
X132.970Y72.650
X135.440Y68.900
X135.460Y63.780
X136.760Y61.180
X139.860Y61.220
X134.180Y57.440
X137.960Y51.120
X135.460Y48.520
X135.480Y46.080
X135.400Y43.520
X137.980Y43.500
X139.260Y45.980
X137.960Y39.640
X134.240Y41.000
X136.820Y35.860
X140.540Y35.840
X146.880Y35.900
X153.240Y35.840
X155.760Y35.880
X158.390Y35.780
X163.460Y35.820
X167.330Y33.810
X171.090Y35.780
X171.080Y40.880
X168.540Y42.220
X168.540Y44.800
X170.980Y44.720
X169.820Y48.520
X172.300Y48.560
X172.350Y52.290
X171.120Y54.940
X169.880Y61.220
X172.280Y62.520
X173.680Y67.640
X176.140Y72.660
X171.160Y75.280
X167.240Y72.580
X168.500Y70.140
X167.220Y67.540
X164.680Y67.460
X158.360Y67.520
X155.900Y67.500
X155.820Y62.420
X151.940Y61.220
X149.480Y61.160
X149.460Y64.400
X146.900Y75.200
X141.800Y75.240
X136.720Y75.280
X138.780Y80.220
X138.040Y82.760
X134.840Y91.760
X137.440Y98.020
X139.360Y104.420
X139.420Y106.960
X141.840Y103.140
X144.360Y106.080
X147.640Y110.760
X145.680Y113.380
X145.720Y115.900
X145.690Y118.370
X141.960Y117.780
X137.740Y115.740
X132.960Y118.400
X126.620Y114.540
X128.580Y110.800
X132.900Y106.900
X120.200Y106.900
X115.360Y97.940
X117.940Y96.680
X120.290Y91.680
X120.840Y87.880
X115.160Y85.380
X108.080Y75.120
X103.700Y75.320
X98.840Y86.560
X108.800Y110.760
X103.760Y113.220
X106.280Y117.040
X103.040Y120.900
X100.560Y122.180
X97.400Y124.820
X94.920Y128.580
X98.620Y136.260
X106.380Y136.260
X111.320Y136.260
X119.020Y129.840
X116.380Y124.720
X111.480Y123.460
X118.980Y117.040
X124.080Y118.420
X135.620Y127.320
X138.040Y129.860
X140.640Y131.080
X143.160Y129.840
X147.920Y133.700
X145.680Y138.640
X153.400Y141.260
X155.780Y141.300
X157.060Y143.820
X158.460Y146.320
X149.520Y146.340
X150.860Y151.340
X147.040Y155.240
X146.960Y158.960
X149.420Y160.260
X142.570Y155.060
X143.270Y150.020
X131.180Y159.000
X134.300Y169.180
X135.540Y172.360
X135.640Y176.740
X133.120Y176.840
X133.060Y180.580
X125.500Y180.600
X122.940Y176.740
X120.360Y176.740
X126.600Y172.340
X120.970Y167.810
X121.540Y165.310
X116.560Y167.740
X117.140Y160.240
X120.330Y151.350
X124.140Y136.260
X128.920Y133.700
X136.840Y136.260
X152.720Y127.260
X155.300Y127.320
X158.500Y136.160
X163.640Y133.680
X171.200Y136.160
X171.300Y139.960
X172.450Y129.810
X173.740Y124.780
X173.780Y122.200
X169.920Y119.700
X170.040Y117.100
X170.040Y114.600
X172.420Y110.820
X172.450Y106.880
X169.900Y101.840
X166.130Y105.570
X166.760Y109.480
X162.900Y110.760
X163.500Y114.600
X161.020Y117.120
X158.420Y115.900
X158.390Y118.370
X158.380Y113.380
X152.710Y110.070
X150.840Y108.800
X150.820Y104.460
X155.840Y100.560
X155.860Y98.080
X158.260Y98.040
X152.580Y95.480
X153.680Y87.890
X154.760Y85.400
X154.780Y82.800
X152.400Y84.100
X154.500Y75.240
X158.460Y75.280
X162.870Y75.190
X169.820Y80.280
X170.760Y84.140
X173.340Y82.740
X173.280Y87.900
X168.580Y90.380
X171.140Y93.000
X169.240Y94.280
X171.200Y95.480
X179.440Y90.480
X182.580Y91.660
X182.620Y94.220
X182.560Y99.320
X181.360Y101.900
X181.360Y104.420
X184.020Y104.440
X183.840Y108.200
X187.420Y113.260
X192.800Y115.820
X197.920Y113.870
X204.170Y113.900
X204.280Y110.740
X206.000Y105.640
X206.780Y103.060
X204.840Y101.800
X202.960Y99.880
X203.040Y97.420
X202.620Y103.740
X195.960Y100.600
X195.980Y95.500
X195.300Y90.320
X194.640Y87.800
X188.940Y92.890
X188.980Y95.520
X189.060Y98.040
X181.260Y82.720
X181.260Y80.200
X183.260Y76.480
X188.840Y72.660
X192.140Y68.840
X194.700Y71.440
X194.700Y73.920
X197.800Y71.260
X200.740Y71.260
X199.300Y73.860
X204.100Y73.900
X206.680Y69.920
X213.440Y71.260
X217.340Y68.920
X219.440Y68.200
X222.020Y70.100
X222.700Y66.280
X216.220Y62.480
X212.560Y59.820
X208.620Y59.760
X205.940Y59.680
X203.420Y59.680
X201.000Y59.680
X197.100Y59.720
X194.560Y53.640
X197.100Y47.020
X201.000Y46.980
X203.420Y46.980
X205.940Y46.980
X208.620Y47.060
X212.560Y47.120
X216.960Y47.410
X220.780Y43.400
X219.440Y40.940
X219.500Y38.360
X223.820Y38.260
X228.840Y38.300
X233.420Y38.310
X237.210Y38.320
X234.640Y45.840
X233.500Y48.540
X233.420Y51.080
X233.440Y52.930
X233.420Y54.810
X233.380Y56.740
X233.340Y58.650
X231.420Y59.820
X233.380Y61.240
X233.360Y63.740
X233.380Y66.310
X231.500Y67.540
X233.420Y68.880
X233.420Y71.400
X233.380Y73.900
X233.420Y75.800
X233.400Y77.700
X233.380Y79.680
X233.360Y81.540
X233.400Y83.320
X233.420Y85.360
X233.300Y87.960
X233.400Y89.800
X233.300Y91.680
X233.420Y95.560
X233.360Y98.040
X233.440Y100.580
X233.440Y103.120
X233.480Y105.000
X233.480Y106.900
X233.440Y108.780
X233.500Y110.780
X233.420Y112.640
X233.420Y114.560
X235.600Y118.560
X238.600Y112.620
X238.600Y110.640
X238.500Y108.760
X238.560Y106.880
X238.500Y104.940
X238.560Y103.020
X242.320Y106.240
X242.360Y108.180
X246.760Y104.220
X253.240Y103.020
X254.400Y104.940
X256.360Y103.100
X256.320Y108.280
X260.300Y113.260
X260.200Y115.880
X262.760Y119.360
X263.380Y124.760
X261.460Y124.680
X259.540Y124.680
X257.660Y124.680
X255.760Y124.720
X253.860Y124.720
X251.960Y124.720
X249.380Y124.720
X247.500Y124.720
X245.600Y124.680
X243.700Y124.720
X247.500Y115.880
X247.600Y113.260
X251.880Y96.740
X251.860Y85.280
X251.920Y82.740
X251.880Y80.200
X250.080Y78.020
X245.520Y77.660
X245.520Y74.460
X238.540Y71.340
X238.540Y68.800
X238.520Y66.260
X238.420Y63.820
X238.540Y61.180
X238.520Y58.780
X238.510Y56.240
X238.480Y53.520
X238.460Y51.000
X241.040Y48.440
X246.120Y50.980
X246.720Y54.860
X246.140Y59.920
X260.600Y61.300
X260.780Y64.980
X260.840Y68.860
X260.880Y72.560
X267.760Y77.660
X273.580Y72.560
X273.540Y68.860
X277.360Y69.360
X277.360Y66.940
X273.480Y64.980
X273.300Y61.300
X276.700Y61.140
X276.630Y58.750
X276.700Y56.140
X276.740Y53.520
X274.060Y45.300
X265.780Y45.400
X263.260Y45.400
X260.700Y45.440
X263.400Y48.480
X261.400Y51.020
X262.720Y53.540
X262.600Y56.120
X265.120Y54.990
X280.480Y63.660
X283.020Y63.660
X285.560Y63.660
X289.400Y61.140
X289.330Y58.750
X289.400Y56.140
X289.440Y53.520
X292.460Y48.400
X296.920Y53.730
X296.940Y56.250
X296.940Y58.800
X304.680Y60.640
X309.640Y58.800
X309.640Y56.250
X309.620Y53.730
X313.420Y52.960
X314.920Y55.580
X317.380Y60.640
X320.040Y64.420
X327.620Y55.580
X326.120Y52.960
X332.740Y64.420
X335.180Y63.000
X338.420Y65.580
X342.160Y69.980
X344.700Y69.980
X347.240Y69.980
X351.120Y65.580
X347.880Y63.000
X359.340Y60.980
X361.780Y60.840
X367.540Y63.060
X367.550Y66.800
X379.100Y68.800
X380.250Y66.800
X380.240Y63.060
X370.800Y52.260
X367.560Y52.340
X368.280Y46.060
X367.760Y39.720
X370.840Y39.740
X379.780Y39.660
X370.200Y25.680
X357.500Y25.680
X351.080Y38.350
X352.340Y44.760
X351.160Y51.020
X352.240Y74.530
X350.370Y76.980
X350.460Y79.720
X350.440Y82.080
X349.040Y86.480
X347.880Y89.860
X345.350Y85.860
X337.740Y82.080
X337.760Y79.720
X337.670Y76.980
X337.130Y74.530
X335.180Y78.230
X332.550Y70.900
X332.650Y85.860
X329.960Y85.840
X328.160Y89.760
X333.340Y89.680
X322.500Y89.700
X317.260Y85.840
X312.220Y85.900
X312.220Y88.380
X312.380Y90.980
X312.400Y93.540
X312.380Y83.360
X312.280Y80.840
X312.320Y73.260
X299.620Y73.260
X297.020Y73.320
X289.900Y73.820
X289.360Y77.660
X286.820Y77.660
X284.280Y77.660
X280.460Y77.660
X277.200Y73.820
X275.640Y80.940
X275.440Y83.300
X277.880Y85.380
X277.940Y87.900
X277.940Y90.380
X277.980Y92.900
X277.840Y95.480
X277.880Y97.900
X282.400Y95.380
X282.400Y92.840
X282.400Y90.300
X286.840Y86.020
X288.140Y83.300
X288.340Y80.940
X299.580Y80.840
X299.680Y83.360
X299.520Y85.860
X299.560Y88.380
X299.680Y90.980
X300.720Y95.960
X300.680Y101.140
X296.960Y106.100
X297.060Y108.720
X297.060Y111.340
X299.040Y113.840
X299.040Y116.320
X302.160Y115.460
X309.760Y111.340
X309.760Y108.720
X309.800Y106.340
X312.400Y106.240
X317.400Y115.460
X320.000Y113.720
X326.740Y122.440
X332.700Y113.720
X336.560Y113.820
X351.800Y113.820
X356.860Y117.000
X360.660Y117.000
X360.660Y114.480
X360.700Y119.560
X360.080Y124.660
X360.080Y129.740
X352.460Y129.740
X349.160Y130.920
X352.460Y124.660
X367.600Y141.520
X359.780Y157.700
X357.240Y157.700
X360.480Y162.120
X363.120Y165.960
X365.660Y165.960
X369.600Y174.940
X369.600Y177.480
X369.660Y180.520
X369.660Y183.060
X365.100Y182.380
X365.100Y179.860
X363.880Y177.220
X366.420Y177.220
X360.800Y177.480
X360.800Y174.940
X365.140Y187.320
X365.160Y189.960
X344.720Y169.620
X347.300Y166.480
X349.340Y165.280
X346.780Y162.060
X351.180Y161.500
X347.870Y156.960
X347.970Y154.990
X346.050Y155.030
X347.260Y152.680
X334.560Y152.680
X322.440Y146.840
X319.340Y150.000
X316.800Y150.000
X314.260Y150.000
X311.720Y150.000
X309.180Y150.000
X306.640Y150.000
X304.100Y150.000
X301.560Y150.000
X299.020Y150.000
X296.480Y150.000
X300.240Y146.230
X303.460Y144.340
X304.700Y146.880
X307.860Y146.920
X307.660Y142.500
X307.100Y137.360
X304.120Y137.300
X301.540Y137.400
X298.940Y137.320
X296.400Y137.320
X292.020Y137.460
X289.480Y137.460
X286.940Y137.460
X286.880Y142.520
X287.540Y146.230
X292.040Y146.760
X299.580Y142.520
X310.340Y137.380
X310.480Y130.880
X307.100Y124.660
X304.120Y124.600
X301.540Y124.700
X298.940Y124.620
X296.400Y124.620
X291.280Y124.680
X288.740Y124.680
X286.200Y124.680
X283.140Y124.640
X280.620Y124.710
X280.580Y127.840
X286.800Y128.480
X286.980Y131.160
X289.520Y131.160
X292.060Y131.160
X296.480Y131.000
X281.200Y139.840
X278.700Y134.840
X273.040Y138.100
X273.040Y140.560
X272.970Y143.680
X273.000Y146.220
X270.400Y144.960
X270.400Y131.620
X272.980Y131.660
X272.880Y125.380
X274.840Y124.040
X272.980Y122.160
X267.920Y124.710
X267.880Y127.840
X264.760Y128.520
X262.280Y128.520
X256.980Y137.980
X252.600Y137.940
X244.920Y137.980
X237.320Y137.980
X236.780Y134.520
X227.820Y129.760
X225.250Y130.450
X224.620Y126.020
X227.120Y126.020
X223.320Y120.840
X219.440Y120.920
X215.680Y117.810
X217.000Y115.140
X219.480Y115.840
X214.360Y113.280
X219.440Y108.220
X219.520Y105.660
X223.260Y105.740
X223.320Y108.140
X225.100Y101.180
X225.140Y98.140
X227.700Y98.080
X228.220Y95.520
X226.440Y92.340
X228.880Y91.720
X229.600Y87.820
X230.220Y85.360
X227.020Y81.480
X226.440Y76.380
X223.180Y76.540
X219.390Y76.480
X230.380Y72.640
X231.520Y75.120
X238.520Y83.380
X245.540Y82.740
X238.520Y91.020
X223.260Y93.040
X219.520Y92.960
X219.390Y89.180
X223.180Y89.240
X220.740Y58.620
X213.730Y56.040
X223.870Y49.740
X223.870Y47.200
X223.870Y44.660
X229.060Y48.560
X228.340Y50.940
X230.240Y51.230
X230.300Y45.980
X228.840Y25.600
X233.420Y25.610
X237.210Y25.620
X248.660Y25.600
X253.120Y25.660
X258.850Y26.250
X253.120Y38.360
X222.690Y25.650
X220.200Y25.650
X213.650Y25.620
X211.160Y25.620
X206.040Y25.600
X195.940Y25.620
X185.100Y35.860
X185.000Y38.460
X183.780Y40.780
X180.000Y40.940
X177.400Y40.960
X176.680Y45.980
X181.190Y45.990
X183.760Y48.540
X185.070Y52.400
X185.220Y54.900
X181.300Y57.430
X182.540Y59.920
X188.220Y61.200
X191.320Y64.360
X180.000Y53.640
X177.400Y53.660
X188.860Y47.260
X181.260Y34.580
X174.300Y25.600
X160.880Y25.620
X153.940Y38.380
X153.240Y43.420
X154.480Y46.040
X152.380Y48.560
X153.940Y51.080
X144.420Y25.700
X126.560Y25.780
X124.120Y35.860
X120.260Y37.140
X121.360Y40.940
X121.420Y46.000
X120.130Y54.900
X120.200Y57.440
X116.400Y35.920
X108.760Y35.960
X103.700Y35.920
X106.200Y25.720
X88.460Y25.780
X72.560Y25.760
X57.880Y25.840
X42.640Y25.840
X42.600Y36.020
X37.620Y36.040
X35.060Y36.020
X27.360Y35.960
X24.760Y25.840
X22.320Y25.780
X64.080Y57.540
X64.280Y63.940
X61.700Y67.640
X76.980Y63.940
X80.200Y56.180
X80.220Y51.180
X129.040Y35.860
X160.960Y106.280
X150.800Y115.180
X180.100Y115.820
X180.180Y120.880
X183.820Y123.460
X178.880Y127.300
X187.080Y131.120
X187.120Y133.600
X197.920Y126.570
X198.570Y123.470
X204.170Y126.600
X206.100Y123.360
X206.800Y120.860
X204.780Y120.840
X206.840Y118.280
X217.620Y125.960
X220.120Y125.960
X215.640Y134.720
X207.410Y141.220
X206.760Y143.780
X206.160Y146.320
X206.080Y148.800
X205.540Y151.120
X204.960Y153.880
X204.240Y156.480
X203.640Y159.000
X203.520Y161.460
X203.600Y163.440
X203.640Y165.300
X203.620Y167.200
X208.060Y162.720
X208.000Y160.160
X210.720Y158.300
X217.050Y146.760
X199.740Y139.880
X197.940Y145.040
X197.880Y147.560
X197.940Y150.140
X197.850Y152.610
X196.700Y155.160
X196.520Y157.630
X195.910Y160.170
X195.270Y162.760
X194.220Y167.880
X188.320Y167.750
X188.420Y165.340
X183.940Y165.360
X181.370Y163.990
X180.120Y161.540
X185.160Y161.440
X179.520Y166.640
X178.880Y169.090
X182.160Y170.440
X183.900Y169.200
X183.980Y172.240
X187.880Y178.020
X190.420Y178.020
X198.000Y176.780
X204.380Y176.680
X208.120Y177.960
X208.220Y182.500
X172.520Y180.560
X172.490Y174.150
X169.920Y171.660
X172.460Y170.500
X172.570Y166.570
X172.560Y164.120
X172.480Y161.540
X169.960Y162.820
X171.160Y159.040
X168.680Y153.940
X169.660Y150.140
X179.540Y153.800
X201.720Y133.560
X153.320Y169.200
X149.780Y176.760
X145.760Y180.580
X128.560Y187.560
X124.280Y187.560
X119.990Y187.560
X116.020Y187.560
X112.210Y187.560
X108.400Y187.560
X108.960Y180.360
X107.660Y176.740
X104.640Y176.700
X104.520Y180.600
X100.200Y174.200
X106.480Y172.280
X112.800Y180.600
X116.080Y183.620
X96.260Y180.360
X78.420Y176.780
X76.060Y172.920
X69.660Y182.860
X65.240Y180.520
X62.600Y180.520
X60.060Y180.520
X57.520Y180.520
X54.980Y180.520
X52.440Y180.520
X49.900Y180.520
X47.360Y180.520
X40.160Y181.720
X38.440Y180.540
X36.480Y181.860
X31.420Y181.720
X31.280Y177.820
X29.500Y172.850
X26.980Y170.320
X22.540Y175.380
X32.690Y162.730
X11.140Y162.780
X56.900Y178.020
X83.560Y151.360
X83.470Y148.760
X91.160Y155.160
X101.240Y155.160
X88.580Y138.660
X85.940Y136.180
X98.990Y115.820
X265.180Y100.500
X265.180Y97.900
X265.140Y95.480
X265.280Y92.900
X265.240Y90.380
X265.240Y87.900
X265.180Y85.380
X267.860Y100.480
X271.640Y100.520
X275.540Y103.180
X286.840Y101.220
X286.840Y98.720
X286.840Y113.920
X283.200Y113.780
X280.700Y113.780
X275.540Y115.880
X271.640Y115.760
X267.860Y115.720
X267.980Y111.940
X283.480Y153.220
X283.240Y168.480
X281.300Y168.360
X280.680Y176.640
X270.560Y190.740
X328.380Y175.460
X332.740Y175.920
X339.740Y175.440
X339.780Y170.980
X337.720Y168.940
X318.000Y152.530
X319.360Y134.940
X375.720Y162.120
X380.380Y104.940
X380.380Y96.880
X361.920Y81.400
X359.400Y81.460
X309.000Y48.400
X311.670Y38.380
X314.310Y38.350
X316.760Y38.310
X316.760Y25.610
X314.310Y25.650
X311.670Y25.680
X302.640Y26.340
X292.540Y26.320
X290.060Y66.940
X290.060Y69.360
T04
X370.080Y94.320
X370.080Y97.380
X370.080Y100.320
X370.080Y103.510
X370.080Y106.360
X373.340Y104.630
X373.340Y101.860
X373.340Y99.090
X373.340Y96.110
X370.180Y126.020
X370.180Y129.080
X370.180Y132.020
X370.180Y135.210
X370.180Y138.060
X373.440Y136.330
X373.440Y133.560
X373.440Y130.790
X373.440Y127.810
T05
X271.600Y38.280
X309.160Y38.280
X319.200Y38.380
X357.520Y38.360
T06
X267.600Y53.560
X270.130Y56.080
X272.750Y53.710
X321.340Y59.060
X323.960Y56.700
X326.480Y59.220
T07
X159.720Y183.130
X157.280Y185.490
X164.900Y185.660
X164.810Y180.630
X169.860Y183.120
X172.380Y185.650
X169.860Y195.660
X159.690Y195.570
X187.360Y185.660
X189.650Y183.050
X194.750Y185.620
X199.710Y183.040
X202.170Y185.530
X199.680Y195.530
X189.670Y195.460
X372.490Y180.600
X375.030Y178.220
X377.730Y180.360
X377.730Y173.300
X372.490Y173.300
X375.110Y168.300
X372.650Y166.150
X377.890Y166.230
X387.650Y168.300
X387.730Y178.380
T08
X229.830Y134.980
X214.600Y180.080
X259.210Y195.800
X275.600Y150.770
T09
X278.620Y168.890
X311.580Y143.720
X319.280Y143.720
X339.290Y143.640
X346.990Y143.640
X363.460Y152.780
X367.320Y152.720
X371.200Y152.720
X371.160Y157.800
X367.300Y157.840
X363.500Y157.780
X357.310Y169.260
X383.900Y157.800
X383.840Y152.700
T10
X236.060Y81.000
X273.990Y48.580
X293.090Y83.320
X274.180Y119.590
X318.050Y119.440
X356.820Y87.500
X317.990Y48.590
T11
X8.380Y27.820
X8.300Y180.320
X89.020Y180.040
X180.920Y180.000
X374.190Y191.400
X382.720Y191.240
X380.220Y144.520
X379.220Y131.980
X380.200Y119.350
X380.110Y112.820
X379.120Y100.290
X380.100Y87.650
X385.200Y79.050
X382.000Y27.540
M30
